M48
; DRILL file {KiCad (6.0.8)} date Fri Oct 28 18:58:49 2022
; FORMAT={-:-/ absolute / inch / decimal}
; #@! TF.CreationDate,2022-10-28T18:58:49+02:00
; #@! TF.GenerationSoftware,Kicad,Pcbnew,(6.0.8)
; #@! TF.FileFunction,Plated,1,2,PTH
FMAT,2
INCH
; #@! TA.AperFunction,Plated,PTH,ViaDrill
T1C0.0157
; #@! TA.AperFunction,Plated,PTH,ComponentDrill
T2C0.0276
; #@! TA.AperFunction,Plated,PTH,ComponentDrill
T3C0.0315
; #@! TA.AperFunction,Plated,PTH,ComponentDrill
T4C0.0394
; #@! TA.AperFunction,Plated,PTH,ComponentDrill
T5C0.0402
; #@! TA.AperFunction,Plated,PTH,ComponentDrill
T6C0.0630
%
G90
G05
T1
X5.28Y-5.04
T2
X4.68Y-4.72
X4.88Y-4.72
T3
X4.755Y-3.285
X4.755Y-3.385
X4.755Y-3.485
X4.755Y-3.585
X6.51Y-3.685
X6.51Y-3.785
X6.51Y-3.885
X6.51Y-3.985
X6.51Y-4.085
X6.51Y-4.185
X6.51Y-4.285
X6.51Y-4.385
X6.81Y-3.685
X6.81Y-3.785
X6.81Y-3.885
X6.81Y-3.985
X6.81Y-4.085
X6.81Y-4.185
X6.81Y-4.285
X6.81Y-4.385
T4
X5.26Y-3.385
X5.26Y-3.485
X5.26Y-3.585
X5.26Y-3.685
X5.26Y-3.785
X5.26Y-3.885
X5.26Y-3.985
X5.26Y-4.085
X6.16Y-3.385
X6.16Y-3.485
X6.16Y-3.585
X6.16Y-3.685
X6.16Y-3.785
X6.16Y-3.885
X6.16Y-3.985
X6.16Y-4.085
T5
X4.78Y-3.82
X4.78Y-3.92
X4.78Y-4.02
X4.78Y-4.265
X4.78Y-4.365
X4.78Y-4.465
T6
X5.68Y-4.875
X5.98Y-4.875
T0
M30
