G04 #@! TF.GenerationSoftware,KiCad,Pcbnew,(6.0.8)*
G04 #@! TF.CreationDate,2022-10-28T18:58:47+02:00*
G04 #@! TF.ProjectId,gardenWemos,67617264-656e-4576-956d-6f732e6b6963,rev?*
G04 #@! TF.SameCoordinates,Original*
G04 #@! TF.FileFunction,Copper,L2,Bot*
G04 #@! TF.FilePolarity,Positive*
%FSLAX46Y46*%
G04 Gerber Fmt 4.6, Leading zero omitted, Abs format (unit mm)*
G04 Created by KiCad (PCBNEW (6.0.8)) date 2022-10-28 18:58:47*
%MOMM*%
%LPD*%
G01*
G04 APERTURE LIST*
G04 #@! TA.AperFunction,Profile*
%ADD10C,0.050000*%
G04 #@! TD*
G04 #@! TA.AperFunction,ComponentPad*
%ADD11R,2.030000X1.730000*%
G04 #@! TD*
G04 #@! TA.AperFunction,ComponentPad*
%ADD12O,2.030000X1.730000*%
G04 #@! TD*
G04 #@! TA.AperFunction,ComponentPad*
%ADD13R,1.500000X1.500000*%
G04 #@! TD*
G04 #@! TA.AperFunction,ComponentPad*
%ADD14C,1.500000*%
G04 #@! TD*
G04 #@! TA.AperFunction,ComponentPad*
%ADD15R,2.540000X2.540000*%
G04 #@! TD*
G04 #@! TA.AperFunction,ComponentPad*
%ADD16C,2.540000*%
G04 #@! TD*
G04 #@! TA.AperFunction,ComponentPad*
%ADD17O,1.400000X1.400000*%
G04 #@! TD*
G04 #@! TA.AperFunction,ComponentPad*
%ADD18C,1.400000*%
G04 #@! TD*
G04 #@! TA.AperFunction,ComponentPad*
%ADD19O,2.000000X1.600000*%
G04 #@! TD*
G04 #@! TA.AperFunction,ComponentPad*
%ADD20R,2.000000X2.000000*%
G04 #@! TD*
G04 #@! TA.AperFunction,ComponentPad*
%ADD21R,2.400000X1.600000*%
G04 #@! TD*
G04 #@! TA.AperFunction,ComponentPad*
%ADD22O,2.400000X1.600000*%
G04 #@! TD*
G04 #@! TA.AperFunction,ViaPad*
%ADD23C,0.800000*%
G04 #@! TD*
G04 #@! TA.AperFunction,Conductor*
%ADD24C,1.016000*%
G04 #@! TD*
G04 APERTURE END LIST*
D10*
X174752000Y-132588000D02*
G75*
G03*
X177292000Y-130048000I0J2540000D01*
G01*
X116332000Y-130048000D02*
G75*
G03*
X118872000Y-132588000I2540000J0D01*
G01*
X118872000Y-71628000D02*
G75*
G03*
X116332000Y-74168000I0J-2540000D01*
G01*
X177292000Y-74168000D02*
G75*
G03*
X174752000Y-71628000I-2540000J0D01*
G01*
X118872000Y-71628000D02*
X174752000Y-71628000D01*
X116332000Y-130048000D02*
X116332000Y-74168000D01*
X118872000Y-132588000D02*
X174752000Y-132588000D01*
X177292000Y-74168000D02*
X177292000Y-130048000D01*
D11*
X121412000Y-97028000D03*
D12*
X121412000Y-99568000D03*
X121412000Y-102108000D03*
D13*
X120777000Y-91059000D03*
D14*
X120777000Y-88519000D03*
X120777000Y-85979000D03*
X120777000Y-83439000D03*
D15*
X144272000Y-123825000D03*
D16*
X151892000Y-123825000D03*
D17*
X123952000Y-119888000D03*
D18*
X118872000Y-119888000D03*
D19*
X133604000Y-88519000D03*
D20*
X133604000Y-85979000D03*
D19*
X133604000Y-91059000D03*
X133604000Y-93599000D03*
X133604000Y-96139000D03*
X133604000Y-98679000D03*
X133604000Y-101219000D03*
X133604000Y-103759000D03*
X156464000Y-103759000D03*
X156464000Y-101219000D03*
X156464000Y-98679000D03*
X156464000Y-96139000D03*
X156464000Y-93599000D03*
X156464000Y-91059000D03*
X156464000Y-88519000D03*
X156464000Y-85979000D03*
D21*
X172974000Y-111379000D03*
D22*
X165354000Y-93599000D03*
X172974000Y-108839000D03*
X165354000Y-96139000D03*
X172974000Y-106299000D03*
X165354000Y-98679000D03*
X172974000Y-103759000D03*
X165354000Y-101219000D03*
X172974000Y-101219000D03*
X165354000Y-103759000D03*
X172974000Y-98679000D03*
X165354000Y-106299000D03*
X172974000Y-96139000D03*
X165354000Y-108839000D03*
X172974000Y-93599000D03*
X165354000Y-111379000D03*
D12*
X121412000Y-113411000D03*
X121412000Y-110871000D03*
D11*
X121412000Y-108331000D03*
D23*
X134112000Y-128016000D03*
D24*
X135128000Y-129032000D02*
X134112000Y-128016000D01*
X145288000Y-129032000D02*
X135128000Y-129032000D01*
X147828000Y-126492000D02*
X145288000Y-129032000D01*
X147828000Y-92456000D02*
X147828000Y-126492000D01*
X156464000Y-88519000D02*
X151765000Y-88519000D01*
X151765000Y-88519000D02*
X147828000Y-92456000D01*
X123952000Y-122428000D02*
X123952000Y-119888000D01*
X162433000Y-108839000D02*
X160528000Y-110744000D01*
X165354000Y-108839000D02*
X162433000Y-108839000D01*
X160528000Y-110744000D02*
X160528000Y-121412000D01*
X160528000Y-121412000D02*
X151384000Y-130556000D01*
X151384000Y-130556000D02*
X132080000Y-130556000D01*
X132080000Y-130556000D02*
X123952000Y-122428000D01*
X123571000Y-88519000D02*
X120777000Y-88519000D01*
X133604000Y-91059000D02*
X126111000Y-91059000D01*
X126111000Y-91059000D02*
X123571000Y-88519000D01*
X170307000Y-106299000D02*
X172974000Y-106299000D01*
X169164000Y-105156000D02*
X170307000Y-106299000D01*
X169164000Y-91440000D02*
X169164000Y-105156000D01*
X159385000Y-101219000D02*
X161036000Y-99568000D01*
X156464000Y-101219000D02*
X159385000Y-101219000D01*
X161036000Y-99568000D02*
X161036000Y-91440000D01*
X161036000Y-91440000D02*
X162560000Y-89916000D01*
X162560000Y-89916000D02*
X167640000Y-89916000D01*
X167640000Y-89916000D02*
X169164000Y-91440000D01*
G04 #@! TA.AperFunction,Conductor*
G36*
X174722018Y-72138000D02*
G01*
X174736851Y-72140310D01*
X174736855Y-72140310D01*
X174745724Y-72141691D01*
X174754626Y-72140527D01*
X174754629Y-72140527D01*
X174762012Y-72139561D01*
X174786591Y-72138767D01*
X174813442Y-72140527D01*
X175008922Y-72153340D01*
X175025262Y-72155491D01*
X175147478Y-72179801D01*
X175269696Y-72204112D01*
X175285606Y-72208375D01*
X175521600Y-72288484D01*
X175536826Y-72294791D01*
X175760342Y-72405016D01*
X175774616Y-72413257D01*
X175981829Y-72551713D01*
X175994905Y-72561746D01*
X176182278Y-72726068D01*
X176193932Y-72737722D01*
X176358254Y-72925095D01*
X176368287Y-72938171D01*
X176506743Y-73145384D01*
X176514984Y-73159658D01*
X176625209Y-73383174D01*
X176631515Y-73398398D01*
X176711625Y-73634394D01*
X176715889Y-73650307D01*
X176764509Y-73894738D01*
X176766660Y-73911078D01*
X176780763Y-74126236D01*
X176779733Y-74149350D01*
X176779690Y-74152854D01*
X176778309Y-74161724D01*
X176779473Y-74170626D01*
X176779473Y-74170628D01*
X176782436Y-74193283D01*
X176783500Y-74209621D01*
X176783500Y-129998633D01*
X176782000Y-130018018D01*
X176779690Y-130032851D01*
X176779690Y-130032855D01*
X176778309Y-130041724D01*
X176779473Y-130050626D01*
X176779473Y-130050629D01*
X176780439Y-130058012D01*
X176781233Y-130082591D01*
X176766660Y-130304922D01*
X176764509Y-130321262D01*
X176715889Y-130565693D01*
X176711625Y-130581606D01*
X176677312Y-130682689D01*
X176631516Y-130817600D01*
X176625209Y-130832826D01*
X176514984Y-131056342D01*
X176506743Y-131070616D01*
X176368287Y-131277829D01*
X176358254Y-131290905D01*
X176193932Y-131478278D01*
X176182278Y-131489932D01*
X175994905Y-131654254D01*
X175981829Y-131664287D01*
X175774616Y-131802743D01*
X175760342Y-131810984D01*
X175536826Y-131921209D01*
X175521602Y-131927515D01*
X175285606Y-132007625D01*
X175269696Y-132011888D01*
X175147478Y-132036199D01*
X175025262Y-132060509D01*
X175008922Y-132062660D01*
X174860134Y-132072413D01*
X174793763Y-132076763D01*
X174770650Y-132075733D01*
X174767146Y-132075690D01*
X174758276Y-132074309D01*
X174749374Y-132075473D01*
X174749372Y-132075473D01*
X174735915Y-132077233D01*
X174726714Y-132078436D01*
X174710379Y-132079500D01*
X118921367Y-132079500D01*
X118901982Y-132078000D01*
X118887149Y-132075690D01*
X118887145Y-132075690D01*
X118878276Y-132074309D01*
X118869374Y-132075473D01*
X118869371Y-132075473D01*
X118861988Y-132076439D01*
X118837409Y-132077233D01*
X118792799Y-132074309D01*
X118615078Y-132062660D01*
X118598738Y-132060509D01*
X118476522Y-132036199D01*
X118354304Y-132011888D01*
X118338394Y-132007625D01*
X118102398Y-131927515D01*
X118087174Y-131921209D01*
X117863658Y-131810984D01*
X117849384Y-131802743D01*
X117642171Y-131664287D01*
X117629095Y-131654254D01*
X117441722Y-131489932D01*
X117430068Y-131478278D01*
X117265746Y-131290905D01*
X117255713Y-131277829D01*
X117117257Y-131070616D01*
X117109016Y-131056342D01*
X116998791Y-130832826D01*
X116992484Y-130817600D01*
X116946688Y-130682689D01*
X116912375Y-130581606D01*
X116908111Y-130565693D01*
X116859491Y-130321262D01*
X116857340Y-130304922D01*
X116843476Y-130093407D01*
X116844650Y-130070232D01*
X116844334Y-130070204D01*
X116844770Y-130065344D01*
X116845576Y-130060552D01*
X116845729Y-130048000D01*
X116841773Y-130020376D01*
X116840500Y-130002514D01*
X116840500Y-127640703D01*
X119302743Y-127640703D01*
X119340268Y-127925734D01*
X119416129Y-128203036D01*
X119528923Y-128467476D01*
X119540693Y-128487142D01*
X119663036Y-128691562D01*
X119676561Y-128714161D01*
X119856313Y-128938528D01*
X120064851Y-129136423D01*
X120298317Y-129304186D01*
X120302112Y-129306195D01*
X120302113Y-129306196D01*
X120323869Y-129317715D01*
X120552392Y-129438712D01*
X120576699Y-129447607D01*
X120726961Y-129502595D01*
X120822373Y-129537511D01*
X121103264Y-129598755D01*
X121131841Y-129601004D01*
X121326282Y-129616307D01*
X121326291Y-129616307D01*
X121328739Y-129616500D01*
X121484271Y-129616500D01*
X121486407Y-129616354D01*
X121486418Y-129616354D01*
X121694548Y-129602165D01*
X121694554Y-129602164D01*
X121698825Y-129601873D01*
X121703020Y-129601004D01*
X121703022Y-129601004D01*
X121839583Y-129572724D01*
X121980342Y-129543574D01*
X122251343Y-129447607D01*
X122506812Y-129315750D01*
X122510313Y-129313289D01*
X122510317Y-129313287D01*
X122624417Y-129233096D01*
X122742023Y-129150441D01*
X122952622Y-128954740D01*
X123134713Y-128732268D01*
X123284927Y-128487142D01*
X123400483Y-128223898D01*
X123407932Y-128197750D01*
X123465545Y-127995498D01*
X123479244Y-127947406D01*
X123519751Y-127662784D01*
X123519845Y-127644951D01*
X123521235Y-127379583D01*
X123521235Y-127379576D01*
X123521257Y-127375297D01*
X123509860Y-127288724D01*
X123504190Y-127245660D01*
X123483732Y-127090266D01*
X123479225Y-127073789D01*
X123430344Y-126895113D01*
X123407871Y-126812964D01*
X123356586Y-126692728D01*
X123296763Y-126552476D01*
X123296761Y-126552472D01*
X123295077Y-126548524D01*
X123147439Y-126301839D01*
X122967687Y-126077472D01*
X122759149Y-125879577D01*
X122525683Y-125711814D01*
X122503843Y-125700250D01*
X122480654Y-125687972D01*
X122271608Y-125577288D01*
X122001627Y-125478489D01*
X121720736Y-125417245D01*
X121689685Y-125414801D01*
X121497718Y-125399693D01*
X121497709Y-125399693D01*
X121495261Y-125399500D01*
X121339729Y-125399500D01*
X121337593Y-125399646D01*
X121337582Y-125399646D01*
X121129452Y-125413835D01*
X121129446Y-125413836D01*
X121125175Y-125414127D01*
X121120980Y-125414996D01*
X121120978Y-125414996D01*
X120984416Y-125443277D01*
X120843658Y-125472426D01*
X120572657Y-125568393D01*
X120317188Y-125700250D01*
X120313687Y-125702711D01*
X120313683Y-125702713D01*
X120303594Y-125709804D01*
X120081977Y-125865559D01*
X119871378Y-126061260D01*
X119689287Y-126283732D01*
X119539073Y-126528858D01*
X119423517Y-126792102D01*
X119344756Y-127068594D01*
X119304249Y-127353216D01*
X119304227Y-127357505D01*
X119304226Y-127357512D01*
X119302765Y-127636417D01*
X119302743Y-127640703D01*
X116840500Y-127640703D01*
X116840500Y-119888000D01*
X117658884Y-119888000D01*
X117677314Y-120098655D01*
X117732044Y-120302910D01*
X117734366Y-120307891D01*
X117734367Y-120307892D01*
X117819086Y-120489571D01*
X117821411Y-120494558D01*
X117942699Y-120667776D01*
X118092224Y-120817301D01*
X118265442Y-120938589D01*
X118270420Y-120940910D01*
X118270423Y-120940912D01*
X118452108Y-121025633D01*
X118457090Y-121027956D01*
X118462398Y-121029378D01*
X118462400Y-121029379D01*
X118656030Y-121081262D01*
X118656032Y-121081262D01*
X118661345Y-121082686D01*
X118872000Y-121101116D01*
X119082655Y-121082686D01*
X119087968Y-121081262D01*
X119087970Y-121081262D01*
X119281600Y-121029379D01*
X119281602Y-121029378D01*
X119286910Y-121027956D01*
X119291892Y-121025633D01*
X119473577Y-120940912D01*
X119473580Y-120940910D01*
X119478558Y-120938589D01*
X119651776Y-120817301D01*
X119801301Y-120667776D01*
X119922589Y-120494558D01*
X119924915Y-120489571D01*
X120009633Y-120307892D01*
X120009634Y-120307891D01*
X120011956Y-120302910D01*
X120066686Y-120098655D01*
X120085116Y-119888000D01*
X122738884Y-119888000D01*
X122757314Y-120098655D01*
X122812044Y-120302910D01*
X122814366Y-120307891D01*
X122814367Y-120307892D01*
X122899085Y-120489571D01*
X122899088Y-120489576D01*
X122901411Y-120494558D01*
X122904567Y-120499066D01*
X122904571Y-120499072D01*
X122912713Y-120510700D01*
X122935500Y-120582970D01*
X122935500Y-122365724D01*
X122934763Y-122379332D01*
X122931526Y-122409133D01*
X122930638Y-122417304D01*
X122931175Y-122423439D01*
X122935046Y-122467690D01*
X122935375Y-122472518D01*
X122935500Y-122475073D01*
X122935500Y-122478157D01*
X122935801Y-122481224D01*
X122939722Y-122521219D01*
X122939844Y-122522532D01*
X122948012Y-122615892D01*
X122949511Y-122621052D01*
X122950035Y-122626394D01*
X122951816Y-122632292D01*
X122977098Y-122716031D01*
X122977455Y-122717236D01*
X123003628Y-122807322D01*
X123006100Y-122812090D01*
X123007652Y-122817232D01*
X123010547Y-122822677D01*
X123010550Y-122822684D01*
X123051633Y-122899950D01*
X123052213Y-122901054D01*
X123095366Y-122984304D01*
X123098718Y-122988503D01*
X123101239Y-122993244D01*
X123105131Y-122998016D01*
X123160438Y-123065829D01*
X123161266Y-123066855D01*
X123190571Y-123103564D01*
X123192768Y-123106316D01*
X123195263Y-123108811D01*
X123195973Y-123109605D01*
X123199692Y-123113959D01*
X123227232Y-123147726D01*
X123231972Y-123151647D01*
X123262878Y-123177215D01*
X123271657Y-123185205D01*
X131317189Y-131230738D01*
X131326291Y-131240880D01*
X131350225Y-131270649D01*
X131388962Y-131303153D01*
X131392616Y-131306341D01*
X131394507Y-131308056D01*
X131396692Y-131310241D01*
X131399072Y-131312196D01*
X131430224Y-131337785D01*
X131431237Y-131338627D01*
X131502933Y-131398786D01*
X131507642Y-131401375D01*
X131511790Y-131404782D01*
X131517214Y-131407690D01*
X131517218Y-131407693D01*
X131594349Y-131449050D01*
X131595478Y-131449663D01*
X131677621Y-131494821D01*
X131682737Y-131496444D01*
X131687474Y-131498984D01*
X131777096Y-131526384D01*
X131778300Y-131526759D01*
X131867635Y-131555098D01*
X131872973Y-131555697D01*
X131878109Y-131557267D01*
X131884240Y-131557890D01*
X131884241Y-131557890D01*
X131890828Y-131558559D01*
X131971431Y-131566746D01*
X131972551Y-131566866D01*
X132022784Y-131572500D01*
X132026289Y-131572500D01*
X132027397Y-131572562D01*
X132033092Y-131573010D01*
X132070305Y-131576790D01*
X132070312Y-131576790D01*
X132076435Y-131577412D01*
X132122486Y-131573059D01*
X132134343Y-131572500D01*
X151321724Y-131572500D01*
X151335332Y-131573237D01*
X151367179Y-131576697D01*
X151367183Y-131576697D01*
X151373304Y-131577362D01*
X151410172Y-131574137D01*
X151423690Y-131572954D01*
X151428518Y-131572625D01*
X151431073Y-131572500D01*
X151434157Y-131572500D01*
X151449531Y-131570992D01*
X151477219Y-131568278D01*
X151478532Y-131568156D01*
X151518629Y-131564648D01*
X151571892Y-131559988D01*
X151577052Y-131558489D01*
X151582394Y-131557965D01*
X151672096Y-131530883D01*
X151673236Y-131530545D01*
X151763322Y-131504372D01*
X151768090Y-131501900D01*
X151773232Y-131500348D01*
X151778677Y-131497453D01*
X151778684Y-131497450D01*
X151855950Y-131456367D01*
X151857054Y-131455787D01*
X151940304Y-131412634D01*
X151944503Y-131409282D01*
X151949244Y-131406761D01*
X151963876Y-131394827D01*
X152021829Y-131347562D01*
X152022855Y-131346734D01*
X152059564Y-131317429D01*
X152059565Y-131317428D01*
X152062316Y-131315232D01*
X152064811Y-131312737D01*
X152065605Y-131312027D01*
X152069960Y-131308307D01*
X152072173Y-131306502D01*
X152103726Y-131280768D01*
X152133215Y-131245122D01*
X152141205Y-131236343D01*
X155736845Y-127640703D01*
X170102743Y-127640703D01*
X170140268Y-127925734D01*
X170216129Y-128203036D01*
X170328923Y-128467476D01*
X170340693Y-128487142D01*
X170463036Y-128691562D01*
X170476561Y-128714161D01*
X170656313Y-128938528D01*
X170864851Y-129136423D01*
X171098317Y-129304186D01*
X171102112Y-129306195D01*
X171102113Y-129306196D01*
X171123869Y-129317715D01*
X171352392Y-129438712D01*
X171376699Y-129447607D01*
X171526961Y-129502595D01*
X171622373Y-129537511D01*
X171903264Y-129598755D01*
X171931841Y-129601004D01*
X172126282Y-129616307D01*
X172126291Y-129616307D01*
X172128739Y-129616500D01*
X172284271Y-129616500D01*
X172286407Y-129616354D01*
X172286418Y-129616354D01*
X172494548Y-129602165D01*
X172494554Y-129602164D01*
X172498825Y-129601873D01*
X172503020Y-129601004D01*
X172503022Y-129601004D01*
X172639583Y-129572724D01*
X172780342Y-129543574D01*
X173051343Y-129447607D01*
X173306812Y-129315750D01*
X173310313Y-129313289D01*
X173310317Y-129313287D01*
X173424417Y-129233096D01*
X173542023Y-129150441D01*
X173752622Y-128954740D01*
X173934713Y-128732268D01*
X174084927Y-128487142D01*
X174200483Y-128223898D01*
X174207932Y-128197750D01*
X174265545Y-127995498D01*
X174279244Y-127947406D01*
X174319751Y-127662784D01*
X174319845Y-127644951D01*
X174321235Y-127379583D01*
X174321235Y-127379576D01*
X174321257Y-127375297D01*
X174309860Y-127288724D01*
X174304190Y-127245660D01*
X174283732Y-127090266D01*
X174279225Y-127073789D01*
X174230344Y-126895113D01*
X174207871Y-126812964D01*
X174156586Y-126692728D01*
X174096763Y-126552476D01*
X174096761Y-126552472D01*
X174095077Y-126548524D01*
X173947439Y-126301839D01*
X173767687Y-126077472D01*
X173559149Y-125879577D01*
X173325683Y-125711814D01*
X173303843Y-125700250D01*
X173280654Y-125687972D01*
X173071608Y-125577288D01*
X172801627Y-125478489D01*
X172520736Y-125417245D01*
X172489685Y-125414801D01*
X172297718Y-125399693D01*
X172297709Y-125399693D01*
X172295261Y-125399500D01*
X172139729Y-125399500D01*
X172137593Y-125399646D01*
X172137582Y-125399646D01*
X171929452Y-125413835D01*
X171929446Y-125413836D01*
X171925175Y-125414127D01*
X171920980Y-125414996D01*
X171920978Y-125414996D01*
X171784416Y-125443277D01*
X171643658Y-125472426D01*
X171372657Y-125568393D01*
X171117188Y-125700250D01*
X171113687Y-125702711D01*
X171113683Y-125702713D01*
X171103594Y-125709804D01*
X170881977Y-125865559D01*
X170671378Y-126061260D01*
X170489287Y-126283732D01*
X170339073Y-126528858D01*
X170223517Y-126792102D01*
X170144756Y-127068594D01*
X170104249Y-127353216D01*
X170104227Y-127357505D01*
X170104226Y-127357512D01*
X170102765Y-127636417D01*
X170102743Y-127640703D01*
X155736845Y-127640703D01*
X161202738Y-122174811D01*
X161212881Y-122165709D01*
X161223852Y-122156888D01*
X161242649Y-122141775D01*
X161275157Y-122103033D01*
X161278341Y-122099384D01*
X161280056Y-122097493D01*
X161282241Y-122095308D01*
X161309785Y-122061776D01*
X161310627Y-122060763D01*
X161366827Y-121993785D01*
X161370786Y-121989067D01*
X161373375Y-121984358D01*
X161376782Y-121980210D01*
X161379690Y-121974786D01*
X161379693Y-121974782D01*
X161421050Y-121897651D01*
X161421679Y-121896492D01*
X161463854Y-121819776D01*
X161466821Y-121814379D01*
X161468444Y-121809263D01*
X161470984Y-121804526D01*
X161498384Y-121714904D01*
X161498767Y-121713674D01*
X161525236Y-121630234D01*
X161527098Y-121624365D01*
X161527697Y-121619027D01*
X161529267Y-121613891D01*
X161538746Y-121520569D01*
X161538866Y-121519449D01*
X161544500Y-121469216D01*
X161544500Y-121465711D01*
X161544562Y-121464603D01*
X161545010Y-121458908D01*
X161548790Y-121421695D01*
X161548790Y-121421688D01*
X161549412Y-121415565D01*
X161545059Y-121369514D01*
X161544500Y-121357657D01*
X161544500Y-111217238D01*
X161564502Y-111149117D01*
X161581405Y-111128143D01*
X162817144Y-109892405D01*
X162879456Y-109858379D01*
X162906239Y-109855500D01*
X164084685Y-109855500D01*
X164156956Y-109878287D01*
X164297251Y-109976523D01*
X164302233Y-109978846D01*
X164302238Y-109978849D01*
X164336457Y-109994805D01*
X164389742Y-110041722D01*
X164409203Y-110109999D01*
X164388661Y-110177959D01*
X164336457Y-110223195D01*
X164302238Y-110239151D01*
X164302233Y-110239154D01*
X164297251Y-110241477D01*
X164272316Y-110258937D01*
X164114211Y-110369643D01*
X164114208Y-110369645D01*
X164109700Y-110372802D01*
X163947802Y-110534700D01*
X163944645Y-110539208D01*
X163944643Y-110539211D01*
X163889902Y-110617389D01*
X163816477Y-110722251D01*
X163814154Y-110727233D01*
X163814151Y-110727238D01*
X163722039Y-110924775D01*
X163719716Y-110929757D01*
X163718294Y-110935065D01*
X163718293Y-110935067D01*
X163690446Y-111038993D01*
X163660457Y-111150913D01*
X163640502Y-111379000D01*
X163660457Y-111607087D01*
X163661881Y-111612400D01*
X163661881Y-111612402D01*
X163706822Y-111780121D01*
X163719716Y-111828243D01*
X163722039Y-111833224D01*
X163722039Y-111833225D01*
X163814151Y-112030762D01*
X163814154Y-112030767D01*
X163816477Y-112035749D01*
X163819634Y-112040257D01*
X163944601Y-112218728D01*
X163947802Y-112223300D01*
X164109700Y-112385198D01*
X164114208Y-112388355D01*
X164114211Y-112388357D01*
X164155542Y-112417297D01*
X164297251Y-112516523D01*
X164302233Y-112518846D01*
X164302238Y-112518849D01*
X164499775Y-112610961D01*
X164504757Y-112613284D01*
X164510065Y-112614706D01*
X164510067Y-112614707D01*
X164720598Y-112671119D01*
X164720600Y-112671119D01*
X164725913Y-112672543D01*
X164814885Y-112680327D01*
X164894149Y-112687262D01*
X164894156Y-112687262D01*
X164896873Y-112687500D01*
X165811127Y-112687500D01*
X165813844Y-112687262D01*
X165813851Y-112687262D01*
X165893115Y-112680327D01*
X165982087Y-112672543D01*
X165987400Y-112671119D01*
X165987402Y-112671119D01*
X166197933Y-112614707D01*
X166197935Y-112614706D01*
X166203243Y-112613284D01*
X166208225Y-112610961D01*
X166405762Y-112518849D01*
X166405767Y-112518846D01*
X166410749Y-112516523D01*
X166552458Y-112417297D01*
X166593789Y-112388357D01*
X166593792Y-112388355D01*
X166598300Y-112385198D01*
X166760198Y-112223300D01*
X166763400Y-112218728D01*
X166888366Y-112040257D01*
X166891523Y-112035749D01*
X166893846Y-112030767D01*
X166893849Y-112030762D01*
X166985961Y-111833225D01*
X166985961Y-111833224D01*
X166988284Y-111828243D01*
X167001179Y-111780121D01*
X167046119Y-111612402D01*
X167046119Y-111612400D01*
X167047543Y-111607087D01*
X167067498Y-111379000D01*
X167047543Y-111150913D01*
X167017554Y-111038993D01*
X166989707Y-110935067D01*
X166989706Y-110935065D01*
X166988284Y-110929757D01*
X166985961Y-110924775D01*
X166893849Y-110727238D01*
X166893846Y-110727233D01*
X166891523Y-110722251D01*
X166818098Y-110617389D01*
X166763357Y-110539211D01*
X166763355Y-110539208D01*
X166760198Y-110534700D01*
X166598300Y-110372802D01*
X166593792Y-110369645D01*
X166593789Y-110369643D01*
X166435684Y-110258937D01*
X166410749Y-110241477D01*
X166405767Y-110239154D01*
X166405762Y-110239151D01*
X166371543Y-110223195D01*
X166318258Y-110176278D01*
X166298797Y-110108001D01*
X166319339Y-110040041D01*
X166371543Y-109994805D01*
X166405762Y-109978849D01*
X166405767Y-109978846D01*
X166410749Y-109976523D01*
X166551044Y-109878287D01*
X166593789Y-109848357D01*
X166593792Y-109848355D01*
X166598300Y-109845198D01*
X166760198Y-109683300D01*
X166783989Y-109649324D01*
X166818098Y-109600611D01*
X166891523Y-109495749D01*
X166893846Y-109490767D01*
X166893849Y-109490762D01*
X166985961Y-109293225D01*
X166985961Y-109293224D01*
X166988284Y-109288243D01*
X167047543Y-109067087D01*
X167067498Y-108839000D01*
X167047543Y-108610913D01*
X166988284Y-108389757D01*
X166985961Y-108384775D01*
X166893849Y-108187238D01*
X166893846Y-108187233D01*
X166891523Y-108182251D01*
X166805141Y-108058885D01*
X166763357Y-107999211D01*
X166763355Y-107999208D01*
X166760198Y-107994700D01*
X166598300Y-107832802D01*
X166593792Y-107829645D01*
X166593789Y-107829643D01*
X166515611Y-107774902D01*
X166410749Y-107701477D01*
X166405767Y-107699154D01*
X166405762Y-107699151D01*
X166371543Y-107683195D01*
X166318258Y-107636278D01*
X166298797Y-107568001D01*
X166319339Y-107500041D01*
X166371543Y-107454805D01*
X166405762Y-107438849D01*
X166405767Y-107438846D01*
X166410749Y-107436523D01*
X166582789Y-107316059D01*
X166593789Y-107308357D01*
X166593792Y-107308355D01*
X166598300Y-107305198D01*
X166760198Y-107143300D01*
X166764033Y-107137824D01*
X166825982Y-107049351D01*
X166891523Y-106955749D01*
X166893846Y-106950767D01*
X166893849Y-106950762D01*
X166985961Y-106753225D01*
X166985961Y-106753224D01*
X166988284Y-106748243D01*
X167047543Y-106527087D01*
X167067498Y-106299000D01*
X167047543Y-106070913D01*
X166996295Y-105879655D01*
X166989707Y-105855067D01*
X166989706Y-105855065D01*
X166988284Y-105849757D01*
X166982830Y-105838061D01*
X166893849Y-105647238D01*
X166893846Y-105647233D01*
X166891523Y-105642251D01*
X166760198Y-105454700D01*
X166598300Y-105292802D01*
X166593792Y-105289645D01*
X166593789Y-105289643D01*
X166515611Y-105234902D01*
X166410749Y-105161477D01*
X166405767Y-105159154D01*
X166405762Y-105159151D01*
X166371543Y-105143195D01*
X166318258Y-105096278D01*
X166298797Y-105028001D01*
X166319339Y-104960041D01*
X166371543Y-104914805D01*
X166405762Y-104898849D01*
X166405767Y-104898846D01*
X166410749Y-104896523D01*
X166588790Y-104771857D01*
X166593789Y-104768357D01*
X166593792Y-104768355D01*
X166598300Y-104765198D01*
X166760198Y-104603300D01*
X166891523Y-104415749D01*
X166893846Y-104410767D01*
X166893849Y-104410762D01*
X166985961Y-104213225D01*
X166985961Y-104213224D01*
X166988284Y-104208243D01*
X167047543Y-103987087D01*
X167067498Y-103759000D01*
X167047543Y-103530913D01*
X167034284Y-103481430D01*
X166989707Y-103315067D01*
X166989706Y-103315065D01*
X166988284Y-103309757D01*
X166927130Y-103178610D01*
X166893849Y-103107238D01*
X166893846Y-103107233D01*
X166891523Y-103102251D01*
X166818098Y-102997389D01*
X166763357Y-102919211D01*
X166763355Y-102919208D01*
X166760198Y-102914700D01*
X166598300Y-102752802D01*
X166593792Y-102749645D01*
X166593789Y-102749643D01*
X166424873Y-102631367D01*
X166410749Y-102621477D01*
X166405767Y-102619154D01*
X166405762Y-102619151D01*
X166371543Y-102603195D01*
X166318258Y-102556278D01*
X166298797Y-102488001D01*
X166319339Y-102420041D01*
X166371543Y-102374805D01*
X166405762Y-102358849D01*
X166405767Y-102358846D01*
X166410749Y-102356523D01*
X166577411Y-102239825D01*
X166593789Y-102228357D01*
X166593792Y-102228355D01*
X166598300Y-102225198D01*
X166760198Y-102063300D01*
X166797706Y-102009734D01*
X166847221Y-101939019D01*
X166891523Y-101875749D01*
X166893846Y-101870767D01*
X166893849Y-101870762D01*
X166985961Y-101673225D01*
X166985961Y-101673224D01*
X166988284Y-101668243D01*
X167010688Y-101584633D01*
X167046119Y-101452402D01*
X167046119Y-101452400D01*
X167047543Y-101447087D01*
X167067498Y-101219000D01*
X167047543Y-100990913D01*
X166988284Y-100769757D01*
X166983861Y-100760272D01*
X166893849Y-100567238D01*
X166893846Y-100567233D01*
X166891523Y-100562251D01*
X166818098Y-100457389D01*
X166763357Y-100379211D01*
X166763355Y-100379208D01*
X166760198Y-100374700D01*
X166598300Y-100212802D01*
X166593792Y-100209645D01*
X166593789Y-100209643D01*
X166515611Y-100154902D01*
X166410749Y-100081477D01*
X166405767Y-100079154D01*
X166405762Y-100079151D01*
X166371543Y-100063195D01*
X166318258Y-100016278D01*
X166298797Y-99948001D01*
X166319339Y-99880041D01*
X166371543Y-99834805D01*
X166405762Y-99818849D01*
X166405767Y-99818846D01*
X166410749Y-99816523D01*
X166533371Y-99730662D01*
X166593789Y-99688357D01*
X166593792Y-99688355D01*
X166598300Y-99685198D01*
X166760198Y-99523300D01*
X166891523Y-99335749D01*
X166893846Y-99330767D01*
X166893849Y-99330762D01*
X166985961Y-99133225D01*
X166985961Y-99133224D01*
X166988284Y-99128243D01*
X167010688Y-99044633D01*
X167046119Y-98912402D01*
X167046119Y-98912400D01*
X167047543Y-98907087D01*
X167067498Y-98679000D01*
X167047543Y-98450913D01*
X167029024Y-98381798D01*
X166989707Y-98235067D01*
X166989706Y-98235065D01*
X166988284Y-98229757D01*
X166972381Y-98195652D01*
X166893849Y-98027238D01*
X166893846Y-98027233D01*
X166891523Y-98022251D01*
X166760198Y-97834700D01*
X166598300Y-97672802D01*
X166593792Y-97669645D01*
X166593789Y-97669643D01*
X166515611Y-97614902D01*
X166410749Y-97541477D01*
X166405767Y-97539154D01*
X166405762Y-97539151D01*
X166371543Y-97523195D01*
X166318258Y-97476278D01*
X166298797Y-97408001D01*
X166319339Y-97340041D01*
X166371543Y-97294805D01*
X166405762Y-97278849D01*
X166405767Y-97278846D01*
X166410749Y-97276523D01*
X166515611Y-97203098D01*
X166593789Y-97148357D01*
X166593792Y-97148355D01*
X166598300Y-97145198D01*
X166760198Y-96983300D01*
X166891523Y-96795749D01*
X166893846Y-96790767D01*
X166893849Y-96790762D01*
X166985961Y-96593225D01*
X166985961Y-96593224D01*
X166988284Y-96588243D01*
X167047543Y-96367087D01*
X167067498Y-96139000D01*
X167047543Y-95910913D01*
X167037244Y-95872478D01*
X166989707Y-95695067D01*
X166989706Y-95695065D01*
X166988284Y-95689757D01*
X166976517Y-95664522D01*
X166893849Y-95487238D01*
X166893846Y-95487233D01*
X166891523Y-95482251D01*
X166760198Y-95294700D01*
X166598300Y-95132802D01*
X166593792Y-95129645D01*
X166593789Y-95129643D01*
X166515611Y-95074902D01*
X166410749Y-95001477D01*
X166405767Y-94999154D01*
X166405762Y-94999151D01*
X166371543Y-94983195D01*
X166318258Y-94936278D01*
X166298797Y-94868001D01*
X166319339Y-94800041D01*
X166371543Y-94754805D01*
X166405762Y-94738849D01*
X166405767Y-94738846D01*
X166410749Y-94736523D01*
X166515611Y-94663098D01*
X166593789Y-94608357D01*
X166593792Y-94608355D01*
X166598300Y-94605198D01*
X166760198Y-94443300D01*
X166891523Y-94255749D01*
X166893846Y-94250767D01*
X166893849Y-94250762D01*
X166985961Y-94053225D01*
X166985961Y-94053224D01*
X166988284Y-94048243D01*
X167036970Y-93866548D01*
X167046119Y-93832402D01*
X167046119Y-93832400D01*
X167047543Y-93827087D01*
X167067498Y-93599000D01*
X167047543Y-93370913D01*
X167037244Y-93332478D01*
X166989707Y-93155067D01*
X166989706Y-93155065D01*
X166988284Y-93149757D01*
X166893966Y-92947489D01*
X166893849Y-92947238D01*
X166893846Y-92947233D01*
X166891523Y-92942251D01*
X166760198Y-92754700D01*
X166598300Y-92592802D01*
X166593792Y-92589645D01*
X166593789Y-92589643D01*
X166515611Y-92534902D01*
X166410749Y-92461477D01*
X166405767Y-92459154D01*
X166405762Y-92459151D01*
X166208225Y-92367039D01*
X166208224Y-92367039D01*
X166203243Y-92364716D01*
X166197935Y-92363294D01*
X166197933Y-92363293D01*
X165987402Y-92306881D01*
X165987400Y-92306881D01*
X165982087Y-92305457D01*
X165882520Y-92296746D01*
X165813851Y-92290738D01*
X165813844Y-92290738D01*
X165811127Y-92290500D01*
X164896873Y-92290500D01*
X164894156Y-92290738D01*
X164894149Y-92290738D01*
X164825480Y-92296746D01*
X164725913Y-92305457D01*
X164720600Y-92306881D01*
X164720598Y-92306881D01*
X164510067Y-92363293D01*
X164510065Y-92363294D01*
X164504757Y-92364716D01*
X164499776Y-92367039D01*
X164499775Y-92367039D01*
X164302238Y-92459151D01*
X164302233Y-92459154D01*
X164297251Y-92461477D01*
X164192389Y-92534902D01*
X164114211Y-92589643D01*
X164114208Y-92589645D01*
X164109700Y-92592802D01*
X163947802Y-92754700D01*
X163816477Y-92942251D01*
X163814154Y-92947233D01*
X163814151Y-92947238D01*
X163814034Y-92947489D01*
X163719716Y-93149757D01*
X163718294Y-93155065D01*
X163718293Y-93155067D01*
X163670756Y-93332478D01*
X163660457Y-93370913D01*
X163640502Y-93599000D01*
X163660457Y-93827087D01*
X163661881Y-93832400D01*
X163661881Y-93832402D01*
X163671031Y-93866548D01*
X163719716Y-94048243D01*
X163722039Y-94053224D01*
X163722039Y-94053225D01*
X163814151Y-94250762D01*
X163814154Y-94250767D01*
X163816477Y-94255749D01*
X163947802Y-94443300D01*
X164109700Y-94605198D01*
X164114208Y-94608355D01*
X164114211Y-94608357D01*
X164192389Y-94663098D01*
X164297251Y-94736523D01*
X164302233Y-94738846D01*
X164302238Y-94738849D01*
X164336457Y-94754805D01*
X164389742Y-94801722D01*
X164409203Y-94869999D01*
X164388661Y-94937959D01*
X164336457Y-94983195D01*
X164302238Y-94999151D01*
X164302233Y-94999154D01*
X164297251Y-95001477D01*
X164192389Y-95074902D01*
X164114211Y-95129643D01*
X164114208Y-95129645D01*
X164109700Y-95132802D01*
X163947802Y-95294700D01*
X163816477Y-95482251D01*
X163814154Y-95487233D01*
X163814151Y-95487238D01*
X163731483Y-95664522D01*
X163719716Y-95689757D01*
X163718294Y-95695065D01*
X163718293Y-95695067D01*
X163670756Y-95872478D01*
X163660457Y-95910913D01*
X163640502Y-96139000D01*
X163660457Y-96367087D01*
X163719716Y-96588243D01*
X163722039Y-96593224D01*
X163722039Y-96593225D01*
X163814151Y-96790762D01*
X163814154Y-96790767D01*
X163816477Y-96795749D01*
X163947802Y-96983300D01*
X164109700Y-97145198D01*
X164114208Y-97148355D01*
X164114211Y-97148357D01*
X164192389Y-97203098D01*
X164297251Y-97276523D01*
X164302233Y-97278846D01*
X164302238Y-97278849D01*
X164336457Y-97294805D01*
X164389742Y-97341722D01*
X164409203Y-97409999D01*
X164388661Y-97477959D01*
X164336457Y-97523195D01*
X164302238Y-97539151D01*
X164302233Y-97539154D01*
X164297251Y-97541477D01*
X164192389Y-97614902D01*
X164114211Y-97669643D01*
X164114208Y-97669645D01*
X164109700Y-97672802D01*
X163947802Y-97834700D01*
X163816477Y-98022251D01*
X163814154Y-98027233D01*
X163814151Y-98027238D01*
X163735619Y-98195652D01*
X163719716Y-98229757D01*
X163718294Y-98235065D01*
X163718293Y-98235067D01*
X163678976Y-98381798D01*
X163660457Y-98450913D01*
X163640502Y-98679000D01*
X163660457Y-98907087D01*
X163661881Y-98912400D01*
X163661881Y-98912402D01*
X163697313Y-99044633D01*
X163719716Y-99128243D01*
X163722039Y-99133224D01*
X163722039Y-99133225D01*
X163814151Y-99330762D01*
X163814154Y-99330767D01*
X163816477Y-99335749D01*
X163947802Y-99523300D01*
X164109700Y-99685198D01*
X164114208Y-99688355D01*
X164114211Y-99688357D01*
X164174629Y-99730662D01*
X164297251Y-99816523D01*
X164302233Y-99818846D01*
X164302238Y-99818849D01*
X164336457Y-99834805D01*
X164389742Y-99881722D01*
X164409203Y-99949999D01*
X164388661Y-100017959D01*
X164336457Y-100063195D01*
X164302238Y-100079151D01*
X164302233Y-100079154D01*
X164297251Y-100081477D01*
X164192389Y-100154902D01*
X164114211Y-100209643D01*
X164114208Y-100209645D01*
X164109700Y-100212802D01*
X163947802Y-100374700D01*
X163944645Y-100379208D01*
X163944643Y-100379211D01*
X163889902Y-100457389D01*
X163816477Y-100562251D01*
X163814154Y-100567233D01*
X163814151Y-100567238D01*
X163724139Y-100760272D01*
X163719716Y-100769757D01*
X163660457Y-100990913D01*
X163640502Y-101219000D01*
X163660457Y-101447087D01*
X163661881Y-101452400D01*
X163661881Y-101452402D01*
X163697313Y-101584633D01*
X163719716Y-101668243D01*
X163722039Y-101673224D01*
X163722039Y-101673225D01*
X163814151Y-101870762D01*
X163814154Y-101870767D01*
X163816477Y-101875749D01*
X163860779Y-101939019D01*
X163910295Y-102009734D01*
X163947802Y-102063300D01*
X164109700Y-102225198D01*
X164114208Y-102228355D01*
X164114211Y-102228357D01*
X164130589Y-102239825D01*
X164297251Y-102356523D01*
X164302233Y-102358846D01*
X164302238Y-102358849D01*
X164336457Y-102374805D01*
X164389742Y-102421722D01*
X164409203Y-102489999D01*
X164388661Y-102557959D01*
X164336457Y-102603195D01*
X164302238Y-102619151D01*
X164302233Y-102619154D01*
X164297251Y-102621477D01*
X164283127Y-102631367D01*
X164114211Y-102749643D01*
X164114208Y-102749645D01*
X164109700Y-102752802D01*
X163947802Y-102914700D01*
X163944645Y-102919208D01*
X163944643Y-102919211D01*
X163889902Y-102997389D01*
X163816477Y-103102251D01*
X163814154Y-103107233D01*
X163814151Y-103107238D01*
X163780870Y-103178610D01*
X163719716Y-103309757D01*
X163718294Y-103315065D01*
X163718293Y-103315067D01*
X163673716Y-103481430D01*
X163660457Y-103530913D01*
X163640502Y-103759000D01*
X163660457Y-103987087D01*
X163719716Y-104208243D01*
X163722039Y-104213224D01*
X163722039Y-104213225D01*
X163814151Y-104410762D01*
X163814154Y-104410767D01*
X163816477Y-104415749D01*
X163947802Y-104603300D01*
X164109700Y-104765198D01*
X164114208Y-104768355D01*
X164114211Y-104768357D01*
X164119210Y-104771857D01*
X164297251Y-104896523D01*
X164302233Y-104898846D01*
X164302238Y-104898849D01*
X164336457Y-104914805D01*
X164389742Y-104961722D01*
X164409203Y-105029999D01*
X164388661Y-105097959D01*
X164336457Y-105143195D01*
X164302238Y-105159151D01*
X164302233Y-105159154D01*
X164297251Y-105161477D01*
X164192389Y-105234902D01*
X164114211Y-105289643D01*
X164114208Y-105289645D01*
X164109700Y-105292802D01*
X163947802Y-105454700D01*
X163816477Y-105642251D01*
X163814154Y-105647233D01*
X163814151Y-105647238D01*
X163725170Y-105838061D01*
X163719716Y-105849757D01*
X163718294Y-105855065D01*
X163718293Y-105855067D01*
X163711705Y-105879655D01*
X163660457Y-106070913D01*
X163640502Y-106299000D01*
X163660457Y-106527087D01*
X163719716Y-106748243D01*
X163722039Y-106753224D01*
X163722039Y-106753225D01*
X163814151Y-106950762D01*
X163814154Y-106950767D01*
X163816477Y-106955749D01*
X163882018Y-107049351D01*
X163943968Y-107137824D01*
X163947802Y-107143300D01*
X164109700Y-107305198D01*
X164114208Y-107308355D01*
X164114211Y-107308357D01*
X164125211Y-107316059D01*
X164297251Y-107436523D01*
X164302233Y-107438846D01*
X164302238Y-107438849D01*
X164336457Y-107454805D01*
X164389742Y-107501722D01*
X164409203Y-107569999D01*
X164388661Y-107637959D01*
X164336457Y-107683195D01*
X164302238Y-107699151D01*
X164302233Y-107699154D01*
X164297251Y-107701477D01*
X164169629Y-107790839D01*
X164156956Y-107799713D01*
X164084685Y-107822500D01*
X162495276Y-107822500D01*
X162481668Y-107821763D01*
X162449821Y-107818303D01*
X162449817Y-107818303D01*
X162443696Y-107817638D01*
X162406828Y-107820863D01*
X162393310Y-107822046D01*
X162388482Y-107822375D01*
X162385927Y-107822500D01*
X162382843Y-107822500D01*
X162367469Y-107824008D01*
X162339781Y-107826722D01*
X162338468Y-107826844D01*
X162306478Y-107829643D01*
X162245108Y-107835012D01*
X162239948Y-107836511D01*
X162234606Y-107837035D01*
X162144904Y-107864117D01*
X162143764Y-107864455D01*
X162053678Y-107890628D01*
X162048910Y-107893100D01*
X162043768Y-107894652D01*
X162038323Y-107897547D01*
X162038316Y-107897550D01*
X161961050Y-107938633D01*
X161959946Y-107939213D01*
X161876696Y-107982366D01*
X161872497Y-107985718D01*
X161867756Y-107988239D01*
X161862984Y-107992131D01*
X161795171Y-108047438D01*
X161794145Y-108048266D01*
X161758151Y-108077000D01*
X161754684Y-108079768D01*
X161752189Y-108082263D01*
X161751395Y-108082973D01*
X161747040Y-108086693D01*
X161718049Y-108110337D01*
X161718046Y-108110340D01*
X161713274Y-108114232D01*
X161709346Y-108118980D01*
X161709345Y-108118981D01*
X161683789Y-108149873D01*
X161675800Y-108158652D01*
X159853267Y-109981185D01*
X159843125Y-109990286D01*
X159813351Y-110014225D01*
X159780813Y-110053002D01*
X159777649Y-110056629D01*
X159775954Y-110058498D01*
X159773760Y-110060692D01*
X159746188Y-110094258D01*
X159745526Y-110095055D01*
X159685214Y-110166933D01*
X159682627Y-110171639D01*
X159679218Y-110175789D01*
X159676310Y-110181213D01*
X159676303Y-110181223D01*
X159634939Y-110258368D01*
X159634310Y-110259528D01*
X159624689Y-110277028D01*
X159589179Y-110341621D01*
X159587555Y-110346741D01*
X159585017Y-110351474D01*
X159577305Y-110376699D01*
X159557648Y-110440993D01*
X159557256Y-110442252D01*
X159530765Y-110525761D01*
X159528902Y-110531635D01*
X159528303Y-110536973D01*
X159526733Y-110542109D01*
X159526110Y-110548240D01*
X159526110Y-110548241D01*
X159517263Y-110635343D01*
X159517134Y-110636551D01*
X159511500Y-110686784D01*
X159511500Y-110690289D01*
X159511438Y-110691397D01*
X159510990Y-110697092D01*
X159507210Y-110734305D01*
X159507210Y-110734312D01*
X159506588Y-110740435D01*
X159507168Y-110746566D01*
X159510941Y-110786485D01*
X159511500Y-110798343D01*
X159511500Y-120938762D01*
X159491498Y-121006883D01*
X159474595Y-121027857D01*
X150999857Y-129502595D01*
X150937545Y-129536621D01*
X150910762Y-129539500D01*
X146522238Y-129539500D01*
X146454117Y-129519498D01*
X146407624Y-129465842D01*
X146397520Y-129395568D01*
X146427014Y-129330988D01*
X146433143Y-129324405D01*
X148502733Y-127254815D01*
X148512876Y-127245713D01*
X148537849Y-127225634D01*
X148542649Y-127221775D01*
X148575187Y-127182998D01*
X148578351Y-127179371D01*
X148580046Y-127177502D01*
X148582240Y-127175308D01*
X148609812Y-127141742D01*
X148610518Y-127140892D01*
X148666824Y-127073789D01*
X148666825Y-127073788D01*
X148670786Y-127069067D01*
X148673373Y-127064361D01*
X148676782Y-127060211D01*
X148700201Y-127016536D01*
X148721075Y-126977606D01*
X148721704Y-126976448D01*
X148763849Y-126899786D01*
X148763851Y-126899782D01*
X148766821Y-126894379D01*
X148768444Y-126889261D01*
X148770983Y-126884527D01*
X148798361Y-126794977D01*
X148798744Y-126793747D01*
X148825234Y-126710241D01*
X148827098Y-126704365D01*
X148827697Y-126699022D01*
X148829266Y-126693891D01*
X148838736Y-126600659D01*
X148838856Y-126599539D01*
X148844500Y-126549216D01*
X148844500Y-126545710D01*
X148844563Y-126544584D01*
X148845011Y-126538888D01*
X148848789Y-126501695D01*
X148848789Y-126501689D01*
X148849411Y-126495566D01*
X148845059Y-126449524D01*
X148844500Y-126437667D01*
X148844500Y-125248442D01*
X150833303Y-125248442D01*
X150842017Y-125259962D01*
X150943394Y-125334296D01*
X150951293Y-125339232D01*
X151176901Y-125457930D01*
X151185450Y-125461647D01*
X151426113Y-125545690D01*
X151435122Y-125548104D01*
X151685572Y-125595654D01*
X151694827Y-125596708D01*
X151949557Y-125606717D01*
X151958871Y-125606391D01*
X152212270Y-125578640D01*
X152221447Y-125576939D01*
X152467960Y-125512037D01*
X152476780Y-125509000D01*
X152710997Y-125408373D01*
X152719269Y-125404066D01*
X152936036Y-125269927D01*
X152943579Y-125264447D01*
X152945272Y-125263014D01*
X152953710Y-125250211D01*
X152947645Y-125239855D01*
X151904812Y-124197022D01*
X151890868Y-124189408D01*
X151889035Y-124189539D01*
X151882420Y-124193790D01*
X150839961Y-125236249D01*
X150833303Y-125248442D01*
X148844500Y-125248442D01*
X148844500Y-123782999D01*
X150109849Y-123782999D01*
X150122080Y-124037619D01*
X150123217Y-124046879D01*
X150172947Y-124296894D01*
X150175441Y-124305887D01*
X150261578Y-124545797D01*
X150265378Y-124554332D01*
X150386031Y-124778877D01*
X150391045Y-124786748D01*
X150457154Y-124875279D01*
X150468414Y-124883729D01*
X150480832Y-124876958D01*
X151519978Y-123837812D01*
X151526356Y-123826132D01*
X152256408Y-123826132D01*
X152256539Y-123827965D01*
X152260790Y-123834580D01*
X153306386Y-124880176D01*
X153318766Y-124886936D01*
X153327107Y-124880692D01*
X153456391Y-124679697D01*
X153460838Y-124671506D01*
X153565536Y-124439085D01*
X153568731Y-124430307D01*
X153637923Y-124184968D01*
X153639781Y-124175839D01*
X153672144Y-123921444D01*
X153672625Y-123915158D01*
X153674903Y-123828160D01*
X153674752Y-123821851D01*
X153655747Y-123566110D01*
X153654370Y-123556904D01*
X153598109Y-123308262D01*
X153595385Y-123299351D01*
X153502990Y-123061758D01*
X153498979Y-123053349D01*
X153372482Y-122832027D01*
X153367269Y-122824298D01*
X153327633Y-122774019D01*
X153315709Y-122765549D01*
X153304174Y-122772036D01*
X152264022Y-123812188D01*
X152256408Y-123826132D01*
X151526356Y-123826132D01*
X151527592Y-123823868D01*
X151527461Y-123822035D01*
X151523210Y-123815420D01*
X150479119Y-122771329D01*
X150465811Y-122764062D01*
X150455772Y-122771184D01*
X150443433Y-122786020D01*
X150438018Y-122793612D01*
X150305776Y-123011540D01*
X150301538Y-123019857D01*
X150202961Y-123254935D01*
X150200000Y-123263785D01*
X150137255Y-123510849D01*
X150135633Y-123520046D01*
X150110094Y-123773673D01*
X150109849Y-123782999D01*
X148844500Y-123782999D01*
X148844500Y-122399357D01*
X150830770Y-122399357D01*
X150835343Y-122409133D01*
X151879188Y-123452978D01*
X151893132Y-123460592D01*
X151894965Y-123460461D01*
X151901580Y-123456210D01*
X152944790Y-122413000D01*
X152951174Y-122401310D01*
X152941762Y-122389199D01*
X152800776Y-122291392D01*
X152792741Y-122286659D01*
X152564106Y-122173909D01*
X152555473Y-122170421D01*
X152312675Y-122092701D01*
X152303624Y-122090528D01*
X152052009Y-122049550D01*
X152042720Y-122048738D01*
X151787828Y-122045401D01*
X151778517Y-122045971D01*
X151525927Y-122080347D01*
X151516808Y-122082285D01*
X151272084Y-122153616D01*
X151263331Y-122156888D01*
X151031837Y-122263608D01*
X151023682Y-122268128D01*
X150839907Y-122388616D01*
X150830770Y-122399357D01*
X148844500Y-122399357D01*
X148844500Y-92929238D01*
X148864502Y-92861117D01*
X148881405Y-92840143D01*
X152149144Y-89572405D01*
X152211456Y-89538379D01*
X152238239Y-89535500D01*
X155394685Y-89535500D01*
X155466956Y-89558287D01*
X155607251Y-89656523D01*
X155612233Y-89658846D01*
X155612238Y-89658849D01*
X155646457Y-89674805D01*
X155699742Y-89721722D01*
X155719203Y-89789999D01*
X155698661Y-89857959D01*
X155646457Y-89903195D01*
X155612238Y-89919151D01*
X155612233Y-89919154D01*
X155607251Y-89921477D01*
X155502389Y-89994902D01*
X155424211Y-90049643D01*
X155424208Y-90049645D01*
X155419700Y-90052802D01*
X155257802Y-90214700D01*
X155254645Y-90219208D01*
X155254643Y-90219211D01*
X155199902Y-90297389D01*
X155126477Y-90402251D01*
X155124154Y-90407233D01*
X155124151Y-90407238D01*
X155032039Y-90604775D01*
X155029716Y-90609757D01*
X155028294Y-90615065D01*
X155028293Y-90615067D01*
X154989007Y-90761683D01*
X154970457Y-90830913D01*
X154950502Y-91059000D01*
X154970457Y-91287087D01*
X154971881Y-91292400D01*
X154971881Y-91292402D01*
X155000804Y-91400341D01*
X155029716Y-91508243D01*
X155032039Y-91513224D01*
X155032039Y-91513225D01*
X155124151Y-91710762D01*
X155124154Y-91710767D01*
X155126477Y-91715749D01*
X155192018Y-91809351D01*
X155253968Y-91897824D01*
X155257802Y-91903300D01*
X155419700Y-92065198D01*
X155424208Y-92068355D01*
X155424211Y-92068357D01*
X155435211Y-92076059D01*
X155607251Y-92196523D01*
X155612233Y-92198846D01*
X155612238Y-92198849D01*
X155646457Y-92214805D01*
X155699742Y-92261722D01*
X155719203Y-92329999D01*
X155698661Y-92397959D01*
X155646457Y-92443195D01*
X155612238Y-92459151D01*
X155612233Y-92459154D01*
X155607251Y-92461477D01*
X155502389Y-92534902D01*
X155424211Y-92589643D01*
X155424208Y-92589645D01*
X155419700Y-92592802D01*
X155257802Y-92754700D01*
X155126477Y-92942251D01*
X155124154Y-92947233D01*
X155124151Y-92947238D01*
X155124034Y-92947489D01*
X155029716Y-93149757D01*
X155028294Y-93155065D01*
X155028293Y-93155067D01*
X154980756Y-93332478D01*
X154970457Y-93370913D01*
X154950502Y-93599000D01*
X154970457Y-93827087D01*
X154971881Y-93832400D01*
X154971881Y-93832402D01*
X154981031Y-93866548D01*
X155029716Y-94048243D01*
X155032039Y-94053224D01*
X155032039Y-94053225D01*
X155124151Y-94250762D01*
X155124154Y-94250767D01*
X155126477Y-94255749D01*
X155257802Y-94443300D01*
X155419700Y-94605198D01*
X155424208Y-94608355D01*
X155424211Y-94608357D01*
X155502389Y-94663098D01*
X155607251Y-94736523D01*
X155612233Y-94738846D01*
X155612238Y-94738849D01*
X155646457Y-94754805D01*
X155699742Y-94801722D01*
X155719203Y-94869999D01*
X155698661Y-94937959D01*
X155646457Y-94983195D01*
X155612238Y-94999151D01*
X155612233Y-94999154D01*
X155607251Y-95001477D01*
X155502389Y-95074902D01*
X155424211Y-95129643D01*
X155424208Y-95129645D01*
X155419700Y-95132802D01*
X155257802Y-95294700D01*
X155126477Y-95482251D01*
X155124154Y-95487233D01*
X155124151Y-95487238D01*
X155041483Y-95664522D01*
X155029716Y-95689757D01*
X155028294Y-95695065D01*
X155028293Y-95695067D01*
X154980756Y-95872478D01*
X154970457Y-95910913D01*
X154950502Y-96139000D01*
X154970457Y-96367087D01*
X155029716Y-96588243D01*
X155032039Y-96593224D01*
X155032039Y-96593225D01*
X155124151Y-96790762D01*
X155124154Y-96790767D01*
X155126477Y-96795749D01*
X155257802Y-96983300D01*
X155419700Y-97145198D01*
X155424208Y-97148355D01*
X155424211Y-97148357D01*
X155502389Y-97203098D01*
X155607251Y-97276523D01*
X155612233Y-97278846D01*
X155612238Y-97278849D01*
X155646457Y-97294805D01*
X155699742Y-97341722D01*
X155719203Y-97409999D01*
X155698661Y-97477959D01*
X155646457Y-97523195D01*
X155612238Y-97539151D01*
X155612233Y-97539154D01*
X155607251Y-97541477D01*
X155502389Y-97614902D01*
X155424211Y-97669643D01*
X155424208Y-97669645D01*
X155419700Y-97672802D01*
X155257802Y-97834700D01*
X155126477Y-98022251D01*
X155124154Y-98027233D01*
X155124151Y-98027238D01*
X155045619Y-98195652D01*
X155029716Y-98229757D01*
X155028294Y-98235065D01*
X155028293Y-98235067D01*
X154988976Y-98381798D01*
X154970457Y-98450913D01*
X154950502Y-98679000D01*
X154970457Y-98907087D01*
X154971881Y-98912400D01*
X154971881Y-98912402D01*
X155007313Y-99044633D01*
X155029716Y-99128243D01*
X155032039Y-99133224D01*
X155032039Y-99133225D01*
X155124151Y-99330762D01*
X155124154Y-99330767D01*
X155126477Y-99335749D01*
X155257802Y-99523300D01*
X155419700Y-99685198D01*
X155424208Y-99688355D01*
X155424211Y-99688357D01*
X155484629Y-99730662D01*
X155607251Y-99816523D01*
X155612233Y-99818846D01*
X155612238Y-99818849D01*
X155646457Y-99834805D01*
X155699742Y-99881722D01*
X155719203Y-99949999D01*
X155698661Y-100017959D01*
X155646457Y-100063195D01*
X155612238Y-100079151D01*
X155612233Y-100079154D01*
X155607251Y-100081477D01*
X155502389Y-100154902D01*
X155424211Y-100209643D01*
X155424208Y-100209645D01*
X155419700Y-100212802D01*
X155257802Y-100374700D01*
X155254645Y-100379208D01*
X155254643Y-100379211D01*
X155199902Y-100457389D01*
X155126477Y-100562251D01*
X155124154Y-100567233D01*
X155124151Y-100567238D01*
X155034139Y-100760272D01*
X155029716Y-100769757D01*
X154970457Y-100990913D01*
X154950502Y-101219000D01*
X154970457Y-101447087D01*
X154971881Y-101452400D01*
X154971881Y-101452402D01*
X155007313Y-101584633D01*
X155029716Y-101668243D01*
X155032039Y-101673224D01*
X155032039Y-101673225D01*
X155124151Y-101870762D01*
X155124154Y-101870767D01*
X155126477Y-101875749D01*
X155170779Y-101939019D01*
X155220295Y-102009734D01*
X155257802Y-102063300D01*
X155419700Y-102225198D01*
X155424208Y-102228355D01*
X155424211Y-102228357D01*
X155440589Y-102239825D01*
X155607251Y-102356523D01*
X155612233Y-102358846D01*
X155612238Y-102358849D01*
X155646457Y-102374805D01*
X155699742Y-102421722D01*
X155719203Y-102489999D01*
X155698661Y-102557959D01*
X155646457Y-102603195D01*
X155612238Y-102619151D01*
X155612233Y-102619154D01*
X155607251Y-102621477D01*
X155593127Y-102631367D01*
X155424211Y-102749643D01*
X155424208Y-102749645D01*
X155419700Y-102752802D01*
X155257802Y-102914700D01*
X155254645Y-102919208D01*
X155254643Y-102919211D01*
X155199902Y-102997389D01*
X155126477Y-103102251D01*
X155124154Y-103107233D01*
X155124151Y-103107238D01*
X155090870Y-103178610D01*
X155029716Y-103309757D01*
X155028294Y-103315065D01*
X155028293Y-103315067D01*
X154983716Y-103481430D01*
X154970457Y-103530913D01*
X154950502Y-103759000D01*
X154970457Y-103987087D01*
X155029716Y-104208243D01*
X155032039Y-104213224D01*
X155032039Y-104213225D01*
X155124151Y-104410762D01*
X155124154Y-104410767D01*
X155126477Y-104415749D01*
X155257802Y-104603300D01*
X155419700Y-104765198D01*
X155424208Y-104768355D01*
X155424211Y-104768357D01*
X155429210Y-104771857D01*
X155607251Y-104896523D01*
X155612233Y-104898846D01*
X155612238Y-104898849D01*
X155809775Y-104990961D01*
X155814757Y-104993284D01*
X155820065Y-104994706D01*
X155820067Y-104994707D01*
X156030598Y-105051119D01*
X156030600Y-105051119D01*
X156035913Y-105052543D01*
X156135480Y-105061254D01*
X156204149Y-105067262D01*
X156204156Y-105067262D01*
X156206873Y-105067500D01*
X156721127Y-105067500D01*
X156723844Y-105067262D01*
X156723851Y-105067262D01*
X156792520Y-105061254D01*
X156892087Y-105052543D01*
X156897400Y-105051119D01*
X156897402Y-105051119D01*
X157107933Y-104994707D01*
X157107935Y-104994706D01*
X157113243Y-104993284D01*
X157118225Y-104990961D01*
X157315762Y-104898849D01*
X157315767Y-104898846D01*
X157320749Y-104896523D01*
X157498790Y-104771857D01*
X157503789Y-104768357D01*
X157503792Y-104768355D01*
X157508300Y-104765198D01*
X157670198Y-104603300D01*
X157801523Y-104415749D01*
X157803846Y-104410767D01*
X157803849Y-104410762D01*
X157895961Y-104213225D01*
X157895961Y-104213224D01*
X157898284Y-104208243D01*
X157957543Y-103987087D01*
X157977498Y-103759000D01*
X157957543Y-103530913D01*
X157944284Y-103481430D01*
X157899707Y-103315067D01*
X157899706Y-103315065D01*
X157898284Y-103309757D01*
X157837130Y-103178610D01*
X157803849Y-103107238D01*
X157803846Y-103107233D01*
X157801523Y-103102251D01*
X157728098Y-102997389D01*
X157673357Y-102919211D01*
X157673355Y-102919208D01*
X157670198Y-102914700D01*
X157508300Y-102752802D01*
X157503792Y-102749645D01*
X157503789Y-102749643D01*
X157334873Y-102631367D01*
X157320749Y-102621477D01*
X157315767Y-102619154D01*
X157315762Y-102619151D01*
X157281543Y-102603195D01*
X157228258Y-102556278D01*
X157208797Y-102488001D01*
X157229339Y-102420041D01*
X157281543Y-102374805D01*
X157315762Y-102358849D01*
X157315767Y-102358846D01*
X157320749Y-102356523D01*
X157461044Y-102258287D01*
X157533315Y-102235500D01*
X159322724Y-102235500D01*
X159336332Y-102236237D01*
X159368179Y-102239697D01*
X159368183Y-102239697D01*
X159374304Y-102240362D01*
X159411172Y-102237137D01*
X159424690Y-102235954D01*
X159429518Y-102235625D01*
X159432073Y-102235500D01*
X159435157Y-102235500D01*
X159450531Y-102233992D01*
X159478219Y-102231278D01*
X159479532Y-102231156D01*
X159519629Y-102227648D01*
X159572892Y-102222988D01*
X159578052Y-102221489D01*
X159583394Y-102220965D01*
X159673096Y-102193883D01*
X159674236Y-102193545D01*
X159764322Y-102167372D01*
X159769090Y-102164900D01*
X159774232Y-102163348D01*
X159779677Y-102160453D01*
X159779684Y-102160450D01*
X159856950Y-102119367D01*
X159858054Y-102118787D01*
X159941304Y-102075634D01*
X159945503Y-102072282D01*
X159950244Y-102069761D01*
X159989455Y-102037781D01*
X160022829Y-102010562D01*
X160023855Y-102009734D01*
X160060564Y-101980429D01*
X160060565Y-101980428D01*
X160063316Y-101978232D01*
X160065811Y-101975737D01*
X160066605Y-101975027D01*
X160070960Y-101971307D01*
X160099951Y-101947663D01*
X160099954Y-101947660D01*
X160104726Y-101943768D01*
X160134211Y-101908127D01*
X160142200Y-101899348D01*
X161710733Y-100330815D01*
X161720876Y-100321713D01*
X161745849Y-100301634D01*
X161750649Y-100297775D01*
X161783165Y-100259024D01*
X161786347Y-100255376D01*
X161788050Y-100253498D01*
X161790241Y-100251307D01*
X161817741Y-100217828D01*
X161818577Y-100216821D01*
X161874826Y-100149787D01*
X161874828Y-100149783D01*
X161878786Y-100145067D01*
X161881375Y-100140358D01*
X161884782Y-100136210D01*
X161887690Y-100130786D01*
X161887693Y-100130782D01*
X161929050Y-100053651D01*
X161929679Y-100052492D01*
X161971854Y-99975776D01*
X161974821Y-99970379D01*
X161976444Y-99965263D01*
X161978984Y-99960526D01*
X162006384Y-99870904D01*
X162006767Y-99869674D01*
X162033236Y-99786234D01*
X162035098Y-99780365D01*
X162035697Y-99775027D01*
X162037267Y-99769891D01*
X162046746Y-99676569D01*
X162046866Y-99675449D01*
X162052500Y-99625216D01*
X162052500Y-99621711D01*
X162052562Y-99620603D01*
X162053010Y-99614908D01*
X162056790Y-99577695D01*
X162056790Y-99577688D01*
X162057412Y-99571565D01*
X162053059Y-99525514D01*
X162052500Y-99513657D01*
X162052500Y-91913238D01*
X162072502Y-91845117D01*
X162089405Y-91824143D01*
X162944143Y-90969405D01*
X163006455Y-90935379D01*
X163033238Y-90932500D01*
X167166762Y-90932500D01*
X167234883Y-90952502D01*
X167255857Y-90969405D01*
X168110595Y-91824143D01*
X168144621Y-91886455D01*
X168147500Y-91913238D01*
X168147500Y-105093724D01*
X168146763Y-105107332D01*
X168142638Y-105145304D01*
X168144053Y-105161477D01*
X168147046Y-105195690D01*
X168147375Y-105200518D01*
X168147500Y-105203073D01*
X168147500Y-105206157D01*
X168147801Y-105209224D01*
X168151722Y-105249219D01*
X168151844Y-105250532D01*
X168152891Y-105262498D01*
X168160012Y-105343892D01*
X168161511Y-105349052D01*
X168162035Y-105354394D01*
X168163816Y-105360292D01*
X168189098Y-105444031D01*
X168189455Y-105445236D01*
X168215628Y-105535322D01*
X168218100Y-105540090D01*
X168219652Y-105545232D01*
X168222547Y-105550677D01*
X168222548Y-105550679D01*
X168263624Y-105627932D01*
X168264202Y-105629033D01*
X168307366Y-105712304D01*
X168310718Y-105716503D01*
X168313239Y-105721244D01*
X168317131Y-105726016D01*
X168372438Y-105793829D01*
X168373266Y-105794855D01*
X168402571Y-105831564D01*
X168404768Y-105834316D01*
X168407263Y-105836811D01*
X168407973Y-105837605D01*
X168411693Y-105841960D01*
X168435337Y-105870951D01*
X168435340Y-105870954D01*
X168439232Y-105875726D01*
X168443980Y-105879654D01*
X168443981Y-105879655D01*
X168474873Y-105905211D01*
X168483652Y-105913200D01*
X169544185Y-106973733D01*
X169553286Y-106983875D01*
X169577225Y-107013649D01*
X169616002Y-107046187D01*
X169619629Y-107049351D01*
X169621498Y-107051046D01*
X169623692Y-107053240D01*
X169657258Y-107080812D01*
X169658055Y-107081474D01*
X169729933Y-107141786D01*
X169734639Y-107144373D01*
X169738789Y-107147782D01*
X169744213Y-107150690D01*
X169744223Y-107150697D01*
X169821368Y-107192061D01*
X169822528Y-107192690D01*
X169904621Y-107237821D01*
X169909741Y-107239445D01*
X169914474Y-107241983D01*
X169993716Y-107266210D01*
X170003993Y-107269352D01*
X170005252Y-107269744D01*
X170088761Y-107296235D01*
X170088765Y-107296236D01*
X170094635Y-107298098D01*
X170099973Y-107298697D01*
X170105109Y-107300267D01*
X170111239Y-107300890D01*
X170111241Y-107300890D01*
X170138737Y-107303683D01*
X170198368Y-107309739D01*
X170199508Y-107309861D01*
X170249784Y-107315500D01*
X170253290Y-107315500D01*
X170254416Y-107315563D01*
X170260110Y-107316011D01*
X170297305Y-107319789D01*
X170297311Y-107319789D01*
X170303435Y-107320411D01*
X170349477Y-107316059D01*
X170361334Y-107315500D01*
X171704685Y-107315500D01*
X171776956Y-107338287D01*
X171917251Y-107436523D01*
X171922233Y-107438846D01*
X171922238Y-107438849D01*
X171956457Y-107454805D01*
X172009742Y-107501722D01*
X172029203Y-107569999D01*
X172008661Y-107637959D01*
X171956457Y-107683195D01*
X171922238Y-107699151D01*
X171922233Y-107699154D01*
X171917251Y-107701477D01*
X171812389Y-107774902D01*
X171734211Y-107829643D01*
X171734208Y-107829645D01*
X171729700Y-107832802D01*
X171567802Y-107994700D01*
X171564645Y-107999208D01*
X171564643Y-107999211D01*
X171522859Y-108058885D01*
X171436477Y-108182251D01*
X171434154Y-108187233D01*
X171434151Y-108187238D01*
X171342039Y-108384775D01*
X171339716Y-108389757D01*
X171280457Y-108610913D01*
X171260502Y-108839000D01*
X171280457Y-109067087D01*
X171339716Y-109288243D01*
X171342039Y-109293224D01*
X171342039Y-109293225D01*
X171434151Y-109490762D01*
X171434154Y-109490767D01*
X171436477Y-109495749D01*
X171509902Y-109600611D01*
X171544012Y-109649324D01*
X171567802Y-109683300D01*
X171729700Y-109845198D01*
X171734211Y-109848357D01*
X171738424Y-109851892D01*
X171737473Y-109853026D01*
X171777471Y-109903071D01*
X171784776Y-109973690D01*
X171752742Y-110037049D01*
X171691538Y-110073030D01*
X171674483Y-110076082D01*
X171663684Y-110077255D01*
X171527295Y-110128385D01*
X171410739Y-110215739D01*
X171323385Y-110332295D01*
X171272255Y-110468684D01*
X171265500Y-110530866D01*
X171265500Y-112227134D01*
X171272255Y-112289316D01*
X171323385Y-112425705D01*
X171410739Y-112542261D01*
X171527295Y-112629615D01*
X171663684Y-112680745D01*
X171725866Y-112687500D01*
X174222134Y-112687500D01*
X174284316Y-112680745D01*
X174420705Y-112629615D01*
X174537261Y-112542261D01*
X174624615Y-112425705D01*
X174675745Y-112289316D01*
X174682500Y-112227134D01*
X174682500Y-110530866D01*
X174675745Y-110468684D01*
X174624615Y-110332295D01*
X174537261Y-110215739D01*
X174420705Y-110128385D01*
X174284316Y-110077255D01*
X174273526Y-110076083D01*
X174271394Y-110075197D01*
X174268778Y-110074575D01*
X174268879Y-110074152D01*
X174207965Y-110048845D01*
X174167537Y-109990483D01*
X174165078Y-109919529D01*
X174201371Y-109858510D01*
X174210031Y-109851511D01*
X174213793Y-109848354D01*
X174218300Y-109845198D01*
X174380198Y-109683300D01*
X174403989Y-109649324D01*
X174438098Y-109600611D01*
X174511523Y-109495749D01*
X174513846Y-109490767D01*
X174513849Y-109490762D01*
X174605961Y-109293225D01*
X174605961Y-109293224D01*
X174608284Y-109288243D01*
X174667543Y-109067087D01*
X174687498Y-108839000D01*
X174667543Y-108610913D01*
X174608284Y-108389757D01*
X174605961Y-108384775D01*
X174513849Y-108187238D01*
X174513846Y-108187233D01*
X174511523Y-108182251D01*
X174425141Y-108058885D01*
X174383357Y-107999211D01*
X174383355Y-107999208D01*
X174380198Y-107994700D01*
X174218300Y-107832802D01*
X174213792Y-107829645D01*
X174213789Y-107829643D01*
X174135611Y-107774902D01*
X174030749Y-107701477D01*
X174025767Y-107699154D01*
X174025762Y-107699151D01*
X173991543Y-107683195D01*
X173938258Y-107636278D01*
X173918797Y-107568001D01*
X173939339Y-107500041D01*
X173991543Y-107454805D01*
X174025762Y-107438849D01*
X174025767Y-107438846D01*
X174030749Y-107436523D01*
X174202789Y-107316059D01*
X174213789Y-107308357D01*
X174213792Y-107308355D01*
X174218300Y-107305198D01*
X174380198Y-107143300D01*
X174384033Y-107137824D01*
X174445982Y-107049351D01*
X174511523Y-106955749D01*
X174513846Y-106950767D01*
X174513849Y-106950762D01*
X174605961Y-106753225D01*
X174605961Y-106753224D01*
X174608284Y-106748243D01*
X174667543Y-106527087D01*
X174687498Y-106299000D01*
X174667543Y-106070913D01*
X174616295Y-105879655D01*
X174609707Y-105855067D01*
X174609706Y-105855065D01*
X174608284Y-105849757D01*
X174602830Y-105838061D01*
X174513849Y-105647238D01*
X174513846Y-105647233D01*
X174511523Y-105642251D01*
X174380198Y-105454700D01*
X174218300Y-105292802D01*
X174213792Y-105289645D01*
X174213789Y-105289643D01*
X174135611Y-105234902D01*
X174030749Y-105161477D01*
X174025767Y-105159154D01*
X174025762Y-105159151D01*
X173991543Y-105143195D01*
X173938258Y-105096278D01*
X173918797Y-105028001D01*
X173939339Y-104960041D01*
X173991543Y-104914805D01*
X174025762Y-104898849D01*
X174025767Y-104898846D01*
X174030749Y-104896523D01*
X174208790Y-104771857D01*
X174213789Y-104768357D01*
X174213792Y-104768355D01*
X174218300Y-104765198D01*
X174380198Y-104603300D01*
X174511523Y-104415749D01*
X174513846Y-104410767D01*
X174513849Y-104410762D01*
X174605961Y-104213225D01*
X174605961Y-104213224D01*
X174608284Y-104208243D01*
X174667543Y-103987087D01*
X174687498Y-103759000D01*
X174667543Y-103530913D01*
X174654284Y-103481430D01*
X174609707Y-103315067D01*
X174609706Y-103315065D01*
X174608284Y-103309757D01*
X174547130Y-103178610D01*
X174513849Y-103107238D01*
X174513846Y-103107233D01*
X174511523Y-103102251D01*
X174438098Y-102997389D01*
X174383357Y-102919211D01*
X174383355Y-102919208D01*
X174380198Y-102914700D01*
X174218300Y-102752802D01*
X174213792Y-102749645D01*
X174213789Y-102749643D01*
X174044873Y-102631367D01*
X174030749Y-102621477D01*
X174025767Y-102619154D01*
X174025762Y-102619151D01*
X173991543Y-102603195D01*
X173938258Y-102556278D01*
X173918797Y-102488001D01*
X173939339Y-102420041D01*
X173991543Y-102374805D01*
X174025762Y-102358849D01*
X174025767Y-102358846D01*
X174030749Y-102356523D01*
X174197411Y-102239825D01*
X174213789Y-102228357D01*
X174213792Y-102228355D01*
X174218300Y-102225198D01*
X174380198Y-102063300D01*
X174417706Y-102009734D01*
X174467221Y-101939019D01*
X174511523Y-101875749D01*
X174513846Y-101870767D01*
X174513849Y-101870762D01*
X174605961Y-101673225D01*
X174605961Y-101673224D01*
X174608284Y-101668243D01*
X174630688Y-101584633D01*
X174666119Y-101452402D01*
X174666119Y-101452400D01*
X174667543Y-101447087D01*
X174687498Y-101219000D01*
X174667543Y-100990913D01*
X174608284Y-100769757D01*
X174603861Y-100760272D01*
X174513849Y-100567238D01*
X174513846Y-100567233D01*
X174511523Y-100562251D01*
X174438098Y-100457389D01*
X174383357Y-100379211D01*
X174383355Y-100379208D01*
X174380198Y-100374700D01*
X174218300Y-100212802D01*
X174213792Y-100209645D01*
X174213789Y-100209643D01*
X174135611Y-100154902D01*
X174030749Y-100081477D01*
X174025767Y-100079154D01*
X174025762Y-100079151D01*
X173991543Y-100063195D01*
X173938258Y-100016278D01*
X173918797Y-99948001D01*
X173939339Y-99880041D01*
X173991543Y-99834805D01*
X174025762Y-99818849D01*
X174025767Y-99818846D01*
X174030749Y-99816523D01*
X174153371Y-99730662D01*
X174213789Y-99688357D01*
X174213792Y-99688355D01*
X174218300Y-99685198D01*
X174380198Y-99523300D01*
X174511523Y-99335749D01*
X174513846Y-99330767D01*
X174513849Y-99330762D01*
X174605961Y-99133225D01*
X174605961Y-99133224D01*
X174608284Y-99128243D01*
X174630688Y-99044633D01*
X174666119Y-98912402D01*
X174666119Y-98912400D01*
X174667543Y-98907087D01*
X174687498Y-98679000D01*
X174667543Y-98450913D01*
X174649024Y-98381798D01*
X174609707Y-98235067D01*
X174609706Y-98235065D01*
X174608284Y-98229757D01*
X174592381Y-98195652D01*
X174513849Y-98027238D01*
X174513846Y-98027233D01*
X174511523Y-98022251D01*
X174380198Y-97834700D01*
X174218300Y-97672802D01*
X174213792Y-97669645D01*
X174213789Y-97669643D01*
X174135611Y-97614902D01*
X174030749Y-97541477D01*
X174025767Y-97539154D01*
X174025762Y-97539151D01*
X173990951Y-97522919D01*
X173937666Y-97476002D01*
X173918205Y-97407725D01*
X173938747Y-97339765D01*
X173990951Y-97294529D01*
X174025511Y-97278414D01*
X174035007Y-97272931D01*
X174213467Y-97147972D01*
X174221875Y-97140916D01*
X174375916Y-96986875D01*
X174382972Y-96978467D01*
X174507931Y-96800007D01*
X174513414Y-96790511D01*
X174605490Y-96593053D01*
X174609236Y-96582761D01*
X174655394Y-96410497D01*
X174655058Y-96396401D01*
X174647116Y-96393000D01*
X171306033Y-96393000D01*
X171292502Y-96396973D01*
X171291273Y-96405522D01*
X171338764Y-96582761D01*
X171342510Y-96593053D01*
X171434586Y-96790511D01*
X171440069Y-96800007D01*
X171565028Y-96978467D01*
X171572084Y-96986875D01*
X171726125Y-97140916D01*
X171734533Y-97147972D01*
X171912993Y-97272931D01*
X171922489Y-97278414D01*
X171957049Y-97294529D01*
X172010334Y-97341446D01*
X172029795Y-97409723D01*
X172009253Y-97477683D01*
X171957049Y-97522919D01*
X171922238Y-97539151D01*
X171922233Y-97539154D01*
X171917251Y-97541477D01*
X171812389Y-97614902D01*
X171734211Y-97669643D01*
X171734208Y-97669645D01*
X171729700Y-97672802D01*
X171567802Y-97834700D01*
X171436477Y-98022251D01*
X171434154Y-98027233D01*
X171434151Y-98027238D01*
X171355619Y-98195652D01*
X171339716Y-98229757D01*
X171338294Y-98235065D01*
X171338293Y-98235067D01*
X171298976Y-98381798D01*
X171280457Y-98450913D01*
X171260502Y-98679000D01*
X171280457Y-98907087D01*
X171281881Y-98912400D01*
X171281881Y-98912402D01*
X171317313Y-99044633D01*
X171339716Y-99128243D01*
X171342039Y-99133224D01*
X171342039Y-99133225D01*
X171434151Y-99330762D01*
X171434154Y-99330767D01*
X171436477Y-99335749D01*
X171567802Y-99523300D01*
X171729700Y-99685198D01*
X171734208Y-99688355D01*
X171734211Y-99688357D01*
X171794629Y-99730662D01*
X171917251Y-99816523D01*
X171922233Y-99818846D01*
X171922238Y-99818849D01*
X171956457Y-99834805D01*
X172009742Y-99881722D01*
X172029203Y-99949999D01*
X172008661Y-100017959D01*
X171956457Y-100063195D01*
X171922238Y-100079151D01*
X171922233Y-100079154D01*
X171917251Y-100081477D01*
X171812389Y-100154902D01*
X171734211Y-100209643D01*
X171734208Y-100209645D01*
X171729700Y-100212802D01*
X171567802Y-100374700D01*
X171564645Y-100379208D01*
X171564643Y-100379211D01*
X171509902Y-100457389D01*
X171436477Y-100562251D01*
X171434154Y-100567233D01*
X171434151Y-100567238D01*
X171344139Y-100760272D01*
X171339716Y-100769757D01*
X171280457Y-100990913D01*
X171260502Y-101219000D01*
X171280457Y-101447087D01*
X171281881Y-101452400D01*
X171281881Y-101452402D01*
X171317313Y-101584633D01*
X171339716Y-101668243D01*
X171342039Y-101673224D01*
X171342039Y-101673225D01*
X171434151Y-101870762D01*
X171434154Y-101870767D01*
X171436477Y-101875749D01*
X171480779Y-101939019D01*
X171530295Y-102009734D01*
X171567802Y-102063300D01*
X171729700Y-102225198D01*
X171734208Y-102228355D01*
X171734211Y-102228357D01*
X171750589Y-102239825D01*
X171917251Y-102356523D01*
X171922233Y-102358846D01*
X171922238Y-102358849D01*
X171956457Y-102374805D01*
X172009742Y-102421722D01*
X172029203Y-102489999D01*
X172008661Y-102557959D01*
X171956457Y-102603195D01*
X171922238Y-102619151D01*
X171922233Y-102619154D01*
X171917251Y-102621477D01*
X171903127Y-102631367D01*
X171734211Y-102749643D01*
X171734208Y-102749645D01*
X171729700Y-102752802D01*
X171567802Y-102914700D01*
X171564645Y-102919208D01*
X171564643Y-102919211D01*
X171509902Y-102997389D01*
X171436477Y-103102251D01*
X171434154Y-103107233D01*
X171434151Y-103107238D01*
X171400870Y-103178610D01*
X171339716Y-103309757D01*
X171338294Y-103315065D01*
X171338293Y-103315067D01*
X171293716Y-103481430D01*
X171280457Y-103530913D01*
X171260502Y-103759000D01*
X171280457Y-103987087D01*
X171339716Y-104208243D01*
X171342039Y-104213224D01*
X171342039Y-104213225D01*
X171434151Y-104410762D01*
X171434154Y-104410767D01*
X171436477Y-104415749D01*
X171567802Y-104603300D01*
X171729700Y-104765198D01*
X171734208Y-104768355D01*
X171734211Y-104768357D01*
X171739210Y-104771857D01*
X171917251Y-104896523D01*
X171922233Y-104898846D01*
X171922238Y-104898849D01*
X171956457Y-104914805D01*
X172009742Y-104961722D01*
X172029203Y-105029999D01*
X172008661Y-105097959D01*
X171956457Y-105143195D01*
X171922238Y-105159151D01*
X171922233Y-105159154D01*
X171917251Y-105161477D01*
X171868390Y-105195690D01*
X171776956Y-105259713D01*
X171704685Y-105282500D01*
X170780238Y-105282500D01*
X170712117Y-105262498D01*
X170691143Y-105245595D01*
X170217405Y-104771857D01*
X170183379Y-104709545D01*
X170180500Y-104682762D01*
X170180500Y-93865522D01*
X171291273Y-93865522D01*
X171338764Y-94042761D01*
X171342510Y-94053053D01*
X171434586Y-94250511D01*
X171440069Y-94260007D01*
X171565028Y-94438467D01*
X171572084Y-94446875D01*
X171726125Y-94600916D01*
X171734533Y-94607972D01*
X171912993Y-94732931D01*
X171922489Y-94738414D01*
X171957641Y-94754805D01*
X172010926Y-94801722D01*
X172030387Y-94869999D01*
X172009845Y-94937959D01*
X171957641Y-94983195D01*
X171922489Y-94999586D01*
X171912993Y-95005069D01*
X171734533Y-95130028D01*
X171726125Y-95137084D01*
X171572084Y-95291125D01*
X171565028Y-95299533D01*
X171440069Y-95477993D01*
X171434586Y-95487489D01*
X171342510Y-95684947D01*
X171338764Y-95695239D01*
X171292606Y-95867503D01*
X171292942Y-95881599D01*
X171300884Y-95885000D01*
X172701885Y-95885000D01*
X172717124Y-95880525D01*
X172718329Y-95879135D01*
X172720000Y-95871452D01*
X172720000Y-95866885D01*
X173228000Y-95866885D01*
X173232475Y-95882124D01*
X173233865Y-95883329D01*
X173241548Y-95885000D01*
X174641967Y-95885000D01*
X174655498Y-95881027D01*
X174656727Y-95872478D01*
X174609236Y-95695239D01*
X174605490Y-95684947D01*
X174513414Y-95487489D01*
X174507931Y-95477993D01*
X174382972Y-95299533D01*
X174375916Y-95291125D01*
X174221875Y-95137084D01*
X174213467Y-95130028D01*
X174035007Y-95005069D01*
X174025511Y-94999586D01*
X173990359Y-94983195D01*
X173937074Y-94936278D01*
X173917613Y-94868001D01*
X173938155Y-94800041D01*
X173990359Y-94754805D01*
X174025511Y-94738414D01*
X174035007Y-94732931D01*
X174213467Y-94607972D01*
X174221875Y-94600916D01*
X174375916Y-94446875D01*
X174382972Y-94438467D01*
X174507931Y-94260007D01*
X174513414Y-94250511D01*
X174605490Y-94053053D01*
X174609236Y-94042761D01*
X174655394Y-93870497D01*
X174655058Y-93856401D01*
X174647116Y-93853000D01*
X173246115Y-93853000D01*
X173230876Y-93857475D01*
X173229671Y-93858865D01*
X173228000Y-93866548D01*
X173228000Y-95866885D01*
X172720000Y-95866885D01*
X172720000Y-93871115D01*
X172715525Y-93855876D01*
X172714135Y-93854671D01*
X172706452Y-93853000D01*
X171306033Y-93853000D01*
X171292502Y-93856973D01*
X171291273Y-93865522D01*
X170180500Y-93865522D01*
X170180500Y-93327503D01*
X171292606Y-93327503D01*
X171292942Y-93341599D01*
X171300884Y-93345000D01*
X172701885Y-93345000D01*
X172717124Y-93340525D01*
X172718329Y-93339135D01*
X172720000Y-93331452D01*
X172720000Y-93326885D01*
X173228000Y-93326885D01*
X173232475Y-93342124D01*
X173233865Y-93343329D01*
X173241548Y-93345000D01*
X174641967Y-93345000D01*
X174655498Y-93341027D01*
X174656727Y-93332478D01*
X174609236Y-93155239D01*
X174605490Y-93144947D01*
X174513414Y-92947489D01*
X174507931Y-92937993D01*
X174382972Y-92759533D01*
X174375916Y-92751125D01*
X174221875Y-92597084D01*
X174213467Y-92590028D01*
X174035007Y-92465069D01*
X174025511Y-92459586D01*
X173828053Y-92367510D01*
X173817761Y-92363764D01*
X173607312Y-92307375D01*
X173596519Y-92305472D01*
X173433830Y-92291238D01*
X173428365Y-92291000D01*
X173246115Y-92291000D01*
X173230876Y-92295475D01*
X173229671Y-92296865D01*
X173228000Y-92304548D01*
X173228000Y-93326885D01*
X172720000Y-93326885D01*
X172720000Y-92309115D01*
X172715525Y-92293876D01*
X172714135Y-92292671D01*
X172706452Y-92291000D01*
X172519635Y-92291000D01*
X172514170Y-92291238D01*
X172351481Y-92305472D01*
X172340688Y-92307375D01*
X172130239Y-92363764D01*
X172119947Y-92367510D01*
X171922489Y-92459586D01*
X171912993Y-92465069D01*
X171734533Y-92590028D01*
X171726125Y-92597084D01*
X171572084Y-92751125D01*
X171565028Y-92759533D01*
X171440069Y-92937993D01*
X171434586Y-92947489D01*
X171342510Y-93144947D01*
X171338764Y-93155239D01*
X171292606Y-93327503D01*
X170180500Y-93327503D01*
X170180500Y-91502273D01*
X170181237Y-91488665D01*
X170184696Y-91456821D01*
X170185362Y-91450695D01*
X170180955Y-91400322D01*
X170180626Y-91395507D01*
X170180500Y-91392931D01*
X170180500Y-91389843D01*
X170176267Y-91346665D01*
X170176146Y-91345354D01*
X170168524Y-91258245D01*
X170167987Y-91252108D01*
X170166489Y-91246953D01*
X170165965Y-91241606D01*
X170138842Y-91151771D01*
X170138500Y-91150615D01*
X170114091Y-91066596D01*
X170114089Y-91066590D01*
X170112371Y-91060678D01*
X170109902Y-91055914D01*
X170108348Y-91050768D01*
X170064310Y-90967944D01*
X170063763Y-90966902D01*
X170023471Y-90889170D01*
X170023471Y-90889169D01*
X170020633Y-90883695D01*
X170017282Y-90879497D01*
X170014761Y-90874756D01*
X169955613Y-90802233D01*
X169954785Y-90801208D01*
X169925428Y-90764434D01*
X169923232Y-90761683D01*
X169920736Y-90759187D01*
X169920017Y-90758383D01*
X169916297Y-90754028D01*
X169892663Y-90725049D01*
X169892660Y-90725046D01*
X169888768Y-90720274D01*
X169853133Y-90690794D01*
X169844354Y-90682805D01*
X168402815Y-89241267D01*
X168393713Y-89231124D01*
X168373634Y-89206151D01*
X168369775Y-89201351D01*
X168330998Y-89168813D01*
X168327371Y-89165649D01*
X168325502Y-89163954D01*
X168323308Y-89161760D01*
X168289742Y-89134188D01*
X168288945Y-89133526D01*
X168217067Y-89073214D01*
X168212361Y-89070627D01*
X168208211Y-89067218D01*
X168202787Y-89064310D01*
X168202777Y-89064303D01*
X168125632Y-89022939D01*
X168124472Y-89022310D01*
X168106972Y-89012689D01*
X168042379Y-88977179D01*
X168037259Y-88975555D01*
X168032526Y-88973017D01*
X167953284Y-88948790D01*
X167943007Y-88945648D01*
X167941748Y-88945256D01*
X167858239Y-88918765D01*
X167858235Y-88918764D01*
X167852365Y-88916902D01*
X167847027Y-88916303D01*
X167841891Y-88914733D01*
X167835760Y-88914110D01*
X167835759Y-88914110D01*
X167815113Y-88912013D01*
X167748569Y-88905254D01*
X167747449Y-88905134D01*
X167697216Y-88899500D01*
X167693711Y-88899500D01*
X167692603Y-88899438D01*
X167686908Y-88898990D01*
X167649695Y-88895210D01*
X167649688Y-88895210D01*
X167643565Y-88894588D01*
X167599398Y-88898763D01*
X167597515Y-88898941D01*
X167585657Y-88899500D01*
X162622273Y-88899500D01*
X162608665Y-88898763D01*
X162570695Y-88894638D01*
X162564557Y-88895175D01*
X162564555Y-88895175D01*
X162548472Y-88896582D01*
X162520322Y-88899045D01*
X162515507Y-88899374D01*
X162512931Y-88899500D01*
X162509843Y-88899500D01*
X162490931Y-88901354D01*
X162466665Y-88903733D01*
X162465354Y-88903854D01*
X162378245Y-88911476D01*
X162372108Y-88912013D01*
X162366953Y-88913511D01*
X162361606Y-88914035D01*
X162271771Y-88941158D01*
X162270615Y-88941500D01*
X162186596Y-88965909D01*
X162186590Y-88965911D01*
X162180678Y-88967629D01*
X162175914Y-88970098D01*
X162170768Y-88971652D01*
X162087944Y-89015690D01*
X162086902Y-89016237D01*
X162009170Y-89056529D01*
X162003695Y-89059367D01*
X161999497Y-89062718D01*
X161994756Y-89065239D01*
X161989979Y-89069135D01*
X161922233Y-89124387D01*
X161921208Y-89125215D01*
X161881683Y-89156768D01*
X161879187Y-89159264D01*
X161878383Y-89159983D01*
X161874028Y-89163703D01*
X161845049Y-89187337D01*
X161845046Y-89187340D01*
X161840274Y-89191232D01*
X161836346Y-89195980D01*
X161836345Y-89195981D01*
X161810794Y-89226867D01*
X161802805Y-89235646D01*
X160361267Y-90677185D01*
X160351125Y-90686286D01*
X160321351Y-90710225D01*
X160288813Y-90749002D01*
X160285649Y-90752629D01*
X160283954Y-90754498D01*
X160281760Y-90756692D01*
X160254188Y-90790258D01*
X160253526Y-90791055D01*
X160193214Y-90862933D01*
X160190627Y-90867639D01*
X160187218Y-90871789D01*
X160184310Y-90877213D01*
X160184303Y-90877223D01*
X160142939Y-90954368D01*
X160142310Y-90955528D01*
X160097179Y-91037621D01*
X160095555Y-91042741D01*
X160093017Y-91047474D01*
X160087171Y-91066596D01*
X160065648Y-91136993D01*
X160065256Y-91138252D01*
X160038765Y-91221761D01*
X160036902Y-91227635D01*
X160036303Y-91232973D01*
X160034733Y-91238109D01*
X160034110Y-91244240D01*
X160034110Y-91244241D01*
X160025263Y-91331343D01*
X160025134Y-91332551D01*
X160019500Y-91382784D01*
X160019500Y-91386289D01*
X160019438Y-91387397D01*
X160018990Y-91393092D01*
X160015210Y-91430305D01*
X160015210Y-91430312D01*
X160014588Y-91436435D01*
X160015168Y-91442566D01*
X160018941Y-91482485D01*
X160019500Y-91494343D01*
X160019500Y-99094762D01*
X159999498Y-99162883D01*
X159982595Y-99183857D01*
X159000857Y-100165595D01*
X158938545Y-100199621D01*
X158911762Y-100202500D01*
X157533315Y-100202500D01*
X157461044Y-100179713D01*
X157412286Y-100145572D01*
X157320749Y-100081477D01*
X157315767Y-100079154D01*
X157315762Y-100079151D01*
X157281543Y-100063195D01*
X157228258Y-100016278D01*
X157208797Y-99948001D01*
X157229339Y-99880041D01*
X157281543Y-99834805D01*
X157315762Y-99818849D01*
X157315767Y-99818846D01*
X157320749Y-99816523D01*
X157443371Y-99730662D01*
X157503789Y-99688357D01*
X157503792Y-99688355D01*
X157508300Y-99685198D01*
X157670198Y-99523300D01*
X157801523Y-99335749D01*
X157803846Y-99330767D01*
X157803849Y-99330762D01*
X157895961Y-99133225D01*
X157895961Y-99133224D01*
X157898284Y-99128243D01*
X157920688Y-99044633D01*
X157956119Y-98912402D01*
X157956119Y-98912400D01*
X157957543Y-98907087D01*
X157977498Y-98679000D01*
X157957543Y-98450913D01*
X157939024Y-98381798D01*
X157899707Y-98235067D01*
X157899706Y-98235065D01*
X157898284Y-98229757D01*
X157882381Y-98195652D01*
X157803849Y-98027238D01*
X157803846Y-98027233D01*
X157801523Y-98022251D01*
X157670198Y-97834700D01*
X157508300Y-97672802D01*
X157503792Y-97669645D01*
X157503789Y-97669643D01*
X157425611Y-97614902D01*
X157320749Y-97541477D01*
X157315767Y-97539154D01*
X157315762Y-97539151D01*
X157281543Y-97523195D01*
X157228258Y-97476278D01*
X157208797Y-97408001D01*
X157229339Y-97340041D01*
X157281543Y-97294805D01*
X157315762Y-97278849D01*
X157315767Y-97278846D01*
X157320749Y-97276523D01*
X157425611Y-97203098D01*
X157503789Y-97148357D01*
X157503792Y-97148355D01*
X157508300Y-97145198D01*
X157670198Y-96983300D01*
X157801523Y-96795749D01*
X157803846Y-96790767D01*
X157803849Y-96790762D01*
X157895961Y-96593225D01*
X157895961Y-96593224D01*
X157898284Y-96588243D01*
X157957543Y-96367087D01*
X157977498Y-96139000D01*
X157957543Y-95910913D01*
X157947244Y-95872478D01*
X157899707Y-95695067D01*
X157899706Y-95695065D01*
X157898284Y-95689757D01*
X157886517Y-95664522D01*
X157803849Y-95487238D01*
X157803846Y-95487233D01*
X157801523Y-95482251D01*
X157670198Y-95294700D01*
X157508300Y-95132802D01*
X157503792Y-95129645D01*
X157503789Y-95129643D01*
X157425611Y-95074902D01*
X157320749Y-95001477D01*
X157315767Y-94999154D01*
X157315762Y-94999151D01*
X157281543Y-94983195D01*
X157228258Y-94936278D01*
X157208797Y-94868001D01*
X157229339Y-94800041D01*
X157281543Y-94754805D01*
X157315762Y-94738849D01*
X157315767Y-94738846D01*
X157320749Y-94736523D01*
X157425611Y-94663098D01*
X157503789Y-94608357D01*
X157503792Y-94608355D01*
X157508300Y-94605198D01*
X157670198Y-94443300D01*
X157801523Y-94255749D01*
X157803846Y-94250767D01*
X157803849Y-94250762D01*
X157895961Y-94053225D01*
X157895961Y-94053224D01*
X157898284Y-94048243D01*
X157946970Y-93866548D01*
X157956119Y-93832402D01*
X157956119Y-93832400D01*
X157957543Y-93827087D01*
X157977498Y-93599000D01*
X157957543Y-93370913D01*
X157947244Y-93332478D01*
X157899707Y-93155067D01*
X157899706Y-93155065D01*
X157898284Y-93149757D01*
X157803966Y-92947489D01*
X157803849Y-92947238D01*
X157803846Y-92947233D01*
X157801523Y-92942251D01*
X157670198Y-92754700D01*
X157508300Y-92592802D01*
X157503792Y-92589645D01*
X157503789Y-92589643D01*
X157425611Y-92534902D01*
X157320749Y-92461477D01*
X157315767Y-92459154D01*
X157315762Y-92459151D01*
X157281543Y-92443195D01*
X157228258Y-92396278D01*
X157208797Y-92328001D01*
X157229339Y-92260041D01*
X157281543Y-92214805D01*
X157315762Y-92198849D01*
X157315767Y-92198846D01*
X157320749Y-92196523D01*
X157492789Y-92076059D01*
X157503789Y-92068357D01*
X157503792Y-92068355D01*
X157508300Y-92065198D01*
X157670198Y-91903300D01*
X157674033Y-91897824D01*
X157735982Y-91809351D01*
X157801523Y-91715749D01*
X157803846Y-91710767D01*
X157803849Y-91710762D01*
X157895961Y-91513225D01*
X157895961Y-91513224D01*
X157898284Y-91508243D01*
X157927197Y-91400341D01*
X157956119Y-91292402D01*
X157956119Y-91292400D01*
X157957543Y-91287087D01*
X157977498Y-91059000D01*
X157957543Y-90830913D01*
X157938993Y-90761683D01*
X157899707Y-90615067D01*
X157899706Y-90615065D01*
X157898284Y-90609757D01*
X157895961Y-90604775D01*
X157803849Y-90407238D01*
X157803846Y-90407233D01*
X157801523Y-90402251D01*
X157728098Y-90297389D01*
X157673357Y-90219211D01*
X157673355Y-90219208D01*
X157670198Y-90214700D01*
X157508300Y-90052802D01*
X157503792Y-90049645D01*
X157503789Y-90049643D01*
X157425611Y-89994902D01*
X157320749Y-89921477D01*
X157315767Y-89919154D01*
X157315762Y-89919151D01*
X157281543Y-89903195D01*
X157228258Y-89856278D01*
X157208797Y-89788001D01*
X157229339Y-89720041D01*
X157281543Y-89674805D01*
X157315762Y-89658849D01*
X157315767Y-89658846D01*
X157320749Y-89656523D01*
X157489476Y-89538379D01*
X157503789Y-89528357D01*
X157503792Y-89528355D01*
X157508300Y-89525198D01*
X157670198Y-89363300D01*
X157690060Y-89334935D01*
X157728098Y-89280611D01*
X157801523Y-89175749D01*
X157803846Y-89170767D01*
X157803849Y-89170762D01*
X157895961Y-88973225D01*
X157895961Y-88973224D01*
X157898284Y-88968243D01*
X157904339Y-88945648D01*
X157956119Y-88752402D01*
X157956119Y-88752400D01*
X157957543Y-88747087D01*
X157977498Y-88519000D01*
X157957543Y-88290913D01*
X157898284Y-88069757D01*
X157815551Y-87892334D01*
X157803849Y-87867238D01*
X157803846Y-87867233D01*
X157801523Y-87862251D01*
X157713458Y-87736482D01*
X157673357Y-87679211D01*
X157673355Y-87679208D01*
X157670198Y-87674700D01*
X157508300Y-87512802D01*
X157503792Y-87509645D01*
X157503789Y-87509643D01*
X157402876Y-87438983D01*
X157320749Y-87381477D01*
X157315767Y-87379154D01*
X157315762Y-87379151D01*
X157281543Y-87363195D01*
X157228258Y-87316278D01*
X157208797Y-87248001D01*
X157229339Y-87180041D01*
X157281543Y-87134805D01*
X157315762Y-87118849D01*
X157315767Y-87118846D01*
X157320749Y-87116523D01*
X157443558Y-87030531D01*
X157503789Y-86988357D01*
X157503792Y-86988355D01*
X157508300Y-86985198D01*
X157670198Y-86823300D01*
X157690060Y-86794935D01*
X157798366Y-86640257D01*
X157801523Y-86635749D01*
X157803846Y-86630767D01*
X157803849Y-86630762D01*
X157895961Y-86433225D01*
X157895961Y-86433224D01*
X157898284Y-86428243D01*
X157957543Y-86207087D01*
X157977498Y-85979000D01*
X157957543Y-85750913D01*
X157956176Y-85745813D01*
X157964039Y-85675320D01*
X158008806Y-85620216D01*
X158080255Y-85598000D01*
X159512000Y-85598000D01*
X159512000Y-76840703D01*
X170102743Y-76840703D01*
X170140268Y-77125734D01*
X170216129Y-77403036D01*
X170328923Y-77667476D01*
X170476561Y-77914161D01*
X170656313Y-78138528D01*
X170864851Y-78336423D01*
X171098317Y-78504186D01*
X171102112Y-78506195D01*
X171102113Y-78506196D01*
X171123869Y-78517715D01*
X171352392Y-78638712D01*
X171622373Y-78737511D01*
X171903264Y-78798755D01*
X171931841Y-78801004D01*
X172126282Y-78816307D01*
X172126291Y-78816307D01*
X172128739Y-78816500D01*
X172284271Y-78816500D01*
X172286407Y-78816354D01*
X172286418Y-78816354D01*
X172494548Y-78802165D01*
X172494554Y-78802164D01*
X172498825Y-78801873D01*
X172503020Y-78801004D01*
X172503022Y-78801004D01*
X172639584Y-78772723D01*
X172780342Y-78743574D01*
X173051343Y-78647607D01*
X173306812Y-78515750D01*
X173310313Y-78513289D01*
X173310317Y-78513287D01*
X173424417Y-78433096D01*
X173542023Y-78350441D01*
X173752622Y-78154740D01*
X173934713Y-77932268D01*
X174084927Y-77687142D01*
X174200483Y-77423898D01*
X174279244Y-77147406D01*
X174319751Y-76862784D01*
X174319845Y-76844951D01*
X174321235Y-76579583D01*
X174321235Y-76579576D01*
X174321257Y-76575297D01*
X174283732Y-76290266D01*
X174207871Y-76012964D01*
X174095077Y-75748524D01*
X173947439Y-75501839D01*
X173767687Y-75277472D01*
X173559149Y-75079577D01*
X173325683Y-74911814D01*
X173303843Y-74900250D01*
X173280654Y-74887972D01*
X173071608Y-74777288D01*
X172801627Y-74678489D01*
X172520736Y-74617245D01*
X172489685Y-74614801D01*
X172297718Y-74599693D01*
X172297709Y-74599693D01*
X172295261Y-74599500D01*
X172139729Y-74599500D01*
X172137593Y-74599646D01*
X172137582Y-74599646D01*
X171929452Y-74613835D01*
X171929446Y-74613836D01*
X171925175Y-74614127D01*
X171920980Y-74614996D01*
X171920978Y-74614996D01*
X171784417Y-74643276D01*
X171643658Y-74672426D01*
X171372657Y-74768393D01*
X171117188Y-74900250D01*
X171113687Y-74902711D01*
X171113683Y-74902713D01*
X171103594Y-74909804D01*
X170881977Y-75065559D01*
X170671378Y-75261260D01*
X170489287Y-75483732D01*
X170339073Y-75728858D01*
X170223517Y-75992102D01*
X170144756Y-76268594D01*
X170104249Y-76553216D01*
X170104227Y-76557505D01*
X170104226Y-76557512D01*
X170103407Y-76713865D01*
X170102743Y-76840703D01*
X159512000Y-76840703D01*
X159512000Y-76708000D01*
X130302000Y-76708000D01*
X130302000Y-85598000D01*
X131969500Y-85598000D01*
X132037621Y-85618002D01*
X132084114Y-85671658D01*
X132095500Y-85724000D01*
X132095500Y-87027134D01*
X132102255Y-87089316D01*
X132153385Y-87225705D01*
X132240739Y-87342261D01*
X132357295Y-87429615D01*
X132365703Y-87432767D01*
X132382284Y-87438983D01*
X132439048Y-87481625D01*
X132463748Y-87548186D01*
X132448541Y-87617535D01*
X132427149Y-87646060D01*
X132402084Y-87671125D01*
X132395028Y-87679533D01*
X132270069Y-87857993D01*
X132264586Y-87867489D01*
X132172510Y-88064947D01*
X132168764Y-88075239D01*
X132122606Y-88247503D01*
X132122942Y-88261599D01*
X132130884Y-88265000D01*
X135071967Y-88265000D01*
X135085498Y-88261027D01*
X135086727Y-88252478D01*
X135039236Y-88075239D01*
X135035490Y-88064947D01*
X134943414Y-87867489D01*
X134937931Y-87857993D01*
X134812972Y-87679533D01*
X134805916Y-87671125D01*
X134780851Y-87646060D01*
X134746825Y-87583748D01*
X134751890Y-87512933D01*
X134794437Y-87456097D01*
X134825716Y-87438983D01*
X134842297Y-87432767D01*
X134850705Y-87429615D01*
X134967261Y-87342261D01*
X135054615Y-87225705D01*
X135105745Y-87089316D01*
X135112500Y-87027134D01*
X135112500Y-85724000D01*
X135132502Y-85655879D01*
X135186158Y-85609386D01*
X135238500Y-85598000D01*
X154847745Y-85598000D01*
X154915866Y-85618002D01*
X154962359Y-85671658D01*
X154971823Y-85745815D01*
X154970457Y-85750913D01*
X154950502Y-85979000D01*
X154970457Y-86207087D01*
X155029716Y-86428243D01*
X155032039Y-86433224D01*
X155032039Y-86433225D01*
X155124151Y-86630762D01*
X155124154Y-86630767D01*
X155126477Y-86635749D01*
X155129634Y-86640257D01*
X155237941Y-86794935D01*
X155257802Y-86823300D01*
X155419700Y-86985198D01*
X155424208Y-86988355D01*
X155424211Y-86988357D01*
X155484442Y-87030531D01*
X155607251Y-87116523D01*
X155612233Y-87118846D01*
X155612238Y-87118849D01*
X155646457Y-87134805D01*
X155699742Y-87181722D01*
X155719203Y-87249999D01*
X155698661Y-87317959D01*
X155646457Y-87363195D01*
X155612238Y-87379151D01*
X155612233Y-87379154D01*
X155607251Y-87381477D01*
X155500683Y-87456097D01*
X155466956Y-87479713D01*
X155394685Y-87502500D01*
X151827276Y-87502500D01*
X151813668Y-87501763D01*
X151781821Y-87498303D01*
X151781817Y-87498303D01*
X151775696Y-87497638D01*
X151738828Y-87500863D01*
X151725310Y-87502046D01*
X151720482Y-87502375D01*
X151717927Y-87502500D01*
X151714843Y-87502500D01*
X151699469Y-87504008D01*
X151671781Y-87506722D01*
X151670468Y-87506844D01*
X151638478Y-87509643D01*
X151577108Y-87515012D01*
X151571948Y-87516511D01*
X151566606Y-87517035D01*
X151476904Y-87544117D01*
X151475764Y-87544455D01*
X151385678Y-87570628D01*
X151380910Y-87573100D01*
X151375768Y-87574652D01*
X151370323Y-87577547D01*
X151370316Y-87577550D01*
X151293050Y-87618633D01*
X151291946Y-87619213D01*
X151208696Y-87662366D01*
X151204497Y-87665718D01*
X151199756Y-87668239D01*
X151194984Y-87672131D01*
X151127171Y-87727438D01*
X151126145Y-87728266D01*
X151089436Y-87757571D01*
X151086684Y-87759768D01*
X151084189Y-87762263D01*
X151083395Y-87762973D01*
X151079040Y-87766693D01*
X151050049Y-87790337D01*
X151050046Y-87790340D01*
X151045274Y-87794232D01*
X151041346Y-87798980D01*
X151041345Y-87798981D01*
X151015789Y-87829873D01*
X151007800Y-87838652D01*
X147153267Y-91693185D01*
X147143125Y-91702286D01*
X147113351Y-91726225D01*
X147080813Y-91765002D01*
X147077649Y-91768629D01*
X147075954Y-91770498D01*
X147073760Y-91772692D01*
X147046188Y-91806258D01*
X147045526Y-91807055D01*
X146985214Y-91878933D01*
X146982627Y-91883639D01*
X146979218Y-91887789D01*
X146976310Y-91893213D01*
X146976303Y-91893223D01*
X146934939Y-91970368D01*
X146934310Y-91971528D01*
X146889179Y-92053621D01*
X146887555Y-92058741D01*
X146885017Y-92063474D01*
X146879839Y-92080411D01*
X146857648Y-92152993D01*
X146857256Y-92154252D01*
X146830765Y-92237761D01*
X146828902Y-92243635D01*
X146828303Y-92248973D01*
X146826733Y-92254109D01*
X146826110Y-92260240D01*
X146826110Y-92260241D01*
X146824149Y-92279544D01*
X146819025Y-92329999D01*
X146817263Y-92347343D01*
X146817134Y-92348551D01*
X146811500Y-92398784D01*
X146811500Y-92402289D01*
X146811438Y-92403397D01*
X146810990Y-92409092D01*
X146807210Y-92446305D01*
X146807210Y-92446312D01*
X146806588Y-92452435D01*
X146810941Y-92498485D01*
X146811500Y-92510343D01*
X146811500Y-126018761D01*
X146791498Y-126086882D01*
X146774595Y-126107856D01*
X144903857Y-127978595D01*
X144841545Y-128012620D01*
X144814762Y-128015500D01*
X135601238Y-128015500D01*
X135533117Y-127995498D01*
X135512143Y-127978595D01*
X134795308Y-127261760D01*
X134712332Y-127193602D01*
X134684975Y-127171131D01*
X134684974Y-127171130D01*
X134680211Y-127167218D01*
X134544633Y-127094522D01*
X134509959Y-127075930D01*
X134509958Y-127075930D01*
X134504526Y-127073017D01*
X134395644Y-127039728D01*
X134319789Y-127016536D01*
X134319787Y-127016536D01*
X134313891Y-127014733D01*
X134285288Y-127011828D01*
X134121693Y-126995210D01*
X134121688Y-126995210D01*
X134115565Y-126994588D01*
X133917104Y-127013348D01*
X133726066Y-127070299D01*
X133720618Y-127073171D01*
X133720614Y-127073173D01*
X133633276Y-127119221D01*
X133549729Y-127163271D01*
X133544943Y-127167147D01*
X133544941Y-127167148D01*
X133425411Y-127263942D01*
X133394808Y-127288724D01*
X133267205Y-127441878D01*
X133171780Y-127616900D01*
X133112167Y-127807124D01*
X133111502Y-127813247D01*
X133111501Y-127813251D01*
X133096479Y-127951534D01*
X133090638Y-128005304D01*
X133108012Y-128203892D01*
X133109731Y-128209809D01*
X133109732Y-128209814D01*
X133147848Y-128341008D01*
X133163628Y-128395322D01*
X133255366Y-128572304D01*
X133352768Y-128694316D01*
X133982857Y-129324405D01*
X134016883Y-129386717D01*
X134011818Y-129457532D01*
X133969271Y-129514368D01*
X133902751Y-129539179D01*
X133893762Y-129539500D01*
X132553238Y-129539500D01*
X132485117Y-129519498D01*
X132464143Y-129502595D01*
X128104682Y-125143134D01*
X142493500Y-125143134D01*
X142500255Y-125205316D01*
X142551385Y-125341705D01*
X142638739Y-125458261D01*
X142755295Y-125545615D01*
X142891684Y-125596745D01*
X142953866Y-125603500D01*
X145590134Y-125603500D01*
X145652316Y-125596745D01*
X145788705Y-125545615D01*
X145905261Y-125458261D01*
X145992615Y-125341705D01*
X146043745Y-125205316D01*
X146050500Y-125143134D01*
X146050500Y-122506866D01*
X146043745Y-122444684D01*
X145992615Y-122308295D01*
X145905261Y-122191739D01*
X145788705Y-122104385D01*
X145652316Y-122053255D01*
X145590134Y-122046500D01*
X142953866Y-122046500D01*
X142891684Y-122053255D01*
X142755295Y-122104385D01*
X142638739Y-122191739D01*
X142551385Y-122308295D01*
X142500255Y-122444684D01*
X142493500Y-122506866D01*
X142493500Y-125143134D01*
X128104682Y-125143134D01*
X125005405Y-122043857D01*
X124971379Y-121981545D01*
X124968500Y-121954762D01*
X124968500Y-120582970D01*
X124991287Y-120510700D01*
X124999429Y-120499072D01*
X124999433Y-120499066D01*
X125002589Y-120494558D01*
X125004912Y-120489576D01*
X125004915Y-120489571D01*
X125089633Y-120307892D01*
X125089634Y-120307891D01*
X125091956Y-120302910D01*
X125146686Y-120098655D01*
X125165116Y-119888000D01*
X125146686Y-119677345D01*
X125091956Y-119473090D01*
X125002589Y-119281442D01*
X124881301Y-119108224D01*
X124731776Y-118958699D01*
X124558558Y-118837411D01*
X124553580Y-118835090D01*
X124553577Y-118835088D01*
X124371892Y-118750367D01*
X124371891Y-118750366D01*
X124366910Y-118748044D01*
X124361602Y-118746622D01*
X124361600Y-118746621D01*
X124167970Y-118694738D01*
X124167968Y-118694738D01*
X124162655Y-118693314D01*
X123952000Y-118674884D01*
X123741345Y-118693314D01*
X123736032Y-118694738D01*
X123736030Y-118694738D01*
X123542400Y-118746621D01*
X123542398Y-118746622D01*
X123537090Y-118748044D01*
X123532109Y-118750366D01*
X123532108Y-118750367D01*
X123350423Y-118835088D01*
X123350420Y-118835090D01*
X123345442Y-118837411D01*
X123172224Y-118958699D01*
X123022699Y-119108224D01*
X122901411Y-119281442D01*
X122812044Y-119473090D01*
X122757314Y-119677345D01*
X122738884Y-119888000D01*
X120085116Y-119888000D01*
X120066686Y-119677345D01*
X120011956Y-119473090D01*
X119922589Y-119281442D01*
X119801301Y-119108224D01*
X119651776Y-118958699D01*
X119478558Y-118837411D01*
X119473580Y-118835090D01*
X119473577Y-118835088D01*
X119291892Y-118750367D01*
X119291891Y-118750366D01*
X119286910Y-118748044D01*
X119281602Y-118746622D01*
X119281600Y-118746621D01*
X119087970Y-118694738D01*
X119087968Y-118694738D01*
X119082655Y-118693314D01*
X118872000Y-118674884D01*
X118661345Y-118693314D01*
X118656032Y-118694738D01*
X118656030Y-118694738D01*
X118462400Y-118746621D01*
X118462398Y-118746622D01*
X118457090Y-118748044D01*
X118452109Y-118750366D01*
X118452108Y-118750367D01*
X118270423Y-118835088D01*
X118270420Y-118835090D01*
X118265442Y-118837411D01*
X118092224Y-118958699D01*
X117942699Y-119108224D01*
X117821411Y-119281442D01*
X117732044Y-119473090D01*
X117677314Y-119677345D01*
X117658884Y-119888000D01*
X116840500Y-119888000D01*
X116840500Y-113346065D01*
X119885064Y-113346065D01*
X119893809Y-113578993D01*
X119941674Y-113807117D01*
X120027292Y-114023914D01*
X120148213Y-114223187D01*
X120151708Y-114227215D01*
X120151709Y-114227216D01*
X120236041Y-114324399D01*
X120300982Y-114399237D01*
X120305113Y-114402624D01*
X120477100Y-114543646D01*
X120477106Y-114543650D01*
X120481228Y-114547030D01*
X120683800Y-114662340D01*
X120688816Y-114664161D01*
X120688821Y-114664163D01*
X120897888Y-114740051D01*
X120897892Y-114740052D01*
X120902903Y-114741871D01*
X120908152Y-114742820D01*
X120908155Y-114742821D01*
X121128191Y-114782610D01*
X121128198Y-114782611D01*
X121132275Y-114783348D01*
X121150199Y-114784193D01*
X121155214Y-114784430D01*
X121155221Y-114784430D01*
X121156702Y-114784500D01*
X121620527Y-114784500D01*
X121794257Y-114769759D01*
X121799421Y-114768419D01*
X121799425Y-114768418D01*
X122014708Y-114712541D01*
X122014712Y-114712539D01*
X122019873Y-114711200D01*
X122043527Y-114700545D01*
X122227536Y-114617655D01*
X122227539Y-114617654D01*
X122232397Y-114615465D01*
X122425752Y-114485291D01*
X122594410Y-114324399D01*
X122733548Y-114137391D01*
X122839188Y-113929612D01*
X122908310Y-113707005D01*
X122938936Y-113475935D01*
X122930191Y-113243007D01*
X122882326Y-113014883D01*
X122796708Y-112798086D01*
X122675787Y-112598813D01*
X122631383Y-112547642D01*
X122526518Y-112426796D01*
X122526516Y-112426794D01*
X122523018Y-112422763D01*
X122472452Y-112381301D01*
X122346900Y-112278354D01*
X122346894Y-112278350D01*
X122342772Y-112274970D01*
X122299002Y-112250055D01*
X122249696Y-112198973D01*
X122235834Y-112129343D01*
X122261817Y-112063272D01*
X122290965Y-112036035D01*
X122425752Y-111945291D01*
X122594410Y-111784399D01*
X122733548Y-111597391D01*
X122839188Y-111389612D01*
X122908310Y-111167005D01*
X122938936Y-110935935D01*
X122930191Y-110703007D01*
X122882326Y-110474883D01*
X122796708Y-110258086D01*
X122686461Y-110076403D01*
X122678555Y-110063374D01*
X122678553Y-110063371D01*
X122675787Y-110058813D01*
X122670722Y-110052976D01*
X122523854Y-109883725D01*
X122494314Y-109819166D01*
X122504368Y-109748885D01*
X122550823Y-109695196D01*
X122574789Y-109683163D01*
X122665054Y-109649324D01*
X122680649Y-109640786D01*
X122782724Y-109564285D01*
X122795285Y-109551724D01*
X122871786Y-109449649D01*
X122880324Y-109434054D01*
X122925478Y-109313606D01*
X122929105Y-109298351D01*
X122934631Y-109247486D01*
X122935000Y-109240672D01*
X122935000Y-108603115D01*
X122930525Y-108587876D01*
X122929135Y-108586671D01*
X122921452Y-108585000D01*
X119907116Y-108585000D01*
X119891877Y-108589475D01*
X119890672Y-108590865D01*
X119889001Y-108598548D01*
X119889001Y-109240669D01*
X119889371Y-109247490D01*
X119894895Y-109298352D01*
X119898521Y-109313604D01*
X119943676Y-109434054D01*
X119952214Y-109449649D01*
X120028715Y-109551724D01*
X120041276Y-109564285D01*
X120143351Y-109640786D01*
X120158946Y-109649324D01*
X120253572Y-109684798D01*
X120310336Y-109727440D01*
X120335036Y-109794001D01*
X120319828Y-109863350D01*
X120296313Y-109893950D01*
X120233452Y-109953916D01*
X120233447Y-109953921D01*
X120229590Y-109957601D01*
X120226407Y-109961878D01*
X120226407Y-109961879D01*
X120183951Y-110018942D01*
X120090452Y-110144609D01*
X120088036Y-110149360D01*
X120088034Y-110149364D01*
X120041202Y-110241477D01*
X119984812Y-110352388D01*
X119915690Y-110574995D01*
X119914989Y-110580284D01*
X119893763Y-110740435D01*
X119885064Y-110806065D01*
X119893809Y-111038993D01*
X119941674Y-111267117D01*
X120027292Y-111483914D01*
X120148213Y-111683187D01*
X120151708Y-111687215D01*
X120151709Y-111687216D01*
X120274087Y-111828243D01*
X120300982Y-111859237D01*
X120305113Y-111862624D01*
X120477100Y-112003646D01*
X120477106Y-112003650D01*
X120481228Y-112007030D01*
X120522920Y-112030762D01*
X120524998Y-112031945D01*
X120574304Y-112083027D01*
X120588166Y-112152657D01*
X120562183Y-112218728D01*
X120533035Y-112245965D01*
X120398248Y-112336709D01*
X120394391Y-112340388D01*
X120394389Y-112340390D01*
X120344107Y-112388357D01*
X120229590Y-112497601D01*
X120090452Y-112684609D01*
X119984812Y-112892388D01*
X119915690Y-113114995D01*
X119885064Y-113346065D01*
X116840500Y-113346065D01*
X116840500Y-108058885D01*
X119889000Y-108058885D01*
X119893475Y-108074124D01*
X119894865Y-108075329D01*
X119902548Y-108077000D01*
X121139885Y-108077000D01*
X121155124Y-108072525D01*
X121156329Y-108071135D01*
X121158000Y-108063452D01*
X121158000Y-108058885D01*
X121666000Y-108058885D01*
X121670475Y-108074124D01*
X121671865Y-108075329D01*
X121679548Y-108077000D01*
X122916884Y-108077000D01*
X122932123Y-108072525D01*
X122933328Y-108071135D01*
X122934999Y-108063452D01*
X122934999Y-107421331D01*
X122934629Y-107414510D01*
X122929105Y-107363648D01*
X122925479Y-107348396D01*
X122880324Y-107227946D01*
X122871786Y-107212351D01*
X122795285Y-107110276D01*
X122782724Y-107097715D01*
X122680649Y-107021214D01*
X122665054Y-107012676D01*
X122544606Y-106967522D01*
X122529351Y-106963895D01*
X122478486Y-106958369D01*
X122471672Y-106958000D01*
X121684115Y-106958000D01*
X121668876Y-106962475D01*
X121667671Y-106963865D01*
X121666000Y-106971548D01*
X121666000Y-108058885D01*
X121158000Y-108058885D01*
X121158000Y-106976116D01*
X121153525Y-106960877D01*
X121152135Y-106959672D01*
X121144452Y-106958001D01*
X120352331Y-106958001D01*
X120345510Y-106958371D01*
X120294648Y-106963895D01*
X120279396Y-106967521D01*
X120158946Y-107012676D01*
X120143351Y-107021214D01*
X120041276Y-107097715D01*
X120028715Y-107110276D01*
X119952214Y-107212351D01*
X119943676Y-107227946D01*
X119898522Y-107348394D01*
X119894895Y-107363649D01*
X119889369Y-107414514D01*
X119889000Y-107421328D01*
X119889000Y-108058885D01*
X116840500Y-108058885D01*
X116840500Y-102043065D01*
X119885064Y-102043065D01*
X119885264Y-102048394D01*
X119885264Y-102048395D01*
X119886287Y-102075634D01*
X119893809Y-102275993D01*
X119941674Y-102504117D01*
X119943632Y-102509076D01*
X119943633Y-102509078D01*
X119962937Y-102557959D01*
X120027292Y-102720914D01*
X120030060Y-102725475D01*
X120142519Y-102910803D01*
X120148213Y-102920187D01*
X120151708Y-102924215D01*
X120151709Y-102924216D01*
X120236041Y-103021399D01*
X120300982Y-103096237D01*
X120305113Y-103099624D01*
X120477100Y-103240646D01*
X120477106Y-103240650D01*
X120481228Y-103244030D01*
X120683800Y-103359340D01*
X120688816Y-103361161D01*
X120688821Y-103361163D01*
X120897888Y-103437051D01*
X120897892Y-103437052D01*
X120902903Y-103438871D01*
X120908152Y-103439820D01*
X120908155Y-103439821D01*
X121128191Y-103479610D01*
X121128198Y-103479611D01*
X121132275Y-103480348D01*
X121150199Y-103481193D01*
X121155214Y-103481430D01*
X121155221Y-103481430D01*
X121156702Y-103481500D01*
X121620527Y-103481500D01*
X121794257Y-103466759D01*
X121799421Y-103465419D01*
X121799425Y-103465418D01*
X122014708Y-103409541D01*
X122014712Y-103409539D01*
X122019873Y-103408200D01*
X122043527Y-103397545D01*
X122227536Y-103314655D01*
X122227539Y-103314654D01*
X122232397Y-103312465D01*
X122425752Y-103182291D01*
X122594410Y-103021399D01*
X122733548Y-102834391D01*
X122839188Y-102626612D01*
X122908310Y-102404005D01*
X122925983Y-102270662D01*
X122938236Y-102178219D01*
X122938236Y-102178215D01*
X122938936Y-102172935D01*
X122930191Y-101940007D01*
X122882326Y-101711883D01*
X122796708Y-101495086D01*
X122675787Y-101295813D01*
X122591672Y-101198879D01*
X122526518Y-101123796D01*
X122526516Y-101123794D01*
X122523018Y-101119763D01*
X122480269Y-101084711D01*
X122346900Y-100975354D01*
X122346894Y-100975350D01*
X122342772Y-100971970D01*
X122299002Y-100947055D01*
X122249696Y-100895973D01*
X122235834Y-100826343D01*
X122261817Y-100760272D01*
X122290965Y-100733035D01*
X122425752Y-100642291D01*
X122594410Y-100481399D01*
X122733548Y-100294391D01*
X122839188Y-100086612D01*
X122908310Y-99864005D01*
X122925983Y-99730662D01*
X122938236Y-99638219D01*
X122938236Y-99638215D01*
X122938936Y-99632935D01*
X122938448Y-99619923D01*
X122930391Y-99405338D01*
X122930191Y-99400007D01*
X122882326Y-99171883D01*
X122796708Y-98955086D01*
X122675787Y-98755813D01*
X122672286Y-98751778D01*
X122523854Y-98580725D01*
X122494314Y-98516166D01*
X122504368Y-98445885D01*
X122550823Y-98392196D01*
X122574789Y-98380163D01*
X122665054Y-98346324D01*
X122680649Y-98337786D01*
X122782724Y-98261285D01*
X122795285Y-98248724D01*
X122871786Y-98146649D01*
X122880324Y-98131054D01*
X122925478Y-98010606D01*
X122929105Y-97995351D01*
X122934631Y-97944486D01*
X122935000Y-97937672D01*
X122935000Y-97300115D01*
X122930525Y-97284876D01*
X122929135Y-97283671D01*
X122921452Y-97282000D01*
X119907116Y-97282000D01*
X119891877Y-97286475D01*
X119890672Y-97287865D01*
X119889001Y-97295548D01*
X119889001Y-97937669D01*
X119889371Y-97944490D01*
X119894895Y-97995352D01*
X119898521Y-98010604D01*
X119943676Y-98131054D01*
X119952214Y-98146649D01*
X120028715Y-98248724D01*
X120041276Y-98261285D01*
X120143351Y-98337786D01*
X120158946Y-98346324D01*
X120253572Y-98381798D01*
X120310336Y-98424440D01*
X120335036Y-98491001D01*
X120319828Y-98560350D01*
X120296313Y-98590950D01*
X120233452Y-98650916D01*
X120233447Y-98650921D01*
X120229590Y-98654601D01*
X120090452Y-98841609D01*
X120088036Y-98846360D01*
X120088034Y-98846364D01*
X120057161Y-98907087D01*
X119984812Y-99049388D01*
X119915690Y-99271995D01*
X119914989Y-99277284D01*
X119906643Y-99340257D01*
X119885064Y-99503065D01*
X119893809Y-99735993D01*
X119941674Y-99964117D01*
X119943632Y-99969076D01*
X119943633Y-99969078D01*
X119962937Y-100017959D01*
X120027292Y-100180914D01*
X120030060Y-100185475D01*
X120142519Y-100370803D01*
X120148213Y-100380187D01*
X120151708Y-100384215D01*
X120151709Y-100384216D01*
X120236041Y-100481399D01*
X120300982Y-100556237D01*
X120305113Y-100559624D01*
X120477100Y-100700646D01*
X120477106Y-100700650D01*
X120481228Y-100704030D01*
X120485866Y-100706670D01*
X120524998Y-100728945D01*
X120574304Y-100780027D01*
X120588166Y-100849657D01*
X120562183Y-100915728D01*
X120533035Y-100942965D01*
X120398248Y-101033709D01*
X120229590Y-101194601D01*
X120090452Y-101381609D01*
X120088036Y-101386360D01*
X120088034Y-101386364D01*
X120057161Y-101447087D01*
X119984812Y-101589388D01*
X119915690Y-101811995D01*
X119914989Y-101817284D01*
X119889482Y-102009734D01*
X119885064Y-102043065D01*
X116840500Y-102043065D01*
X116840500Y-96755885D01*
X119889000Y-96755885D01*
X119893475Y-96771124D01*
X119894865Y-96772329D01*
X119902548Y-96774000D01*
X121139885Y-96774000D01*
X121155124Y-96769525D01*
X121156329Y-96768135D01*
X121158000Y-96760452D01*
X121158000Y-96755885D01*
X121666000Y-96755885D01*
X121670475Y-96771124D01*
X121671865Y-96772329D01*
X121679548Y-96774000D01*
X122916884Y-96774000D01*
X122932123Y-96769525D01*
X122933328Y-96768135D01*
X122934999Y-96760452D01*
X122934999Y-96118331D01*
X122934629Y-96111510D01*
X122929105Y-96060648D01*
X122925479Y-96045396D01*
X122880324Y-95924946D01*
X122871786Y-95909351D01*
X122795285Y-95807276D01*
X122782724Y-95794715D01*
X122680649Y-95718214D01*
X122665054Y-95709676D01*
X122544606Y-95664522D01*
X122529351Y-95660895D01*
X122478486Y-95655369D01*
X122471672Y-95655000D01*
X121684115Y-95655000D01*
X121668876Y-95659475D01*
X121667671Y-95660865D01*
X121666000Y-95668548D01*
X121666000Y-96755885D01*
X121158000Y-96755885D01*
X121158000Y-95673116D01*
X121153525Y-95657877D01*
X121152135Y-95656672D01*
X121144452Y-95655001D01*
X120352331Y-95655001D01*
X120345510Y-95655371D01*
X120294648Y-95660895D01*
X120279396Y-95664521D01*
X120158946Y-95709676D01*
X120143351Y-95718214D01*
X120041276Y-95794715D01*
X120028715Y-95807276D01*
X119952214Y-95909351D01*
X119943676Y-95924946D01*
X119898522Y-96045394D01*
X119894895Y-96060649D01*
X119889369Y-96111514D01*
X119889000Y-96118328D01*
X119889000Y-96755885D01*
X116840500Y-96755885D01*
X116840500Y-88519000D01*
X119513693Y-88519000D01*
X119532885Y-88738371D01*
X119589880Y-88951076D01*
X119623390Y-89022939D01*
X119680618Y-89145666D01*
X119680621Y-89145671D01*
X119682944Y-89150653D01*
X119686100Y-89155160D01*
X119686101Y-89155162D01*
X119746393Y-89241267D01*
X119809251Y-89331038D01*
X119964962Y-89486749D01*
X119969471Y-89489906D01*
X119969473Y-89489908D01*
X120085694Y-89571287D01*
X120130022Y-89626744D01*
X120137331Y-89697364D01*
X120105300Y-89760724D01*
X120044099Y-89796709D01*
X120013423Y-89800500D01*
X119978866Y-89800500D01*
X119916684Y-89807255D01*
X119780295Y-89858385D01*
X119663739Y-89945739D01*
X119576385Y-90062295D01*
X119525255Y-90198684D01*
X119518500Y-90260866D01*
X119518500Y-91857134D01*
X119525255Y-91919316D01*
X119576385Y-92055705D01*
X119663739Y-92172261D01*
X119780295Y-92259615D01*
X119916684Y-92310745D01*
X119978866Y-92317500D01*
X121575134Y-92317500D01*
X121637316Y-92310745D01*
X121773705Y-92259615D01*
X121890261Y-92172261D01*
X121977615Y-92055705D01*
X122028745Y-91919316D01*
X122035500Y-91857134D01*
X122035500Y-90260866D01*
X122028745Y-90198684D01*
X121977615Y-90062295D01*
X121890261Y-89945739D01*
X121773705Y-89858385D01*
X121637316Y-89807255D01*
X121575134Y-89800500D01*
X121540577Y-89800500D01*
X121472456Y-89780498D01*
X121425963Y-89726842D01*
X121415859Y-89656568D01*
X121445353Y-89591988D01*
X121468307Y-89571287D01*
X121486873Y-89558287D01*
X121559143Y-89535500D01*
X123097762Y-89535500D01*
X123165883Y-89555502D01*
X123186857Y-89572405D01*
X125348185Y-91733733D01*
X125357286Y-91743875D01*
X125381225Y-91773649D01*
X125420002Y-91806187D01*
X125423629Y-91809351D01*
X125425498Y-91811046D01*
X125427692Y-91813240D01*
X125461258Y-91840812D01*
X125462055Y-91841474D01*
X125533933Y-91901786D01*
X125538639Y-91904373D01*
X125542789Y-91907782D01*
X125548218Y-91910693D01*
X125548221Y-91910695D01*
X125625394Y-91952075D01*
X125626552Y-91952704D01*
X125703214Y-91994849D01*
X125703218Y-91994851D01*
X125708621Y-91997821D01*
X125713739Y-91999444D01*
X125718473Y-92001983D01*
X125808023Y-92029361D01*
X125809227Y-92029736D01*
X125898635Y-92058098D01*
X125903978Y-92058697D01*
X125909109Y-92060266D01*
X125915234Y-92060888D01*
X125915238Y-92060889D01*
X125952435Y-92064667D01*
X126002341Y-92069736D01*
X126003461Y-92069856D01*
X126053784Y-92075500D01*
X126057290Y-92075500D01*
X126058416Y-92075563D01*
X126064112Y-92076011D01*
X126101305Y-92079789D01*
X126101311Y-92079789D01*
X126107434Y-92080411D01*
X126153476Y-92076059D01*
X126165333Y-92075500D01*
X132534685Y-92075500D01*
X132606956Y-92098287D01*
X132747251Y-92196523D01*
X132752233Y-92198846D01*
X132752238Y-92198849D01*
X132786457Y-92214805D01*
X132839742Y-92261722D01*
X132859203Y-92329999D01*
X132838661Y-92397959D01*
X132786457Y-92443195D01*
X132752238Y-92459151D01*
X132752233Y-92459154D01*
X132747251Y-92461477D01*
X132642389Y-92534902D01*
X132564211Y-92589643D01*
X132564208Y-92589645D01*
X132559700Y-92592802D01*
X132397802Y-92754700D01*
X132266477Y-92942251D01*
X132264154Y-92947233D01*
X132264151Y-92947238D01*
X132264034Y-92947489D01*
X132169716Y-93149757D01*
X132168294Y-93155065D01*
X132168293Y-93155067D01*
X132120756Y-93332478D01*
X132110457Y-93370913D01*
X132090502Y-93599000D01*
X132110457Y-93827087D01*
X132111881Y-93832400D01*
X132111881Y-93832402D01*
X132121031Y-93866548D01*
X132169716Y-94048243D01*
X132172039Y-94053224D01*
X132172039Y-94053225D01*
X132264151Y-94250762D01*
X132264154Y-94250767D01*
X132266477Y-94255749D01*
X132397802Y-94443300D01*
X132559700Y-94605198D01*
X132564208Y-94608355D01*
X132564211Y-94608357D01*
X132642389Y-94663098D01*
X132747251Y-94736523D01*
X132752233Y-94738846D01*
X132752238Y-94738849D01*
X132786457Y-94754805D01*
X132839742Y-94801722D01*
X132859203Y-94869999D01*
X132838661Y-94937959D01*
X132786457Y-94983195D01*
X132752238Y-94999151D01*
X132752233Y-94999154D01*
X132747251Y-95001477D01*
X132642389Y-95074902D01*
X132564211Y-95129643D01*
X132564208Y-95129645D01*
X132559700Y-95132802D01*
X132397802Y-95294700D01*
X132266477Y-95482251D01*
X132264154Y-95487233D01*
X132264151Y-95487238D01*
X132181483Y-95664522D01*
X132169716Y-95689757D01*
X132168294Y-95695065D01*
X132168293Y-95695067D01*
X132120756Y-95872478D01*
X132110457Y-95910913D01*
X132090502Y-96139000D01*
X132110457Y-96367087D01*
X132169716Y-96588243D01*
X132172039Y-96593224D01*
X132172039Y-96593225D01*
X132264151Y-96790762D01*
X132264154Y-96790767D01*
X132266477Y-96795749D01*
X132397802Y-96983300D01*
X132559700Y-97145198D01*
X132564208Y-97148355D01*
X132564211Y-97148357D01*
X132642389Y-97203098D01*
X132747251Y-97276523D01*
X132752233Y-97278846D01*
X132752238Y-97278849D01*
X132786457Y-97294805D01*
X132839742Y-97341722D01*
X132859203Y-97409999D01*
X132838661Y-97477959D01*
X132786457Y-97523195D01*
X132752238Y-97539151D01*
X132752233Y-97539154D01*
X132747251Y-97541477D01*
X132642389Y-97614902D01*
X132564211Y-97669643D01*
X132564208Y-97669645D01*
X132559700Y-97672802D01*
X132397802Y-97834700D01*
X132266477Y-98022251D01*
X132264154Y-98027233D01*
X132264151Y-98027238D01*
X132185619Y-98195652D01*
X132169716Y-98229757D01*
X132168294Y-98235065D01*
X132168293Y-98235067D01*
X132128976Y-98381798D01*
X132110457Y-98450913D01*
X132090502Y-98679000D01*
X132110457Y-98907087D01*
X132111881Y-98912400D01*
X132111881Y-98912402D01*
X132147313Y-99044633D01*
X132169716Y-99128243D01*
X132172039Y-99133224D01*
X132172039Y-99133225D01*
X132264151Y-99330762D01*
X132264154Y-99330767D01*
X132266477Y-99335749D01*
X132397802Y-99523300D01*
X132559700Y-99685198D01*
X132564208Y-99688355D01*
X132564211Y-99688357D01*
X132624629Y-99730662D01*
X132747251Y-99816523D01*
X132752233Y-99818846D01*
X132752238Y-99818849D01*
X132786457Y-99834805D01*
X132839742Y-99881722D01*
X132859203Y-99949999D01*
X132838661Y-100017959D01*
X132786457Y-100063195D01*
X132752238Y-100079151D01*
X132752233Y-100079154D01*
X132747251Y-100081477D01*
X132642389Y-100154902D01*
X132564211Y-100209643D01*
X132564208Y-100209645D01*
X132559700Y-100212802D01*
X132397802Y-100374700D01*
X132394645Y-100379208D01*
X132394643Y-100379211D01*
X132339902Y-100457389D01*
X132266477Y-100562251D01*
X132264154Y-100567233D01*
X132264151Y-100567238D01*
X132174139Y-100760272D01*
X132169716Y-100769757D01*
X132110457Y-100990913D01*
X132090502Y-101219000D01*
X132110457Y-101447087D01*
X132111881Y-101452400D01*
X132111881Y-101452402D01*
X132147313Y-101584633D01*
X132169716Y-101668243D01*
X132172039Y-101673224D01*
X132172039Y-101673225D01*
X132264151Y-101870762D01*
X132264154Y-101870767D01*
X132266477Y-101875749D01*
X132310779Y-101939019D01*
X132360295Y-102009734D01*
X132397802Y-102063300D01*
X132559700Y-102225198D01*
X132564208Y-102228355D01*
X132564211Y-102228357D01*
X132580589Y-102239825D01*
X132747251Y-102356523D01*
X132752233Y-102358846D01*
X132752238Y-102358849D01*
X132786457Y-102374805D01*
X132839742Y-102421722D01*
X132859203Y-102489999D01*
X132838661Y-102557959D01*
X132786457Y-102603195D01*
X132752238Y-102619151D01*
X132752233Y-102619154D01*
X132747251Y-102621477D01*
X132733127Y-102631367D01*
X132564211Y-102749643D01*
X132564208Y-102749645D01*
X132559700Y-102752802D01*
X132397802Y-102914700D01*
X132394645Y-102919208D01*
X132394643Y-102919211D01*
X132339902Y-102997389D01*
X132266477Y-103102251D01*
X132264154Y-103107233D01*
X132264151Y-103107238D01*
X132230870Y-103178610D01*
X132169716Y-103309757D01*
X132168294Y-103315065D01*
X132168293Y-103315067D01*
X132123716Y-103481430D01*
X132110457Y-103530913D01*
X132090502Y-103759000D01*
X132110457Y-103987087D01*
X132169716Y-104208243D01*
X132172039Y-104213224D01*
X132172039Y-104213225D01*
X132264151Y-104410762D01*
X132264154Y-104410767D01*
X132266477Y-104415749D01*
X132397802Y-104603300D01*
X132559700Y-104765198D01*
X132564208Y-104768355D01*
X132564211Y-104768357D01*
X132569210Y-104771857D01*
X132747251Y-104896523D01*
X132752233Y-104898846D01*
X132752238Y-104898849D01*
X132949775Y-104990961D01*
X132954757Y-104993284D01*
X132960065Y-104994706D01*
X132960067Y-104994707D01*
X133170598Y-105051119D01*
X133170600Y-105051119D01*
X133175913Y-105052543D01*
X133275480Y-105061254D01*
X133344149Y-105067262D01*
X133344156Y-105067262D01*
X133346873Y-105067500D01*
X133861127Y-105067500D01*
X133863844Y-105067262D01*
X133863851Y-105067262D01*
X133932520Y-105061254D01*
X134032087Y-105052543D01*
X134037400Y-105051119D01*
X134037402Y-105051119D01*
X134247933Y-104994707D01*
X134247935Y-104994706D01*
X134253243Y-104993284D01*
X134258225Y-104990961D01*
X134455762Y-104898849D01*
X134455767Y-104898846D01*
X134460749Y-104896523D01*
X134638790Y-104771857D01*
X134643789Y-104768357D01*
X134643792Y-104768355D01*
X134648300Y-104765198D01*
X134810198Y-104603300D01*
X134941523Y-104415749D01*
X134943846Y-104410767D01*
X134943849Y-104410762D01*
X135035961Y-104213225D01*
X135035961Y-104213224D01*
X135038284Y-104208243D01*
X135097543Y-103987087D01*
X135117498Y-103759000D01*
X135097543Y-103530913D01*
X135084284Y-103481430D01*
X135039707Y-103315067D01*
X135039706Y-103315065D01*
X135038284Y-103309757D01*
X134977130Y-103178610D01*
X134943849Y-103107238D01*
X134943846Y-103107233D01*
X134941523Y-103102251D01*
X134868098Y-102997389D01*
X134813357Y-102919211D01*
X134813355Y-102919208D01*
X134810198Y-102914700D01*
X134648300Y-102752802D01*
X134643792Y-102749645D01*
X134643789Y-102749643D01*
X134474873Y-102631367D01*
X134460749Y-102621477D01*
X134455767Y-102619154D01*
X134455762Y-102619151D01*
X134421543Y-102603195D01*
X134368258Y-102556278D01*
X134348797Y-102488001D01*
X134369339Y-102420041D01*
X134421543Y-102374805D01*
X134455762Y-102358849D01*
X134455767Y-102358846D01*
X134460749Y-102356523D01*
X134627411Y-102239825D01*
X134643789Y-102228357D01*
X134643792Y-102228355D01*
X134648300Y-102225198D01*
X134810198Y-102063300D01*
X134847706Y-102009734D01*
X134897221Y-101939019D01*
X134941523Y-101875749D01*
X134943846Y-101870767D01*
X134943849Y-101870762D01*
X135035961Y-101673225D01*
X135035961Y-101673224D01*
X135038284Y-101668243D01*
X135060688Y-101584633D01*
X135096119Y-101452402D01*
X135096119Y-101452400D01*
X135097543Y-101447087D01*
X135117498Y-101219000D01*
X135097543Y-100990913D01*
X135038284Y-100769757D01*
X135033861Y-100760272D01*
X134943849Y-100567238D01*
X134943846Y-100567233D01*
X134941523Y-100562251D01*
X134868098Y-100457389D01*
X134813357Y-100379211D01*
X134813355Y-100379208D01*
X134810198Y-100374700D01*
X134648300Y-100212802D01*
X134643792Y-100209645D01*
X134643789Y-100209643D01*
X134565611Y-100154902D01*
X134460749Y-100081477D01*
X134455767Y-100079154D01*
X134455762Y-100079151D01*
X134421543Y-100063195D01*
X134368258Y-100016278D01*
X134348797Y-99948001D01*
X134369339Y-99880041D01*
X134421543Y-99834805D01*
X134455762Y-99818849D01*
X134455767Y-99818846D01*
X134460749Y-99816523D01*
X134583371Y-99730662D01*
X134643789Y-99688357D01*
X134643792Y-99688355D01*
X134648300Y-99685198D01*
X134810198Y-99523300D01*
X134941523Y-99335749D01*
X134943846Y-99330767D01*
X134943849Y-99330762D01*
X135035961Y-99133225D01*
X135035961Y-99133224D01*
X135038284Y-99128243D01*
X135060688Y-99044633D01*
X135096119Y-98912402D01*
X135096119Y-98912400D01*
X135097543Y-98907087D01*
X135117498Y-98679000D01*
X135097543Y-98450913D01*
X135079024Y-98381798D01*
X135039707Y-98235067D01*
X135039706Y-98235065D01*
X135038284Y-98229757D01*
X135022381Y-98195652D01*
X134943849Y-98027238D01*
X134943846Y-98027233D01*
X134941523Y-98022251D01*
X134810198Y-97834700D01*
X134648300Y-97672802D01*
X134643792Y-97669645D01*
X134643789Y-97669643D01*
X134565611Y-97614902D01*
X134460749Y-97541477D01*
X134455767Y-97539154D01*
X134455762Y-97539151D01*
X134421543Y-97523195D01*
X134368258Y-97476278D01*
X134348797Y-97408001D01*
X134369339Y-97340041D01*
X134421543Y-97294805D01*
X134455762Y-97278849D01*
X134455767Y-97278846D01*
X134460749Y-97276523D01*
X134565611Y-97203098D01*
X134643789Y-97148357D01*
X134643792Y-97148355D01*
X134648300Y-97145198D01*
X134810198Y-96983300D01*
X134941523Y-96795749D01*
X134943846Y-96790767D01*
X134943849Y-96790762D01*
X135035961Y-96593225D01*
X135035961Y-96593224D01*
X135038284Y-96588243D01*
X135097543Y-96367087D01*
X135117498Y-96139000D01*
X135097543Y-95910913D01*
X135087244Y-95872478D01*
X135039707Y-95695067D01*
X135039706Y-95695065D01*
X135038284Y-95689757D01*
X135026517Y-95664522D01*
X134943849Y-95487238D01*
X134943846Y-95487233D01*
X134941523Y-95482251D01*
X134810198Y-95294700D01*
X134648300Y-95132802D01*
X134643792Y-95129645D01*
X134643789Y-95129643D01*
X134565611Y-95074902D01*
X134460749Y-95001477D01*
X134455767Y-94999154D01*
X134455762Y-94999151D01*
X134421543Y-94983195D01*
X134368258Y-94936278D01*
X134348797Y-94868001D01*
X134369339Y-94800041D01*
X134421543Y-94754805D01*
X134455762Y-94738849D01*
X134455767Y-94738846D01*
X134460749Y-94736523D01*
X134565611Y-94663098D01*
X134643789Y-94608357D01*
X134643792Y-94608355D01*
X134648300Y-94605198D01*
X134810198Y-94443300D01*
X134941523Y-94255749D01*
X134943846Y-94250767D01*
X134943849Y-94250762D01*
X135035961Y-94053225D01*
X135035961Y-94053224D01*
X135038284Y-94048243D01*
X135086970Y-93866548D01*
X135096119Y-93832402D01*
X135096119Y-93832400D01*
X135097543Y-93827087D01*
X135117498Y-93599000D01*
X135097543Y-93370913D01*
X135087244Y-93332478D01*
X135039707Y-93155067D01*
X135039706Y-93155065D01*
X135038284Y-93149757D01*
X134943966Y-92947489D01*
X134943849Y-92947238D01*
X134943846Y-92947233D01*
X134941523Y-92942251D01*
X134810198Y-92754700D01*
X134648300Y-92592802D01*
X134643792Y-92589645D01*
X134643789Y-92589643D01*
X134565611Y-92534902D01*
X134460749Y-92461477D01*
X134455767Y-92459154D01*
X134455762Y-92459151D01*
X134421543Y-92443195D01*
X134368258Y-92396278D01*
X134348797Y-92328001D01*
X134369339Y-92260041D01*
X134421543Y-92214805D01*
X134455762Y-92198849D01*
X134455767Y-92198846D01*
X134460749Y-92196523D01*
X134632789Y-92076059D01*
X134643789Y-92068357D01*
X134643792Y-92068355D01*
X134648300Y-92065198D01*
X134810198Y-91903300D01*
X134814033Y-91897824D01*
X134875982Y-91809351D01*
X134941523Y-91715749D01*
X134943846Y-91710767D01*
X134943849Y-91710762D01*
X135035961Y-91513225D01*
X135035961Y-91513224D01*
X135038284Y-91508243D01*
X135067197Y-91400341D01*
X135096119Y-91292402D01*
X135096119Y-91292400D01*
X135097543Y-91287087D01*
X135117498Y-91059000D01*
X135097543Y-90830913D01*
X135078993Y-90761683D01*
X135039707Y-90615067D01*
X135039706Y-90615065D01*
X135038284Y-90609757D01*
X135035961Y-90604775D01*
X134943849Y-90407238D01*
X134943846Y-90407233D01*
X134941523Y-90402251D01*
X134868098Y-90297389D01*
X134813357Y-90219211D01*
X134813355Y-90219208D01*
X134810198Y-90214700D01*
X134648300Y-90052802D01*
X134643792Y-90049645D01*
X134643789Y-90049643D01*
X134565611Y-89994902D01*
X134460749Y-89921477D01*
X134455767Y-89919154D01*
X134455762Y-89919151D01*
X134420951Y-89902919D01*
X134367666Y-89856002D01*
X134348205Y-89787725D01*
X134368747Y-89719765D01*
X134420951Y-89674529D01*
X134455511Y-89658414D01*
X134465007Y-89652931D01*
X134643467Y-89527972D01*
X134651875Y-89520916D01*
X134805916Y-89366875D01*
X134812972Y-89358467D01*
X134937931Y-89180007D01*
X134943414Y-89170511D01*
X135035490Y-88973053D01*
X135039236Y-88962761D01*
X135085394Y-88790497D01*
X135085058Y-88776401D01*
X135077116Y-88773000D01*
X132136033Y-88773000D01*
X132122502Y-88776973D01*
X132121273Y-88785522D01*
X132168764Y-88962761D01*
X132172510Y-88973053D01*
X132264586Y-89170511D01*
X132270069Y-89180007D01*
X132395028Y-89358467D01*
X132402084Y-89366875D01*
X132556125Y-89520916D01*
X132564533Y-89527972D01*
X132742993Y-89652931D01*
X132752489Y-89658414D01*
X132787049Y-89674529D01*
X132840334Y-89721446D01*
X132859795Y-89789723D01*
X132839253Y-89857683D01*
X132787049Y-89902919D01*
X132752238Y-89919151D01*
X132752233Y-89919154D01*
X132747251Y-89921477D01*
X132627119Y-90005595D01*
X132606956Y-90019713D01*
X132534685Y-90042500D01*
X126584239Y-90042500D01*
X126516118Y-90022498D01*
X126495144Y-90005595D01*
X124333815Y-87844267D01*
X124324713Y-87834124D01*
X124304634Y-87809151D01*
X124300775Y-87804351D01*
X124261998Y-87771813D01*
X124258371Y-87768649D01*
X124256502Y-87766954D01*
X124254308Y-87764760D01*
X124220742Y-87737188D01*
X124219945Y-87736526D01*
X124148067Y-87676214D01*
X124143361Y-87673627D01*
X124139211Y-87670218D01*
X124133787Y-87667310D01*
X124133777Y-87667303D01*
X124056632Y-87625939D01*
X124055472Y-87625310D01*
X124037972Y-87615689D01*
X123973379Y-87580179D01*
X123968259Y-87578555D01*
X123963526Y-87576017D01*
X123874007Y-87548648D01*
X123872748Y-87548256D01*
X123789239Y-87521765D01*
X123789235Y-87521764D01*
X123783365Y-87519902D01*
X123778027Y-87519303D01*
X123772891Y-87517733D01*
X123766760Y-87517110D01*
X123766759Y-87517110D01*
X123746103Y-87515012D01*
X123679569Y-87508254D01*
X123678449Y-87508134D01*
X123628216Y-87502500D01*
X123624711Y-87502500D01*
X123623603Y-87502438D01*
X123617908Y-87501990D01*
X123580695Y-87498210D01*
X123580688Y-87498210D01*
X123574565Y-87497588D01*
X123530398Y-87501763D01*
X123528515Y-87501941D01*
X123516657Y-87502500D01*
X121559143Y-87502500D01*
X121486872Y-87479713D01*
X121453145Y-87456097D01*
X121408654Y-87424944D01*
X121403672Y-87422621D01*
X121403667Y-87422618D01*
X121276232Y-87363195D01*
X121222947Y-87316278D01*
X121203486Y-87248001D01*
X121224028Y-87180041D01*
X121276232Y-87134805D01*
X121403667Y-87075382D01*
X121403672Y-87075379D01*
X121408654Y-87073056D01*
X121529616Y-86988357D01*
X121584527Y-86949908D01*
X121584529Y-86949906D01*
X121589038Y-86946749D01*
X121744749Y-86791038D01*
X121871056Y-86610653D01*
X121873379Y-86605671D01*
X121873382Y-86605666D01*
X121920585Y-86504438D01*
X121964120Y-86411076D01*
X122021115Y-86198371D01*
X122040307Y-85979000D01*
X122021115Y-85759629D01*
X121964120Y-85546924D01*
X121920585Y-85453562D01*
X121873382Y-85352334D01*
X121873379Y-85352329D01*
X121871056Y-85347347D01*
X121744749Y-85166962D01*
X121589038Y-85011251D01*
X121408654Y-84884944D01*
X121403672Y-84882621D01*
X121403667Y-84882618D01*
X121276232Y-84823195D01*
X121222947Y-84776278D01*
X121203486Y-84708001D01*
X121224028Y-84640041D01*
X121276232Y-84594805D01*
X121403667Y-84535382D01*
X121403672Y-84535379D01*
X121408654Y-84533056D01*
X121589038Y-84406749D01*
X121744749Y-84251038D01*
X121871056Y-84070653D01*
X121873379Y-84065671D01*
X121873382Y-84065666D01*
X121961795Y-83876061D01*
X121964120Y-83871076D01*
X122021115Y-83658371D01*
X122040307Y-83439000D01*
X122021115Y-83219629D01*
X121964120Y-83006924D01*
X121920585Y-82913562D01*
X121873382Y-82812334D01*
X121873379Y-82812329D01*
X121871056Y-82807347D01*
X121744749Y-82626962D01*
X121589038Y-82471251D01*
X121408654Y-82344944D01*
X121209076Y-82251880D01*
X120996371Y-82194885D01*
X120777000Y-82175693D01*
X120557629Y-82194885D01*
X120344924Y-82251880D01*
X120251562Y-82295415D01*
X120150334Y-82342618D01*
X120150329Y-82342621D01*
X120145347Y-82344944D01*
X120140840Y-82348100D01*
X120140838Y-82348101D01*
X119969473Y-82468092D01*
X119969470Y-82468094D01*
X119964962Y-82471251D01*
X119809251Y-82626962D01*
X119682944Y-82807347D01*
X119680621Y-82812329D01*
X119680618Y-82812334D01*
X119633415Y-82913562D01*
X119589880Y-83006924D01*
X119532885Y-83219629D01*
X119513693Y-83439000D01*
X119532885Y-83658371D01*
X119589880Y-83871076D01*
X119592205Y-83876061D01*
X119680618Y-84065666D01*
X119680621Y-84065671D01*
X119682944Y-84070653D01*
X119809251Y-84251038D01*
X119964962Y-84406749D01*
X120145346Y-84533056D01*
X120150328Y-84535379D01*
X120150333Y-84535382D01*
X120277768Y-84594805D01*
X120331053Y-84641722D01*
X120350514Y-84709999D01*
X120329972Y-84777959D01*
X120277768Y-84823195D01*
X120150334Y-84882618D01*
X120150329Y-84882621D01*
X120145347Y-84884944D01*
X120140840Y-84888100D01*
X120140838Y-84888101D01*
X119969473Y-85008092D01*
X119969470Y-85008094D01*
X119964962Y-85011251D01*
X119809251Y-85166962D01*
X119682944Y-85347347D01*
X119680621Y-85352329D01*
X119680618Y-85352334D01*
X119633415Y-85453562D01*
X119589880Y-85546924D01*
X119532885Y-85759629D01*
X119513693Y-85979000D01*
X119532885Y-86198371D01*
X119589880Y-86411076D01*
X119633415Y-86504438D01*
X119680618Y-86605666D01*
X119680621Y-86605671D01*
X119682944Y-86610653D01*
X119809251Y-86791038D01*
X119964962Y-86946749D01*
X119969471Y-86949906D01*
X119969473Y-86949908D01*
X120024384Y-86988357D01*
X120145346Y-87073056D01*
X120150328Y-87075379D01*
X120150333Y-87075382D01*
X120277768Y-87134805D01*
X120331053Y-87181722D01*
X120350514Y-87249999D01*
X120329972Y-87317959D01*
X120277768Y-87363195D01*
X120150334Y-87422618D01*
X120150329Y-87422621D01*
X120145347Y-87424944D01*
X120140840Y-87428100D01*
X120140838Y-87428101D01*
X119969473Y-87548092D01*
X119969470Y-87548094D01*
X119964962Y-87551251D01*
X119809251Y-87706962D01*
X119806094Y-87711470D01*
X119806092Y-87711473D01*
X119686101Y-87882838D01*
X119682944Y-87887347D01*
X119680621Y-87892329D01*
X119680618Y-87892334D01*
X119633415Y-87993562D01*
X119589880Y-88086924D01*
X119532885Y-88299629D01*
X119513693Y-88519000D01*
X116840500Y-88519000D01*
X116840500Y-76840703D01*
X119302743Y-76840703D01*
X119340268Y-77125734D01*
X119416129Y-77403036D01*
X119528923Y-77667476D01*
X119676561Y-77914161D01*
X119856313Y-78138528D01*
X120064851Y-78336423D01*
X120298317Y-78504186D01*
X120302112Y-78506195D01*
X120302113Y-78506196D01*
X120323869Y-78517715D01*
X120552392Y-78638712D01*
X120822373Y-78737511D01*
X121103264Y-78798755D01*
X121131841Y-78801004D01*
X121326282Y-78816307D01*
X121326291Y-78816307D01*
X121328739Y-78816500D01*
X121484271Y-78816500D01*
X121486407Y-78816354D01*
X121486418Y-78816354D01*
X121694548Y-78802165D01*
X121694554Y-78802164D01*
X121698825Y-78801873D01*
X121703020Y-78801004D01*
X121703022Y-78801004D01*
X121839584Y-78772723D01*
X121980342Y-78743574D01*
X122251343Y-78647607D01*
X122506812Y-78515750D01*
X122510313Y-78513289D01*
X122510317Y-78513287D01*
X122624417Y-78433096D01*
X122742023Y-78350441D01*
X122952622Y-78154740D01*
X123134713Y-77932268D01*
X123284927Y-77687142D01*
X123400483Y-77423898D01*
X123479244Y-77147406D01*
X123519751Y-76862784D01*
X123519845Y-76844951D01*
X123521235Y-76579583D01*
X123521235Y-76579576D01*
X123521257Y-76575297D01*
X123483732Y-76290266D01*
X123407871Y-76012964D01*
X123295077Y-75748524D01*
X123147439Y-75501839D01*
X122967687Y-75277472D01*
X122759149Y-75079577D01*
X122525683Y-74911814D01*
X122503843Y-74900250D01*
X122480654Y-74887972D01*
X122271608Y-74777288D01*
X122001627Y-74678489D01*
X121720736Y-74617245D01*
X121689685Y-74614801D01*
X121497718Y-74599693D01*
X121497709Y-74599693D01*
X121495261Y-74599500D01*
X121339729Y-74599500D01*
X121337593Y-74599646D01*
X121337582Y-74599646D01*
X121129452Y-74613835D01*
X121129446Y-74613836D01*
X121125175Y-74614127D01*
X121120980Y-74614996D01*
X121120978Y-74614996D01*
X120984417Y-74643276D01*
X120843658Y-74672426D01*
X120572657Y-74768393D01*
X120317188Y-74900250D01*
X120313687Y-74902711D01*
X120313683Y-74902713D01*
X120303594Y-74909804D01*
X120081977Y-75065559D01*
X119871378Y-75261260D01*
X119689287Y-75483732D01*
X119539073Y-75728858D01*
X119423517Y-75992102D01*
X119344756Y-76268594D01*
X119304249Y-76553216D01*
X119304227Y-76557505D01*
X119304226Y-76557512D01*
X119303407Y-76713865D01*
X119302743Y-76840703D01*
X116840500Y-76840703D01*
X116840500Y-74221250D01*
X116842246Y-74200345D01*
X116844770Y-74185344D01*
X116844770Y-74185341D01*
X116845576Y-74180552D01*
X116845729Y-74168000D01*
X116844003Y-74155947D01*
X116843001Y-74129845D01*
X116857340Y-73911078D01*
X116859491Y-73894738D01*
X116908111Y-73650307D01*
X116912375Y-73634394D01*
X116992485Y-73398398D01*
X116998791Y-73383174D01*
X117109016Y-73159658D01*
X117117257Y-73145384D01*
X117255713Y-72938171D01*
X117265746Y-72925095D01*
X117430068Y-72737722D01*
X117441722Y-72726068D01*
X117629095Y-72561746D01*
X117642171Y-72551713D01*
X117849384Y-72413257D01*
X117863658Y-72405016D01*
X118087174Y-72294791D01*
X118102400Y-72288484D01*
X118338394Y-72208375D01*
X118354304Y-72204112D01*
X118476522Y-72179801D01*
X118598738Y-72155491D01*
X118615078Y-72153340D01*
X118763866Y-72143587D01*
X118830237Y-72139237D01*
X118853350Y-72140267D01*
X118856854Y-72140310D01*
X118865724Y-72141691D01*
X118874626Y-72140527D01*
X118874628Y-72140527D01*
X118891449Y-72138327D01*
X118897286Y-72137564D01*
X118913621Y-72136500D01*
X174702633Y-72136500D01*
X174722018Y-72138000D01*
G37*
G04 #@! TD.AperFunction*
M02*
