G04 #@! TF.GenerationSoftware,KiCad,Pcbnew,(6.0.8)*
G04 #@! TF.CreationDate,2022-10-28T18:58:47+02:00*
G04 #@! TF.ProjectId,gardenWemos,67617264-656e-4576-956d-6f732e6b6963,rev?*
G04 #@! TF.SameCoordinates,Original*
G04 #@! TF.FileFunction,Copper,L1,Top*
G04 #@! TF.FilePolarity,Positive*
%FSLAX46Y46*%
G04 Gerber Fmt 4.6, Leading zero omitted, Abs format (unit mm)*
G04 Created by KiCad (PCBNEW (6.0.8)) date 2022-10-28 18:58:47*
%MOMM*%
%LPD*%
G01*
G04 APERTURE LIST*
G04 Aperture macros list*
%AMRoundRect*
0 Rectangle with rounded corners*
0 $1 Rounding radius*
0 $2 $3 $4 $5 $6 $7 $8 $9 X,Y pos of 4 corners*
0 Add a 4 corners polygon primitive as box body*
4,1,4,$2,$3,$4,$5,$6,$7,$8,$9,$2,$3,0*
0 Add four circle primitives for the rounded corners*
1,1,$1+$1,$2,$3*
1,1,$1+$1,$4,$5*
1,1,$1+$1,$6,$7*
1,1,$1+$1,$8,$9*
0 Add four rect primitives between the rounded corners*
20,1,$1+$1,$2,$3,$4,$5,0*
20,1,$1+$1,$4,$5,$6,$7,0*
20,1,$1+$1,$6,$7,$8,$9,0*
20,1,$1+$1,$8,$9,$2,$3,0*%
G04 Aperture macros list end*
G04 #@! TA.AperFunction,Profile*
%ADD10C,0.050000*%
G04 #@! TD*
G04 #@! TA.AperFunction,ComponentPad*
%ADD11R,2.030000X1.730000*%
G04 #@! TD*
G04 #@! TA.AperFunction,ComponentPad*
%ADD12O,2.030000X1.730000*%
G04 #@! TD*
G04 #@! TA.AperFunction,SMDPad,CuDef*
%ADD13RoundRect,0.250001X-0.624999X0.462499X-0.624999X-0.462499X0.624999X-0.462499X0.624999X0.462499X0*%
G04 #@! TD*
G04 #@! TA.AperFunction,ComponentPad*
%ADD14R,1.500000X1.500000*%
G04 #@! TD*
G04 #@! TA.AperFunction,ComponentPad*
%ADD15C,1.500000*%
G04 #@! TD*
G04 #@! TA.AperFunction,SMDPad,CuDef*
%ADD16RoundRect,0.250000X0.450000X-0.325000X0.450000X0.325000X-0.450000X0.325000X-0.450000X-0.325000X0*%
G04 #@! TD*
G04 #@! TA.AperFunction,ComponentPad*
%ADD17R,2.540000X2.540000*%
G04 #@! TD*
G04 #@! TA.AperFunction,ComponentPad*
%ADD18C,2.540000*%
G04 #@! TD*
G04 #@! TA.AperFunction,SMDPad,CuDef*
%ADD19R,0.800000X1.900000*%
G04 #@! TD*
G04 #@! TA.AperFunction,ComponentPad*
%ADD20O,1.400000X1.400000*%
G04 #@! TD*
G04 #@! TA.AperFunction,ComponentPad*
%ADD21C,1.400000*%
G04 #@! TD*
G04 #@! TA.AperFunction,SMDPad,CuDef*
%ADD22RoundRect,0.250001X0.462499X0.624999X-0.462499X0.624999X-0.462499X-0.624999X0.462499X-0.624999X0*%
G04 #@! TD*
G04 #@! TA.AperFunction,ComponentPad*
%ADD23O,2.000000X1.600000*%
G04 #@! TD*
G04 #@! TA.AperFunction,ComponentPad*
%ADD24R,2.000000X2.000000*%
G04 #@! TD*
G04 #@! TA.AperFunction,ComponentPad*
%ADD25R,2.400000X1.600000*%
G04 #@! TD*
G04 #@! TA.AperFunction,ComponentPad*
%ADD26O,2.400000X1.600000*%
G04 #@! TD*
G04 #@! TA.AperFunction,ViaPad*
%ADD27C,0.800000*%
G04 #@! TD*
G04 #@! TA.AperFunction,Conductor*
%ADD28C,1.016000*%
G04 #@! TD*
G04 APERTURE END LIST*
D10*
X174752000Y-132588000D02*
G75*
G03*
X177292000Y-130048000I0J2540000D01*
G01*
X116332000Y-130048000D02*
G75*
G03*
X118872000Y-132588000I2540000J0D01*
G01*
X118872000Y-71628000D02*
G75*
G03*
X116332000Y-74168000I0J-2540000D01*
G01*
X177292000Y-74168000D02*
G75*
G03*
X174752000Y-71628000I-2540000J0D01*
G01*
X118872000Y-71628000D02*
X174752000Y-71628000D01*
X116332000Y-130048000D02*
X116332000Y-74168000D01*
X118872000Y-132588000D02*
X174752000Y-132588000D01*
X177292000Y-74168000D02*
X177292000Y-130048000D01*
D11*
X121412000Y-97028000D03*
D12*
X121412000Y-99568000D03*
X121412000Y-102108000D03*
D13*
X127000000Y-91948000D03*
X127000000Y-88973000D03*
D14*
X120777000Y-91059000D03*
D15*
X120777000Y-88519000D03*
X120777000Y-85979000D03*
X120777000Y-83439000D03*
D16*
X127127000Y-86505000D03*
X127127000Y-84455000D03*
D17*
X144272000Y-123825000D03*
D18*
X151892000Y-123825000D03*
D19*
X136276000Y-123825000D03*
X138176000Y-123825000D03*
X137226000Y-120825000D03*
D20*
X123952000Y-119888000D03*
D21*
X118872000Y-119888000D03*
D22*
X132424500Y-121031000D03*
X129449500Y-121031000D03*
X132461000Y-123825000D03*
X129486000Y-123825000D03*
D23*
X133604000Y-88519000D03*
D24*
X133604000Y-85979000D03*
D23*
X133604000Y-91059000D03*
X133604000Y-93599000D03*
X133604000Y-96139000D03*
X133604000Y-98679000D03*
X133604000Y-101219000D03*
X133604000Y-103759000D03*
X156464000Y-103759000D03*
X156464000Y-101219000D03*
X156464000Y-98679000D03*
X156464000Y-96139000D03*
X156464000Y-93599000D03*
X156464000Y-91059000D03*
X156464000Y-88519000D03*
X156464000Y-85979000D03*
D25*
X172974000Y-111379000D03*
D26*
X165354000Y-93599000D03*
X172974000Y-108839000D03*
X165354000Y-96139000D03*
X172974000Y-106299000D03*
X165354000Y-98679000D03*
X172974000Y-103759000D03*
X165354000Y-101219000D03*
X172974000Y-101219000D03*
X165354000Y-103759000D03*
X172974000Y-98679000D03*
X165354000Y-106299000D03*
X172974000Y-96139000D03*
X165354000Y-108839000D03*
X172974000Y-93599000D03*
X165354000Y-111379000D03*
D12*
X121412000Y-113411000D03*
X121412000Y-110871000D03*
D11*
X121412000Y-108331000D03*
D27*
X134112000Y-128016000D03*
D28*
X125022000Y-88973000D02*
X127000000Y-88973000D01*
X120777000Y-91059000D02*
X122936000Y-91059000D01*
X122936000Y-91059000D02*
X125022000Y-88973000D01*
X127127000Y-86505000D02*
X127127000Y-88846000D01*
X127127000Y-88846000D02*
X127000000Y-88973000D01*
X120777000Y-83439000D02*
X126111000Y-83439000D01*
X126111000Y-83439000D02*
X127127000Y-84455000D01*
X144272000Y-123825000D02*
X138176000Y-123825000D01*
X134239000Y-123825000D02*
X136276000Y-123825000D01*
X132461000Y-123825000D02*
X134239000Y-123825000D01*
X132461000Y-126365000D02*
X132461000Y-123825000D01*
X134112000Y-128016000D02*
X132461000Y-126365000D01*
X132133990Y-86306010D02*
X133604000Y-86306010D01*
X130048000Y-88392000D02*
X132133990Y-86306010D01*
X130048000Y-96520000D02*
X130048000Y-88392000D01*
X121412000Y-99568000D02*
X127000000Y-99568000D01*
X127000000Y-99568000D02*
X130048000Y-96520000D01*
X119381000Y-99568000D02*
X118364000Y-100585000D01*
X121412000Y-99568000D02*
X119381000Y-99568000D01*
X118364000Y-118390051D02*
X118364000Y-100585000D01*
X118872000Y-118898051D02*
X118364000Y-118390051D01*
X118872000Y-119888000D02*
X118872000Y-118898051D01*
X119381000Y-110871000D02*
X121412000Y-110871000D01*
X119380000Y-110870000D02*
X119381000Y-110871000D01*
X118490000Y-110870000D02*
X119380000Y-110870000D01*
X118364000Y-100585000D02*
X118364000Y-110744000D01*
X118364000Y-110744000D02*
X118490000Y-110870000D01*
X118872000Y-119888000D02*
X119888000Y-119888000D01*
X119888000Y-119888000D02*
X122936000Y-116840000D01*
X122936000Y-116840000D02*
X135636000Y-116840000D01*
X162560000Y-116840000D02*
X135636000Y-116840000D01*
X165354000Y-111379000D02*
X165354000Y-114046000D01*
X165354000Y-114046000D02*
X162560000Y-116840000D01*
X137226000Y-116840000D02*
X137226000Y-120825000D01*
X135636000Y-116840000D02*
X137226000Y-116840000D01*
X132424500Y-118708500D02*
X132424500Y-121031000D01*
X132080000Y-118364000D02*
X132424500Y-118708500D01*
X124968000Y-118364000D02*
X132080000Y-118364000D01*
X123952000Y-119888000D02*
X123952000Y-119380000D01*
X123952000Y-119380000D02*
X124968000Y-118364000D01*
X118364000Y-92964000D02*
X119380000Y-93980000D01*
X118364000Y-89871340D02*
X118364000Y-92964000D01*
X120777000Y-88519000D02*
X119716340Y-88519000D01*
X127000000Y-92964000D02*
X127000000Y-91948000D01*
X119380000Y-93980000D02*
X125984000Y-93980000D01*
X119716340Y-88519000D02*
X118364000Y-89871340D01*
X125984000Y-93980000D02*
X127000000Y-92964000D01*
X163138000Y-103759000D02*
X165354000Y-103759000D01*
X161221302Y-103759000D02*
X163138000Y-103759000D01*
X158808303Y-106171999D02*
X161221302Y-103759000D01*
X129539999Y-106171999D02*
X158808303Y-106171999D01*
X121412000Y-102108000D02*
X125476000Y-102108000D01*
X125476000Y-102108000D02*
X129539999Y-106171999D01*
X156464000Y-98679000D02*
X165354000Y-98679000D01*
X156464000Y-96139000D02*
X165354000Y-96139000D01*
X156464000Y-93599000D02*
X165354000Y-93599000D01*
X170758000Y-98679000D02*
X172974000Y-98679000D01*
X169672000Y-97593000D02*
X170758000Y-98679000D01*
X169672000Y-92456000D02*
X169672000Y-97593000D01*
X156464000Y-91059000D02*
X168275000Y-91059000D01*
X168275000Y-91059000D02*
X169672000Y-92456000D01*
X160401000Y-106299000D02*
X165354000Y-106299000D01*
X159311990Y-107388010D02*
X160401000Y-106299000D01*
X129465990Y-107388010D02*
X159311990Y-107388010D01*
X121412000Y-113411000D02*
X123443000Y-113411000D01*
X123443000Y-113411000D02*
X129465990Y-107388010D01*
G04 #@! TA.AperFunction,Conductor*
G36*
X174722018Y-72138000D02*
G01*
X174736851Y-72140310D01*
X174736855Y-72140310D01*
X174745724Y-72141691D01*
X174754626Y-72140527D01*
X174754629Y-72140527D01*
X174762012Y-72139561D01*
X174786591Y-72138767D01*
X174813442Y-72140527D01*
X175008922Y-72153340D01*
X175025262Y-72155491D01*
X175147478Y-72179801D01*
X175269696Y-72204112D01*
X175285606Y-72208375D01*
X175521600Y-72288484D01*
X175536826Y-72294791D01*
X175760342Y-72405016D01*
X175774616Y-72413257D01*
X175981829Y-72551713D01*
X175994905Y-72561746D01*
X176182278Y-72726068D01*
X176193932Y-72737722D01*
X176358254Y-72925095D01*
X176368287Y-72938171D01*
X176506743Y-73145384D01*
X176514984Y-73159658D01*
X176625209Y-73383174D01*
X176631515Y-73398398D01*
X176711625Y-73634394D01*
X176715889Y-73650307D01*
X176764509Y-73894738D01*
X176766660Y-73911078D01*
X176780763Y-74126236D01*
X176779733Y-74149350D01*
X176779690Y-74152854D01*
X176778309Y-74161724D01*
X176779473Y-74170626D01*
X176779473Y-74170628D01*
X176782436Y-74193283D01*
X176783500Y-74209621D01*
X176783500Y-129998633D01*
X176782000Y-130018018D01*
X176779690Y-130032851D01*
X176779690Y-130032855D01*
X176778309Y-130041724D01*
X176779473Y-130050626D01*
X176779473Y-130050629D01*
X176780439Y-130058012D01*
X176781233Y-130082591D01*
X176766660Y-130304922D01*
X176764509Y-130321262D01*
X176715889Y-130565693D01*
X176711625Y-130581606D01*
X176677312Y-130682689D01*
X176631516Y-130817600D01*
X176625209Y-130832826D01*
X176514984Y-131056342D01*
X176506743Y-131070616D01*
X176368287Y-131277829D01*
X176358254Y-131290905D01*
X176193932Y-131478278D01*
X176182278Y-131489932D01*
X175994905Y-131654254D01*
X175981829Y-131664287D01*
X175774616Y-131802743D01*
X175760342Y-131810984D01*
X175536826Y-131921209D01*
X175521602Y-131927515D01*
X175285606Y-132007625D01*
X175269696Y-132011888D01*
X175147478Y-132036199D01*
X175025262Y-132060509D01*
X175008922Y-132062660D01*
X174860134Y-132072413D01*
X174793763Y-132076763D01*
X174770650Y-132075733D01*
X174767146Y-132075690D01*
X174758276Y-132074309D01*
X174749374Y-132075473D01*
X174749372Y-132075473D01*
X174735915Y-132077233D01*
X174726714Y-132078436D01*
X174710379Y-132079500D01*
X118921367Y-132079500D01*
X118901982Y-132078000D01*
X118887149Y-132075690D01*
X118887145Y-132075690D01*
X118878276Y-132074309D01*
X118869374Y-132075473D01*
X118869371Y-132075473D01*
X118861988Y-132076439D01*
X118837409Y-132077233D01*
X118792799Y-132074309D01*
X118615078Y-132062660D01*
X118598738Y-132060509D01*
X118476522Y-132036199D01*
X118354304Y-132011888D01*
X118338394Y-132007625D01*
X118102398Y-131927515D01*
X118087174Y-131921209D01*
X117863658Y-131810984D01*
X117849384Y-131802743D01*
X117642171Y-131664287D01*
X117629095Y-131654254D01*
X117441722Y-131489932D01*
X117430068Y-131478278D01*
X117265746Y-131290905D01*
X117255713Y-131277829D01*
X117117257Y-131070616D01*
X117109016Y-131056342D01*
X116998791Y-130832826D01*
X116992484Y-130817600D01*
X116946688Y-130682689D01*
X116912375Y-130581606D01*
X116908111Y-130565693D01*
X116859491Y-130321262D01*
X116857340Y-130304922D01*
X116843476Y-130093407D01*
X116844650Y-130070232D01*
X116844334Y-130070204D01*
X116844770Y-130065344D01*
X116845576Y-130060552D01*
X116845729Y-130048000D01*
X116841773Y-130020376D01*
X116840500Y-130002514D01*
X116840500Y-127640703D01*
X119302743Y-127640703D01*
X119340268Y-127925734D01*
X119416129Y-128203036D01*
X119417813Y-128206984D01*
X119506583Y-128415100D01*
X119528923Y-128467476D01*
X119676561Y-128714161D01*
X119856313Y-128938528D01*
X120064851Y-129136423D01*
X120298317Y-129304186D01*
X120302112Y-129306195D01*
X120302113Y-129306196D01*
X120323869Y-129317715D01*
X120552392Y-129438712D01*
X120822373Y-129537511D01*
X121103264Y-129598755D01*
X121131841Y-129601004D01*
X121326282Y-129616307D01*
X121326291Y-129616307D01*
X121328739Y-129616500D01*
X121484271Y-129616500D01*
X121486407Y-129616354D01*
X121486418Y-129616354D01*
X121694548Y-129602165D01*
X121694554Y-129602164D01*
X121698825Y-129601873D01*
X121703020Y-129601004D01*
X121703022Y-129601004D01*
X121839583Y-129572724D01*
X121980342Y-129543574D01*
X122251343Y-129447607D01*
X122506812Y-129315750D01*
X122510313Y-129313289D01*
X122510317Y-129313287D01*
X122624417Y-129233096D01*
X122742023Y-129150441D01*
X122820403Y-129077606D01*
X122949479Y-128957661D01*
X122949481Y-128957658D01*
X122952622Y-128954740D01*
X123134713Y-128732268D01*
X123284927Y-128487142D01*
X123319132Y-128409222D01*
X123398757Y-128227830D01*
X123400483Y-128223898D01*
X123479244Y-127947406D01*
X123519751Y-127662784D01*
X123519845Y-127644951D01*
X123521235Y-127379583D01*
X123521235Y-127379576D01*
X123521257Y-127375297D01*
X123483732Y-127090266D01*
X123482217Y-127084726D01*
X123459812Y-127002829D01*
X123407871Y-126812964D01*
X123339934Y-126653688D01*
X123296763Y-126552476D01*
X123296761Y-126552472D01*
X123295077Y-126548524D01*
X123208994Y-126404690D01*
X123149643Y-126305521D01*
X123149640Y-126305517D01*
X123147439Y-126301839D01*
X122967687Y-126077472D01*
X122800213Y-125918545D01*
X122762258Y-125882527D01*
X122762255Y-125882525D01*
X122759149Y-125879577D01*
X122525683Y-125711814D01*
X122503843Y-125700250D01*
X122480654Y-125687972D01*
X122271608Y-125577288D01*
X122001627Y-125478489D01*
X121720736Y-125417245D01*
X121689685Y-125414801D01*
X121497718Y-125399693D01*
X121497709Y-125399693D01*
X121495261Y-125399500D01*
X121339729Y-125399500D01*
X121337593Y-125399646D01*
X121337582Y-125399646D01*
X121129452Y-125413835D01*
X121129446Y-125413836D01*
X121125175Y-125414127D01*
X121120980Y-125414996D01*
X121120978Y-125414996D01*
X120984416Y-125443277D01*
X120843658Y-125472426D01*
X120572657Y-125568393D01*
X120317188Y-125700250D01*
X120313687Y-125702711D01*
X120313683Y-125702713D01*
X120303594Y-125709804D01*
X120081977Y-125865559D01*
X119871378Y-126061260D01*
X119689287Y-126283732D01*
X119539073Y-126528858D01*
X119537347Y-126532791D01*
X119537346Y-126532792D01*
X119425243Y-126788170D01*
X119423517Y-126792102D01*
X119344756Y-127068594D01*
X119337127Y-127122200D01*
X119306068Y-127340438D01*
X119304249Y-127353216D01*
X119304227Y-127357505D01*
X119304226Y-127357512D01*
X119302765Y-127636417D01*
X119302743Y-127640703D01*
X116840500Y-127640703D01*
X116840500Y-124497096D01*
X128265500Y-124497096D01*
X128265837Y-124503611D01*
X128275756Y-124599203D01*
X128278650Y-124612602D01*
X128330088Y-124766783D01*
X128336262Y-124779962D01*
X128421563Y-124917807D01*
X128430599Y-124929208D01*
X128545330Y-125043739D01*
X128556741Y-125052751D01*
X128694745Y-125137818D01*
X128707923Y-125143962D01*
X128862216Y-125195139D01*
X128875581Y-125198005D01*
X128969939Y-125207672D01*
X128976355Y-125208000D01*
X129213885Y-125208000D01*
X129229124Y-125203525D01*
X129230329Y-125202135D01*
X129232000Y-125194452D01*
X129232000Y-125189885D01*
X129740000Y-125189885D01*
X129744475Y-125205124D01*
X129745865Y-125206329D01*
X129753548Y-125208000D01*
X129995596Y-125208000D01*
X130002111Y-125207663D01*
X130097703Y-125197744D01*
X130111102Y-125194850D01*
X130265283Y-125143412D01*
X130278462Y-125137238D01*
X130416307Y-125051937D01*
X130427708Y-125042901D01*
X130542239Y-124928170D01*
X130551251Y-124916759D01*
X130636318Y-124778755D01*
X130642462Y-124765577D01*
X130693639Y-124611284D01*
X130696505Y-124597919D01*
X130706172Y-124503561D01*
X130706500Y-124497145D01*
X130706500Y-124097115D01*
X130702025Y-124081876D01*
X130700635Y-124080671D01*
X130692952Y-124079000D01*
X129758115Y-124079000D01*
X129742876Y-124083475D01*
X129741671Y-124084865D01*
X129740000Y-124092548D01*
X129740000Y-125189885D01*
X129232000Y-125189885D01*
X129232000Y-124097115D01*
X129227525Y-124081876D01*
X129226135Y-124080671D01*
X129218452Y-124079000D01*
X128283615Y-124079000D01*
X128268376Y-124083475D01*
X128267171Y-124084865D01*
X128265500Y-124092548D01*
X128265500Y-124497096D01*
X116840500Y-124497096D01*
X116840500Y-121703096D01*
X128229000Y-121703096D01*
X128229337Y-121709611D01*
X128239256Y-121805203D01*
X128242150Y-121818602D01*
X128293588Y-121972783D01*
X128299762Y-121985962D01*
X128385063Y-122123807D01*
X128394099Y-122135208D01*
X128508830Y-122249739D01*
X128520241Y-122258751D01*
X128639029Y-122331973D01*
X128686522Y-122384745D01*
X128697946Y-122454817D01*
X128669672Y-122519941D01*
X128639216Y-122546377D01*
X128555693Y-122598063D01*
X128544292Y-122607099D01*
X128429761Y-122721830D01*
X128420749Y-122733241D01*
X128335682Y-122871245D01*
X128329538Y-122884423D01*
X128278361Y-123038716D01*
X128275495Y-123052081D01*
X128265828Y-123146439D01*
X128265500Y-123152856D01*
X128265500Y-123552885D01*
X128269975Y-123568124D01*
X128271365Y-123569329D01*
X128279048Y-123571000D01*
X129213885Y-123571000D01*
X129229124Y-123566525D01*
X129230329Y-123565135D01*
X129232000Y-123557452D01*
X129232000Y-122472115D01*
X129223253Y-122442324D01*
X129200603Y-122407080D01*
X129197269Y-122383885D01*
X129703500Y-122383885D01*
X129712247Y-122413676D01*
X129734897Y-122448920D01*
X129740000Y-122484417D01*
X129740000Y-123552885D01*
X129744475Y-123568124D01*
X129745865Y-123569329D01*
X129753548Y-123571000D01*
X130688385Y-123571000D01*
X130703624Y-123566525D01*
X130704829Y-123565135D01*
X130706500Y-123557452D01*
X130706500Y-123152904D01*
X130706163Y-123146389D01*
X130696244Y-123050797D01*
X130693350Y-123037398D01*
X130641912Y-122883217D01*
X130635738Y-122870038D01*
X130550437Y-122732193D01*
X130541401Y-122720792D01*
X130426670Y-122606261D01*
X130415259Y-122597249D01*
X130296471Y-122524027D01*
X130248978Y-122471255D01*
X130237554Y-122401183D01*
X130265828Y-122336059D01*
X130296284Y-122309623D01*
X130379807Y-122257937D01*
X130391208Y-122248901D01*
X130505739Y-122134170D01*
X130514751Y-122122759D01*
X130599818Y-121984755D01*
X130605962Y-121971577D01*
X130657139Y-121817284D01*
X130660005Y-121803919D01*
X130669672Y-121709561D01*
X130670000Y-121703145D01*
X130670000Y-121303115D01*
X130665525Y-121287876D01*
X130664135Y-121286671D01*
X130656452Y-121285000D01*
X129721615Y-121285000D01*
X129706376Y-121289475D01*
X129705171Y-121290865D01*
X129703500Y-121298548D01*
X129703500Y-122383885D01*
X129197269Y-122383885D01*
X129195500Y-122371583D01*
X129195500Y-121303115D01*
X129191025Y-121287876D01*
X129189635Y-121286671D01*
X129181952Y-121285000D01*
X128247115Y-121285000D01*
X128231876Y-121289475D01*
X128230671Y-121290865D01*
X128229000Y-121298548D01*
X128229000Y-121703096D01*
X116840500Y-121703096D01*
X116840500Y-100581435D01*
X117342588Y-100581435D01*
X117345578Y-100613066D01*
X117346941Y-100627485D01*
X117347500Y-100639343D01*
X117347500Y-110681724D01*
X117346763Y-110695332D01*
X117343839Y-110722251D01*
X117342638Y-110733304D01*
X117343175Y-110739439D01*
X117347021Y-110783403D01*
X117347500Y-110794384D01*
X117347500Y-118327775D01*
X117346763Y-118341383D01*
X117344148Y-118365458D01*
X117342638Y-118379355D01*
X117343175Y-118385490D01*
X117347046Y-118429741D01*
X117347375Y-118434569D01*
X117347500Y-118437124D01*
X117347500Y-118440208D01*
X117347801Y-118443275D01*
X117351722Y-118483270D01*
X117351844Y-118484583D01*
X117360012Y-118577943D01*
X117361511Y-118583103D01*
X117362035Y-118588445D01*
X117386299Y-118668810D01*
X117389098Y-118678082D01*
X117389455Y-118679287D01*
X117415628Y-118769373D01*
X117418100Y-118774141D01*
X117419652Y-118779283D01*
X117422547Y-118784728D01*
X117422550Y-118784735D01*
X117463633Y-118862001D01*
X117464213Y-118863105D01*
X117507366Y-118946355D01*
X117510718Y-118950554D01*
X117513239Y-118955295D01*
X117517131Y-118960067D01*
X117572438Y-119027880D01*
X117573266Y-119028906D01*
X117602571Y-119065615D01*
X117604768Y-119068367D01*
X117607263Y-119070862D01*
X117607973Y-119071656D01*
X117611693Y-119076011D01*
X117635337Y-119105002D01*
X117635340Y-119105005D01*
X117639232Y-119109777D01*
X117643980Y-119113705D01*
X117643981Y-119113706D01*
X117674873Y-119139262D01*
X117683652Y-119147251D01*
X117757890Y-119221489D01*
X117791916Y-119283801D01*
X117786851Y-119354616D01*
X117782990Y-119363833D01*
X117740872Y-119454158D01*
X117732044Y-119473090D01*
X117730622Y-119478398D01*
X117730621Y-119478400D01*
X117685177Y-119648000D01*
X117677314Y-119677345D01*
X117658884Y-119888000D01*
X117677314Y-120098655D01*
X117678738Y-120103968D01*
X117678738Y-120103970D01*
X117717823Y-120249835D01*
X117732044Y-120302910D01*
X117734366Y-120307891D01*
X117734367Y-120307892D01*
X117755123Y-120352402D01*
X117821411Y-120494558D01*
X117942699Y-120667776D01*
X118092224Y-120817301D01*
X118265442Y-120938589D01*
X118270420Y-120940910D01*
X118270423Y-120940912D01*
X118452108Y-121025633D01*
X118457090Y-121027956D01*
X118462398Y-121029378D01*
X118462400Y-121029379D01*
X118656030Y-121081262D01*
X118656032Y-121081262D01*
X118661345Y-121082686D01*
X118872000Y-121101116D01*
X119082655Y-121082686D01*
X119087968Y-121081262D01*
X119087970Y-121081262D01*
X119281600Y-121029379D01*
X119281602Y-121029378D01*
X119286910Y-121027956D01*
X119291892Y-121025633D01*
X119473571Y-120940915D01*
X119473576Y-120940912D01*
X119478558Y-120938589D01*
X119483066Y-120935433D01*
X119483072Y-120935429D01*
X119494700Y-120927287D01*
X119566970Y-120904500D01*
X119825724Y-120904500D01*
X119839332Y-120905237D01*
X119871179Y-120908697D01*
X119871183Y-120908697D01*
X119877304Y-120909362D01*
X119914172Y-120906137D01*
X119927690Y-120904954D01*
X119932518Y-120904625D01*
X119935073Y-120904500D01*
X119938157Y-120904500D01*
X119953531Y-120902992D01*
X119981219Y-120900278D01*
X119982532Y-120900156D01*
X120022629Y-120896648D01*
X120075892Y-120891988D01*
X120081052Y-120890489D01*
X120086394Y-120889965D01*
X120176096Y-120862883D01*
X120177236Y-120862545D01*
X120267322Y-120836372D01*
X120272090Y-120833900D01*
X120277232Y-120832348D01*
X120282677Y-120829453D01*
X120282684Y-120829450D01*
X120359950Y-120788367D01*
X120361054Y-120787787D01*
X120444304Y-120744634D01*
X120448503Y-120741282D01*
X120453244Y-120738761D01*
X120458935Y-120734119D01*
X120525829Y-120679562D01*
X120526855Y-120678734D01*
X120563564Y-120649429D01*
X120563565Y-120649428D01*
X120566316Y-120647232D01*
X120568811Y-120644737D01*
X120569605Y-120644027D01*
X120573960Y-120640307D01*
X120602951Y-120616663D01*
X120602954Y-120616660D01*
X120607726Y-120612768D01*
X120637211Y-120577127D01*
X120645200Y-120568348D01*
X123320143Y-117893405D01*
X123382455Y-117859379D01*
X123409238Y-117856500D01*
X123733762Y-117856500D01*
X123801883Y-117876502D01*
X123848376Y-117930158D01*
X123858480Y-118000432D01*
X123828986Y-118065012D01*
X123822857Y-118071595D01*
X123277267Y-118617185D01*
X123267125Y-118626286D01*
X123237351Y-118650225D01*
X123204813Y-118689002D01*
X123201649Y-118692629D01*
X123199954Y-118694498D01*
X123197760Y-118696692D01*
X123170188Y-118730258D01*
X123169526Y-118731055D01*
X123109214Y-118802933D01*
X123106627Y-118807639D01*
X123103218Y-118811789D01*
X123100310Y-118817213D01*
X123100303Y-118817223D01*
X123058939Y-118894368D01*
X123058310Y-118895528D01*
X123013179Y-118977621D01*
X123011555Y-118982741D01*
X123009017Y-118987474D01*
X122996664Y-119027880D01*
X122981648Y-119076993D01*
X122981256Y-119078252D01*
X122960702Y-119143046D01*
X122952902Y-119167635D01*
X122952303Y-119172973D01*
X122950733Y-119178109D01*
X122950110Y-119184241D01*
X122948894Y-119190274D01*
X122947859Y-119190065D01*
X122928000Y-119243470D01*
X122901411Y-119281442D01*
X122899088Y-119286424D01*
X122899085Y-119286429D01*
X122867289Y-119354616D01*
X122812044Y-119473090D01*
X122810622Y-119478398D01*
X122810621Y-119478400D01*
X122765177Y-119648000D01*
X122757314Y-119677345D01*
X122738884Y-119888000D01*
X122757314Y-120098655D01*
X122758738Y-120103968D01*
X122758738Y-120103970D01*
X122797823Y-120249835D01*
X122812044Y-120302910D01*
X122814366Y-120307891D01*
X122814367Y-120307892D01*
X122835123Y-120352402D01*
X122901411Y-120494558D01*
X123022699Y-120667776D01*
X123172224Y-120817301D01*
X123345442Y-120938589D01*
X123350420Y-120940910D01*
X123350423Y-120940912D01*
X123532108Y-121025633D01*
X123537090Y-121027956D01*
X123542398Y-121029378D01*
X123542400Y-121029379D01*
X123736030Y-121081262D01*
X123736032Y-121081262D01*
X123741345Y-121082686D01*
X123952000Y-121101116D01*
X124162655Y-121082686D01*
X124167968Y-121081262D01*
X124167970Y-121081262D01*
X124361600Y-121029379D01*
X124361602Y-121029378D01*
X124366910Y-121027956D01*
X124371892Y-121025633D01*
X124553577Y-120940912D01*
X124553580Y-120940910D01*
X124558558Y-120938589D01*
X124731776Y-120817301D01*
X124790192Y-120758885D01*
X128229000Y-120758885D01*
X128233475Y-120774124D01*
X128234865Y-120775329D01*
X128242548Y-120777000D01*
X129177385Y-120777000D01*
X129192624Y-120772525D01*
X129193829Y-120771135D01*
X129195500Y-120763452D01*
X129195500Y-120758885D01*
X129703500Y-120758885D01*
X129707975Y-120774124D01*
X129709365Y-120775329D01*
X129717048Y-120777000D01*
X130651885Y-120777000D01*
X130667124Y-120772525D01*
X130668329Y-120771135D01*
X130670000Y-120763452D01*
X130670000Y-120358904D01*
X130669663Y-120352389D01*
X130659744Y-120256797D01*
X130656850Y-120243398D01*
X130605412Y-120089217D01*
X130599238Y-120076038D01*
X130513937Y-119938193D01*
X130504901Y-119926792D01*
X130390170Y-119812261D01*
X130378759Y-119803249D01*
X130240755Y-119718182D01*
X130227577Y-119712038D01*
X130073284Y-119660861D01*
X130059919Y-119657995D01*
X129965561Y-119648328D01*
X129959144Y-119648000D01*
X129721615Y-119648000D01*
X129706376Y-119652475D01*
X129705171Y-119653865D01*
X129703500Y-119661548D01*
X129703500Y-120758885D01*
X129195500Y-120758885D01*
X129195500Y-119666115D01*
X129191025Y-119650876D01*
X129189635Y-119649671D01*
X129181952Y-119648000D01*
X128939904Y-119648000D01*
X128933389Y-119648337D01*
X128837797Y-119658256D01*
X128824398Y-119661150D01*
X128670217Y-119712588D01*
X128657038Y-119718762D01*
X128519193Y-119804063D01*
X128507792Y-119813099D01*
X128393261Y-119927830D01*
X128384249Y-119939241D01*
X128299182Y-120077245D01*
X128293038Y-120090423D01*
X128241861Y-120244716D01*
X128238995Y-120258081D01*
X128229328Y-120352439D01*
X128229000Y-120358856D01*
X128229000Y-120758885D01*
X124790192Y-120758885D01*
X124881301Y-120667776D01*
X125002589Y-120494558D01*
X125068878Y-120352402D01*
X125089633Y-120307892D01*
X125089634Y-120307891D01*
X125091956Y-120302910D01*
X125106178Y-120249835D01*
X125145262Y-120103970D01*
X125145262Y-120103968D01*
X125146686Y-120098655D01*
X125165116Y-119888000D01*
X125162831Y-119861886D01*
X125147424Y-119685774D01*
X125161413Y-119616170D01*
X125183850Y-119585698D01*
X125352143Y-119417405D01*
X125414455Y-119383379D01*
X125441238Y-119380500D01*
X131282000Y-119380500D01*
X131350121Y-119400502D01*
X131396614Y-119454158D01*
X131408000Y-119506500D01*
X131408000Y-119835186D01*
X131387998Y-119903307D01*
X131371174Y-119924203D01*
X131362695Y-119932697D01*
X131269885Y-120083262D01*
X131263017Y-120103970D01*
X131216771Y-120243398D01*
X131214203Y-120251139D01*
X131213503Y-120257975D01*
X131213502Y-120257978D01*
X131209443Y-120297600D01*
X131203500Y-120355600D01*
X131203500Y-121706400D01*
X131203837Y-121709646D01*
X131203837Y-121709650D01*
X131213752Y-121805203D01*
X131214474Y-121812165D01*
X131216655Y-121818701D01*
X131216655Y-121818703D01*
X131219267Y-121826531D01*
X131270450Y-121979945D01*
X131363522Y-122130348D01*
X131488697Y-122255305D01*
X131494927Y-122259145D01*
X131494928Y-122259146D01*
X131509500Y-122268128D01*
X131609312Y-122329653D01*
X131613077Y-122331974D01*
X131660570Y-122384746D01*
X131671994Y-122454818D01*
X131643720Y-122519942D01*
X131613264Y-122546378D01*
X131524152Y-122601522D01*
X131399195Y-122726697D01*
X131395355Y-122732927D01*
X131395354Y-122732928D01*
X131337450Y-122826866D01*
X131306385Y-122877262D01*
X131304081Y-122884209D01*
X131253271Y-123037398D01*
X131250703Y-123045139D01*
X131250003Y-123051975D01*
X131250002Y-123051978D01*
X131249862Y-123053349D01*
X131240000Y-123149600D01*
X131240000Y-124500400D01*
X131240337Y-124503646D01*
X131240337Y-124503650D01*
X131250252Y-124599203D01*
X131250974Y-124606165D01*
X131253155Y-124612701D01*
X131253155Y-124612703D01*
X131275506Y-124679697D01*
X131306950Y-124773945D01*
X131400022Y-124924348D01*
X131405204Y-124929521D01*
X131407518Y-124931831D01*
X131408595Y-124933800D01*
X131409751Y-124935258D01*
X131409501Y-124935456D01*
X131441597Y-124994114D01*
X131444500Y-125021004D01*
X131444500Y-126302724D01*
X131443763Y-126316332D01*
X131439638Y-126354304D01*
X131440175Y-126360439D01*
X131444046Y-126404690D01*
X131444375Y-126409518D01*
X131444500Y-126412073D01*
X131444500Y-126415157D01*
X131444801Y-126418224D01*
X131448722Y-126458219D01*
X131448844Y-126459532D01*
X131457012Y-126552892D01*
X131458511Y-126558052D01*
X131459035Y-126563394D01*
X131460816Y-126569292D01*
X131486098Y-126653031D01*
X131486455Y-126654236D01*
X131512628Y-126744322D01*
X131515100Y-126749090D01*
X131516652Y-126754232D01*
X131519547Y-126759677D01*
X131519550Y-126759684D01*
X131560633Y-126836950D01*
X131561213Y-126838054D01*
X131604366Y-126921304D01*
X131607718Y-126925503D01*
X131610239Y-126930244D01*
X131614131Y-126935016D01*
X131669438Y-127002829D01*
X131670266Y-127003855D01*
X131699571Y-127040564D01*
X131701768Y-127043316D01*
X131704263Y-127045811D01*
X131704973Y-127046605D01*
X131708693Y-127050960D01*
X131732337Y-127079951D01*
X131732340Y-127079954D01*
X131736232Y-127084726D01*
X131740980Y-127088654D01*
X131740981Y-127088655D01*
X131771873Y-127114211D01*
X131780652Y-127122200D01*
X133428693Y-128770241D01*
X133543790Y-128864782D01*
X133549217Y-128867692D01*
X133549220Y-128867694D01*
X133675091Y-128935186D01*
X133719474Y-128958984D01*
X133734118Y-128963461D01*
X133904211Y-129015464D01*
X133904213Y-129015464D01*
X133910109Y-129017267D01*
X133938712Y-129020172D01*
X134102307Y-129036790D01*
X134102312Y-129036790D01*
X134108435Y-129037412D01*
X134306896Y-129018652D01*
X134497934Y-128961701D01*
X134503382Y-128958829D01*
X134503386Y-128958827D01*
X134586103Y-128915215D01*
X134674271Y-128868729D01*
X134793483Y-128772194D01*
X134824402Y-128747156D01*
X134824403Y-128747155D01*
X134829192Y-128743277D01*
X134956796Y-128590122D01*
X135052220Y-128415100D01*
X135111833Y-128224876D01*
X135114656Y-128198897D01*
X135132697Y-128032821D01*
X135132697Y-128032817D01*
X135133362Y-128026696D01*
X135115988Y-127828109D01*
X135061541Y-127640703D01*
X170102743Y-127640703D01*
X170140268Y-127925734D01*
X170216129Y-128203036D01*
X170217813Y-128206984D01*
X170306583Y-128415100D01*
X170328923Y-128467476D01*
X170476561Y-128714161D01*
X170656313Y-128938528D01*
X170864851Y-129136423D01*
X171098317Y-129304186D01*
X171102112Y-129306195D01*
X171102113Y-129306196D01*
X171123869Y-129317715D01*
X171352392Y-129438712D01*
X171622373Y-129537511D01*
X171903264Y-129598755D01*
X171931841Y-129601004D01*
X172126282Y-129616307D01*
X172126291Y-129616307D01*
X172128739Y-129616500D01*
X172284271Y-129616500D01*
X172286407Y-129616354D01*
X172286418Y-129616354D01*
X172494548Y-129602165D01*
X172494554Y-129602164D01*
X172498825Y-129601873D01*
X172503020Y-129601004D01*
X172503022Y-129601004D01*
X172639583Y-129572724D01*
X172780342Y-129543574D01*
X173051343Y-129447607D01*
X173306812Y-129315750D01*
X173310313Y-129313289D01*
X173310317Y-129313287D01*
X173424417Y-129233096D01*
X173542023Y-129150441D01*
X173620403Y-129077606D01*
X173749479Y-128957661D01*
X173749481Y-128957658D01*
X173752622Y-128954740D01*
X173934713Y-128732268D01*
X174084927Y-128487142D01*
X174119132Y-128409222D01*
X174198757Y-128227830D01*
X174200483Y-128223898D01*
X174279244Y-127947406D01*
X174319751Y-127662784D01*
X174319845Y-127644951D01*
X174321235Y-127379583D01*
X174321235Y-127379576D01*
X174321257Y-127375297D01*
X174283732Y-127090266D01*
X174282217Y-127084726D01*
X174259812Y-127002829D01*
X174207871Y-126812964D01*
X174139934Y-126653688D01*
X174096763Y-126552476D01*
X174096761Y-126552472D01*
X174095077Y-126548524D01*
X174008994Y-126404690D01*
X173949643Y-126305521D01*
X173949640Y-126305517D01*
X173947439Y-126301839D01*
X173767687Y-126077472D01*
X173600213Y-125918545D01*
X173562258Y-125882527D01*
X173562255Y-125882525D01*
X173559149Y-125879577D01*
X173325683Y-125711814D01*
X173303843Y-125700250D01*
X173280654Y-125687972D01*
X173071608Y-125577288D01*
X172801627Y-125478489D01*
X172520736Y-125417245D01*
X172489685Y-125414801D01*
X172297718Y-125399693D01*
X172297709Y-125399693D01*
X172295261Y-125399500D01*
X172139729Y-125399500D01*
X172137593Y-125399646D01*
X172137582Y-125399646D01*
X171929452Y-125413835D01*
X171929446Y-125413836D01*
X171925175Y-125414127D01*
X171920980Y-125414996D01*
X171920978Y-125414996D01*
X171784416Y-125443277D01*
X171643658Y-125472426D01*
X171372657Y-125568393D01*
X171117188Y-125700250D01*
X171113687Y-125702711D01*
X171113683Y-125702713D01*
X171103594Y-125709804D01*
X170881977Y-125865559D01*
X170671378Y-126061260D01*
X170489287Y-126283732D01*
X170339073Y-126528858D01*
X170337347Y-126532791D01*
X170337346Y-126532792D01*
X170225243Y-126788170D01*
X170223517Y-126792102D01*
X170144756Y-127068594D01*
X170137127Y-127122200D01*
X170106068Y-127340438D01*
X170104249Y-127353216D01*
X170104227Y-127357505D01*
X170104226Y-127357512D01*
X170102765Y-127636417D01*
X170102743Y-127640703D01*
X135061541Y-127640703D01*
X135060372Y-127636679D01*
X134968634Y-127459696D01*
X134871232Y-127337684D01*
X133514405Y-125980857D01*
X133480379Y-125918545D01*
X133477500Y-125891762D01*
X133477500Y-125020814D01*
X133497502Y-124952693D01*
X133514326Y-124931797D01*
X133517633Y-124928484D01*
X133522805Y-124923303D01*
X133536316Y-124901384D01*
X133589088Y-124853891D01*
X133643576Y-124841500D01*
X135270501Y-124841500D01*
X135338622Y-124861502D01*
X135385115Y-124915158D01*
X135388483Y-124923270D01*
X135410168Y-124981113D01*
X135425385Y-125021705D01*
X135512739Y-125138261D01*
X135629295Y-125225615D01*
X135765684Y-125276745D01*
X135827866Y-125283500D01*
X136724134Y-125283500D01*
X136786316Y-125276745D01*
X136922705Y-125225615D01*
X137039261Y-125138261D01*
X137103347Y-125052751D01*
X137125174Y-125023628D01*
X137182033Y-124981113D01*
X137252852Y-124976087D01*
X137315145Y-125010147D01*
X137326826Y-125023628D01*
X137348653Y-125052751D01*
X137412739Y-125138261D01*
X137529295Y-125225615D01*
X137665684Y-125276745D01*
X137727866Y-125283500D01*
X138624134Y-125283500D01*
X138686316Y-125276745D01*
X138822705Y-125225615D01*
X138939261Y-125138261D01*
X139026615Y-125021705D01*
X139041832Y-124981113D01*
X139063517Y-124923270D01*
X139106159Y-124866506D01*
X139172720Y-124841806D01*
X139181499Y-124841500D01*
X142367500Y-124841500D01*
X142435621Y-124861502D01*
X142482114Y-124915158D01*
X142493500Y-124967500D01*
X142493500Y-125143134D01*
X142500255Y-125205316D01*
X142551385Y-125341705D01*
X142638739Y-125458261D01*
X142755295Y-125545615D01*
X142891684Y-125596745D01*
X142953866Y-125603500D01*
X145590134Y-125603500D01*
X145652316Y-125596745D01*
X145788705Y-125545615D01*
X145905261Y-125458261D01*
X145992615Y-125341705D01*
X146027578Y-125248442D01*
X150833303Y-125248442D01*
X150842017Y-125259962D01*
X150943394Y-125334296D01*
X150951293Y-125339232D01*
X151176901Y-125457930D01*
X151185450Y-125461647D01*
X151426113Y-125545690D01*
X151435122Y-125548104D01*
X151685572Y-125595654D01*
X151694827Y-125596708D01*
X151949557Y-125606717D01*
X151958871Y-125606391D01*
X152212270Y-125578640D01*
X152221447Y-125576939D01*
X152467960Y-125512037D01*
X152476780Y-125509000D01*
X152710997Y-125408373D01*
X152719269Y-125404066D01*
X152936036Y-125269927D01*
X152943579Y-125264447D01*
X152945272Y-125263014D01*
X152953710Y-125250211D01*
X152947645Y-125239855D01*
X151904812Y-124197022D01*
X151890868Y-124189408D01*
X151889035Y-124189539D01*
X151882420Y-124193790D01*
X150839961Y-125236249D01*
X150833303Y-125248442D01*
X146027578Y-125248442D01*
X146043745Y-125205316D01*
X146050500Y-125143134D01*
X146050500Y-123782999D01*
X150109849Y-123782999D01*
X150122080Y-124037619D01*
X150123217Y-124046879D01*
X150172947Y-124296894D01*
X150175441Y-124305887D01*
X150261578Y-124545797D01*
X150265378Y-124554332D01*
X150386031Y-124778877D01*
X150391045Y-124786748D01*
X150457154Y-124875279D01*
X150468414Y-124883729D01*
X150480832Y-124876958D01*
X151519978Y-123837812D01*
X151526356Y-123826132D01*
X152256408Y-123826132D01*
X152256539Y-123827965D01*
X152260790Y-123834580D01*
X153306386Y-124880176D01*
X153318766Y-124886936D01*
X153327107Y-124880692D01*
X153456391Y-124679697D01*
X153460838Y-124671506D01*
X153565536Y-124439085D01*
X153568731Y-124430307D01*
X153637923Y-124184968D01*
X153639781Y-124175839D01*
X153672144Y-123921444D01*
X153672625Y-123915158D01*
X153674903Y-123828160D01*
X153674752Y-123821851D01*
X153655747Y-123566110D01*
X153654370Y-123556904D01*
X153598109Y-123308262D01*
X153595385Y-123299351D01*
X153502990Y-123061758D01*
X153498979Y-123053349D01*
X153372482Y-122832027D01*
X153367269Y-122824298D01*
X153327633Y-122774019D01*
X153315709Y-122765549D01*
X153304174Y-122772036D01*
X152264022Y-123812188D01*
X152256408Y-123826132D01*
X151526356Y-123826132D01*
X151527592Y-123823868D01*
X151527461Y-123822035D01*
X151523210Y-123815420D01*
X150479119Y-122771329D01*
X150465811Y-122764062D01*
X150455772Y-122771184D01*
X150443433Y-122786020D01*
X150438018Y-122793612D01*
X150305776Y-123011540D01*
X150301538Y-123019857D01*
X150202961Y-123254935D01*
X150200000Y-123263785D01*
X150137255Y-123510849D01*
X150135633Y-123520046D01*
X150110094Y-123773673D01*
X150109849Y-123782999D01*
X146050500Y-123782999D01*
X146050500Y-122506866D01*
X146043745Y-122444684D01*
X146026753Y-122399357D01*
X150830770Y-122399357D01*
X150835343Y-122409133D01*
X151879188Y-123452978D01*
X151893132Y-123460592D01*
X151894965Y-123460461D01*
X151901580Y-123456210D01*
X152944790Y-122413000D01*
X152951174Y-122401310D01*
X152941762Y-122389199D01*
X152800776Y-122291392D01*
X152792741Y-122286659D01*
X152564106Y-122173909D01*
X152555473Y-122170421D01*
X152312675Y-122092701D01*
X152303624Y-122090528D01*
X152052009Y-122049550D01*
X152042720Y-122048738D01*
X151787828Y-122045401D01*
X151778517Y-122045971D01*
X151525927Y-122080347D01*
X151516808Y-122082285D01*
X151272084Y-122153616D01*
X151263331Y-122156888D01*
X151031837Y-122263608D01*
X151023682Y-122268128D01*
X150839907Y-122388616D01*
X150830770Y-122399357D01*
X146026753Y-122399357D01*
X145992615Y-122308295D01*
X145905261Y-122191739D01*
X145788705Y-122104385D01*
X145652316Y-122053255D01*
X145590134Y-122046500D01*
X142953866Y-122046500D01*
X142891684Y-122053255D01*
X142755295Y-122104385D01*
X142638739Y-122191739D01*
X142551385Y-122308295D01*
X142500255Y-122444684D01*
X142493500Y-122506866D01*
X142493500Y-122682500D01*
X142473498Y-122750621D01*
X142419842Y-122797114D01*
X142367500Y-122808500D01*
X139181499Y-122808500D01*
X139113378Y-122788498D01*
X139066885Y-122734842D01*
X139063517Y-122726730D01*
X139029767Y-122636703D01*
X139026615Y-122628295D01*
X138939261Y-122511739D01*
X138822705Y-122424385D01*
X138686316Y-122373255D01*
X138624134Y-122366500D01*
X138062941Y-122366500D01*
X137994820Y-122346498D01*
X137948327Y-122292842D01*
X137938223Y-122222568D01*
X137967717Y-122157988D01*
X137976005Y-122150266D01*
X137975731Y-122149992D01*
X137982081Y-122143642D01*
X137989261Y-122138261D01*
X138076615Y-122021705D01*
X138127745Y-121885316D01*
X138134500Y-121823134D01*
X138134500Y-121314885D01*
X138150085Y-121254185D01*
X138161853Y-121232779D01*
X138161855Y-121232774D01*
X138164821Y-121227379D01*
X138225098Y-121037365D01*
X138242500Y-120882216D01*
X138242500Y-117982500D01*
X138262502Y-117914379D01*
X138316158Y-117867886D01*
X138368500Y-117856500D01*
X162497724Y-117856500D01*
X162511332Y-117857237D01*
X162543179Y-117860697D01*
X162543183Y-117860697D01*
X162549304Y-117861362D01*
X162586172Y-117858137D01*
X162599690Y-117856954D01*
X162604518Y-117856625D01*
X162607073Y-117856500D01*
X162610157Y-117856500D01*
X162625531Y-117854992D01*
X162653219Y-117852278D01*
X162654532Y-117852156D01*
X162694629Y-117848648D01*
X162747892Y-117843988D01*
X162753052Y-117842489D01*
X162758394Y-117841965D01*
X162848096Y-117814883D01*
X162849236Y-117814545D01*
X162939322Y-117788372D01*
X162944090Y-117785900D01*
X162949232Y-117784348D01*
X162954677Y-117781453D01*
X162954684Y-117781450D01*
X163031950Y-117740367D01*
X163033054Y-117739787D01*
X163116304Y-117696634D01*
X163120503Y-117693282D01*
X163125244Y-117690761D01*
X163130935Y-117686119D01*
X163197829Y-117631562D01*
X163198855Y-117630734D01*
X163235564Y-117601429D01*
X163235565Y-117601428D01*
X163238316Y-117599232D01*
X163240811Y-117596737D01*
X163241605Y-117596027D01*
X163245960Y-117592307D01*
X163274951Y-117568663D01*
X163274954Y-117568660D01*
X163279726Y-117564768D01*
X163309211Y-117529127D01*
X163317200Y-117520348D01*
X166028733Y-114808815D01*
X166038876Y-114799713D01*
X166058077Y-114784275D01*
X166068649Y-114775775D01*
X166101165Y-114737024D01*
X166104347Y-114733376D01*
X166106050Y-114731498D01*
X166108241Y-114729307D01*
X166135741Y-114695828D01*
X166136577Y-114694821D01*
X166192826Y-114627787D01*
X166192828Y-114627783D01*
X166196786Y-114623067D01*
X166199375Y-114618358D01*
X166202782Y-114614210D01*
X166205690Y-114608786D01*
X166205693Y-114608782D01*
X166247050Y-114531651D01*
X166247679Y-114530492D01*
X166272529Y-114485291D01*
X166292821Y-114448379D01*
X166294444Y-114443263D01*
X166296984Y-114438526D01*
X166324384Y-114348904D01*
X166324767Y-114347674D01*
X166353098Y-114258365D01*
X166353697Y-114253027D01*
X166355267Y-114247891D01*
X166364746Y-114154569D01*
X166364866Y-114153449D01*
X166370500Y-114103216D01*
X166370500Y-114099711D01*
X166370562Y-114098603D01*
X166371010Y-114092908D01*
X166374790Y-114055695D01*
X166374790Y-114055688D01*
X166375412Y-114049565D01*
X166371059Y-114003514D01*
X166370500Y-113991657D01*
X166370500Y-112610297D01*
X166390502Y-112542176D01*
X166424229Y-112507084D01*
X166593789Y-112388357D01*
X166593792Y-112388355D01*
X166598300Y-112385198D01*
X166760198Y-112223300D01*
X166763400Y-112218728D01*
X166888366Y-112040257D01*
X166891523Y-112035749D01*
X166893846Y-112030767D01*
X166893849Y-112030762D01*
X166985961Y-111833225D01*
X166985961Y-111833224D01*
X166988284Y-111828243D01*
X167001179Y-111780121D01*
X167046119Y-111612402D01*
X167046119Y-111612400D01*
X167047543Y-111607087D01*
X167067498Y-111379000D01*
X167047543Y-111150913D01*
X166991355Y-110941219D01*
X166989707Y-110935067D01*
X166989706Y-110935065D01*
X166988284Y-110929757D01*
X166925159Y-110794384D01*
X166893849Y-110727238D01*
X166893846Y-110727233D01*
X166891523Y-110722251D01*
X166760198Y-110534700D01*
X166598300Y-110372802D01*
X166593792Y-110369645D01*
X166593789Y-110369643D01*
X166427955Y-110253525D01*
X166410749Y-110241477D01*
X166405767Y-110239154D01*
X166405762Y-110239151D01*
X166371543Y-110223195D01*
X166318258Y-110176278D01*
X166298797Y-110108001D01*
X166319339Y-110040041D01*
X166371543Y-109994805D01*
X166405762Y-109978849D01*
X166405767Y-109978846D01*
X166410749Y-109976523D01*
X166579289Y-109858510D01*
X166593789Y-109848357D01*
X166593792Y-109848355D01*
X166598300Y-109845198D01*
X166760198Y-109683300D01*
X166783989Y-109649324D01*
X166818098Y-109600611D01*
X166891523Y-109495749D01*
X166893846Y-109490767D01*
X166893849Y-109490762D01*
X166985961Y-109293225D01*
X166985961Y-109293224D01*
X166988284Y-109288243D01*
X167047543Y-109067087D01*
X167067498Y-108839000D01*
X167047543Y-108610913D01*
X166992237Y-108404510D01*
X166989707Y-108395067D01*
X166989706Y-108395065D01*
X166988284Y-108389757D01*
X166963316Y-108336212D01*
X166893849Y-108187238D01*
X166893846Y-108187233D01*
X166891523Y-108182251D01*
X166760198Y-107994700D01*
X166598300Y-107832802D01*
X166593792Y-107829645D01*
X166593789Y-107829643D01*
X166515611Y-107774902D01*
X166410749Y-107701477D01*
X166405767Y-107699154D01*
X166405762Y-107699151D01*
X166371543Y-107683195D01*
X166318258Y-107636278D01*
X166298797Y-107568001D01*
X166319339Y-107500041D01*
X166371543Y-107454805D01*
X166405762Y-107438849D01*
X166405767Y-107438846D01*
X166410749Y-107436523D01*
X166579476Y-107318379D01*
X166593789Y-107308357D01*
X166593792Y-107308355D01*
X166598300Y-107305198D01*
X166760198Y-107143300D01*
X166891523Y-106955749D01*
X166893846Y-106950767D01*
X166893849Y-106950762D01*
X166985961Y-106753225D01*
X166985961Y-106753224D01*
X166988284Y-106748243D01*
X166996866Y-106716217D01*
X167046119Y-106532402D01*
X167046119Y-106532400D01*
X167047543Y-106527087D01*
X167067498Y-106299000D01*
X167047543Y-106070913D01*
X166988284Y-105849757D01*
X166985961Y-105844775D01*
X166893849Y-105647238D01*
X166893846Y-105647233D01*
X166891523Y-105642251D01*
X166760198Y-105454700D01*
X166598300Y-105292802D01*
X166593792Y-105289645D01*
X166593789Y-105289643D01*
X166478393Y-105208842D01*
X166410749Y-105161477D01*
X166405767Y-105159154D01*
X166405762Y-105159151D01*
X166371543Y-105143195D01*
X166318258Y-105096278D01*
X166298797Y-105028001D01*
X166319339Y-104960041D01*
X166371543Y-104914805D01*
X166405762Y-104898849D01*
X166405767Y-104898846D01*
X166410749Y-104896523D01*
X166579476Y-104778379D01*
X166593789Y-104768357D01*
X166593792Y-104768355D01*
X166598300Y-104765198D01*
X166760198Y-104603300D01*
X166891523Y-104415749D01*
X166893846Y-104410767D01*
X166893849Y-104410762D01*
X166985961Y-104213225D01*
X166985961Y-104213224D01*
X166988284Y-104208243D01*
X167047543Y-103987087D01*
X167067498Y-103759000D01*
X167047543Y-103530913D01*
X167034284Y-103481430D01*
X166989707Y-103315067D01*
X166989706Y-103315065D01*
X166988284Y-103309757D01*
X166911225Y-103144502D01*
X166893849Y-103107238D01*
X166893846Y-103107233D01*
X166891523Y-103102251D01*
X166818098Y-102997389D01*
X166763357Y-102919211D01*
X166763355Y-102919208D01*
X166760198Y-102914700D01*
X166598300Y-102752802D01*
X166593792Y-102749645D01*
X166593789Y-102749643D01*
X166515611Y-102694902D01*
X166410749Y-102621477D01*
X166405767Y-102619154D01*
X166405762Y-102619151D01*
X166371543Y-102603195D01*
X166318258Y-102556278D01*
X166298797Y-102488001D01*
X166319339Y-102420041D01*
X166371543Y-102374805D01*
X166405762Y-102358849D01*
X166405767Y-102358846D01*
X166410749Y-102356523D01*
X166533371Y-102270662D01*
X166593789Y-102228357D01*
X166593792Y-102228355D01*
X166598300Y-102225198D01*
X166760198Y-102063300D01*
X166891523Y-101875749D01*
X166893846Y-101870767D01*
X166893849Y-101870762D01*
X166985961Y-101673225D01*
X166985961Y-101673224D01*
X166988284Y-101668243D01*
X167010688Y-101584633D01*
X167046119Y-101452402D01*
X167046119Y-101452400D01*
X167047543Y-101447087D01*
X167067498Y-101219000D01*
X167047543Y-100990913D01*
X166988284Y-100769757D01*
X166983861Y-100760272D01*
X166893849Y-100567238D01*
X166893846Y-100567233D01*
X166891523Y-100562251D01*
X166770380Y-100389241D01*
X166763357Y-100379211D01*
X166763355Y-100379208D01*
X166760198Y-100374700D01*
X166598300Y-100212802D01*
X166593792Y-100209645D01*
X166593789Y-100209643D01*
X166515611Y-100154902D01*
X166410749Y-100081477D01*
X166405767Y-100079154D01*
X166405762Y-100079151D01*
X166371543Y-100063195D01*
X166318258Y-100016278D01*
X166298797Y-99948001D01*
X166319339Y-99880041D01*
X166371543Y-99834805D01*
X166405762Y-99818849D01*
X166405767Y-99818846D01*
X166410749Y-99816523D01*
X166551044Y-99718287D01*
X166593789Y-99688357D01*
X166593792Y-99688355D01*
X166598300Y-99685198D01*
X166760198Y-99523300D01*
X166891523Y-99335749D01*
X166893846Y-99330767D01*
X166893849Y-99330762D01*
X166985961Y-99133225D01*
X166985961Y-99133224D01*
X166988284Y-99128243D01*
X167047543Y-98907087D01*
X167067498Y-98679000D01*
X167047543Y-98450913D01*
X167019430Y-98345995D01*
X166989707Y-98235067D01*
X166989706Y-98235065D01*
X166988284Y-98229757D01*
X166972381Y-98195652D01*
X166893849Y-98027238D01*
X166893846Y-98027233D01*
X166891523Y-98022251D01*
X166793525Y-97882296D01*
X166763357Y-97839211D01*
X166763355Y-97839208D01*
X166760198Y-97834700D01*
X166598300Y-97672802D01*
X166593792Y-97669645D01*
X166593789Y-97669643D01*
X166460308Y-97576179D01*
X166410749Y-97541477D01*
X166405767Y-97539154D01*
X166405762Y-97539151D01*
X166371543Y-97523195D01*
X166318258Y-97476278D01*
X166298797Y-97408001D01*
X166319339Y-97340041D01*
X166371543Y-97294805D01*
X166405762Y-97278849D01*
X166405767Y-97278846D01*
X166410749Y-97276523D01*
X166551044Y-97178287D01*
X166593789Y-97148357D01*
X166593792Y-97148355D01*
X166598300Y-97145198D01*
X166760198Y-96983300D01*
X166799077Y-96927776D01*
X166818098Y-96900611D01*
X166891523Y-96795749D01*
X166893846Y-96790767D01*
X166893849Y-96790762D01*
X166985961Y-96593225D01*
X166985961Y-96593224D01*
X166988284Y-96588243D01*
X167007258Y-96517434D01*
X167046119Y-96372402D01*
X167046119Y-96372400D01*
X167047543Y-96367087D01*
X167067498Y-96139000D01*
X167047543Y-95910913D01*
X167037244Y-95872478D01*
X166989707Y-95695067D01*
X166989706Y-95695065D01*
X166988284Y-95689757D01*
X166976517Y-95664522D01*
X166893849Y-95487238D01*
X166893846Y-95487233D01*
X166891523Y-95482251D01*
X166760198Y-95294700D01*
X166598300Y-95132802D01*
X166593792Y-95129645D01*
X166593789Y-95129643D01*
X166515611Y-95074902D01*
X166410749Y-95001477D01*
X166405767Y-94999154D01*
X166405762Y-94999151D01*
X166371543Y-94983195D01*
X166318258Y-94936278D01*
X166298797Y-94868001D01*
X166319339Y-94800041D01*
X166371543Y-94754805D01*
X166405762Y-94738849D01*
X166405767Y-94738846D01*
X166410749Y-94736523D01*
X166551044Y-94638287D01*
X166593789Y-94608357D01*
X166593792Y-94608355D01*
X166598300Y-94605198D01*
X166760198Y-94443300D01*
X166891523Y-94255749D01*
X166893846Y-94250767D01*
X166893849Y-94250762D01*
X166985961Y-94053225D01*
X166985961Y-94053224D01*
X166988284Y-94048243D01*
X167036970Y-93866548D01*
X167046119Y-93832402D01*
X167046119Y-93832400D01*
X167047543Y-93827087D01*
X167067498Y-93599000D01*
X167047543Y-93370913D01*
X167043688Y-93356526D01*
X166989707Y-93155067D01*
X166989706Y-93155065D01*
X166988284Y-93149757D01*
X166947902Y-93063157D01*
X166893849Y-92947238D01*
X166893846Y-92947233D01*
X166891523Y-92942251D01*
X166760198Y-92754700D01*
X166598300Y-92592802D01*
X166593792Y-92589645D01*
X166593789Y-92589643D01*
X166482116Y-92511449D01*
X166410749Y-92461477D01*
X166405767Y-92459154D01*
X166405762Y-92459151D01*
X166208225Y-92367039D01*
X166208224Y-92367039D01*
X166203243Y-92364716D01*
X166197935Y-92363294D01*
X166197933Y-92363293D01*
X166069950Y-92329000D01*
X166048330Y-92323207D01*
X165987707Y-92286255D01*
X165956686Y-92222394D01*
X165965114Y-92151900D01*
X166010317Y-92097153D01*
X166080941Y-92075500D01*
X167801762Y-92075500D01*
X167869883Y-92095502D01*
X167890857Y-92112405D01*
X168618595Y-92840143D01*
X168652621Y-92902455D01*
X168655500Y-92929238D01*
X168655500Y-97530724D01*
X168654763Y-97544332D01*
X168650638Y-97582304D01*
X168651175Y-97588439D01*
X168655046Y-97632690D01*
X168655375Y-97637518D01*
X168655500Y-97640073D01*
X168655500Y-97643157D01*
X168655801Y-97646224D01*
X168659722Y-97686219D01*
X168659844Y-97687532D01*
X168668012Y-97780892D01*
X168669511Y-97786052D01*
X168670035Y-97791394D01*
X168671816Y-97797292D01*
X168697098Y-97881031D01*
X168697455Y-97882236D01*
X168723628Y-97972322D01*
X168726100Y-97977090D01*
X168727652Y-97982232D01*
X168730547Y-97987677D01*
X168730550Y-97987684D01*
X168771633Y-98064950D01*
X168772213Y-98066054D01*
X168815366Y-98149304D01*
X168818718Y-98153503D01*
X168821239Y-98158244D01*
X168825131Y-98163016D01*
X168880438Y-98230829D01*
X168881266Y-98231855D01*
X168894733Y-98248724D01*
X168912768Y-98271316D01*
X168915263Y-98273811D01*
X168915973Y-98274605D01*
X168919693Y-98278960D01*
X168943337Y-98307951D01*
X168943340Y-98307954D01*
X168947232Y-98312726D01*
X168951980Y-98316654D01*
X168951981Y-98316655D01*
X168982873Y-98342211D01*
X168991652Y-98350200D01*
X169995185Y-99353733D01*
X170004286Y-99363875D01*
X170028225Y-99393649D01*
X170067002Y-99426187D01*
X170070630Y-99429352D01*
X170072498Y-99431046D01*
X170074692Y-99433240D01*
X170077081Y-99435202D01*
X170108156Y-99460727D01*
X170109073Y-99461488D01*
X170180933Y-99521786D01*
X170185642Y-99524375D01*
X170189790Y-99527782D01*
X170195214Y-99530690D01*
X170195218Y-99530693D01*
X170272349Y-99572050D01*
X170273478Y-99572663D01*
X170355621Y-99617821D01*
X170360737Y-99619444D01*
X170365474Y-99621984D01*
X170455096Y-99649384D01*
X170456300Y-99649759D01*
X170545635Y-99678098D01*
X170550973Y-99678697D01*
X170556109Y-99680267D01*
X170562240Y-99680890D01*
X170562241Y-99680890D01*
X170581544Y-99682851D01*
X170649431Y-99689746D01*
X170650551Y-99689866D01*
X170700784Y-99695500D01*
X170704289Y-99695500D01*
X170705397Y-99695562D01*
X170711092Y-99696010D01*
X170748305Y-99699790D01*
X170748312Y-99699790D01*
X170754435Y-99700412D01*
X170800486Y-99696059D01*
X170812343Y-99695500D01*
X171704685Y-99695500D01*
X171776956Y-99718287D01*
X171917251Y-99816523D01*
X171922233Y-99818846D01*
X171922238Y-99818849D01*
X171956457Y-99834805D01*
X172009742Y-99881722D01*
X172029203Y-99949999D01*
X172008661Y-100017959D01*
X171956457Y-100063195D01*
X171922238Y-100079151D01*
X171922233Y-100079154D01*
X171917251Y-100081477D01*
X171812389Y-100154902D01*
X171734211Y-100209643D01*
X171734208Y-100209645D01*
X171729700Y-100212802D01*
X171567802Y-100374700D01*
X171564645Y-100379208D01*
X171564643Y-100379211D01*
X171557620Y-100389241D01*
X171436477Y-100562251D01*
X171434154Y-100567233D01*
X171434151Y-100567238D01*
X171344139Y-100760272D01*
X171339716Y-100769757D01*
X171280457Y-100990913D01*
X171260502Y-101219000D01*
X171280457Y-101447087D01*
X171281881Y-101452400D01*
X171281881Y-101452402D01*
X171317313Y-101584633D01*
X171339716Y-101668243D01*
X171342039Y-101673224D01*
X171342039Y-101673225D01*
X171434151Y-101870762D01*
X171434154Y-101870767D01*
X171436477Y-101875749D01*
X171567802Y-102063300D01*
X171729700Y-102225198D01*
X171734208Y-102228355D01*
X171734211Y-102228357D01*
X171794629Y-102270662D01*
X171917251Y-102356523D01*
X171922233Y-102358846D01*
X171922238Y-102358849D01*
X171956457Y-102374805D01*
X172009742Y-102421722D01*
X172029203Y-102489999D01*
X172008661Y-102557959D01*
X171956457Y-102603195D01*
X171922238Y-102619151D01*
X171922233Y-102619154D01*
X171917251Y-102621477D01*
X171812389Y-102694902D01*
X171734211Y-102749643D01*
X171734208Y-102749645D01*
X171729700Y-102752802D01*
X171567802Y-102914700D01*
X171564645Y-102919208D01*
X171564643Y-102919211D01*
X171509902Y-102997389D01*
X171436477Y-103102251D01*
X171434154Y-103107233D01*
X171434151Y-103107238D01*
X171416775Y-103144502D01*
X171339716Y-103309757D01*
X171338294Y-103315065D01*
X171338293Y-103315067D01*
X171293716Y-103481430D01*
X171280457Y-103530913D01*
X171260502Y-103759000D01*
X171280457Y-103987087D01*
X171339716Y-104208243D01*
X171342039Y-104213224D01*
X171342039Y-104213225D01*
X171434151Y-104410762D01*
X171434154Y-104410767D01*
X171436477Y-104415749D01*
X171567802Y-104603300D01*
X171729700Y-104765198D01*
X171734208Y-104768355D01*
X171734211Y-104768357D01*
X171748524Y-104778379D01*
X171917251Y-104896523D01*
X171922233Y-104898846D01*
X171922238Y-104898849D01*
X171956457Y-104914805D01*
X172009742Y-104961722D01*
X172029203Y-105029999D01*
X172008661Y-105097959D01*
X171956457Y-105143195D01*
X171922238Y-105159151D01*
X171922233Y-105159154D01*
X171917251Y-105161477D01*
X171849607Y-105208842D01*
X171734211Y-105289643D01*
X171734208Y-105289645D01*
X171729700Y-105292802D01*
X171567802Y-105454700D01*
X171436477Y-105642251D01*
X171434154Y-105647233D01*
X171434151Y-105647238D01*
X171342039Y-105844775D01*
X171339716Y-105849757D01*
X171280457Y-106070913D01*
X171260502Y-106299000D01*
X171280457Y-106527087D01*
X171281881Y-106532400D01*
X171281881Y-106532402D01*
X171331135Y-106716217D01*
X171339716Y-106748243D01*
X171342039Y-106753224D01*
X171342039Y-106753225D01*
X171434151Y-106950762D01*
X171434154Y-106950767D01*
X171436477Y-106955749D01*
X171567802Y-107143300D01*
X171729700Y-107305198D01*
X171734208Y-107308355D01*
X171734211Y-107308357D01*
X171748524Y-107318379D01*
X171917251Y-107436523D01*
X171922233Y-107438846D01*
X171922238Y-107438849D01*
X171956457Y-107454805D01*
X172009742Y-107501722D01*
X172029203Y-107569999D01*
X172008661Y-107637959D01*
X171956457Y-107683195D01*
X171922238Y-107699151D01*
X171922233Y-107699154D01*
X171917251Y-107701477D01*
X171812389Y-107774902D01*
X171734211Y-107829643D01*
X171734208Y-107829645D01*
X171729700Y-107832802D01*
X171567802Y-107994700D01*
X171436477Y-108182251D01*
X171434154Y-108187233D01*
X171434151Y-108187238D01*
X171364684Y-108336212D01*
X171339716Y-108389757D01*
X171338294Y-108395065D01*
X171338293Y-108395067D01*
X171335763Y-108404510D01*
X171280457Y-108610913D01*
X171260502Y-108839000D01*
X171280457Y-109067087D01*
X171339716Y-109288243D01*
X171342039Y-109293224D01*
X171342039Y-109293225D01*
X171434151Y-109490762D01*
X171434154Y-109490767D01*
X171436477Y-109495749D01*
X171509902Y-109600611D01*
X171544012Y-109649324D01*
X171567802Y-109683300D01*
X171729700Y-109845198D01*
X171734211Y-109848357D01*
X171738424Y-109851892D01*
X171737473Y-109853026D01*
X171777471Y-109903071D01*
X171784776Y-109973690D01*
X171752742Y-110037049D01*
X171691538Y-110073030D01*
X171674483Y-110076082D01*
X171663684Y-110077255D01*
X171527295Y-110128385D01*
X171410739Y-110215739D01*
X171323385Y-110332295D01*
X171272255Y-110468684D01*
X171265500Y-110530866D01*
X171265500Y-112227134D01*
X171272255Y-112289316D01*
X171323385Y-112425705D01*
X171410739Y-112542261D01*
X171527295Y-112629615D01*
X171663684Y-112680745D01*
X171725866Y-112687500D01*
X174222134Y-112687500D01*
X174284316Y-112680745D01*
X174420705Y-112629615D01*
X174537261Y-112542261D01*
X174624615Y-112425705D01*
X174675745Y-112289316D01*
X174682500Y-112227134D01*
X174682500Y-110530866D01*
X174675745Y-110468684D01*
X174624615Y-110332295D01*
X174537261Y-110215739D01*
X174420705Y-110128385D01*
X174284316Y-110077255D01*
X174273526Y-110076083D01*
X174271394Y-110075197D01*
X174268778Y-110074575D01*
X174268879Y-110074152D01*
X174207965Y-110048845D01*
X174167537Y-109990483D01*
X174165078Y-109919529D01*
X174201371Y-109858510D01*
X174210031Y-109851511D01*
X174213793Y-109848354D01*
X174218300Y-109845198D01*
X174380198Y-109683300D01*
X174403989Y-109649324D01*
X174438098Y-109600611D01*
X174511523Y-109495749D01*
X174513846Y-109490767D01*
X174513849Y-109490762D01*
X174605961Y-109293225D01*
X174605961Y-109293224D01*
X174608284Y-109288243D01*
X174667543Y-109067087D01*
X174687498Y-108839000D01*
X174667543Y-108610913D01*
X174612237Y-108404510D01*
X174609707Y-108395067D01*
X174609706Y-108395065D01*
X174608284Y-108389757D01*
X174583316Y-108336212D01*
X174513849Y-108187238D01*
X174513846Y-108187233D01*
X174511523Y-108182251D01*
X174380198Y-107994700D01*
X174218300Y-107832802D01*
X174213792Y-107829645D01*
X174213789Y-107829643D01*
X174135611Y-107774902D01*
X174030749Y-107701477D01*
X174025767Y-107699154D01*
X174025762Y-107699151D01*
X173991543Y-107683195D01*
X173938258Y-107636278D01*
X173918797Y-107568001D01*
X173939339Y-107500041D01*
X173991543Y-107454805D01*
X174025762Y-107438849D01*
X174025767Y-107438846D01*
X174030749Y-107436523D01*
X174199476Y-107318379D01*
X174213789Y-107308357D01*
X174213792Y-107308355D01*
X174218300Y-107305198D01*
X174380198Y-107143300D01*
X174511523Y-106955749D01*
X174513846Y-106950767D01*
X174513849Y-106950762D01*
X174605961Y-106753225D01*
X174605961Y-106753224D01*
X174608284Y-106748243D01*
X174616866Y-106716217D01*
X174666119Y-106532402D01*
X174666119Y-106532400D01*
X174667543Y-106527087D01*
X174687498Y-106299000D01*
X174667543Y-106070913D01*
X174608284Y-105849757D01*
X174605961Y-105844775D01*
X174513849Y-105647238D01*
X174513846Y-105647233D01*
X174511523Y-105642251D01*
X174380198Y-105454700D01*
X174218300Y-105292802D01*
X174213792Y-105289645D01*
X174213789Y-105289643D01*
X174098393Y-105208842D01*
X174030749Y-105161477D01*
X174025767Y-105159154D01*
X174025762Y-105159151D01*
X173991543Y-105143195D01*
X173938258Y-105096278D01*
X173918797Y-105028001D01*
X173939339Y-104960041D01*
X173991543Y-104914805D01*
X174025762Y-104898849D01*
X174025767Y-104898846D01*
X174030749Y-104896523D01*
X174199476Y-104778379D01*
X174213789Y-104768357D01*
X174213792Y-104768355D01*
X174218300Y-104765198D01*
X174380198Y-104603300D01*
X174511523Y-104415749D01*
X174513846Y-104410767D01*
X174513849Y-104410762D01*
X174605961Y-104213225D01*
X174605961Y-104213224D01*
X174608284Y-104208243D01*
X174667543Y-103987087D01*
X174687498Y-103759000D01*
X174667543Y-103530913D01*
X174654284Y-103481430D01*
X174609707Y-103315067D01*
X174609706Y-103315065D01*
X174608284Y-103309757D01*
X174531225Y-103144502D01*
X174513849Y-103107238D01*
X174513846Y-103107233D01*
X174511523Y-103102251D01*
X174438098Y-102997389D01*
X174383357Y-102919211D01*
X174383355Y-102919208D01*
X174380198Y-102914700D01*
X174218300Y-102752802D01*
X174213792Y-102749645D01*
X174213789Y-102749643D01*
X174135611Y-102694902D01*
X174030749Y-102621477D01*
X174025767Y-102619154D01*
X174025762Y-102619151D01*
X173991543Y-102603195D01*
X173938258Y-102556278D01*
X173918797Y-102488001D01*
X173939339Y-102420041D01*
X173991543Y-102374805D01*
X174025762Y-102358849D01*
X174025767Y-102358846D01*
X174030749Y-102356523D01*
X174153371Y-102270662D01*
X174213789Y-102228357D01*
X174213792Y-102228355D01*
X174218300Y-102225198D01*
X174380198Y-102063300D01*
X174511523Y-101875749D01*
X174513846Y-101870767D01*
X174513849Y-101870762D01*
X174605961Y-101673225D01*
X174605961Y-101673224D01*
X174608284Y-101668243D01*
X174630688Y-101584633D01*
X174666119Y-101452402D01*
X174666119Y-101452400D01*
X174667543Y-101447087D01*
X174687498Y-101219000D01*
X174667543Y-100990913D01*
X174608284Y-100769757D01*
X174603861Y-100760272D01*
X174513849Y-100567238D01*
X174513846Y-100567233D01*
X174511523Y-100562251D01*
X174390380Y-100389241D01*
X174383357Y-100379211D01*
X174383355Y-100379208D01*
X174380198Y-100374700D01*
X174218300Y-100212802D01*
X174213792Y-100209645D01*
X174213789Y-100209643D01*
X174135611Y-100154902D01*
X174030749Y-100081477D01*
X174025767Y-100079154D01*
X174025762Y-100079151D01*
X173991543Y-100063195D01*
X173938258Y-100016278D01*
X173918797Y-99948001D01*
X173939339Y-99880041D01*
X173991543Y-99834805D01*
X174025762Y-99818849D01*
X174025767Y-99818846D01*
X174030749Y-99816523D01*
X174171044Y-99718287D01*
X174213789Y-99688357D01*
X174213792Y-99688355D01*
X174218300Y-99685198D01*
X174380198Y-99523300D01*
X174511523Y-99335749D01*
X174513846Y-99330767D01*
X174513849Y-99330762D01*
X174605961Y-99133225D01*
X174605961Y-99133224D01*
X174608284Y-99128243D01*
X174667543Y-98907087D01*
X174687498Y-98679000D01*
X174667543Y-98450913D01*
X174639430Y-98345995D01*
X174609707Y-98235067D01*
X174609706Y-98235065D01*
X174608284Y-98229757D01*
X174592381Y-98195652D01*
X174513849Y-98027238D01*
X174513846Y-98027233D01*
X174511523Y-98022251D01*
X174413525Y-97882296D01*
X174383357Y-97839211D01*
X174383355Y-97839208D01*
X174380198Y-97834700D01*
X174218300Y-97672802D01*
X174213792Y-97669645D01*
X174213789Y-97669643D01*
X174080308Y-97576179D01*
X174030749Y-97541477D01*
X174025767Y-97539154D01*
X174025762Y-97539151D01*
X173990951Y-97522919D01*
X173937666Y-97476002D01*
X173918205Y-97407725D01*
X173938747Y-97339765D01*
X173990951Y-97294529D01*
X174025511Y-97278414D01*
X174035007Y-97272931D01*
X174213467Y-97147972D01*
X174221875Y-97140916D01*
X174375916Y-96986875D01*
X174382972Y-96978467D01*
X174507931Y-96800007D01*
X174513414Y-96790511D01*
X174605490Y-96593053D01*
X174609236Y-96582761D01*
X174655394Y-96410497D01*
X174655058Y-96396401D01*
X174647116Y-96393000D01*
X171306033Y-96393000D01*
X171292502Y-96396973D01*
X171291273Y-96405522D01*
X171338764Y-96582761D01*
X171342510Y-96593053D01*
X171434586Y-96790511D01*
X171440069Y-96800007D01*
X171565028Y-96978467D01*
X171572084Y-96986875D01*
X171726125Y-97140916D01*
X171734533Y-97147972D01*
X171912993Y-97272931D01*
X171922489Y-97278414D01*
X171957049Y-97294529D01*
X172010334Y-97341446D01*
X172029795Y-97409723D01*
X172009253Y-97477683D01*
X171957049Y-97522919D01*
X171922238Y-97539151D01*
X171922233Y-97539154D01*
X171917251Y-97541477D01*
X171850183Y-97588439D01*
X171776956Y-97639713D01*
X171704685Y-97662500D01*
X171231238Y-97662500D01*
X171163117Y-97642498D01*
X171142143Y-97625595D01*
X170725405Y-97208857D01*
X170691379Y-97146545D01*
X170688500Y-97119762D01*
X170688500Y-93865522D01*
X171291273Y-93865522D01*
X171338764Y-94042761D01*
X171342510Y-94053053D01*
X171434586Y-94250511D01*
X171440069Y-94260007D01*
X171565028Y-94438467D01*
X171572084Y-94446875D01*
X171726125Y-94600916D01*
X171734533Y-94607972D01*
X171912993Y-94732931D01*
X171922489Y-94738414D01*
X171957641Y-94754805D01*
X172010926Y-94801722D01*
X172030387Y-94869999D01*
X172009845Y-94937959D01*
X171957641Y-94983195D01*
X171922489Y-94999586D01*
X171912993Y-95005069D01*
X171734533Y-95130028D01*
X171726125Y-95137084D01*
X171572084Y-95291125D01*
X171565028Y-95299533D01*
X171440069Y-95477993D01*
X171434586Y-95487489D01*
X171342510Y-95684947D01*
X171338764Y-95695239D01*
X171292606Y-95867503D01*
X171292942Y-95881599D01*
X171300884Y-95885000D01*
X172701885Y-95885000D01*
X172717124Y-95880525D01*
X172718329Y-95879135D01*
X172720000Y-95871452D01*
X172720000Y-95866885D01*
X173228000Y-95866885D01*
X173232475Y-95882124D01*
X173233865Y-95883329D01*
X173241548Y-95885000D01*
X174641967Y-95885000D01*
X174655498Y-95881027D01*
X174656727Y-95872478D01*
X174609236Y-95695239D01*
X174605490Y-95684947D01*
X174513414Y-95487489D01*
X174507931Y-95477993D01*
X174382972Y-95299533D01*
X174375916Y-95291125D01*
X174221875Y-95137084D01*
X174213467Y-95130028D01*
X174035007Y-95005069D01*
X174025511Y-94999586D01*
X173990359Y-94983195D01*
X173937074Y-94936278D01*
X173917613Y-94868001D01*
X173938155Y-94800041D01*
X173990359Y-94754805D01*
X174025511Y-94738414D01*
X174035007Y-94732931D01*
X174213467Y-94607972D01*
X174221875Y-94600916D01*
X174375916Y-94446875D01*
X174382972Y-94438467D01*
X174507931Y-94260007D01*
X174513414Y-94250511D01*
X174605490Y-94053053D01*
X174609236Y-94042761D01*
X174655394Y-93870497D01*
X174655058Y-93856401D01*
X174647116Y-93853000D01*
X173246115Y-93853000D01*
X173230876Y-93857475D01*
X173229671Y-93858865D01*
X173228000Y-93866548D01*
X173228000Y-95866885D01*
X172720000Y-95866885D01*
X172720000Y-93871115D01*
X172715525Y-93855876D01*
X172714135Y-93854671D01*
X172706452Y-93853000D01*
X171306033Y-93853000D01*
X171292502Y-93856973D01*
X171291273Y-93865522D01*
X170688500Y-93865522D01*
X170688500Y-93327503D01*
X171292606Y-93327503D01*
X171292942Y-93341599D01*
X171300884Y-93345000D01*
X172701885Y-93345000D01*
X172717124Y-93340525D01*
X172718329Y-93339135D01*
X172720000Y-93331452D01*
X172720000Y-93326885D01*
X173228000Y-93326885D01*
X173232475Y-93342124D01*
X173233865Y-93343329D01*
X173241548Y-93345000D01*
X174641967Y-93345000D01*
X174655498Y-93341027D01*
X174656727Y-93332478D01*
X174609236Y-93155239D01*
X174605490Y-93144947D01*
X174513414Y-92947489D01*
X174507931Y-92937993D01*
X174382972Y-92759533D01*
X174375916Y-92751125D01*
X174221875Y-92597084D01*
X174213467Y-92590028D01*
X174035007Y-92465069D01*
X174025511Y-92459586D01*
X173828053Y-92367510D01*
X173817761Y-92363764D01*
X173607312Y-92307375D01*
X173596519Y-92305472D01*
X173433830Y-92291238D01*
X173428365Y-92291000D01*
X173246115Y-92291000D01*
X173230876Y-92295475D01*
X173229671Y-92296865D01*
X173228000Y-92304548D01*
X173228000Y-93326885D01*
X172720000Y-93326885D01*
X172720000Y-92309115D01*
X172715525Y-92293876D01*
X172714135Y-92292671D01*
X172706452Y-92291000D01*
X172519635Y-92291000D01*
X172514170Y-92291238D01*
X172351481Y-92305472D01*
X172340688Y-92307375D01*
X172130239Y-92363764D01*
X172119947Y-92367510D01*
X171922489Y-92459586D01*
X171912993Y-92465069D01*
X171734533Y-92590028D01*
X171726125Y-92597084D01*
X171572084Y-92751125D01*
X171565028Y-92759533D01*
X171440069Y-92937993D01*
X171434586Y-92947489D01*
X171342510Y-93144947D01*
X171338764Y-93155239D01*
X171292606Y-93327503D01*
X170688500Y-93327503D01*
X170688500Y-92518273D01*
X170689237Y-92504665D01*
X170692696Y-92472821D01*
X170693362Y-92466695D01*
X170688955Y-92416322D01*
X170688626Y-92411507D01*
X170688500Y-92408931D01*
X170688500Y-92405843D01*
X170684742Y-92367510D01*
X170684267Y-92362665D01*
X170684146Y-92361354D01*
X170676524Y-92274245D01*
X170675987Y-92268108D01*
X170674489Y-92262953D01*
X170673965Y-92257606D01*
X170646842Y-92167771D01*
X170646500Y-92166615D01*
X170622091Y-92082596D01*
X170622089Y-92082590D01*
X170620371Y-92076678D01*
X170617902Y-92071914D01*
X170616348Y-92066768D01*
X170613455Y-92061328D01*
X170613453Y-92061322D01*
X170572327Y-91983976D01*
X170571713Y-91982806D01*
X170531469Y-91905166D01*
X170531466Y-91905161D01*
X170528633Y-91899696D01*
X170525284Y-91895500D01*
X170522761Y-91890756D01*
X170495340Y-91857134D01*
X170463500Y-91818095D01*
X170462672Y-91817068D01*
X170433431Y-91780439D01*
X170431232Y-91777684D01*
X170428739Y-91775191D01*
X170428022Y-91774389D01*
X170424310Y-91770043D01*
X170400664Y-91741051D01*
X170396768Y-91736274D01*
X170361127Y-91706789D01*
X170352348Y-91698800D01*
X169037815Y-90384267D01*
X169028713Y-90374124D01*
X169008634Y-90349151D01*
X169004775Y-90344351D01*
X168965998Y-90311813D01*
X168962371Y-90308649D01*
X168960502Y-90306954D01*
X168958308Y-90304760D01*
X168924742Y-90277188D01*
X168923945Y-90276526D01*
X168852067Y-90216214D01*
X168847361Y-90213627D01*
X168843211Y-90210218D01*
X168837787Y-90207310D01*
X168837777Y-90207303D01*
X168760632Y-90165939D01*
X168759472Y-90165310D01*
X168695096Y-90129919D01*
X168677379Y-90120179D01*
X168672259Y-90118555D01*
X168667526Y-90116017D01*
X168578007Y-90088648D01*
X168576748Y-90088256D01*
X168493239Y-90061765D01*
X168493235Y-90061764D01*
X168487365Y-90059902D01*
X168482027Y-90059303D01*
X168476891Y-90057733D01*
X168470760Y-90057110D01*
X168470759Y-90057110D01*
X168451456Y-90055149D01*
X168383569Y-90048254D01*
X168382449Y-90048134D01*
X168332216Y-90042500D01*
X168328711Y-90042500D01*
X168327603Y-90042438D01*
X168321908Y-90041990D01*
X168284695Y-90038210D01*
X168284688Y-90038210D01*
X168278565Y-90037588D01*
X168232515Y-90041941D01*
X168220657Y-90042500D01*
X157533315Y-90042500D01*
X157461044Y-90019713D01*
X157365651Y-89952918D01*
X157320749Y-89921477D01*
X157315767Y-89919154D01*
X157315762Y-89919151D01*
X157281543Y-89903195D01*
X157228258Y-89856278D01*
X157208797Y-89788001D01*
X157229339Y-89720041D01*
X157281543Y-89674805D01*
X157315762Y-89658849D01*
X157315767Y-89658846D01*
X157320749Y-89656523D01*
X157446697Y-89568333D01*
X157503789Y-89528357D01*
X157503792Y-89528355D01*
X157508300Y-89525198D01*
X157670198Y-89363300D01*
X157690060Y-89334935D01*
X157798366Y-89180257D01*
X157801523Y-89175749D01*
X157803846Y-89170767D01*
X157803849Y-89170762D01*
X157895961Y-88973225D01*
X157895961Y-88973224D01*
X157898284Y-88968243D01*
X157944138Y-88797117D01*
X157956119Y-88752402D01*
X157956119Y-88752400D01*
X157957543Y-88747087D01*
X157977498Y-88519000D01*
X157957543Y-88290913D01*
X157937877Y-88217518D01*
X157899707Y-88075067D01*
X157899706Y-88075065D01*
X157898284Y-88069757D01*
X157878392Y-88027098D01*
X157803849Y-87867238D01*
X157803846Y-87867233D01*
X157801523Y-87862251D01*
X157717388Y-87742094D01*
X157673357Y-87679211D01*
X157673355Y-87679208D01*
X157670198Y-87674700D01*
X157508300Y-87512802D01*
X157503792Y-87509645D01*
X157503789Y-87509643D01*
X157402876Y-87438983D01*
X157320749Y-87381477D01*
X157315767Y-87379154D01*
X157315762Y-87379151D01*
X157281543Y-87363195D01*
X157228258Y-87316278D01*
X157208797Y-87248001D01*
X157229339Y-87180041D01*
X157281543Y-87134805D01*
X157315762Y-87118849D01*
X157315767Y-87118846D01*
X157320749Y-87116523D01*
X157443558Y-87030531D01*
X157503789Y-86988357D01*
X157503792Y-86988355D01*
X157508300Y-86985198D01*
X157670198Y-86823300D01*
X157690060Y-86794935D01*
X157798366Y-86640257D01*
X157801523Y-86635749D01*
X157803846Y-86630767D01*
X157803849Y-86630762D01*
X157895961Y-86433225D01*
X157895961Y-86433224D01*
X157898284Y-86428243D01*
X157957543Y-86207087D01*
X157977498Y-85979000D01*
X157957543Y-85750913D01*
X157956176Y-85745813D01*
X157964039Y-85675320D01*
X158008806Y-85620216D01*
X158080255Y-85598000D01*
X159512000Y-85598000D01*
X159512000Y-76840703D01*
X170102743Y-76840703D01*
X170140268Y-77125734D01*
X170216129Y-77403036D01*
X170328923Y-77667476D01*
X170476561Y-77914161D01*
X170656313Y-78138528D01*
X170864851Y-78336423D01*
X171098317Y-78504186D01*
X171102112Y-78506195D01*
X171102113Y-78506196D01*
X171123869Y-78517715D01*
X171352392Y-78638712D01*
X171622373Y-78737511D01*
X171903264Y-78798755D01*
X171931841Y-78801004D01*
X172126282Y-78816307D01*
X172126291Y-78816307D01*
X172128739Y-78816500D01*
X172284271Y-78816500D01*
X172286407Y-78816354D01*
X172286418Y-78816354D01*
X172494548Y-78802165D01*
X172494554Y-78802164D01*
X172498825Y-78801873D01*
X172503020Y-78801004D01*
X172503022Y-78801004D01*
X172639584Y-78772723D01*
X172780342Y-78743574D01*
X173051343Y-78647607D01*
X173306812Y-78515750D01*
X173310313Y-78513289D01*
X173310317Y-78513287D01*
X173424417Y-78433096D01*
X173542023Y-78350441D01*
X173752622Y-78154740D01*
X173934713Y-77932268D01*
X174084927Y-77687142D01*
X174200483Y-77423898D01*
X174279244Y-77147406D01*
X174319751Y-76862784D01*
X174319845Y-76844951D01*
X174321235Y-76579583D01*
X174321235Y-76579576D01*
X174321257Y-76575297D01*
X174283732Y-76290266D01*
X174207871Y-76012964D01*
X174095077Y-75748524D01*
X173947439Y-75501839D01*
X173767687Y-75277472D01*
X173559149Y-75079577D01*
X173325683Y-74911814D01*
X173303843Y-74900250D01*
X173280654Y-74887972D01*
X173071608Y-74777288D01*
X172801627Y-74678489D01*
X172520736Y-74617245D01*
X172489685Y-74614801D01*
X172297718Y-74599693D01*
X172297709Y-74599693D01*
X172295261Y-74599500D01*
X172139729Y-74599500D01*
X172137593Y-74599646D01*
X172137582Y-74599646D01*
X171929452Y-74613835D01*
X171929446Y-74613836D01*
X171925175Y-74614127D01*
X171920980Y-74614996D01*
X171920978Y-74614996D01*
X171784417Y-74643276D01*
X171643658Y-74672426D01*
X171372657Y-74768393D01*
X171117188Y-74900250D01*
X171113687Y-74902711D01*
X171113683Y-74902713D01*
X171103594Y-74909804D01*
X170881977Y-75065559D01*
X170671378Y-75261260D01*
X170489287Y-75483732D01*
X170339073Y-75728858D01*
X170223517Y-75992102D01*
X170144756Y-76268594D01*
X170104249Y-76553216D01*
X170104227Y-76557505D01*
X170104226Y-76557512D01*
X170103407Y-76713865D01*
X170102743Y-76840703D01*
X159512000Y-76840703D01*
X159512000Y-76708000D01*
X130302000Y-76708000D01*
X130302000Y-85598000D01*
X131100262Y-85598000D01*
X131168383Y-85618002D01*
X131214876Y-85671658D01*
X131224980Y-85741932D01*
X131195486Y-85806512D01*
X131189357Y-85813095D01*
X129373267Y-87629185D01*
X129363125Y-87638286D01*
X129333351Y-87662225D01*
X129300813Y-87701002D01*
X129297649Y-87704629D01*
X129295954Y-87706498D01*
X129293760Y-87708692D01*
X129266188Y-87742258D01*
X129265526Y-87743055D01*
X129205214Y-87814933D01*
X129202627Y-87819639D01*
X129199218Y-87823789D01*
X129196310Y-87829213D01*
X129196303Y-87829223D01*
X129154939Y-87906368D01*
X129154310Y-87907528D01*
X129147126Y-87920595D01*
X129109179Y-87989621D01*
X129107555Y-87994741D01*
X129105017Y-87999474D01*
X129085052Y-88064775D01*
X129077648Y-88088993D01*
X129077256Y-88090252D01*
X129050765Y-88173761D01*
X129048902Y-88179635D01*
X129048303Y-88184973D01*
X129046733Y-88190109D01*
X129039472Y-88261599D01*
X129037263Y-88283343D01*
X129037134Y-88284551D01*
X129031500Y-88334784D01*
X129031500Y-88338289D01*
X129031438Y-88339397D01*
X129030990Y-88345092D01*
X129027210Y-88382305D01*
X129027210Y-88382312D01*
X129026588Y-88388435D01*
X129027168Y-88394566D01*
X129030941Y-88434485D01*
X129031500Y-88446343D01*
X129031500Y-96046762D01*
X129011498Y-96114883D01*
X128994595Y-96135857D01*
X126615857Y-98514595D01*
X126553545Y-98548621D01*
X126526762Y-98551500D01*
X122773709Y-98551500D01*
X122705588Y-98531498D01*
X122659095Y-98477842D01*
X122648991Y-98407568D01*
X122678485Y-98342988D01*
X122698144Y-98324674D01*
X122782724Y-98261285D01*
X122795285Y-98248724D01*
X122871786Y-98146649D01*
X122880324Y-98131054D01*
X122925478Y-98010606D01*
X122929105Y-97995351D01*
X122934631Y-97944486D01*
X122935000Y-97937672D01*
X122935000Y-97300115D01*
X122930525Y-97284876D01*
X122929135Y-97283671D01*
X122921452Y-97282000D01*
X119907116Y-97282000D01*
X119891877Y-97286475D01*
X119890672Y-97287865D01*
X119889001Y-97295548D01*
X119889001Y-97937669D01*
X119889371Y-97944490D01*
X119894895Y-97995352D01*
X119898521Y-98010604D01*
X119943676Y-98131054D01*
X119952214Y-98146649D01*
X120028715Y-98248724D01*
X120041276Y-98261285D01*
X120125856Y-98324674D01*
X120168371Y-98381533D01*
X120173397Y-98452351D01*
X120139337Y-98514645D01*
X120077006Y-98548635D01*
X120050291Y-98551500D01*
X119443276Y-98551500D01*
X119429668Y-98550763D01*
X119397821Y-98547303D01*
X119397817Y-98547303D01*
X119391696Y-98546638D01*
X119354828Y-98549863D01*
X119341310Y-98551046D01*
X119336482Y-98551375D01*
X119333927Y-98551500D01*
X119330843Y-98551500D01*
X119315469Y-98553008D01*
X119287781Y-98555722D01*
X119286468Y-98555844D01*
X119246371Y-98559352D01*
X119193108Y-98564012D01*
X119187948Y-98565511D01*
X119182606Y-98566035D01*
X119112658Y-98587153D01*
X119092948Y-98593104D01*
X119091684Y-98593479D01*
X119007593Y-98617910D01*
X119007589Y-98617912D01*
X119001678Y-98619629D01*
X118996914Y-98622098D01*
X118991768Y-98623652D01*
X118908961Y-98667681D01*
X118907904Y-98668236D01*
X118824696Y-98711366D01*
X118820497Y-98714718D01*
X118815756Y-98717239D01*
X118810984Y-98721131D01*
X118743171Y-98776438D01*
X118742145Y-98777266D01*
X118705436Y-98806571D01*
X118702684Y-98808768D01*
X118700189Y-98811263D01*
X118699395Y-98811973D01*
X118695040Y-98815693D01*
X118666049Y-98839337D01*
X118666046Y-98839340D01*
X118661274Y-98843232D01*
X118657346Y-98847980D01*
X118657345Y-98847981D01*
X118631789Y-98878873D01*
X118623800Y-98887652D01*
X117689267Y-99822185D01*
X117679125Y-99831286D01*
X117649351Y-99855225D01*
X117616813Y-99894002D01*
X117613649Y-99897629D01*
X117611954Y-99899498D01*
X117609760Y-99901692D01*
X117582188Y-99935258D01*
X117581526Y-99936055D01*
X117521214Y-100007933D01*
X117518627Y-100012639D01*
X117515218Y-100016789D01*
X117512310Y-100022213D01*
X117512303Y-100022223D01*
X117470939Y-100099368D01*
X117470310Y-100100528D01*
X117425179Y-100182621D01*
X117423555Y-100187741D01*
X117421017Y-100192474D01*
X117396790Y-100271716D01*
X117393648Y-100281993D01*
X117393256Y-100283252D01*
X117369186Y-100359130D01*
X117364902Y-100372635D01*
X117364303Y-100377973D01*
X117362733Y-100383109D01*
X117354104Y-100468065D01*
X117353263Y-100476343D01*
X117353134Y-100477551D01*
X117347500Y-100527784D01*
X117347500Y-100531289D01*
X117347438Y-100532397D01*
X117346990Y-100538092D01*
X117343210Y-100575305D01*
X117343210Y-100575312D01*
X117342588Y-100581435D01*
X116840500Y-100581435D01*
X116840500Y-96755885D01*
X119889000Y-96755885D01*
X119893475Y-96771124D01*
X119894865Y-96772329D01*
X119902548Y-96774000D01*
X121139885Y-96774000D01*
X121155124Y-96769525D01*
X121156329Y-96768135D01*
X121158000Y-96760452D01*
X121158000Y-96755885D01*
X121666000Y-96755885D01*
X121670475Y-96771124D01*
X121671865Y-96772329D01*
X121679548Y-96774000D01*
X122916884Y-96774000D01*
X122932123Y-96769525D01*
X122933328Y-96768135D01*
X122934999Y-96760452D01*
X122934999Y-96118331D01*
X122934629Y-96111510D01*
X122929105Y-96060648D01*
X122925479Y-96045396D01*
X122880324Y-95924946D01*
X122871786Y-95909351D01*
X122795285Y-95807276D01*
X122782724Y-95794715D01*
X122680649Y-95718214D01*
X122665054Y-95709676D01*
X122544606Y-95664522D01*
X122529351Y-95660895D01*
X122478486Y-95655369D01*
X122471672Y-95655000D01*
X121684115Y-95655000D01*
X121668876Y-95659475D01*
X121667671Y-95660865D01*
X121666000Y-95668548D01*
X121666000Y-96755885D01*
X121158000Y-96755885D01*
X121158000Y-95673116D01*
X121153525Y-95657877D01*
X121152135Y-95656672D01*
X121144452Y-95655001D01*
X120352331Y-95655001D01*
X120345510Y-95655371D01*
X120294648Y-95660895D01*
X120279396Y-95664521D01*
X120158946Y-95709676D01*
X120143351Y-95718214D01*
X120041276Y-95794715D01*
X120028715Y-95807276D01*
X119952214Y-95909351D01*
X119943676Y-95924946D01*
X119898522Y-96045394D01*
X119894895Y-96060649D01*
X119889369Y-96111514D01*
X119889000Y-96118328D01*
X119889000Y-96755885D01*
X116840500Y-96755885D01*
X116840500Y-89867775D01*
X117342588Y-89867775D01*
X117343168Y-89873906D01*
X117346941Y-89913825D01*
X117347500Y-89925683D01*
X117347500Y-92901724D01*
X117346763Y-92915332D01*
X117343839Y-92942251D01*
X117342638Y-92953304D01*
X117343175Y-92959439D01*
X117347046Y-93003690D01*
X117347375Y-93008518D01*
X117347500Y-93011073D01*
X117347500Y-93014157D01*
X117347801Y-93017224D01*
X117351722Y-93057219D01*
X117351844Y-93058532D01*
X117360012Y-93151892D01*
X117361511Y-93157052D01*
X117362035Y-93162394D01*
X117368027Y-93182239D01*
X117389098Y-93252031D01*
X117389455Y-93253236D01*
X117415628Y-93343322D01*
X117418100Y-93348090D01*
X117419652Y-93353232D01*
X117422547Y-93358677D01*
X117422550Y-93358684D01*
X117463633Y-93435950D01*
X117464213Y-93437054D01*
X117507366Y-93520304D01*
X117510718Y-93524503D01*
X117513239Y-93529244D01*
X117517131Y-93534016D01*
X117572438Y-93601829D01*
X117573266Y-93602855D01*
X117581227Y-93612827D01*
X117604768Y-93642316D01*
X117607263Y-93644811D01*
X117607973Y-93645605D01*
X117611693Y-93649960D01*
X117635337Y-93678951D01*
X117635340Y-93678954D01*
X117639232Y-93683726D01*
X117643980Y-93687654D01*
X117643981Y-93687655D01*
X117674873Y-93713211D01*
X117683652Y-93721200D01*
X118617185Y-94654733D01*
X118626286Y-94664875D01*
X118650225Y-94694649D01*
X118689002Y-94727187D01*
X118692630Y-94730352D01*
X118694498Y-94732046D01*
X118696692Y-94734240D01*
X118721729Y-94754805D01*
X118730156Y-94761727D01*
X118731073Y-94762488D01*
X118802933Y-94822786D01*
X118807642Y-94825375D01*
X118811790Y-94828782D01*
X118817214Y-94831690D01*
X118817218Y-94831693D01*
X118894354Y-94873053D01*
X118895512Y-94873682D01*
X118972220Y-94915852D01*
X118977621Y-94918821D01*
X118982741Y-94920445D01*
X118987474Y-94922983D01*
X119066716Y-94947210D01*
X119076993Y-94950352D01*
X119078252Y-94950744D01*
X119161761Y-94977235D01*
X119161765Y-94977236D01*
X119167635Y-94979098D01*
X119172973Y-94979697D01*
X119178109Y-94981267D01*
X119184240Y-94981890D01*
X119184241Y-94981890D01*
X119199255Y-94983415D01*
X119271431Y-94990746D01*
X119272551Y-94990866D01*
X119322784Y-94996500D01*
X119326289Y-94996500D01*
X119327397Y-94996562D01*
X119333092Y-94997010D01*
X119370305Y-95000790D01*
X119370312Y-95000790D01*
X119376435Y-95001412D01*
X119422486Y-94997059D01*
X119434343Y-94996500D01*
X125921724Y-94996500D01*
X125935332Y-94997237D01*
X125967179Y-95000697D01*
X125967183Y-95000697D01*
X125973304Y-95001362D01*
X126010172Y-94998137D01*
X126023690Y-94996954D01*
X126028518Y-94996625D01*
X126031073Y-94996500D01*
X126034157Y-94996500D01*
X126049531Y-94994992D01*
X126077219Y-94992278D01*
X126078532Y-94992156D01*
X126118629Y-94988648D01*
X126171892Y-94983988D01*
X126177052Y-94982489D01*
X126182394Y-94981965D01*
X126272096Y-94954883D01*
X126273236Y-94954545D01*
X126363322Y-94928372D01*
X126368090Y-94925900D01*
X126373232Y-94924348D01*
X126378677Y-94921453D01*
X126378684Y-94921450D01*
X126455950Y-94880367D01*
X126457054Y-94879787D01*
X126540304Y-94836634D01*
X126544503Y-94833282D01*
X126549244Y-94830761D01*
X126586910Y-94800041D01*
X126621829Y-94771562D01*
X126622855Y-94770734D01*
X126659564Y-94741429D01*
X126659565Y-94741428D01*
X126662316Y-94739232D01*
X126664811Y-94736737D01*
X126665605Y-94736027D01*
X126669960Y-94732307D01*
X126698951Y-94708663D01*
X126698954Y-94708660D01*
X126703726Y-94704768D01*
X126733211Y-94669127D01*
X126741200Y-94660348D01*
X127674733Y-93726815D01*
X127684876Y-93717713D01*
X127709849Y-93697634D01*
X127714649Y-93693775D01*
X127747187Y-93654998D01*
X127750352Y-93651370D01*
X127752046Y-93649502D01*
X127754240Y-93647308D01*
X127781736Y-93613834D01*
X127782488Y-93612927D01*
X127842786Y-93541067D01*
X127845375Y-93536358D01*
X127848782Y-93532210D01*
X127851690Y-93526786D01*
X127851693Y-93526782D01*
X127893053Y-93449646D01*
X127893682Y-93448488D01*
X127935852Y-93371780D01*
X127935853Y-93371778D01*
X127938821Y-93366379D01*
X127940445Y-93361259D01*
X127942983Y-93356526D01*
X127970352Y-93267007D01*
X127970744Y-93265748D01*
X127997235Y-93182239D01*
X127997236Y-93182235D01*
X127999098Y-93176365D01*
X127999697Y-93171027D01*
X128001267Y-93165891D01*
X128002110Y-93157597D01*
X128005424Y-93124968D01*
X128032208Y-93059218D01*
X128064475Y-93030558D01*
X128099348Y-93008978D01*
X128224305Y-92883803D01*
X128277281Y-92797861D01*
X128313275Y-92739468D01*
X128313276Y-92739466D01*
X128317115Y-92733238D01*
X128363695Y-92592802D01*
X128370632Y-92571889D01*
X128370632Y-92571887D01*
X128372797Y-92565361D01*
X128383500Y-92460900D01*
X128383500Y-91435100D01*
X128372526Y-91329335D01*
X128316550Y-91161555D01*
X128223478Y-91011152D01*
X128098303Y-90886195D01*
X128017510Y-90836393D01*
X127953968Y-90797225D01*
X127953966Y-90797224D01*
X127947738Y-90793385D01*
X127787254Y-90740155D01*
X127786389Y-90739868D01*
X127786387Y-90739868D01*
X127779861Y-90737703D01*
X127773025Y-90737003D01*
X127773022Y-90737002D01*
X127729969Y-90732591D01*
X127675400Y-90727000D01*
X126324600Y-90727000D01*
X126321354Y-90727337D01*
X126321350Y-90727337D01*
X126225693Y-90737262D01*
X126225689Y-90737263D01*
X126218835Y-90737974D01*
X126212299Y-90740155D01*
X126212297Y-90740155D01*
X126080195Y-90784228D01*
X126051055Y-90793950D01*
X125900652Y-90887022D01*
X125775695Y-91012197D01*
X125682885Y-91162762D01*
X125680581Y-91169709D01*
X125639886Y-91292402D01*
X125627203Y-91330639D01*
X125616500Y-91435100D01*
X125616500Y-92460900D01*
X125616837Y-92464146D01*
X125616837Y-92464150D01*
X125626753Y-92559713D01*
X125627474Y-92566665D01*
X125629655Y-92573201D01*
X125629655Y-92573203D01*
X125673860Y-92705699D01*
X125681243Y-92727829D01*
X125683450Y-92734445D01*
X125682318Y-92734823D01*
X125692007Y-92797861D01*
X125663142Y-92862725D01*
X125656216Y-92870236D01*
X125599857Y-92926595D01*
X125537545Y-92960621D01*
X125510762Y-92963500D01*
X119853238Y-92963500D01*
X119785117Y-92943498D01*
X119764143Y-92926595D01*
X119417405Y-92579857D01*
X119383379Y-92517545D01*
X119380500Y-92490762D01*
X119380500Y-92172554D01*
X119400502Y-92104433D01*
X119454158Y-92057940D01*
X119524432Y-92047836D01*
X119589012Y-92077330D01*
X119607324Y-92096987D01*
X119663739Y-92172261D01*
X119780295Y-92259615D01*
X119916684Y-92310745D01*
X119978866Y-92317500D01*
X121575134Y-92317500D01*
X121637316Y-92310745D01*
X121773705Y-92259615D01*
X121890261Y-92172261D01*
X121924980Y-92125935D01*
X121981838Y-92083420D01*
X122025806Y-92075500D01*
X122873724Y-92075500D01*
X122887332Y-92076237D01*
X122919179Y-92079697D01*
X122919183Y-92079697D01*
X122925304Y-92080362D01*
X122967402Y-92076679D01*
X122975690Y-92075954D01*
X122980518Y-92075625D01*
X122983073Y-92075500D01*
X122986157Y-92075500D01*
X123001531Y-92073992D01*
X123029219Y-92071278D01*
X123030532Y-92071156D01*
X123070629Y-92067648D01*
X123123892Y-92062988D01*
X123129052Y-92061489D01*
X123134394Y-92060965D01*
X123224096Y-92033883D01*
X123225236Y-92033545D01*
X123315322Y-92007372D01*
X123320090Y-92004900D01*
X123325232Y-92003348D01*
X123330677Y-92000453D01*
X123330684Y-92000450D01*
X123407950Y-91959367D01*
X123409054Y-91958787D01*
X123492304Y-91915634D01*
X123496503Y-91912282D01*
X123501244Y-91909761D01*
X123530396Y-91885985D01*
X123573829Y-91850562D01*
X123574855Y-91849734D01*
X123611564Y-91820429D01*
X123611565Y-91820428D01*
X123614316Y-91818232D01*
X123616811Y-91815737D01*
X123617605Y-91815027D01*
X123621960Y-91811307D01*
X123650951Y-91787663D01*
X123650954Y-91787660D01*
X123655726Y-91783768D01*
X123663858Y-91773939D01*
X123685211Y-91748127D01*
X123693200Y-91739348D01*
X125406143Y-90026405D01*
X125468455Y-89992379D01*
X125495238Y-89989500D01*
X125804186Y-89989500D01*
X125872307Y-90009502D01*
X125893203Y-90026326D01*
X125896252Y-90029369D01*
X125901697Y-90034805D01*
X125907927Y-90038645D01*
X125907928Y-90038646D01*
X126045090Y-90123194D01*
X126052262Y-90127615D01*
X126132005Y-90154064D01*
X126213611Y-90181132D01*
X126213613Y-90181132D01*
X126220139Y-90183297D01*
X126226975Y-90183997D01*
X126226978Y-90183998D01*
X126270031Y-90188409D01*
X126324600Y-90194000D01*
X127675400Y-90194000D01*
X127678646Y-90193663D01*
X127678650Y-90193663D01*
X127774307Y-90183738D01*
X127774311Y-90183737D01*
X127781165Y-90183026D01*
X127787701Y-90180845D01*
X127787703Y-90180845D01*
X127919805Y-90136772D01*
X127948945Y-90127050D01*
X128099348Y-90033978D01*
X128224305Y-89908803D01*
X128284814Y-89810640D01*
X128313275Y-89764468D01*
X128313276Y-89764466D01*
X128317115Y-89758238D01*
X128352044Y-89652931D01*
X128370632Y-89596889D01*
X128370632Y-89596887D01*
X128372797Y-89590361D01*
X128374752Y-89571287D01*
X128379189Y-89527972D01*
X128383500Y-89485900D01*
X128383500Y-88460100D01*
X128380842Y-88434485D01*
X128373238Y-88361193D01*
X128373237Y-88361189D01*
X128372526Y-88354335D01*
X128369443Y-88345092D01*
X128324896Y-88211572D01*
X128316550Y-88186555D01*
X128223478Y-88036152D01*
X128180482Y-87993230D01*
X128146403Y-87930949D01*
X128143500Y-87904058D01*
X128143500Y-87387228D01*
X128163502Y-87319107D01*
X128170619Y-87309135D01*
X128171134Y-87308483D01*
X128176305Y-87303303D01*
X128269115Y-87152738D01*
X128324797Y-86984861D01*
X128335500Y-86880400D01*
X128335500Y-86129600D01*
X128324526Y-86023834D01*
X128268550Y-85856054D01*
X128175478Y-85705652D01*
X128050303Y-85580695D01*
X128046084Y-85578094D01*
X128005583Y-85520970D01*
X128002351Y-85450047D01*
X128037976Y-85388635D01*
X128045530Y-85382078D01*
X128051348Y-85378478D01*
X128176305Y-85253303D01*
X128269115Y-85102738D01*
X128299460Y-85011251D01*
X128322632Y-84941389D01*
X128322632Y-84941387D01*
X128324797Y-84934861D01*
X128335500Y-84830400D01*
X128335500Y-84079600D01*
X128324526Y-83973834D01*
X128268550Y-83806054D01*
X128175478Y-83655652D01*
X128050303Y-83530695D01*
X127899738Y-83437885D01*
X127819995Y-83411436D01*
X127738389Y-83384368D01*
X127738387Y-83384368D01*
X127731861Y-83382203D01*
X127725025Y-83381503D01*
X127725022Y-83381502D01*
X127681969Y-83377091D01*
X127627400Y-83371500D01*
X127533238Y-83371500D01*
X127465117Y-83351498D01*
X127444143Y-83334595D01*
X126873815Y-82764267D01*
X126864713Y-82754124D01*
X126844634Y-82729151D01*
X126840775Y-82724351D01*
X126801998Y-82691813D01*
X126798371Y-82688649D01*
X126796502Y-82686954D01*
X126794308Y-82684760D01*
X126760742Y-82657188D01*
X126759945Y-82656526D01*
X126688067Y-82596214D01*
X126683361Y-82593627D01*
X126679211Y-82590218D01*
X126673787Y-82587310D01*
X126673777Y-82587303D01*
X126596632Y-82545939D01*
X126595472Y-82545310D01*
X126577972Y-82535689D01*
X126513379Y-82500179D01*
X126508259Y-82498555D01*
X126503526Y-82496017D01*
X126414007Y-82468648D01*
X126412748Y-82468256D01*
X126329239Y-82441765D01*
X126329235Y-82441764D01*
X126323365Y-82439902D01*
X126318027Y-82439303D01*
X126312891Y-82437733D01*
X126306760Y-82437110D01*
X126306759Y-82437110D01*
X126287456Y-82435149D01*
X126219569Y-82428254D01*
X126218449Y-82428134D01*
X126168216Y-82422500D01*
X126164711Y-82422500D01*
X126163603Y-82422438D01*
X126157908Y-82421990D01*
X126120695Y-82418210D01*
X126120688Y-82418210D01*
X126114565Y-82417588D01*
X126068515Y-82421941D01*
X126056657Y-82422500D01*
X121559143Y-82422500D01*
X121486872Y-82399713D01*
X121478980Y-82394187D01*
X121408654Y-82344944D01*
X121209076Y-82251880D01*
X120996371Y-82194885D01*
X120777000Y-82175693D01*
X120557629Y-82194885D01*
X120344924Y-82251880D01*
X120251562Y-82295415D01*
X120150334Y-82342618D01*
X120150329Y-82342621D01*
X120145347Y-82344944D01*
X120140840Y-82348100D01*
X120140838Y-82348101D01*
X119969473Y-82468092D01*
X119969470Y-82468094D01*
X119964962Y-82471251D01*
X119809251Y-82626962D01*
X119806094Y-82631470D01*
X119806092Y-82631473D01*
X119713109Y-82764267D01*
X119682944Y-82807347D01*
X119680621Y-82812329D01*
X119680618Y-82812334D01*
X119633415Y-82913562D01*
X119589880Y-83006924D01*
X119532885Y-83219629D01*
X119513693Y-83439000D01*
X119532885Y-83658371D01*
X119589880Y-83871076D01*
X119592205Y-83876061D01*
X119680618Y-84065666D01*
X119680621Y-84065671D01*
X119682944Y-84070653D01*
X119686100Y-84075160D01*
X119686101Y-84075162D01*
X119691496Y-84082866D01*
X119809251Y-84251038D01*
X119964962Y-84406749D01*
X120145346Y-84533056D01*
X120150328Y-84535379D01*
X120150333Y-84535382D01*
X120277768Y-84594805D01*
X120331053Y-84641722D01*
X120350514Y-84709999D01*
X120329972Y-84777959D01*
X120277768Y-84823195D01*
X120150334Y-84882618D01*
X120150329Y-84882621D01*
X120145347Y-84884944D01*
X120140840Y-84888100D01*
X120140838Y-84888101D01*
X119969473Y-85008092D01*
X119969470Y-85008094D01*
X119964962Y-85011251D01*
X119809251Y-85166962D01*
X119806094Y-85171470D01*
X119806092Y-85171473D01*
X119745167Y-85258483D01*
X119682944Y-85347347D01*
X119680621Y-85352329D01*
X119680618Y-85352334D01*
X119667131Y-85381258D01*
X119589880Y-85546924D01*
X119532885Y-85759629D01*
X119513693Y-85979000D01*
X119532885Y-86198371D01*
X119589880Y-86411076D01*
X119633415Y-86504438D01*
X119680618Y-86605666D01*
X119680621Y-86605671D01*
X119682944Y-86610653D01*
X119809251Y-86791038D01*
X119964962Y-86946749D01*
X119969471Y-86949906D01*
X119969473Y-86949908D01*
X120021255Y-86986166D01*
X120145346Y-87073056D01*
X120150328Y-87075379D01*
X120150333Y-87075382D01*
X120277768Y-87134805D01*
X120331053Y-87181722D01*
X120350514Y-87249999D01*
X120329972Y-87317959D01*
X120277768Y-87363195D01*
X120150334Y-87422618D01*
X120150329Y-87422621D01*
X120145347Y-87424944D01*
X120103381Y-87454329D01*
X120067129Y-87479713D01*
X119994858Y-87502500D01*
X119778616Y-87502500D01*
X119765008Y-87501763D01*
X119733161Y-87498303D01*
X119733157Y-87498303D01*
X119727036Y-87497638D01*
X119700378Y-87499970D01*
X119676650Y-87502046D01*
X119671822Y-87502375D01*
X119669268Y-87502500D01*
X119666183Y-87502500D01*
X119623099Y-87506724D01*
X119621854Y-87506840D01*
X119589816Y-87509643D01*
X119534585Y-87514475D01*
X119534583Y-87514475D01*
X119528449Y-87515012D01*
X119523289Y-87516511D01*
X119517946Y-87517035D01*
X119428174Y-87544139D01*
X119427018Y-87544481D01*
X119342937Y-87568908D01*
X119342931Y-87568910D01*
X119337019Y-87570628D01*
X119332252Y-87573099D01*
X119327108Y-87574652D01*
X119244318Y-87618672D01*
X119243261Y-87619227D01*
X119160036Y-87662366D01*
X119155837Y-87665718D01*
X119151096Y-87668239D01*
X119146324Y-87672131D01*
X119078511Y-87727438D01*
X119077485Y-87728266D01*
X119040776Y-87757571D01*
X119038024Y-87759768D01*
X119035529Y-87762263D01*
X119034735Y-87762973D01*
X119030380Y-87766693D01*
X119001389Y-87790337D01*
X119001386Y-87790340D01*
X118996614Y-87794232D01*
X118992686Y-87798980D01*
X118992685Y-87798981D01*
X118967129Y-87829873D01*
X118959140Y-87838652D01*
X117689267Y-89108525D01*
X117679125Y-89117626D01*
X117649351Y-89141565D01*
X117616813Y-89180342D01*
X117613649Y-89183969D01*
X117611954Y-89185838D01*
X117609760Y-89188032D01*
X117582188Y-89221598D01*
X117581526Y-89222395D01*
X117521214Y-89294273D01*
X117518627Y-89298979D01*
X117515218Y-89303129D01*
X117512310Y-89308553D01*
X117512303Y-89308563D01*
X117470939Y-89385708D01*
X117470310Y-89386868D01*
X117425179Y-89468961D01*
X117423555Y-89474081D01*
X117421017Y-89478814D01*
X117406836Y-89525198D01*
X117393648Y-89568333D01*
X117393256Y-89569592D01*
X117366819Y-89652931D01*
X117364902Y-89658975D01*
X117364303Y-89664313D01*
X117362733Y-89669449D01*
X117354218Y-89753284D01*
X117353263Y-89762683D01*
X117353134Y-89763891D01*
X117347500Y-89814124D01*
X117347500Y-89817629D01*
X117347438Y-89818737D01*
X117346990Y-89824432D01*
X117343210Y-89861645D01*
X117343210Y-89861652D01*
X117342588Y-89867775D01*
X116840500Y-89867775D01*
X116840500Y-76840703D01*
X119302743Y-76840703D01*
X119340268Y-77125734D01*
X119416129Y-77403036D01*
X119528923Y-77667476D01*
X119676561Y-77914161D01*
X119856313Y-78138528D01*
X120064851Y-78336423D01*
X120298317Y-78504186D01*
X120302112Y-78506195D01*
X120302113Y-78506196D01*
X120323869Y-78517715D01*
X120552392Y-78638712D01*
X120822373Y-78737511D01*
X121103264Y-78798755D01*
X121131841Y-78801004D01*
X121326282Y-78816307D01*
X121326291Y-78816307D01*
X121328739Y-78816500D01*
X121484271Y-78816500D01*
X121486407Y-78816354D01*
X121486418Y-78816354D01*
X121694548Y-78802165D01*
X121694554Y-78802164D01*
X121698825Y-78801873D01*
X121703020Y-78801004D01*
X121703022Y-78801004D01*
X121839584Y-78772723D01*
X121980342Y-78743574D01*
X122251343Y-78647607D01*
X122506812Y-78515750D01*
X122510313Y-78513289D01*
X122510317Y-78513287D01*
X122624417Y-78433096D01*
X122742023Y-78350441D01*
X122952622Y-78154740D01*
X123134713Y-77932268D01*
X123284927Y-77687142D01*
X123400483Y-77423898D01*
X123479244Y-77147406D01*
X123519751Y-76862784D01*
X123519845Y-76844951D01*
X123521235Y-76579583D01*
X123521235Y-76579576D01*
X123521257Y-76575297D01*
X123483732Y-76290266D01*
X123407871Y-76012964D01*
X123295077Y-75748524D01*
X123147439Y-75501839D01*
X122967687Y-75277472D01*
X122759149Y-75079577D01*
X122525683Y-74911814D01*
X122503843Y-74900250D01*
X122480654Y-74887972D01*
X122271608Y-74777288D01*
X122001627Y-74678489D01*
X121720736Y-74617245D01*
X121689685Y-74614801D01*
X121497718Y-74599693D01*
X121497709Y-74599693D01*
X121495261Y-74599500D01*
X121339729Y-74599500D01*
X121337593Y-74599646D01*
X121337582Y-74599646D01*
X121129452Y-74613835D01*
X121129446Y-74613836D01*
X121125175Y-74614127D01*
X121120980Y-74614996D01*
X121120978Y-74614996D01*
X120984417Y-74643276D01*
X120843658Y-74672426D01*
X120572657Y-74768393D01*
X120317188Y-74900250D01*
X120313687Y-74902711D01*
X120313683Y-74902713D01*
X120303594Y-74909804D01*
X120081977Y-75065559D01*
X119871378Y-75261260D01*
X119689287Y-75483732D01*
X119539073Y-75728858D01*
X119423517Y-75992102D01*
X119344756Y-76268594D01*
X119304249Y-76553216D01*
X119304227Y-76557505D01*
X119304226Y-76557512D01*
X119303407Y-76713865D01*
X119302743Y-76840703D01*
X116840500Y-76840703D01*
X116840500Y-74221250D01*
X116842246Y-74200345D01*
X116844770Y-74185344D01*
X116844770Y-74185341D01*
X116845576Y-74180552D01*
X116845729Y-74168000D01*
X116844003Y-74155947D01*
X116843001Y-74129845D01*
X116857340Y-73911078D01*
X116859491Y-73894738D01*
X116908111Y-73650307D01*
X116912375Y-73634394D01*
X116992485Y-73398398D01*
X116998791Y-73383174D01*
X117109016Y-73159658D01*
X117117257Y-73145384D01*
X117255713Y-72938171D01*
X117265746Y-72925095D01*
X117430068Y-72737722D01*
X117441722Y-72726068D01*
X117629095Y-72561746D01*
X117642171Y-72551713D01*
X117849384Y-72413257D01*
X117863658Y-72405016D01*
X118087174Y-72294791D01*
X118102400Y-72288484D01*
X118338394Y-72208375D01*
X118354304Y-72204112D01*
X118476522Y-72179801D01*
X118598738Y-72155491D01*
X118615078Y-72153340D01*
X118763866Y-72143587D01*
X118830237Y-72139237D01*
X118853350Y-72140267D01*
X118856854Y-72140310D01*
X118865724Y-72141691D01*
X118874626Y-72140527D01*
X118874628Y-72140527D01*
X118891449Y-72138327D01*
X118897286Y-72137564D01*
X118913621Y-72136500D01*
X174702633Y-72136500D01*
X174722018Y-72138000D01*
G37*
G04 #@! TD.AperFunction*
G04 #@! TA.AperFunction,Conductor*
G36*
X120358520Y-100604502D02*
G01*
X120370287Y-100613064D01*
X120398625Y-100636300D01*
X120477100Y-100700646D01*
X120477106Y-100700650D01*
X120481228Y-100704030D01*
X120485866Y-100706670D01*
X120524998Y-100728945D01*
X120574304Y-100780027D01*
X120588166Y-100849657D01*
X120562183Y-100915728D01*
X120533035Y-100942965D01*
X120398248Y-101033709D01*
X120394391Y-101037388D01*
X120394389Y-101037390D01*
X120337258Y-101091891D01*
X120229590Y-101194601D01*
X120090452Y-101381609D01*
X120088036Y-101386360D01*
X120088034Y-101386364D01*
X120057161Y-101447087D01*
X119984812Y-101589388D01*
X119915690Y-101811995D01*
X119914989Y-101817284D01*
X119906643Y-101880257D01*
X119885064Y-102043065D01*
X119893809Y-102275993D01*
X119941674Y-102504117D01*
X119943632Y-102509076D01*
X119943633Y-102509078D01*
X119962937Y-102557959D01*
X120027292Y-102720914D01*
X120065633Y-102784098D01*
X120143325Y-102912131D01*
X120148213Y-102920187D01*
X120151708Y-102924215D01*
X120151709Y-102924216D01*
X120282074Y-103074447D01*
X120300982Y-103096237D01*
X120305113Y-103099624D01*
X120477100Y-103240646D01*
X120477106Y-103240650D01*
X120481228Y-103244030D01*
X120683800Y-103359340D01*
X120688816Y-103361161D01*
X120688821Y-103361163D01*
X120897888Y-103437051D01*
X120897892Y-103437052D01*
X120902903Y-103438871D01*
X120908152Y-103439820D01*
X120908155Y-103439821D01*
X121128191Y-103479610D01*
X121128198Y-103479611D01*
X121132275Y-103480348D01*
X121150199Y-103481193D01*
X121155214Y-103481430D01*
X121155221Y-103481430D01*
X121156702Y-103481500D01*
X121620527Y-103481500D01*
X121794257Y-103466759D01*
X121799421Y-103465419D01*
X121799425Y-103465418D01*
X122014708Y-103409541D01*
X122014712Y-103409539D01*
X122019873Y-103408200D01*
X122043527Y-103397545D01*
X122227536Y-103314655D01*
X122227539Y-103314654D01*
X122232397Y-103312465D01*
X122236822Y-103309486D01*
X122421322Y-103185274D01*
X122421326Y-103185271D01*
X122425752Y-103182291D01*
X122449820Y-103159331D01*
X122512916Y-103126783D01*
X122536792Y-103124500D01*
X125002762Y-103124500D01*
X125070883Y-103144502D01*
X125091857Y-103161405D01*
X128584357Y-106653905D01*
X128618383Y-106716217D01*
X128613318Y-106787032D01*
X128584357Y-106832095D01*
X123058857Y-112357595D01*
X122996545Y-112391621D01*
X122969762Y-112394500D01*
X122533601Y-112394500D01*
X122465480Y-112374498D01*
X122453710Y-112365934D01*
X122346900Y-112278354D01*
X122346894Y-112278350D01*
X122342772Y-112274970D01*
X122299002Y-112250055D01*
X122249696Y-112198973D01*
X122235834Y-112129343D01*
X122261817Y-112063272D01*
X122290965Y-112036035D01*
X122425752Y-111945291D01*
X122481489Y-111892121D01*
X122543227Y-111833225D01*
X122594410Y-111784399D01*
X122733548Y-111597391D01*
X122839188Y-111389612D01*
X122908310Y-111167005D01*
X122938936Y-110935935D01*
X122930191Y-110703007D01*
X122882326Y-110474883D01*
X122796708Y-110258086D01*
X122686461Y-110076403D01*
X122678555Y-110063374D01*
X122678553Y-110063371D01*
X122675787Y-110058813D01*
X122672286Y-110054778D01*
X122523854Y-109883725D01*
X122494314Y-109819166D01*
X122504368Y-109748885D01*
X122550823Y-109695196D01*
X122574789Y-109683163D01*
X122665054Y-109649324D01*
X122680649Y-109640786D01*
X122782724Y-109564285D01*
X122795285Y-109551724D01*
X122871786Y-109449649D01*
X122880324Y-109434054D01*
X122925478Y-109313606D01*
X122929105Y-109298351D01*
X122934631Y-109247486D01*
X122935000Y-109240672D01*
X122935000Y-108603115D01*
X122930525Y-108587876D01*
X122929135Y-108586671D01*
X122921452Y-108585000D01*
X119907116Y-108585000D01*
X119891877Y-108589475D01*
X119890672Y-108590865D01*
X119889001Y-108598548D01*
X119889001Y-109240669D01*
X119889371Y-109247490D01*
X119894895Y-109298352D01*
X119898521Y-109313604D01*
X119943676Y-109434054D01*
X119952214Y-109449649D01*
X120028715Y-109551724D01*
X120041276Y-109564285D01*
X120125856Y-109627674D01*
X120168371Y-109684533D01*
X120173397Y-109755351D01*
X120139337Y-109817645D01*
X120077006Y-109851635D01*
X120050291Y-109854500D01*
X119506500Y-109854500D01*
X119438379Y-109834498D01*
X119391886Y-109780842D01*
X119380500Y-109728500D01*
X119380500Y-108058885D01*
X119889000Y-108058885D01*
X119893475Y-108074124D01*
X119894865Y-108075329D01*
X119902548Y-108077000D01*
X121139885Y-108077000D01*
X121155124Y-108072525D01*
X121156329Y-108071135D01*
X121158000Y-108063452D01*
X121158000Y-108058885D01*
X121666000Y-108058885D01*
X121670475Y-108074124D01*
X121671865Y-108075329D01*
X121679548Y-108077000D01*
X122916884Y-108077000D01*
X122932123Y-108072525D01*
X122933328Y-108071135D01*
X122934999Y-108063452D01*
X122934999Y-107421331D01*
X122934629Y-107414510D01*
X122929105Y-107363648D01*
X122925479Y-107348396D01*
X122880324Y-107227946D01*
X122871786Y-107212351D01*
X122795285Y-107110276D01*
X122782724Y-107097715D01*
X122680649Y-107021214D01*
X122665054Y-107012676D01*
X122544606Y-106967522D01*
X122529351Y-106963895D01*
X122478486Y-106958369D01*
X122471672Y-106958000D01*
X121684115Y-106958000D01*
X121668876Y-106962475D01*
X121667671Y-106963865D01*
X121666000Y-106971548D01*
X121666000Y-108058885D01*
X121158000Y-108058885D01*
X121158000Y-106976116D01*
X121153525Y-106960877D01*
X121152135Y-106959672D01*
X121144452Y-106958001D01*
X120352331Y-106958001D01*
X120345510Y-106958371D01*
X120294648Y-106963895D01*
X120279396Y-106967521D01*
X120158946Y-107012676D01*
X120143351Y-107021214D01*
X120041276Y-107097715D01*
X120028715Y-107110276D01*
X119952214Y-107212351D01*
X119943676Y-107227946D01*
X119898522Y-107348394D01*
X119894895Y-107363649D01*
X119889369Y-107414514D01*
X119889000Y-107421328D01*
X119889000Y-108058885D01*
X119380500Y-108058885D01*
X119380500Y-101058238D01*
X119400502Y-100990117D01*
X119417405Y-100969143D01*
X119765143Y-100621405D01*
X119827455Y-100587379D01*
X119854238Y-100584500D01*
X120290399Y-100584500D01*
X120358520Y-100604502D01*
G37*
G04 #@! TD.AperFunction*
G04 #@! TA.AperFunction,Conductor*
G36*
X154915866Y-85618002D02*
G01*
X154962359Y-85671658D01*
X154971823Y-85745815D01*
X154970457Y-85750913D01*
X154950502Y-85979000D01*
X154970457Y-86207087D01*
X155029716Y-86428243D01*
X155032039Y-86433224D01*
X155032039Y-86433225D01*
X155124151Y-86630762D01*
X155124154Y-86630767D01*
X155126477Y-86635749D01*
X155129634Y-86640257D01*
X155237941Y-86794935D01*
X155257802Y-86823300D01*
X155419700Y-86985198D01*
X155424208Y-86988355D01*
X155424211Y-86988357D01*
X155484442Y-87030531D01*
X155607251Y-87116523D01*
X155612233Y-87118846D01*
X155612238Y-87118849D01*
X155646457Y-87134805D01*
X155699742Y-87181722D01*
X155719203Y-87249999D01*
X155698661Y-87317959D01*
X155646457Y-87363195D01*
X155612238Y-87379151D01*
X155612233Y-87379154D01*
X155607251Y-87381477D01*
X155525124Y-87438983D01*
X155424211Y-87509643D01*
X155424208Y-87509645D01*
X155419700Y-87512802D01*
X155257802Y-87674700D01*
X155254645Y-87679208D01*
X155254643Y-87679211D01*
X155210612Y-87742094D01*
X155126477Y-87862251D01*
X155124154Y-87867233D01*
X155124151Y-87867238D01*
X155049608Y-88027098D01*
X155029716Y-88069757D01*
X155028294Y-88075065D01*
X155028293Y-88075067D01*
X154990123Y-88217518D01*
X154970457Y-88290913D01*
X154950502Y-88519000D01*
X154970457Y-88747087D01*
X154971881Y-88752400D01*
X154971881Y-88752402D01*
X154983863Y-88797117D01*
X155029716Y-88968243D01*
X155032039Y-88973224D01*
X155032039Y-88973225D01*
X155124151Y-89170762D01*
X155124154Y-89170767D01*
X155126477Y-89175749D01*
X155129634Y-89180257D01*
X155237941Y-89334935D01*
X155257802Y-89363300D01*
X155419700Y-89525198D01*
X155424208Y-89528355D01*
X155424211Y-89528357D01*
X155481303Y-89568333D01*
X155607251Y-89656523D01*
X155612233Y-89658846D01*
X155612238Y-89658849D01*
X155646457Y-89674805D01*
X155699742Y-89721722D01*
X155719203Y-89789999D01*
X155698661Y-89857959D01*
X155646457Y-89903195D01*
X155612238Y-89919151D01*
X155612233Y-89919154D01*
X155607251Y-89921477D01*
X155562349Y-89952918D01*
X155424211Y-90049643D01*
X155424208Y-90049645D01*
X155419700Y-90052802D01*
X155257802Y-90214700D01*
X155254645Y-90219208D01*
X155254643Y-90219211D01*
X155225476Y-90260866D01*
X155126477Y-90402251D01*
X155124154Y-90407233D01*
X155124151Y-90407238D01*
X155032039Y-90604775D01*
X155029716Y-90609757D01*
X155028294Y-90615065D01*
X155028293Y-90615067D01*
X154994776Y-90740155D01*
X154970457Y-90830913D01*
X154950502Y-91059000D01*
X154970457Y-91287087D01*
X154971881Y-91292400D01*
X154971881Y-91292402D01*
X154980378Y-91324111D01*
X155029716Y-91508243D01*
X155032039Y-91513224D01*
X155032039Y-91513225D01*
X155124151Y-91710762D01*
X155124154Y-91710767D01*
X155126477Y-91715749D01*
X155170779Y-91779019D01*
X155252742Y-91896073D01*
X155257802Y-91903300D01*
X155419700Y-92065198D01*
X155424208Y-92068355D01*
X155424211Y-92068357D01*
X155462978Y-92095502D01*
X155607251Y-92196523D01*
X155612233Y-92198846D01*
X155612238Y-92198849D01*
X155646457Y-92214805D01*
X155699742Y-92261722D01*
X155719203Y-92329999D01*
X155698661Y-92397959D01*
X155646457Y-92443195D01*
X155612238Y-92459151D01*
X155612233Y-92459154D01*
X155607251Y-92461477D01*
X155535884Y-92511449D01*
X155424211Y-92589643D01*
X155424208Y-92589645D01*
X155419700Y-92592802D01*
X155257802Y-92754700D01*
X155126477Y-92942251D01*
X155124154Y-92947233D01*
X155124151Y-92947238D01*
X155070098Y-93063157D01*
X155029716Y-93149757D01*
X155028294Y-93155065D01*
X155028293Y-93155067D01*
X154974312Y-93356526D01*
X154970457Y-93370913D01*
X154950502Y-93599000D01*
X154970457Y-93827087D01*
X154971881Y-93832400D01*
X154971881Y-93832402D01*
X154981031Y-93866548D01*
X155029716Y-94048243D01*
X155032039Y-94053224D01*
X155032039Y-94053225D01*
X155124151Y-94250762D01*
X155124154Y-94250767D01*
X155126477Y-94255749D01*
X155257802Y-94443300D01*
X155419700Y-94605198D01*
X155424208Y-94608355D01*
X155424211Y-94608357D01*
X155466956Y-94638287D01*
X155607251Y-94736523D01*
X155612233Y-94738846D01*
X155612238Y-94738849D01*
X155646457Y-94754805D01*
X155699742Y-94801722D01*
X155719203Y-94869999D01*
X155698661Y-94937959D01*
X155646457Y-94983195D01*
X155612238Y-94999151D01*
X155612233Y-94999154D01*
X155607251Y-95001477D01*
X155502389Y-95074902D01*
X155424211Y-95129643D01*
X155424208Y-95129645D01*
X155419700Y-95132802D01*
X155257802Y-95294700D01*
X155126477Y-95482251D01*
X155124154Y-95487233D01*
X155124151Y-95487238D01*
X155041483Y-95664522D01*
X155029716Y-95689757D01*
X155028294Y-95695065D01*
X155028293Y-95695067D01*
X154980756Y-95872478D01*
X154970457Y-95910913D01*
X154950502Y-96139000D01*
X154970457Y-96367087D01*
X154971881Y-96372400D01*
X154971881Y-96372402D01*
X155010743Y-96517434D01*
X155029716Y-96588243D01*
X155032039Y-96593224D01*
X155032039Y-96593225D01*
X155124151Y-96790762D01*
X155124154Y-96790767D01*
X155126477Y-96795749D01*
X155199902Y-96900611D01*
X155218924Y-96927776D01*
X155257802Y-96983300D01*
X155419700Y-97145198D01*
X155424208Y-97148355D01*
X155424211Y-97148357D01*
X155466956Y-97178287D01*
X155607251Y-97276523D01*
X155612233Y-97278846D01*
X155612238Y-97278849D01*
X155646457Y-97294805D01*
X155699742Y-97341722D01*
X155719203Y-97409999D01*
X155698661Y-97477959D01*
X155646457Y-97523195D01*
X155612238Y-97539151D01*
X155612233Y-97539154D01*
X155607251Y-97541477D01*
X155557692Y-97576179D01*
X155424211Y-97669643D01*
X155424208Y-97669645D01*
X155419700Y-97672802D01*
X155257802Y-97834700D01*
X155254645Y-97839208D01*
X155254643Y-97839211D01*
X155224475Y-97882296D01*
X155126477Y-98022251D01*
X155124154Y-98027233D01*
X155124151Y-98027238D01*
X155045619Y-98195652D01*
X155029716Y-98229757D01*
X155028294Y-98235065D01*
X155028293Y-98235067D01*
X154998570Y-98345995D01*
X154970457Y-98450913D01*
X154950502Y-98679000D01*
X154970457Y-98907087D01*
X155029716Y-99128243D01*
X155032039Y-99133224D01*
X155032039Y-99133225D01*
X155124151Y-99330762D01*
X155124154Y-99330767D01*
X155126477Y-99335749D01*
X155257802Y-99523300D01*
X155419700Y-99685198D01*
X155424208Y-99688355D01*
X155424211Y-99688357D01*
X155466956Y-99718287D01*
X155607251Y-99816523D01*
X155612233Y-99818846D01*
X155612238Y-99818849D01*
X155646457Y-99834805D01*
X155699742Y-99881722D01*
X155719203Y-99949999D01*
X155698661Y-100017959D01*
X155646457Y-100063195D01*
X155612238Y-100079151D01*
X155612233Y-100079154D01*
X155607251Y-100081477D01*
X155502389Y-100154902D01*
X155424211Y-100209643D01*
X155424208Y-100209645D01*
X155419700Y-100212802D01*
X155257802Y-100374700D01*
X155254645Y-100379208D01*
X155254643Y-100379211D01*
X155247620Y-100389241D01*
X155126477Y-100562251D01*
X155124154Y-100567233D01*
X155124151Y-100567238D01*
X155034139Y-100760272D01*
X155029716Y-100769757D01*
X154970457Y-100990913D01*
X154950502Y-101219000D01*
X154970457Y-101447087D01*
X154971881Y-101452400D01*
X154971881Y-101452402D01*
X155007313Y-101584633D01*
X155029716Y-101668243D01*
X155032039Y-101673224D01*
X155032039Y-101673225D01*
X155124151Y-101870762D01*
X155124154Y-101870767D01*
X155126477Y-101875749D01*
X155257802Y-102063300D01*
X155419700Y-102225198D01*
X155424208Y-102228355D01*
X155424211Y-102228357D01*
X155484629Y-102270662D01*
X155607251Y-102356523D01*
X155612233Y-102358846D01*
X155612238Y-102358849D01*
X155646457Y-102374805D01*
X155699742Y-102421722D01*
X155719203Y-102489999D01*
X155698661Y-102557959D01*
X155646457Y-102603195D01*
X155612238Y-102619151D01*
X155612233Y-102619154D01*
X155607251Y-102621477D01*
X155502389Y-102694902D01*
X155424211Y-102749643D01*
X155424208Y-102749645D01*
X155419700Y-102752802D01*
X155257802Y-102914700D01*
X155254645Y-102919208D01*
X155254643Y-102919211D01*
X155199902Y-102997389D01*
X155126477Y-103102251D01*
X155124154Y-103107233D01*
X155124151Y-103107238D01*
X155106775Y-103144502D01*
X155029716Y-103309757D01*
X155028294Y-103315065D01*
X155028293Y-103315067D01*
X154983716Y-103481430D01*
X154970457Y-103530913D01*
X154950502Y-103759000D01*
X154970457Y-103987087D01*
X155029716Y-104208243D01*
X155032039Y-104213224D01*
X155032039Y-104213225D01*
X155124151Y-104410762D01*
X155124154Y-104410767D01*
X155126477Y-104415749D01*
X155257802Y-104603300D01*
X155419700Y-104765198D01*
X155424208Y-104768355D01*
X155424211Y-104768357D01*
X155438524Y-104778379D01*
X155607251Y-104896523D01*
X155612233Y-104898846D01*
X155612238Y-104898849D01*
X155647527Y-104915304D01*
X155700812Y-104962221D01*
X155720273Y-105030499D01*
X155699731Y-105098458D01*
X155645708Y-105144524D01*
X155594277Y-105155499D01*
X134473723Y-105155499D01*
X134405602Y-105135497D01*
X134359109Y-105081841D01*
X134349005Y-105011567D01*
X134378499Y-104946987D01*
X134420473Y-104915304D01*
X134455762Y-104898849D01*
X134455767Y-104898846D01*
X134460749Y-104896523D01*
X134629476Y-104778379D01*
X134643789Y-104768357D01*
X134643792Y-104768355D01*
X134648300Y-104765198D01*
X134810198Y-104603300D01*
X134941523Y-104415749D01*
X134943846Y-104410767D01*
X134943849Y-104410762D01*
X135035961Y-104213225D01*
X135035961Y-104213224D01*
X135038284Y-104208243D01*
X135097543Y-103987087D01*
X135117498Y-103759000D01*
X135097543Y-103530913D01*
X135084284Y-103481430D01*
X135039707Y-103315067D01*
X135039706Y-103315065D01*
X135038284Y-103309757D01*
X134961225Y-103144502D01*
X134943849Y-103107238D01*
X134943846Y-103107233D01*
X134941523Y-103102251D01*
X134868098Y-102997389D01*
X134813357Y-102919211D01*
X134813355Y-102919208D01*
X134810198Y-102914700D01*
X134648300Y-102752802D01*
X134643792Y-102749645D01*
X134643789Y-102749643D01*
X134565611Y-102694902D01*
X134460749Y-102621477D01*
X134455767Y-102619154D01*
X134455762Y-102619151D01*
X134421543Y-102603195D01*
X134368258Y-102556278D01*
X134348797Y-102488001D01*
X134369339Y-102420041D01*
X134421543Y-102374805D01*
X134455762Y-102358849D01*
X134455767Y-102358846D01*
X134460749Y-102356523D01*
X134583371Y-102270662D01*
X134643789Y-102228357D01*
X134643792Y-102228355D01*
X134648300Y-102225198D01*
X134810198Y-102063300D01*
X134941523Y-101875749D01*
X134943846Y-101870767D01*
X134943849Y-101870762D01*
X135035961Y-101673225D01*
X135035961Y-101673224D01*
X135038284Y-101668243D01*
X135060688Y-101584633D01*
X135096119Y-101452402D01*
X135096119Y-101452400D01*
X135097543Y-101447087D01*
X135117498Y-101219000D01*
X135097543Y-100990913D01*
X135038284Y-100769757D01*
X135033861Y-100760272D01*
X134943849Y-100567238D01*
X134943846Y-100567233D01*
X134941523Y-100562251D01*
X134820380Y-100389241D01*
X134813357Y-100379211D01*
X134813355Y-100379208D01*
X134810198Y-100374700D01*
X134648300Y-100212802D01*
X134643792Y-100209645D01*
X134643789Y-100209643D01*
X134565611Y-100154902D01*
X134460749Y-100081477D01*
X134455767Y-100079154D01*
X134455762Y-100079151D01*
X134421543Y-100063195D01*
X134368258Y-100016278D01*
X134348797Y-99948001D01*
X134369339Y-99880041D01*
X134421543Y-99834805D01*
X134455762Y-99818849D01*
X134455767Y-99818846D01*
X134460749Y-99816523D01*
X134601044Y-99718287D01*
X134643789Y-99688357D01*
X134643792Y-99688355D01*
X134648300Y-99685198D01*
X134810198Y-99523300D01*
X134941523Y-99335749D01*
X134943846Y-99330767D01*
X134943849Y-99330762D01*
X135035961Y-99133225D01*
X135035961Y-99133224D01*
X135038284Y-99128243D01*
X135097543Y-98907087D01*
X135117498Y-98679000D01*
X135097543Y-98450913D01*
X135069430Y-98345995D01*
X135039707Y-98235067D01*
X135039706Y-98235065D01*
X135038284Y-98229757D01*
X135022381Y-98195652D01*
X134943849Y-98027238D01*
X134943846Y-98027233D01*
X134941523Y-98022251D01*
X134843525Y-97882296D01*
X134813357Y-97839211D01*
X134813355Y-97839208D01*
X134810198Y-97834700D01*
X134648300Y-97672802D01*
X134643792Y-97669645D01*
X134643789Y-97669643D01*
X134510308Y-97576179D01*
X134460749Y-97541477D01*
X134455767Y-97539154D01*
X134455762Y-97539151D01*
X134421543Y-97523195D01*
X134368258Y-97476278D01*
X134348797Y-97408001D01*
X134369339Y-97340041D01*
X134421543Y-97294805D01*
X134455762Y-97278849D01*
X134455767Y-97278846D01*
X134460749Y-97276523D01*
X134601044Y-97178287D01*
X134643789Y-97148357D01*
X134643792Y-97148355D01*
X134648300Y-97145198D01*
X134810198Y-96983300D01*
X134849077Y-96927776D01*
X134868098Y-96900611D01*
X134941523Y-96795749D01*
X134943846Y-96790767D01*
X134943849Y-96790762D01*
X135035961Y-96593225D01*
X135035961Y-96593224D01*
X135038284Y-96588243D01*
X135057258Y-96517434D01*
X135096119Y-96372402D01*
X135096119Y-96372400D01*
X135097543Y-96367087D01*
X135117498Y-96139000D01*
X135097543Y-95910913D01*
X135087244Y-95872478D01*
X135039707Y-95695067D01*
X135039706Y-95695065D01*
X135038284Y-95689757D01*
X135026517Y-95664522D01*
X134943849Y-95487238D01*
X134943846Y-95487233D01*
X134941523Y-95482251D01*
X134810198Y-95294700D01*
X134648300Y-95132802D01*
X134643792Y-95129645D01*
X134643789Y-95129643D01*
X134565611Y-95074902D01*
X134460749Y-95001477D01*
X134455767Y-94999154D01*
X134455762Y-94999151D01*
X134421543Y-94983195D01*
X134368258Y-94936278D01*
X134348797Y-94868001D01*
X134369339Y-94800041D01*
X134421543Y-94754805D01*
X134455762Y-94738849D01*
X134455767Y-94738846D01*
X134460749Y-94736523D01*
X134601044Y-94638287D01*
X134643789Y-94608357D01*
X134643792Y-94608355D01*
X134648300Y-94605198D01*
X134810198Y-94443300D01*
X134941523Y-94255749D01*
X134943846Y-94250767D01*
X134943849Y-94250762D01*
X135035961Y-94053225D01*
X135035961Y-94053224D01*
X135038284Y-94048243D01*
X135086970Y-93866548D01*
X135096119Y-93832402D01*
X135096119Y-93832400D01*
X135097543Y-93827087D01*
X135117498Y-93599000D01*
X135097543Y-93370913D01*
X135093688Y-93356526D01*
X135039707Y-93155067D01*
X135039706Y-93155065D01*
X135038284Y-93149757D01*
X134997902Y-93063157D01*
X134943849Y-92947238D01*
X134943846Y-92947233D01*
X134941523Y-92942251D01*
X134810198Y-92754700D01*
X134648300Y-92592802D01*
X134643792Y-92589645D01*
X134643789Y-92589643D01*
X134532116Y-92511449D01*
X134460749Y-92461477D01*
X134455767Y-92459154D01*
X134455762Y-92459151D01*
X134421543Y-92443195D01*
X134368258Y-92396278D01*
X134348797Y-92328001D01*
X134369339Y-92260041D01*
X134421543Y-92214805D01*
X134455762Y-92198849D01*
X134455767Y-92198846D01*
X134460749Y-92196523D01*
X134605022Y-92095502D01*
X134643789Y-92068357D01*
X134643792Y-92068355D01*
X134648300Y-92065198D01*
X134810198Y-91903300D01*
X134815259Y-91896073D01*
X134897221Y-91779019D01*
X134941523Y-91715749D01*
X134943846Y-91710767D01*
X134943849Y-91710762D01*
X135035961Y-91513225D01*
X135035961Y-91513224D01*
X135038284Y-91508243D01*
X135087623Y-91324111D01*
X135096119Y-91292402D01*
X135096119Y-91292400D01*
X135097543Y-91287087D01*
X135117498Y-91059000D01*
X135097543Y-90830913D01*
X135073224Y-90740155D01*
X135039707Y-90615067D01*
X135039706Y-90615065D01*
X135038284Y-90609757D01*
X135035961Y-90604775D01*
X134943849Y-90407238D01*
X134943846Y-90407233D01*
X134941523Y-90402251D01*
X134842524Y-90260866D01*
X134813357Y-90219211D01*
X134813355Y-90219208D01*
X134810198Y-90214700D01*
X134648300Y-90052802D01*
X134643792Y-90049645D01*
X134643789Y-90049643D01*
X134505651Y-89952918D01*
X134460749Y-89921477D01*
X134455767Y-89919154D01*
X134455762Y-89919151D01*
X134420951Y-89902919D01*
X134367666Y-89856002D01*
X134348205Y-89787725D01*
X134368747Y-89719765D01*
X134420951Y-89674529D01*
X134455511Y-89658414D01*
X134465007Y-89652931D01*
X134643467Y-89527972D01*
X134651875Y-89520916D01*
X134805916Y-89366875D01*
X134812972Y-89358467D01*
X134937931Y-89180007D01*
X134943414Y-89170511D01*
X135035490Y-88973053D01*
X135039236Y-88962761D01*
X135085394Y-88790497D01*
X135085058Y-88776401D01*
X135077116Y-88773000D01*
X132136033Y-88773000D01*
X132122502Y-88776973D01*
X132121273Y-88785522D01*
X132168764Y-88962761D01*
X132172510Y-88973053D01*
X132264586Y-89170511D01*
X132270069Y-89180007D01*
X132395028Y-89358467D01*
X132402084Y-89366875D01*
X132556125Y-89520916D01*
X132564533Y-89527972D01*
X132742993Y-89652931D01*
X132752489Y-89658414D01*
X132787049Y-89674529D01*
X132840334Y-89721446D01*
X132859795Y-89789723D01*
X132839253Y-89857683D01*
X132787049Y-89902919D01*
X132752238Y-89919151D01*
X132752233Y-89919154D01*
X132747251Y-89921477D01*
X132702349Y-89952918D01*
X132564211Y-90049643D01*
X132564208Y-90049645D01*
X132559700Y-90052802D01*
X132397802Y-90214700D01*
X132394645Y-90219208D01*
X132394643Y-90219211D01*
X132365476Y-90260866D01*
X132266477Y-90402251D01*
X132264154Y-90407233D01*
X132264151Y-90407238D01*
X132172039Y-90604775D01*
X132169716Y-90609757D01*
X132168294Y-90615065D01*
X132168293Y-90615067D01*
X132134776Y-90740155D01*
X132110457Y-90830913D01*
X132090502Y-91059000D01*
X132110457Y-91287087D01*
X132111881Y-91292400D01*
X132111881Y-91292402D01*
X132120378Y-91324111D01*
X132169716Y-91508243D01*
X132172039Y-91513224D01*
X132172039Y-91513225D01*
X132264151Y-91710762D01*
X132264154Y-91710767D01*
X132266477Y-91715749D01*
X132310779Y-91779019D01*
X132392742Y-91896073D01*
X132397802Y-91903300D01*
X132559700Y-92065198D01*
X132564208Y-92068355D01*
X132564211Y-92068357D01*
X132602978Y-92095502D01*
X132747251Y-92196523D01*
X132752233Y-92198846D01*
X132752238Y-92198849D01*
X132786457Y-92214805D01*
X132839742Y-92261722D01*
X132859203Y-92329999D01*
X132838661Y-92397959D01*
X132786457Y-92443195D01*
X132752238Y-92459151D01*
X132752233Y-92459154D01*
X132747251Y-92461477D01*
X132675884Y-92511449D01*
X132564211Y-92589643D01*
X132564208Y-92589645D01*
X132559700Y-92592802D01*
X132397802Y-92754700D01*
X132266477Y-92942251D01*
X132264154Y-92947233D01*
X132264151Y-92947238D01*
X132210098Y-93063157D01*
X132169716Y-93149757D01*
X132168294Y-93155065D01*
X132168293Y-93155067D01*
X132114312Y-93356526D01*
X132110457Y-93370913D01*
X132090502Y-93599000D01*
X132110457Y-93827087D01*
X132111881Y-93832400D01*
X132111881Y-93832402D01*
X132121031Y-93866548D01*
X132169716Y-94048243D01*
X132172039Y-94053224D01*
X132172039Y-94053225D01*
X132264151Y-94250762D01*
X132264154Y-94250767D01*
X132266477Y-94255749D01*
X132397802Y-94443300D01*
X132559700Y-94605198D01*
X132564208Y-94608355D01*
X132564211Y-94608357D01*
X132606956Y-94638287D01*
X132747251Y-94736523D01*
X132752233Y-94738846D01*
X132752238Y-94738849D01*
X132786457Y-94754805D01*
X132839742Y-94801722D01*
X132859203Y-94869999D01*
X132838661Y-94937959D01*
X132786457Y-94983195D01*
X132752238Y-94999151D01*
X132752233Y-94999154D01*
X132747251Y-95001477D01*
X132642389Y-95074902D01*
X132564211Y-95129643D01*
X132564208Y-95129645D01*
X132559700Y-95132802D01*
X132397802Y-95294700D01*
X132266477Y-95482251D01*
X132264154Y-95487233D01*
X132264151Y-95487238D01*
X132181483Y-95664522D01*
X132169716Y-95689757D01*
X132168294Y-95695065D01*
X132168293Y-95695067D01*
X132120756Y-95872478D01*
X132110457Y-95910913D01*
X132090502Y-96139000D01*
X132110457Y-96367087D01*
X132111881Y-96372400D01*
X132111881Y-96372402D01*
X132150743Y-96517434D01*
X132169716Y-96588243D01*
X132172039Y-96593224D01*
X132172039Y-96593225D01*
X132264151Y-96790762D01*
X132264154Y-96790767D01*
X132266477Y-96795749D01*
X132339902Y-96900611D01*
X132358924Y-96927776D01*
X132397802Y-96983300D01*
X132559700Y-97145198D01*
X132564208Y-97148355D01*
X132564211Y-97148357D01*
X132606956Y-97178287D01*
X132747251Y-97276523D01*
X132752233Y-97278846D01*
X132752238Y-97278849D01*
X132786457Y-97294805D01*
X132839742Y-97341722D01*
X132859203Y-97409999D01*
X132838661Y-97477959D01*
X132786457Y-97523195D01*
X132752238Y-97539151D01*
X132752233Y-97539154D01*
X132747251Y-97541477D01*
X132697692Y-97576179D01*
X132564211Y-97669643D01*
X132564208Y-97669645D01*
X132559700Y-97672802D01*
X132397802Y-97834700D01*
X132394645Y-97839208D01*
X132394643Y-97839211D01*
X132364475Y-97882296D01*
X132266477Y-98022251D01*
X132264154Y-98027233D01*
X132264151Y-98027238D01*
X132185619Y-98195652D01*
X132169716Y-98229757D01*
X132168294Y-98235065D01*
X132168293Y-98235067D01*
X132138570Y-98345995D01*
X132110457Y-98450913D01*
X132090502Y-98679000D01*
X132110457Y-98907087D01*
X132169716Y-99128243D01*
X132172039Y-99133224D01*
X132172039Y-99133225D01*
X132264151Y-99330762D01*
X132264154Y-99330767D01*
X132266477Y-99335749D01*
X132397802Y-99523300D01*
X132559700Y-99685198D01*
X132564208Y-99688355D01*
X132564211Y-99688357D01*
X132606956Y-99718287D01*
X132747251Y-99816523D01*
X132752233Y-99818846D01*
X132752238Y-99818849D01*
X132786457Y-99834805D01*
X132839742Y-99881722D01*
X132859203Y-99949999D01*
X132838661Y-100017959D01*
X132786457Y-100063195D01*
X132752238Y-100079151D01*
X132752233Y-100079154D01*
X132747251Y-100081477D01*
X132642389Y-100154902D01*
X132564211Y-100209643D01*
X132564208Y-100209645D01*
X132559700Y-100212802D01*
X132397802Y-100374700D01*
X132394645Y-100379208D01*
X132394643Y-100379211D01*
X132387620Y-100389241D01*
X132266477Y-100562251D01*
X132264154Y-100567233D01*
X132264151Y-100567238D01*
X132174139Y-100760272D01*
X132169716Y-100769757D01*
X132110457Y-100990913D01*
X132090502Y-101219000D01*
X132110457Y-101447087D01*
X132111881Y-101452400D01*
X132111881Y-101452402D01*
X132147313Y-101584633D01*
X132169716Y-101668243D01*
X132172039Y-101673224D01*
X132172039Y-101673225D01*
X132264151Y-101870762D01*
X132264154Y-101870767D01*
X132266477Y-101875749D01*
X132397802Y-102063300D01*
X132559700Y-102225198D01*
X132564208Y-102228355D01*
X132564211Y-102228357D01*
X132624629Y-102270662D01*
X132747251Y-102356523D01*
X132752233Y-102358846D01*
X132752238Y-102358849D01*
X132786457Y-102374805D01*
X132839742Y-102421722D01*
X132859203Y-102489999D01*
X132838661Y-102557959D01*
X132786457Y-102603195D01*
X132752238Y-102619151D01*
X132752233Y-102619154D01*
X132747251Y-102621477D01*
X132642389Y-102694902D01*
X132564211Y-102749643D01*
X132564208Y-102749645D01*
X132559700Y-102752802D01*
X132397802Y-102914700D01*
X132394645Y-102919208D01*
X132394643Y-102919211D01*
X132339902Y-102997389D01*
X132266477Y-103102251D01*
X132264154Y-103107233D01*
X132264151Y-103107238D01*
X132246775Y-103144502D01*
X132169716Y-103309757D01*
X132168294Y-103315065D01*
X132168293Y-103315067D01*
X132123716Y-103481430D01*
X132110457Y-103530913D01*
X132090502Y-103759000D01*
X132110457Y-103987087D01*
X132169716Y-104208243D01*
X132172039Y-104213224D01*
X132172039Y-104213225D01*
X132264151Y-104410762D01*
X132264154Y-104410767D01*
X132266477Y-104415749D01*
X132397802Y-104603300D01*
X132559700Y-104765198D01*
X132564208Y-104768355D01*
X132564211Y-104768357D01*
X132578524Y-104778379D01*
X132747251Y-104896523D01*
X132752233Y-104898846D01*
X132752238Y-104898849D01*
X132787527Y-104915304D01*
X132840812Y-104962221D01*
X132860273Y-105030499D01*
X132839731Y-105098458D01*
X132785708Y-105144524D01*
X132734277Y-105155499D01*
X130013237Y-105155499D01*
X129945116Y-105135497D01*
X129924142Y-105118594D01*
X126238815Y-101433267D01*
X126229713Y-101423124D01*
X126209634Y-101398151D01*
X126205775Y-101393351D01*
X126166998Y-101360813D01*
X126163371Y-101357649D01*
X126161502Y-101355954D01*
X126159308Y-101353760D01*
X126125742Y-101326188D01*
X126124945Y-101325526D01*
X126053067Y-101265214D01*
X126048361Y-101262627D01*
X126044211Y-101259218D01*
X126038787Y-101256310D01*
X126038777Y-101256303D01*
X125961632Y-101214939D01*
X125960472Y-101214310D01*
X125917929Y-101190922D01*
X125878379Y-101169179D01*
X125873259Y-101167555D01*
X125868526Y-101165017D01*
X125779007Y-101137648D01*
X125777748Y-101137256D01*
X125694239Y-101110765D01*
X125694235Y-101110764D01*
X125688365Y-101108902D01*
X125683027Y-101108303D01*
X125677891Y-101106733D01*
X125671760Y-101106110D01*
X125671759Y-101106110D01*
X125652456Y-101104149D01*
X125584569Y-101097254D01*
X125583449Y-101097134D01*
X125533216Y-101091500D01*
X125529711Y-101091500D01*
X125528603Y-101091438D01*
X125522908Y-101090990D01*
X125485695Y-101087210D01*
X125485688Y-101087210D01*
X125479565Y-101086588D01*
X125433515Y-101090941D01*
X125421657Y-101091500D01*
X122533601Y-101091500D01*
X122465480Y-101071498D01*
X122453710Y-101062934D01*
X122346900Y-100975354D01*
X122346894Y-100975350D01*
X122342772Y-100971970D01*
X122299002Y-100947055D01*
X122249696Y-100895973D01*
X122235834Y-100826343D01*
X122261817Y-100760272D01*
X122290965Y-100733035D01*
X122425752Y-100642291D01*
X122449820Y-100619331D01*
X122512916Y-100586783D01*
X122536792Y-100584500D01*
X126937724Y-100584500D01*
X126951332Y-100585237D01*
X126983179Y-100588697D01*
X126983183Y-100588697D01*
X126989304Y-100589362D01*
X127026172Y-100586137D01*
X127039690Y-100584954D01*
X127044518Y-100584625D01*
X127047073Y-100584500D01*
X127050157Y-100584500D01*
X127065531Y-100582992D01*
X127093219Y-100580278D01*
X127094532Y-100580156D01*
X127134629Y-100576648D01*
X127187892Y-100571988D01*
X127193052Y-100570489D01*
X127198394Y-100569965D01*
X127288096Y-100542883D01*
X127289236Y-100542545D01*
X127379322Y-100516372D01*
X127384090Y-100513900D01*
X127389232Y-100512348D01*
X127394677Y-100509453D01*
X127394684Y-100509450D01*
X127471950Y-100468367D01*
X127473054Y-100467787D01*
X127556304Y-100424634D01*
X127560503Y-100421282D01*
X127565244Y-100418761D01*
X127601439Y-100389241D01*
X127637829Y-100359562D01*
X127638855Y-100358734D01*
X127675564Y-100329429D01*
X127675565Y-100329428D01*
X127678316Y-100327232D01*
X127680811Y-100324737D01*
X127681605Y-100324027D01*
X127685960Y-100320307D01*
X127714951Y-100296663D01*
X127714954Y-100296660D01*
X127719726Y-100292768D01*
X127727599Y-100283252D01*
X127749211Y-100257127D01*
X127757200Y-100248348D01*
X130722733Y-97282815D01*
X130732876Y-97273713D01*
X130757849Y-97253634D01*
X130762649Y-97249775D01*
X130795187Y-97210998D01*
X130798352Y-97207370D01*
X130800046Y-97205502D01*
X130802240Y-97203308D01*
X130829736Y-97169834D01*
X130830488Y-97168927D01*
X130890786Y-97097067D01*
X130893375Y-97092358D01*
X130896782Y-97088210D01*
X130899690Y-97082786D01*
X130899693Y-97082782D01*
X130941050Y-97005651D01*
X130941679Y-97004492D01*
X130953330Y-96983300D01*
X130986821Y-96922379D01*
X130988444Y-96917263D01*
X130990984Y-96912526D01*
X131018384Y-96822904D01*
X131018767Y-96821674D01*
X131033890Y-96774000D01*
X131047098Y-96732365D01*
X131047697Y-96727027D01*
X131049267Y-96721891D01*
X131058746Y-96628569D01*
X131058866Y-96627449D01*
X131064500Y-96577216D01*
X131064500Y-96573711D01*
X131064562Y-96572603D01*
X131065010Y-96566908D01*
X131068790Y-96529695D01*
X131068790Y-96529688D01*
X131069412Y-96523565D01*
X131065059Y-96477514D01*
X131064500Y-96465657D01*
X131064500Y-88865238D01*
X131084502Y-88797117D01*
X131101405Y-88776143D01*
X131981692Y-87895856D01*
X132044004Y-87861830D01*
X132114819Y-87866895D01*
X132171655Y-87909442D01*
X132196466Y-87975962D01*
X132184982Y-88038201D01*
X132172510Y-88064947D01*
X132168764Y-88075239D01*
X132122606Y-88247503D01*
X132122942Y-88261599D01*
X132130884Y-88265000D01*
X135071967Y-88265000D01*
X135085498Y-88261027D01*
X135086727Y-88252478D01*
X135039236Y-88075239D01*
X135035490Y-88064947D01*
X134943414Y-87867489D01*
X134937931Y-87857993D01*
X134812972Y-87679533D01*
X134805916Y-87671125D01*
X134780851Y-87646060D01*
X134746825Y-87583748D01*
X134751890Y-87512933D01*
X134794437Y-87456097D01*
X134825716Y-87438983D01*
X134842297Y-87432767D01*
X134850705Y-87429615D01*
X134967261Y-87342261D01*
X135054615Y-87225705D01*
X135105745Y-87089316D01*
X135112500Y-87027134D01*
X135112500Y-85724000D01*
X135132502Y-85655879D01*
X135186158Y-85609386D01*
X135238500Y-85598000D01*
X154847745Y-85598000D01*
X154915866Y-85618002D01*
G37*
G04 #@! TD.AperFunction*
M02*
