G04 #@! TF.GenerationSoftware,KiCad,Pcbnew,(6.0.8)*
G04 #@! TF.CreationDate,2022-10-28T18:58:48+02:00*
G04 #@! TF.ProjectId,gardenWemos,67617264-656e-4576-956d-6f732e6b6963,rev?*
G04 #@! TF.SameCoordinates,Original*
G04 #@! TF.FileFunction,Legend,Bot*
G04 #@! TF.FilePolarity,Positive*
%FSLAX46Y46*%
G04 Gerber Fmt 4.6, Leading zero omitted, Abs format (unit mm)*
G04 Created by KiCad (PCBNEW (6.0.8)) date 2022-10-28 18:58:48*
%MOMM*%
%LPD*%
G01*
G04 APERTURE LIST*
G04 #@! TA.AperFunction,Profile*
%ADD10C,0.050000*%
G04 #@! TD*
%ADD11C,0.010000*%
G04 APERTURE END LIST*
D10*
X174752000Y-132588000D02*
G75*
G03*
X177292000Y-130048000I0J2540000D01*
G01*
X116332000Y-130048000D02*
G75*
G03*
X118872000Y-132588000I2540000J0D01*
G01*
X118872000Y-71628000D02*
G75*
G03*
X116332000Y-74168000I0J-2540000D01*
G01*
X177292000Y-74168000D02*
G75*
G03*
X174752000Y-71628000I-2540000J0D01*
G01*
X118872000Y-71628000D02*
X174752000Y-71628000D01*
X116332000Y-130048000D02*
X116332000Y-74168000D01*
X118872000Y-132588000D02*
X174752000Y-132588000D01*
X177292000Y-74168000D02*
X177292000Y-130048000D01*
G36*
X135328578Y-122522724D02*
G01*
X135059862Y-122522903D01*
X134723481Y-122522074D01*
X134471277Y-122521943D01*
X134211579Y-122521093D01*
X134011546Y-122518947D01*
X133862454Y-122514932D01*
X133755580Y-122508477D01*
X133682199Y-122499010D01*
X133633587Y-122485959D01*
X133601021Y-122468751D01*
X133575777Y-122446815D01*
X133554997Y-122423591D01*
X133530663Y-122380264D01*
X133514819Y-122316438D01*
X133505693Y-122218425D01*
X133501517Y-122072539D01*
X133501326Y-122032889D01*
X133989703Y-122032889D01*
X135457259Y-122032889D01*
X135457307Y-121778889D01*
X135457276Y-121768796D01*
X135450728Y-121598397D01*
X135434978Y-121398054D01*
X135413217Y-121209025D01*
X135382229Y-121042499D01*
X135294668Y-120793327D01*
X135163671Y-120601629D01*
X134986889Y-120463292D01*
X134816001Y-120392569D01*
X134656581Y-120387844D01*
X134486797Y-120448783D01*
X134333740Y-120547684D01*
X134192375Y-120703341D01*
X134093033Y-120907971D01*
X134029248Y-121171794D01*
X134028452Y-121176760D01*
X134009147Y-121339996D01*
X133995345Y-121535643D01*
X133989988Y-121722445D01*
X133989703Y-122032889D01*
X133501326Y-122032889D01*
X133500518Y-121865093D01*
X133501769Y-121701938D01*
X133516531Y-121345740D01*
X133550156Y-121048314D01*
X133605450Y-120798987D01*
X133685218Y-120587083D01*
X133792263Y-120401928D01*
X133929392Y-120232848D01*
X133948901Y-120212887D01*
X134110597Y-120089997D01*
X134313291Y-119986331D01*
X134527435Y-119914722D01*
X134723481Y-119888000D01*
X134794203Y-119892264D01*
X134985588Y-119933304D01*
X135185291Y-120008400D01*
X135365456Y-120105834D01*
X135498225Y-120213888D01*
X135554967Y-120279027D01*
X135685593Y-120461400D01*
X135786025Y-120662410D01*
X135859227Y-120893064D01*
X135908166Y-121164369D01*
X135935805Y-121487333D01*
X135945109Y-121872963D01*
X135946447Y-122004571D01*
X135947824Y-122156941D01*
X135941810Y-122276276D01*
X135920869Y-122366578D01*
X135877468Y-122431852D01*
X135804073Y-122476100D01*
X135693149Y-122503327D01*
X135537162Y-122517534D01*
X135457259Y-122519523D01*
X135328578Y-122522724D01*
G37*
D11*
X135328578Y-122522724D02*
X135059862Y-122522903D01*
X134723481Y-122522074D01*
X134471277Y-122521943D01*
X134211579Y-122521093D01*
X134011546Y-122518947D01*
X133862454Y-122514932D01*
X133755580Y-122508477D01*
X133682199Y-122499010D01*
X133633587Y-122485959D01*
X133601021Y-122468751D01*
X133575777Y-122446815D01*
X133554997Y-122423591D01*
X133530663Y-122380264D01*
X133514819Y-122316438D01*
X133505693Y-122218425D01*
X133501517Y-122072539D01*
X133501326Y-122032889D01*
X133989703Y-122032889D01*
X135457259Y-122032889D01*
X135457307Y-121778889D01*
X135457276Y-121768796D01*
X135450728Y-121598397D01*
X135434978Y-121398054D01*
X135413217Y-121209025D01*
X135382229Y-121042499D01*
X135294668Y-120793327D01*
X135163671Y-120601629D01*
X134986889Y-120463292D01*
X134816001Y-120392569D01*
X134656581Y-120387844D01*
X134486797Y-120448783D01*
X134333740Y-120547684D01*
X134192375Y-120703341D01*
X134093033Y-120907971D01*
X134029248Y-121171794D01*
X134028452Y-121176760D01*
X134009147Y-121339996D01*
X133995345Y-121535643D01*
X133989988Y-121722445D01*
X133989703Y-122032889D01*
X133501326Y-122032889D01*
X133500518Y-121865093D01*
X133501769Y-121701938D01*
X133516531Y-121345740D01*
X133550156Y-121048314D01*
X133605450Y-120798987D01*
X133685218Y-120587083D01*
X133792263Y-120401928D01*
X133929392Y-120232848D01*
X133948901Y-120212887D01*
X134110597Y-120089997D01*
X134313291Y-119986331D01*
X134527435Y-119914722D01*
X134723481Y-119888000D01*
X134794203Y-119892264D01*
X134985588Y-119933304D01*
X135185291Y-120008400D01*
X135365456Y-120105834D01*
X135498225Y-120213888D01*
X135554967Y-120279027D01*
X135685593Y-120461400D01*
X135786025Y-120662410D01*
X135859227Y-120893064D01*
X135908166Y-121164369D01*
X135935805Y-121487333D01*
X135945109Y-121872963D01*
X135946447Y-122004571D01*
X135947824Y-122156941D01*
X135941810Y-122276276D01*
X135920869Y-122366578D01*
X135877468Y-122431852D01*
X135804073Y-122476100D01*
X135693149Y-122503327D01*
X135537162Y-122517534D01*
X135457259Y-122519523D01*
X135328578Y-122522724D01*
G36*
X133824798Y-116482033D02*
G01*
X133914444Y-116538963D01*
X133929804Y-116555559D01*
X133950761Y-116588144D01*
X133966178Y-116635196D01*
X133976899Y-116706846D01*
X133983767Y-116813228D01*
X133987628Y-116964472D01*
X133989325Y-117170710D01*
X133989703Y-117442074D01*
X133989703Y-118269926D01*
X134516518Y-118269926D01*
X134516518Y-117732670D01*
X134517003Y-117613276D01*
X134522745Y-117394529D01*
X134537529Y-117237059D01*
X134564543Y-117131276D01*
X134606979Y-117067590D01*
X134668026Y-117036411D01*
X134750874Y-117028149D01*
X134818395Y-117030807D01*
X134891146Y-117048313D01*
X134942319Y-117090959D01*
X134975636Y-117168758D01*
X134994823Y-117291722D01*
X135003604Y-117469862D01*
X135005703Y-117713192D01*
X135005703Y-118273682D01*
X135222074Y-118262397D01*
X135438444Y-118251112D01*
X135448606Y-117425389D01*
X135451536Y-117216754D01*
X135456349Y-116988551D01*
X135462785Y-116818869D01*
X135471621Y-116698025D01*
X135483632Y-116616335D01*
X135499596Y-116564117D01*
X135520290Y-116531686D01*
X135541633Y-116511635D01*
X135647238Y-116468272D01*
X135766192Y-116480142D01*
X135869719Y-116546059D01*
X135879463Y-116556898D01*
X135900634Y-116586831D01*
X135916809Y-116627176D01*
X135928656Y-116687197D01*
X135936847Y-116776157D01*
X135942051Y-116903321D01*
X135944938Y-117077952D01*
X135946179Y-117309314D01*
X135946444Y-117606671D01*
X135946390Y-117789114D01*
X135945749Y-118046103D01*
X135943801Y-118242590D01*
X135939829Y-118387879D01*
X135933121Y-118491276D01*
X135922961Y-118562083D01*
X135908635Y-118609607D01*
X135889428Y-118643151D01*
X135864625Y-118672020D01*
X135859022Y-118677969D01*
X135833893Y-118702115D01*
X135803834Y-118720921D01*
X135760053Y-118735056D01*
X135693760Y-118745186D01*
X135596164Y-118751978D01*
X135458473Y-118756100D01*
X135271897Y-118758218D01*
X135027643Y-118758999D01*
X134716922Y-118759112D01*
X134474290Y-118758990D01*
X134213704Y-118758161D01*
X134012989Y-118756040D01*
X133863393Y-118752050D01*
X133756160Y-118745613D01*
X133682537Y-118736152D01*
X133633768Y-118723090D01*
X133601100Y-118705849D01*
X133575777Y-118683852D01*
X133565187Y-118672738D01*
X133544818Y-118644332D01*
X133529236Y-118604325D01*
X133517802Y-118543624D01*
X133509878Y-118453134D01*
X133504826Y-118323762D01*
X133502007Y-118146412D01*
X133500784Y-117911992D01*
X133500518Y-117611408D01*
X133500558Y-117471045D01*
X133501164Y-117200556D01*
X133503008Y-116992248D01*
X133506726Y-116837029D01*
X133512957Y-116725804D01*
X133522340Y-116649479D01*
X133535512Y-116598959D01*
X133553112Y-116565152D01*
X133575777Y-116538963D01*
X133647775Y-116489876D01*
X133745111Y-116463704D01*
X133824798Y-116482033D01*
G37*
X133824798Y-116482033D02*
X133914444Y-116538963D01*
X133929804Y-116555559D01*
X133950761Y-116588144D01*
X133966178Y-116635196D01*
X133976899Y-116706846D01*
X133983767Y-116813228D01*
X133987628Y-116964472D01*
X133989325Y-117170710D01*
X133989703Y-117442074D01*
X133989703Y-118269926D01*
X134516518Y-118269926D01*
X134516518Y-117732670D01*
X134517003Y-117613276D01*
X134522745Y-117394529D01*
X134537529Y-117237059D01*
X134564543Y-117131276D01*
X134606979Y-117067590D01*
X134668026Y-117036411D01*
X134750874Y-117028149D01*
X134818395Y-117030807D01*
X134891146Y-117048313D01*
X134942319Y-117090959D01*
X134975636Y-117168758D01*
X134994823Y-117291722D01*
X135003604Y-117469862D01*
X135005703Y-117713192D01*
X135005703Y-118273682D01*
X135222074Y-118262397D01*
X135438444Y-118251112D01*
X135448606Y-117425389D01*
X135451536Y-117216754D01*
X135456349Y-116988551D01*
X135462785Y-116818869D01*
X135471621Y-116698025D01*
X135483632Y-116616335D01*
X135499596Y-116564117D01*
X135520290Y-116531686D01*
X135541633Y-116511635D01*
X135647238Y-116468272D01*
X135766192Y-116480142D01*
X135869719Y-116546059D01*
X135879463Y-116556898D01*
X135900634Y-116586831D01*
X135916809Y-116627176D01*
X135928656Y-116687197D01*
X135936847Y-116776157D01*
X135942051Y-116903321D01*
X135944938Y-117077952D01*
X135946179Y-117309314D01*
X135946444Y-117606671D01*
X135946390Y-117789114D01*
X135945749Y-118046103D01*
X135943801Y-118242590D01*
X135939829Y-118387879D01*
X135933121Y-118491276D01*
X135922961Y-118562083D01*
X135908635Y-118609607D01*
X135889428Y-118643151D01*
X135864625Y-118672020D01*
X135859022Y-118677969D01*
X135833893Y-118702115D01*
X135803834Y-118720921D01*
X135760053Y-118735056D01*
X135693760Y-118745186D01*
X135596164Y-118751978D01*
X135458473Y-118756100D01*
X135271897Y-118758218D01*
X135027643Y-118758999D01*
X134716922Y-118759112D01*
X134474290Y-118758990D01*
X134213704Y-118758161D01*
X134012989Y-118756040D01*
X133863393Y-118752050D01*
X133756160Y-118745613D01*
X133682537Y-118736152D01*
X133633768Y-118723090D01*
X133601100Y-118705849D01*
X133575777Y-118683852D01*
X133565187Y-118672738D01*
X133544818Y-118644332D01*
X133529236Y-118604325D01*
X133517802Y-118543624D01*
X133509878Y-118453134D01*
X133504826Y-118323762D01*
X133502007Y-118146412D01*
X133500784Y-117911992D01*
X133500518Y-117611408D01*
X133500558Y-117471045D01*
X133501164Y-117200556D01*
X133503008Y-116992248D01*
X133506726Y-116837029D01*
X133512957Y-116725804D01*
X133522340Y-116649479D01*
X133535512Y-116598959D01*
X133553112Y-116565152D01*
X133575777Y-116538963D01*
X133647775Y-116489876D01*
X133745111Y-116463704D01*
X133824798Y-116482033D01*
G36*
X134256578Y-112889358D02*
G01*
X134365517Y-112902268D01*
X134453936Y-112943550D01*
X134556764Y-113027434D01*
X134630565Y-113098140D01*
X134705718Y-113186127D01*
X134766942Y-113285184D01*
X134817796Y-113405948D01*
X134861835Y-113559056D01*
X134902619Y-113755145D01*
X134943704Y-114004852D01*
X134988648Y-114318815D01*
X135012014Y-114469855D01*
X135060544Y-114696370D01*
X135115542Y-114860155D01*
X135175202Y-114958713D01*
X135237718Y-114989547D01*
X135301284Y-114950160D01*
X135364096Y-114838054D01*
X135368142Y-114827900D01*
X135408402Y-114673370D01*
X135435737Y-114464536D01*
X135449605Y-114219756D01*
X135449462Y-113957390D01*
X135434769Y-113695796D01*
X135404982Y-113453334D01*
X135402818Y-113440244D01*
X135377128Y-113277523D01*
X135365089Y-113170017D01*
X135367081Y-113100026D01*
X135383485Y-113049847D01*
X135414681Y-113001778D01*
X135417582Y-112997879D01*
X135518828Y-112916155D01*
X135637166Y-112900178D01*
X135752437Y-112952867D01*
X135767291Y-112968019D01*
X135817756Y-113066734D01*
X135861500Y-113223339D01*
X135897499Y-113424353D01*
X135924729Y-113656292D01*
X135942163Y-113905675D01*
X135948777Y-114159020D01*
X135943547Y-114402844D01*
X135925447Y-114623665D01*
X135893453Y-114808000D01*
X135843916Y-114977609D01*
X135733474Y-115215317D01*
X135591199Y-115385839D01*
X135417650Y-115488584D01*
X135213390Y-115522963D01*
X135109227Y-115519841D01*
X135026570Y-115500532D01*
X134954337Y-115451175D01*
X134863169Y-115357933D01*
X134838740Y-115331339D01*
X134769063Y-115252308D01*
X134712495Y-115177661D01*
X134665984Y-115097548D01*
X134626480Y-115002122D01*
X134590934Y-114881533D01*
X134556295Y-114725932D01*
X134519514Y-114525471D01*
X134477539Y-114270300D01*
X134427321Y-113950571D01*
X134417207Y-113889358D01*
X134371805Y-113681592D01*
X134319360Y-113530867D01*
X134262456Y-113443254D01*
X134203675Y-113424824D01*
X134189440Y-113433560D01*
X134139224Y-113493334D01*
X134083777Y-113587087D01*
X134063809Y-113629751D01*
X134039833Y-113700746D01*
X134023909Y-113788700D01*
X134014513Y-113908181D01*
X134010121Y-114073758D01*
X134009208Y-114300000D01*
X134009453Y-114359283D01*
X134013156Y-114584687D01*
X134020573Y-114801149D01*
X134030794Y-114986567D01*
X134042909Y-115118836D01*
X134056470Y-115237207D01*
X134059079Y-115334715D01*
X134043747Y-115397718D01*
X134008164Y-115448095D01*
X133996187Y-115460283D01*
X133890274Y-115514756D01*
X133771428Y-115510357D01*
X133669365Y-115447167D01*
X133630679Y-115379265D01*
X133588362Y-115259320D01*
X133554864Y-115117908D01*
X133552867Y-115106405D01*
X133535479Y-114964174D01*
X133520901Y-114772885D01*
X133510608Y-114556162D01*
X133506078Y-114337630D01*
X133505938Y-114283522D01*
X133514197Y-113955814D01*
X133540884Y-113688974D01*
X133589323Y-113471708D01*
X133662836Y-113292722D01*
X133764748Y-113140720D01*
X133898381Y-113004410D01*
X133985802Y-112937339D01*
X134084294Y-112898586D01*
X134216682Y-112888889D01*
X134256578Y-112889358D01*
G37*
X134256578Y-112889358D02*
X134365517Y-112902268D01*
X134453936Y-112943550D01*
X134556764Y-113027434D01*
X134630565Y-113098140D01*
X134705718Y-113186127D01*
X134766942Y-113285184D01*
X134817796Y-113405948D01*
X134861835Y-113559056D01*
X134902619Y-113755145D01*
X134943704Y-114004852D01*
X134988648Y-114318815D01*
X135012014Y-114469855D01*
X135060544Y-114696370D01*
X135115542Y-114860155D01*
X135175202Y-114958713D01*
X135237718Y-114989547D01*
X135301284Y-114950160D01*
X135364096Y-114838054D01*
X135368142Y-114827900D01*
X135408402Y-114673370D01*
X135435737Y-114464536D01*
X135449605Y-114219756D01*
X135449462Y-113957390D01*
X135434769Y-113695796D01*
X135404982Y-113453334D01*
X135402818Y-113440244D01*
X135377128Y-113277523D01*
X135365089Y-113170017D01*
X135367081Y-113100026D01*
X135383485Y-113049847D01*
X135414681Y-113001778D01*
X135417582Y-112997879D01*
X135518828Y-112916155D01*
X135637166Y-112900178D01*
X135752437Y-112952867D01*
X135767291Y-112968019D01*
X135817756Y-113066734D01*
X135861500Y-113223339D01*
X135897499Y-113424353D01*
X135924729Y-113656292D01*
X135942163Y-113905675D01*
X135948777Y-114159020D01*
X135943547Y-114402844D01*
X135925447Y-114623665D01*
X135893453Y-114808000D01*
X135843916Y-114977609D01*
X135733474Y-115215317D01*
X135591199Y-115385839D01*
X135417650Y-115488584D01*
X135213390Y-115522963D01*
X135109227Y-115519841D01*
X135026570Y-115500532D01*
X134954337Y-115451175D01*
X134863169Y-115357933D01*
X134838740Y-115331339D01*
X134769063Y-115252308D01*
X134712495Y-115177661D01*
X134665984Y-115097548D01*
X134626480Y-115002122D01*
X134590934Y-114881533D01*
X134556295Y-114725932D01*
X134519514Y-114525471D01*
X134477539Y-114270300D01*
X134427321Y-113950571D01*
X134417207Y-113889358D01*
X134371805Y-113681592D01*
X134319360Y-113530867D01*
X134262456Y-113443254D01*
X134203675Y-113424824D01*
X134189440Y-113433560D01*
X134139224Y-113493334D01*
X134083777Y-113587087D01*
X134063809Y-113629751D01*
X134039833Y-113700746D01*
X134023909Y-113788700D01*
X134014513Y-113908181D01*
X134010121Y-114073758D01*
X134009208Y-114300000D01*
X134009453Y-114359283D01*
X134013156Y-114584687D01*
X134020573Y-114801149D01*
X134030794Y-114986567D01*
X134042909Y-115118836D01*
X134056470Y-115237207D01*
X134059079Y-115334715D01*
X134043747Y-115397718D01*
X134008164Y-115448095D01*
X133996187Y-115460283D01*
X133890274Y-115514756D01*
X133771428Y-115510357D01*
X133669365Y-115447167D01*
X133630679Y-115379265D01*
X133588362Y-115259320D01*
X133554864Y-115117908D01*
X133552867Y-115106405D01*
X133535479Y-114964174D01*
X133520901Y-114772885D01*
X133510608Y-114556162D01*
X133506078Y-114337630D01*
X133505938Y-114283522D01*
X133514197Y-113955814D01*
X133540884Y-113688974D01*
X133589323Y-113471708D01*
X133662836Y-113292722D01*
X133764748Y-113140720D01*
X133898381Y-113004410D01*
X133985802Y-112937339D01*
X134084294Y-112898586D01*
X134216682Y-112888889D01*
X134256578Y-112889358D01*
G36*
X134975685Y-111270947D02*
G01*
X135235383Y-111271797D01*
X135435416Y-111273943D01*
X135584508Y-111277958D01*
X135691382Y-111284412D01*
X135764763Y-111293879D01*
X135813375Y-111306931D01*
X135845941Y-111324138D01*
X135871185Y-111346074D01*
X135934589Y-111443353D01*
X135931789Y-111553788D01*
X135854080Y-111667637D01*
X135761717Y-111760000D01*
X134718209Y-111760000D01*
X134438109Y-111759864D01*
X134190704Y-111759002D01*
X134001529Y-111756766D01*
X133861626Y-111752507D01*
X133762035Y-111745577D01*
X133693797Y-111735328D01*
X133647953Y-111721112D01*
X133615544Y-111702279D01*
X133587610Y-111678182D01*
X133516063Y-111573304D01*
X133510176Y-111456086D01*
X133575777Y-111346074D01*
X133595339Y-111328385D01*
X133625619Y-111310220D01*
X133670090Y-111296334D01*
X133737477Y-111286153D01*
X133836504Y-111279106D01*
X133975894Y-111274621D01*
X134164370Y-111272125D01*
X134410658Y-111271047D01*
X134723481Y-111270815D01*
X134975685Y-111270947D01*
G37*
X134975685Y-111270947D02*
X135235383Y-111271797D01*
X135435416Y-111273943D01*
X135584508Y-111277958D01*
X135691382Y-111284412D01*
X135764763Y-111293879D01*
X135813375Y-111306931D01*
X135845941Y-111324138D01*
X135871185Y-111346074D01*
X135934589Y-111443353D01*
X135931789Y-111553788D01*
X135854080Y-111667637D01*
X135761717Y-111760000D01*
X134718209Y-111760000D01*
X134438109Y-111759864D01*
X134190704Y-111759002D01*
X134001529Y-111756766D01*
X133861626Y-111752507D01*
X133762035Y-111745577D01*
X133693797Y-111735328D01*
X133647953Y-111721112D01*
X133615544Y-111702279D01*
X133587610Y-111678182D01*
X133516063Y-111573304D01*
X133510176Y-111456086D01*
X133575777Y-111346074D01*
X133595339Y-111328385D01*
X133625619Y-111310220D01*
X133670090Y-111296334D01*
X133737477Y-111286153D01*
X133836504Y-111279106D01*
X133975894Y-111274621D01*
X134164370Y-111272125D01*
X134410658Y-111271047D01*
X134723481Y-111270815D01*
X134975685Y-111270947D01*
G36*
X134483872Y-107360200D02*
G01*
X134641813Y-107375933D01*
X134748823Y-107414898D01*
X134813999Y-107487463D01*
X134846434Y-107603993D01*
X134855223Y-107774853D01*
X134849463Y-108010408D01*
X134839423Y-108172476D01*
X134812115Y-108339796D01*
X134765271Y-108448108D01*
X134694485Y-108506305D01*
X134595353Y-108523276D01*
X134580214Y-108522922D01*
X134464235Y-108493915D01*
X134386178Y-108413883D01*
X134342178Y-108276332D01*
X134328370Y-108074771D01*
X134328370Y-107846519D01*
X134200529Y-107846519D01*
X134170078Y-107846686D01*
X134112575Y-107854088D01*
X134078262Y-107884979D01*
X134055137Y-107956248D01*
X134031196Y-108084786D01*
X134028084Y-108103033D01*
X133995072Y-108426201D01*
X134004802Y-108726173D01*
X134053903Y-108995865D01*
X134139005Y-109228195D01*
X134256739Y-109416078D01*
X134403736Y-109552431D01*
X134576625Y-109630169D01*
X134772038Y-109642211D01*
X134868354Y-109623815D01*
X135054653Y-109534871D01*
X135206851Y-109380908D01*
X135322972Y-109164304D01*
X135401034Y-108887431D01*
X135415863Y-108805182D01*
X135450861Y-108507420D01*
X135446763Y-108241396D01*
X135403646Y-107981087D01*
X135381014Y-107863942D01*
X135377622Y-107712484D01*
X135419393Y-107608101D01*
X135508683Y-107540922D01*
X135602840Y-107519642D01*
X135706921Y-107551264D01*
X135751671Y-107582360D01*
X135830110Y-107696475D01*
X135889682Y-107871882D01*
X135928004Y-108100271D01*
X135942693Y-108373334D01*
X135929404Y-108697168D01*
X135875019Y-109050522D01*
X135781515Y-109363230D01*
X135651827Y-109625881D01*
X135488888Y-109829062D01*
X135379349Y-109915962D01*
X135215353Y-110014321D01*
X135035826Y-110098561D01*
X134865269Y-110157392D01*
X134728187Y-110179526D01*
X134662469Y-110174328D01*
X134491361Y-110131188D01*
X134302940Y-110053979D01*
X134123217Y-109954339D01*
X133978203Y-109843911D01*
X133943709Y-109809923D01*
X133771127Y-109586305D01*
X133638152Y-109319220D01*
X133556814Y-109031852D01*
X133529772Y-108848638D01*
X133507758Y-108537128D01*
X133514715Y-108237861D01*
X133548865Y-107962895D01*
X133608432Y-107724286D01*
X133691639Y-107534092D01*
X133796707Y-107404371D01*
X133803294Y-107399785D01*
X133887380Y-107376160D01*
X134044882Y-107362030D01*
X134276430Y-107357334D01*
X134483872Y-107360200D01*
G37*
X134483872Y-107360200D02*
X134641813Y-107375933D01*
X134748823Y-107414898D01*
X134813999Y-107487463D01*
X134846434Y-107603993D01*
X134855223Y-107774853D01*
X134849463Y-108010408D01*
X134839423Y-108172476D01*
X134812115Y-108339796D01*
X134765271Y-108448108D01*
X134694485Y-108506305D01*
X134595353Y-108523276D01*
X134580214Y-108522922D01*
X134464235Y-108493915D01*
X134386178Y-108413883D01*
X134342178Y-108276332D01*
X134328370Y-108074771D01*
X134328370Y-107846519D01*
X134200529Y-107846519D01*
X134170078Y-107846686D01*
X134112575Y-107854088D01*
X134078262Y-107884979D01*
X134055137Y-107956248D01*
X134031196Y-108084786D01*
X134028084Y-108103033D01*
X133995072Y-108426201D01*
X134004802Y-108726173D01*
X134053903Y-108995865D01*
X134139005Y-109228195D01*
X134256739Y-109416078D01*
X134403736Y-109552431D01*
X134576625Y-109630169D01*
X134772038Y-109642211D01*
X134868354Y-109623815D01*
X135054653Y-109534871D01*
X135206851Y-109380908D01*
X135322972Y-109164304D01*
X135401034Y-108887431D01*
X135415863Y-108805182D01*
X135450861Y-108507420D01*
X135446763Y-108241396D01*
X135403646Y-107981087D01*
X135381014Y-107863942D01*
X135377622Y-107712484D01*
X135419393Y-107608101D01*
X135508683Y-107540922D01*
X135602840Y-107519642D01*
X135706921Y-107551264D01*
X135751671Y-107582360D01*
X135830110Y-107696475D01*
X135889682Y-107871882D01*
X135928004Y-108100271D01*
X135942693Y-108373334D01*
X135929404Y-108697168D01*
X135875019Y-109050522D01*
X135781515Y-109363230D01*
X135651827Y-109625881D01*
X135488888Y-109829062D01*
X135379349Y-109915962D01*
X135215353Y-110014321D01*
X135035826Y-110098561D01*
X134865269Y-110157392D01*
X134728187Y-110179526D01*
X134662469Y-110174328D01*
X134491361Y-110131188D01*
X134302940Y-110053979D01*
X134123217Y-109954339D01*
X133978203Y-109843911D01*
X133943709Y-109809923D01*
X133771127Y-109586305D01*
X133638152Y-109319220D01*
X133556814Y-109031852D01*
X133529772Y-108848638D01*
X133507758Y-108537128D01*
X133514715Y-108237861D01*
X133548865Y-107962895D01*
X133608432Y-107724286D01*
X133691639Y-107534092D01*
X133796707Y-107404371D01*
X133803294Y-107399785D01*
X133887380Y-107376160D01*
X134044882Y-107362030D01*
X134276430Y-107357334D01*
X134483872Y-107360200D01*
G36*
X134444071Y-103561449D02*
G01*
X134752830Y-103564507D01*
X135802671Y-103575556D01*
X135874557Y-103664391D01*
X135928529Y-103751275D01*
X135937765Y-103860804D01*
X135874590Y-103975906D01*
X135862641Y-103990278D01*
X135834209Y-104017386D01*
X135795569Y-104037483D01*
X135735884Y-104052019D01*
X135644313Y-104062445D01*
X135510019Y-104070209D01*
X135322162Y-104076763D01*
X135069904Y-104083556D01*
X134337072Y-104102371D01*
X134883053Y-104704445D01*
X135145164Y-104993571D01*
X135373141Y-105246143D01*
X135557639Y-105453265D01*
X135702208Y-105620259D01*
X135810398Y-105752449D01*
X135885758Y-105855159D01*
X135931839Y-105933713D01*
X135952190Y-105993433D01*
X135950361Y-106039644D01*
X135929903Y-106077669D01*
X135894364Y-106112831D01*
X135847295Y-106150454D01*
X135827425Y-106165297D01*
X135792441Y-106185292D01*
X135746357Y-106200557D01*
X135680008Y-106211728D01*
X135584227Y-106219443D01*
X135449849Y-106224335D01*
X135267709Y-106227042D01*
X135028642Y-106228200D01*
X134723481Y-106228445D01*
X134528380Y-106228369D01*
X134264755Y-106227641D01*
X134061614Y-106225610D01*
X133909792Y-106221641D01*
X133800122Y-106215097D01*
X133723441Y-106205343D01*
X133670581Y-106191742D01*
X133632379Y-106173657D01*
X133599667Y-106150454D01*
X133518357Y-106049025D01*
X133508758Y-105932550D01*
X133572393Y-105809280D01*
X133583977Y-105795334D01*
X133612402Y-105768081D01*
X133650905Y-105747878D01*
X133710347Y-105733270D01*
X133801587Y-105722798D01*
X133935486Y-105715005D01*
X134122905Y-105708435D01*
X134374703Y-105701630D01*
X135105139Y-105682815D01*
X134303004Y-104798519D01*
X134080416Y-104552405D01*
X133886696Y-104335141D01*
X133736836Y-104161159D01*
X133627097Y-104024244D01*
X133553738Y-103918181D01*
X133513020Y-103836754D01*
X133501202Y-103773747D01*
X133514546Y-103722944D01*
X133549309Y-103678131D01*
X133601753Y-103633090D01*
X133630031Y-103612273D01*
X133665290Y-103593501D01*
X133712483Y-103579464D01*
X133780658Y-103569624D01*
X133878859Y-103563441D01*
X134016131Y-103560377D01*
X134201520Y-103559893D01*
X134444071Y-103561449D01*
G37*
X134444071Y-103561449D02*
X134752830Y-103564507D01*
X135802671Y-103575556D01*
X135874557Y-103664391D01*
X135928529Y-103751275D01*
X135937765Y-103860804D01*
X135874590Y-103975906D01*
X135862641Y-103990278D01*
X135834209Y-104017386D01*
X135795569Y-104037483D01*
X135735884Y-104052019D01*
X135644313Y-104062445D01*
X135510019Y-104070209D01*
X135322162Y-104076763D01*
X135069904Y-104083556D01*
X134337072Y-104102371D01*
X134883053Y-104704445D01*
X135145164Y-104993571D01*
X135373141Y-105246143D01*
X135557639Y-105453265D01*
X135702208Y-105620259D01*
X135810398Y-105752449D01*
X135885758Y-105855159D01*
X135931839Y-105933713D01*
X135952190Y-105993433D01*
X135950361Y-106039644D01*
X135929903Y-106077669D01*
X135894364Y-106112831D01*
X135847295Y-106150454D01*
X135827425Y-106165297D01*
X135792441Y-106185292D01*
X135746357Y-106200557D01*
X135680008Y-106211728D01*
X135584227Y-106219443D01*
X135449849Y-106224335D01*
X135267709Y-106227042D01*
X135028642Y-106228200D01*
X134723481Y-106228445D01*
X134528380Y-106228369D01*
X134264755Y-106227641D01*
X134061614Y-106225610D01*
X133909792Y-106221641D01*
X133800122Y-106215097D01*
X133723441Y-106205343D01*
X133670581Y-106191742D01*
X133632379Y-106173657D01*
X133599667Y-106150454D01*
X133518357Y-106049025D01*
X133508758Y-105932550D01*
X133572393Y-105809280D01*
X133583977Y-105795334D01*
X133612402Y-105768081D01*
X133650905Y-105747878D01*
X133710347Y-105733270D01*
X133801587Y-105722798D01*
X133935486Y-105715005D01*
X134122905Y-105708435D01*
X134374703Y-105701630D01*
X135105139Y-105682815D01*
X134303004Y-104798519D01*
X134080416Y-104552405D01*
X133886696Y-104335141D01*
X133736836Y-104161159D01*
X133627097Y-104024244D01*
X133553738Y-103918181D01*
X133513020Y-103836754D01*
X133501202Y-103773747D01*
X133514546Y-103722944D01*
X133549309Y-103678131D01*
X133601753Y-103633090D01*
X133630031Y-103612273D01*
X133665290Y-103593501D01*
X133712483Y-103579464D01*
X133780658Y-103569624D01*
X133878859Y-103563441D01*
X134016131Y-103560377D01*
X134201520Y-103559893D01*
X134444071Y-103561449D01*
G36*
X135713435Y-100019576D02*
G01*
X135780205Y-100023422D01*
X135832846Y-100039414D01*
X135873035Y-100075440D01*
X135902445Y-100139389D01*
X135922751Y-100239149D01*
X135935629Y-100382611D01*
X135942754Y-100577662D01*
X135945801Y-100832191D01*
X135946444Y-101154087D01*
X135946444Y-102121353D01*
X135847295Y-102199343D01*
X135825016Y-102215839D01*
X135789778Y-102235321D01*
X135742822Y-102250191D01*
X135675072Y-102261071D01*
X135577449Y-102268581D01*
X135440876Y-102273341D01*
X135256276Y-102275973D01*
X135014572Y-102277097D01*
X134706687Y-102277334D01*
X134486964Y-102277237D01*
X134225907Y-102276464D01*
X134025015Y-102274395D01*
X133875355Y-102270420D01*
X133767994Y-102263929D01*
X133693999Y-102254313D01*
X133644436Y-102240960D01*
X133610371Y-102223262D01*
X133582873Y-102200609D01*
X133567348Y-102185558D01*
X133545726Y-102158126D01*
X133529354Y-102120260D01*
X133517503Y-102062699D01*
X133509443Y-101976184D01*
X133504444Y-101851452D01*
X133501776Y-101679243D01*
X133500711Y-101450297D01*
X133500518Y-101155352D01*
X133500540Y-101089770D01*
X133501427Y-100799686D01*
X133503980Y-100574179D01*
X133508695Y-100404330D01*
X133516067Y-100281224D01*
X133526594Y-100195944D01*
X133540771Y-100139570D01*
X133559096Y-100103188D01*
X133592384Y-100068213D01*
X133696105Y-100024010D01*
X133815734Y-100027951D01*
X133920889Y-100081833D01*
X133928476Y-100089131D01*
X133949369Y-100118090D01*
X133964922Y-100162562D01*
X133975909Y-100232506D01*
X133983107Y-100337877D01*
X133987288Y-100488633D01*
X133989229Y-100694732D01*
X133989703Y-100966129D01*
X133989703Y-101788149D01*
X134516518Y-101788149D01*
X134516518Y-101246688D01*
X134516786Y-101127792D01*
X134519444Y-100941892D01*
X134526126Y-100811433D01*
X134538264Y-100723254D01*
X134557292Y-100664195D01*
X134584644Y-100621095D01*
X134595256Y-100608952D01*
X134698506Y-100547593D01*
X134819627Y-100545480D01*
X134931691Y-100603944D01*
X134931919Y-100604150D01*
X134960674Y-100636385D01*
X134980859Y-100680698D01*
X134993964Y-100749722D01*
X135001479Y-100856093D01*
X135004896Y-101012445D01*
X135005703Y-101231414D01*
X135005703Y-101791904D01*
X135222074Y-101780619D01*
X135438444Y-101769334D01*
X135448621Y-100962409D01*
X135449714Y-100879021D01*
X135454646Y-100606956D01*
X135462593Y-100399225D01*
X135475911Y-100247180D01*
X135496957Y-100142173D01*
X135528086Y-100075555D01*
X135571658Y-100038679D01*
X135630026Y-100022895D01*
X135705550Y-100019556D01*
X135713435Y-100019576D01*
G37*
X135713435Y-100019576D02*
X135780205Y-100023422D01*
X135832846Y-100039414D01*
X135873035Y-100075440D01*
X135902445Y-100139389D01*
X135922751Y-100239149D01*
X135935629Y-100382611D01*
X135942754Y-100577662D01*
X135945801Y-100832191D01*
X135946444Y-101154087D01*
X135946444Y-102121353D01*
X135847295Y-102199343D01*
X135825016Y-102215839D01*
X135789778Y-102235321D01*
X135742822Y-102250191D01*
X135675072Y-102261071D01*
X135577449Y-102268581D01*
X135440876Y-102273341D01*
X135256276Y-102275973D01*
X135014572Y-102277097D01*
X134706687Y-102277334D01*
X134486964Y-102277237D01*
X134225907Y-102276464D01*
X134025015Y-102274395D01*
X133875355Y-102270420D01*
X133767994Y-102263929D01*
X133693999Y-102254313D01*
X133644436Y-102240960D01*
X133610371Y-102223262D01*
X133582873Y-102200609D01*
X133567348Y-102185558D01*
X133545726Y-102158126D01*
X133529354Y-102120260D01*
X133517503Y-102062699D01*
X133509443Y-101976184D01*
X133504444Y-101851452D01*
X133501776Y-101679243D01*
X133500711Y-101450297D01*
X133500518Y-101155352D01*
X133500540Y-101089770D01*
X133501427Y-100799686D01*
X133503980Y-100574179D01*
X133508695Y-100404330D01*
X133516067Y-100281224D01*
X133526594Y-100195944D01*
X133540771Y-100139570D01*
X133559096Y-100103188D01*
X133592384Y-100068213D01*
X133696105Y-100024010D01*
X133815734Y-100027951D01*
X133920889Y-100081833D01*
X133928476Y-100089131D01*
X133949369Y-100118090D01*
X133964922Y-100162562D01*
X133975909Y-100232506D01*
X133983107Y-100337877D01*
X133987288Y-100488633D01*
X133989229Y-100694732D01*
X133989703Y-100966129D01*
X133989703Y-101788149D01*
X134516518Y-101788149D01*
X134516518Y-101246688D01*
X134516786Y-101127792D01*
X134519444Y-100941892D01*
X134526126Y-100811433D01*
X134538264Y-100723254D01*
X134557292Y-100664195D01*
X134584644Y-100621095D01*
X134595256Y-100608952D01*
X134698506Y-100547593D01*
X134819627Y-100545480D01*
X134931691Y-100603944D01*
X134931919Y-100604150D01*
X134960674Y-100636385D01*
X134980859Y-100680698D01*
X134993964Y-100749722D01*
X135001479Y-100856093D01*
X135004896Y-101012445D01*
X135005703Y-101231414D01*
X135005703Y-101791904D01*
X135222074Y-101780619D01*
X135438444Y-101769334D01*
X135448621Y-100962409D01*
X135449714Y-100879021D01*
X135454646Y-100606956D01*
X135462593Y-100399225D01*
X135475911Y-100247180D01*
X135496957Y-100142173D01*
X135528086Y-100075555D01*
X135571658Y-100038679D01*
X135630026Y-100022895D01*
X135705550Y-100019556D01*
X135713435Y-100019576D01*
G36*
X133799418Y-98877211D02*
G01*
X133723016Y-98867448D01*
X133670343Y-98853858D01*
X133632270Y-98835811D01*
X133599667Y-98812677D01*
X133500518Y-98734686D01*
X133501847Y-98363852D01*
X133989703Y-98363852D01*
X135457259Y-98363852D01*
X135455765Y-98072223D01*
X135447512Y-97849158D01*
X135410007Y-97541164D01*
X135344876Y-97276781D01*
X135254962Y-97070198D01*
X135185868Y-96967066D01*
X135086648Y-96873332D01*
X134945221Y-96795534D01*
X134892000Y-96771777D01*
X134783661Y-96732364D01*
X134702225Y-96724264D01*
X134619797Y-96742973D01*
X134566871Y-96762060D01*
X134367176Y-96871825D01*
X134214665Y-97029621D01*
X134104214Y-97242172D01*
X134030699Y-97516202D01*
X134029026Y-97525515D01*
X134009151Y-97679800D01*
X133995058Y-97867787D01*
X133989703Y-98050911D01*
X133989703Y-98363852D01*
X133501847Y-98363852D01*
X133502498Y-98182380D01*
X133503491Y-98066394D01*
X133514926Y-97738116D01*
X133540535Y-97468244D01*
X133582393Y-97244596D01*
X133642576Y-97054985D01*
X133723160Y-96887228D01*
X133729549Y-96876033D01*
X133851943Y-96683327D01*
X133975162Y-96542148D01*
X134120114Y-96432759D01*
X134307704Y-96335426D01*
X134339755Y-96321153D01*
X134550375Y-96245895D01*
X134734968Y-96222658D01*
X134918390Y-96251330D01*
X135125497Y-96331803D01*
X135131140Y-96334455D01*
X135362545Y-96469294D01*
X135551208Y-96638242D01*
X135699767Y-96847327D01*
X135810862Y-97102580D01*
X135887131Y-97410030D01*
X135931214Y-97775706D01*
X135945751Y-98205637D01*
X135945766Y-98217543D01*
X135945300Y-98417610D01*
X135941845Y-98557379D01*
X135933199Y-98651091D01*
X135917158Y-98712988D01*
X135891519Y-98757312D01*
X135854080Y-98798303D01*
X135761717Y-98890667D01*
X134730266Y-98890667D01*
X134524914Y-98890582D01*
X134262298Y-98889832D01*
X134059930Y-98887773D01*
X133989703Y-98885917D01*
X133908680Y-98883776D01*
X133799418Y-98877211D01*
G37*
X133799418Y-98877211D02*
X133723016Y-98867448D01*
X133670343Y-98853858D01*
X133632270Y-98835811D01*
X133599667Y-98812677D01*
X133500518Y-98734686D01*
X133501847Y-98363852D01*
X133989703Y-98363852D01*
X135457259Y-98363852D01*
X135455765Y-98072223D01*
X135447512Y-97849158D01*
X135410007Y-97541164D01*
X135344876Y-97276781D01*
X135254962Y-97070198D01*
X135185868Y-96967066D01*
X135086648Y-96873332D01*
X134945221Y-96795534D01*
X134892000Y-96771777D01*
X134783661Y-96732364D01*
X134702225Y-96724264D01*
X134619797Y-96742973D01*
X134566871Y-96762060D01*
X134367176Y-96871825D01*
X134214665Y-97029621D01*
X134104214Y-97242172D01*
X134030699Y-97516202D01*
X134029026Y-97525515D01*
X134009151Y-97679800D01*
X133995058Y-97867787D01*
X133989703Y-98050911D01*
X133989703Y-98363852D01*
X133501847Y-98363852D01*
X133502498Y-98182380D01*
X133503491Y-98066394D01*
X133514926Y-97738116D01*
X133540535Y-97468244D01*
X133582393Y-97244596D01*
X133642576Y-97054985D01*
X133723160Y-96887228D01*
X133729549Y-96876033D01*
X133851943Y-96683327D01*
X133975162Y-96542148D01*
X134120114Y-96432759D01*
X134307704Y-96335426D01*
X134339755Y-96321153D01*
X134550375Y-96245895D01*
X134734968Y-96222658D01*
X134918390Y-96251330D01*
X135125497Y-96331803D01*
X135131140Y-96334455D01*
X135362545Y-96469294D01*
X135551208Y-96638242D01*
X135699767Y-96847327D01*
X135810862Y-97102580D01*
X135887131Y-97410030D01*
X135931214Y-97775706D01*
X135945751Y-98205637D01*
X135945766Y-98217543D01*
X135945300Y-98417610D01*
X135941845Y-98557379D01*
X135933199Y-98651091D01*
X135917158Y-98712988D01*
X135891519Y-98757312D01*
X135854080Y-98798303D01*
X135761717Y-98890667D01*
X134730266Y-98890667D01*
X134524914Y-98890582D01*
X134262298Y-98889832D01*
X134059930Y-98887773D01*
X133989703Y-98885917D01*
X133908680Y-98883776D01*
X133799418Y-98877211D01*
G36*
X135778131Y-88912433D02*
G01*
X135847738Y-88961290D01*
X135915409Y-89049965D01*
X135916551Y-89052484D01*
X135939886Y-89117783D01*
X135941652Y-89175966D01*
X135915073Y-89232340D01*
X135853369Y-89292208D01*
X135749764Y-89360876D01*
X135597480Y-89443650D01*
X135389738Y-89545834D01*
X135119762Y-89672733D01*
X135015152Y-89721512D01*
X134804541Y-89820675D01*
X134622521Y-89907657D01*
X134479033Y-89977638D01*
X134384022Y-90025795D01*
X134347432Y-90047304D01*
X134349368Y-90051833D01*
X134395860Y-90085139D01*
X134494320Y-90142777D01*
X134633043Y-90218099D01*
X134800324Y-90304461D01*
X134905285Y-90357703D01*
X135089798Y-90454203D01*
X135219854Y-90529164D01*
X135304779Y-90589883D01*
X135353895Y-90643652D01*
X135376528Y-90697768D01*
X135382000Y-90759523D01*
X135380416Y-90794531D01*
X135366392Y-90848252D01*
X135330180Y-90899298D01*
X135262604Y-90954625D01*
X135154487Y-91021188D01*
X134996653Y-91105941D01*
X134779926Y-91215840D01*
X134715742Y-91248283D01*
X134560180Y-91329809D01*
X134439638Y-91397260D01*
X134365009Y-91444368D01*
X134347185Y-91464866D01*
X134358088Y-91469423D01*
X134427787Y-91500671D01*
X134550916Y-91556874D01*
X134717086Y-91633261D01*
X134915912Y-91725065D01*
X135137006Y-91827516D01*
X135327742Y-91916565D01*
X135534372Y-92015310D01*
X135686837Y-92092213D01*
X135793640Y-92152142D01*
X135863285Y-92199966D01*
X135904275Y-92240553D01*
X135925112Y-92278773D01*
X135934754Y-92310138D01*
X135935249Y-92393823D01*
X135884108Y-92484298D01*
X135880824Y-92488633D01*
X135805372Y-92562246D01*
X135731289Y-92599075D01*
X135729158Y-92599229D01*
X135670284Y-92584093D01*
X135555064Y-92541212D01*
X135393914Y-92475350D01*
X135197248Y-92391268D01*
X134975483Y-92293730D01*
X134739031Y-92187498D01*
X134498310Y-92077335D01*
X134263734Y-91968003D01*
X134045718Y-91864265D01*
X133854677Y-91770883D01*
X133701026Y-91692620D01*
X133595180Y-91634239D01*
X133547555Y-91600502D01*
X133502992Y-91485810D01*
X133524198Y-91346818D01*
X133539854Y-91328937D01*
X133613691Y-91276174D01*
X133736226Y-91202168D01*
X133895284Y-91114111D01*
X134078689Y-91019198D01*
X134609500Y-90753286D01*
X134120861Y-90509330D01*
X134056559Y-90477011D01*
X133882066Y-90387081D01*
X133732768Y-90306987D01*
X133622819Y-90244439D01*
X133566370Y-90207151D01*
X133562226Y-90203333D01*
X133511270Y-90109596D01*
X133505659Y-89992722D01*
X133547555Y-89889252D01*
X133557052Y-89881165D01*
X133625803Y-89840298D01*
X133750973Y-89774508D01*
X133923734Y-89688159D01*
X134135257Y-89585618D01*
X134376715Y-89471249D01*
X134639280Y-89349417D01*
X134786358Y-89281948D01*
X135055449Y-89159372D01*
X135267710Y-89064517D01*
X135430825Y-88994435D01*
X135552478Y-88946178D01*
X135640351Y-88916798D01*
X135702129Y-88903345D01*
X135745494Y-88902873D01*
X135778131Y-88912433D01*
G37*
X135778131Y-88912433D02*
X135847738Y-88961290D01*
X135915409Y-89049965D01*
X135916551Y-89052484D01*
X135939886Y-89117783D01*
X135941652Y-89175966D01*
X135915073Y-89232340D01*
X135853369Y-89292208D01*
X135749764Y-89360876D01*
X135597480Y-89443650D01*
X135389738Y-89545834D01*
X135119762Y-89672733D01*
X135015152Y-89721512D01*
X134804541Y-89820675D01*
X134622521Y-89907657D01*
X134479033Y-89977638D01*
X134384022Y-90025795D01*
X134347432Y-90047304D01*
X134349368Y-90051833D01*
X134395860Y-90085139D01*
X134494320Y-90142777D01*
X134633043Y-90218099D01*
X134800324Y-90304461D01*
X134905285Y-90357703D01*
X135089798Y-90454203D01*
X135219854Y-90529164D01*
X135304779Y-90589883D01*
X135353895Y-90643652D01*
X135376528Y-90697768D01*
X135382000Y-90759523D01*
X135380416Y-90794531D01*
X135366392Y-90848252D01*
X135330180Y-90899298D01*
X135262604Y-90954625D01*
X135154487Y-91021188D01*
X134996653Y-91105941D01*
X134779926Y-91215840D01*
X134715742Y-91248283D01*
X134560180Y-91329809D01*
X134439638Y-91397260D01*
X134365009Y-91444368D01*
X134347185Y-91464866D01*
X134358088Y-91469423D01*
X134427787Y-91500671D01*
X134550916Y-91556874D01*
X134717086Y-91633261D01*
X134915912Y-91725065D01*
X135137006Y-91827516D01*
X135327742Y-91916565D01*
X135534372Y-92015310D01*
X135686837Y-92092213D01*
X135793640Y-92152142D01*
X135863285Y-92199966D01*
X135904275Y-92240553D01*
X135925112Y-92278773D01*
X135934754Y-92310138D01*
X135935249Y-92393823D01*
X135884108Y-92484298D01*
X135880824Y-92488633D01*
X135805372Y-92562246D01*
X135731289Y-92599075D01*
X135729158Y-92599229D01*
X135670284Y-92584093D01*
X135555064Y-92541212D01*
X135393914Y-92475350D01*
X135197248Y-92391268D01*
X134975483Y-92293730D01*
X134739031Y-92187498D01*
X134498310Y-92077335D01*
X134263734Y-91968003D01*
X134045718Y-91864265D01*
X133854677Y-91770883D01*
X133701026Y-91692620D01*
X133595180Y-91634239D01*
X133547555Y-91600502D01*
X133502992Y-91485810D01*
X133524198Y-91346818D01*
X133539854Y-91328937D01*
X133613691Y-91276174D01*
X133736226Y-91202168D01*
X133895284Y-91114111D01*
X134078689Y-91019198D01*
X134609500Y-90753286D01*
X134120861Y-90509330D01*
X134056559Y-90477011D01*
X133882066Y-90387081D01*
X133732768Y-90306987D01*
X133622819Y-90244439D01*
X133566370Y-90207151D01*
X133562226Y-90203333D01*
X133511270Y-90109596D01*
X133505659Y-89992722D01*
X133547555Y-89889252D01*
X133557052Y-89881165D01*
X133625803Y-89840298D01*
X133750973Y-89774508D01*
X133923734Y-89688159D01*
X134135257Y-89585618D01*
X134376715Y-89471249D01*
X134639280Y-89349417D01*
X134786358Y-89281948D01*
X135055449Y-89159372D01*
X135267710Y-89064517D01*
X135430825Y-88994435D01*
X135552478Y-88946178D01*
X135640351Y-88916798D01*
X135702129Y-88903345D01*
X135745494Y-88902873D01*
X135778131Y-88912433D01*
G36*
X135874510Y-87558910D02*
G01*
X135923744Y-87637953D01*
X135946444Y-87714667D01*
X135926836Y-87784685D01*
X135874510Y-87870424D01*
X135802575Y-87959260D01*
X133644387Y-87959260D01*
X133572453Y-87870424D01*
X133514204Y-87765889D01*
X133511418Y-87646554D01*
X133579728Y-87541758D01*
X133595278Y-87528839D01*
X133626837Y-87510619D01*
X133672442Y-87496595D01*
X133740840Y-87486222D01*
X133840773Y-87478957D01*
X133980987Y-87474254D01*
X134170226Y-87471569D01*
X134417234Y-87470357D01*
X134730756Y-87470074D01*
X135802575Y-87470074D01*
X135874510Y-87558910D01*
G37*
X135874510Y-87558910D02*
X135923744Y-87637953D01*
X135946444Y-87714667D01*
X135926836Y-87784685D01*
X135874510Y-87870424D01*
X135802575Y-87959260D01*
X133644387Y-87959260D01*
X133572453Y-87870424D01*
X133514204Y-87765889D01*
X133511418Y-87646554D01*
X133579728Y-87541758D01*
X133595278Y-87528839D01*
X133626837Y-87510619D01*
X133672442Y-87496595D01*
X133740840Y-87486222D01*
X133840773Y-87478957D01*
X133980987Y-87474254D01*
X134170226Y-87471569D01*
X134417234Y-87470357D01*
X134730756Y-87470074D01*
X135802575Y-87470074D01*
X135874510Y-87558910D01*
G36*
X135772140Y-84061811D02*
G01*
X135880592Y-84147291D01*
X135892984Y-84163761D01*
X135909104Y-84197794D01*
X135921648Y-84249213D01*
X135931056Y-84326285D01*
X135937768Y-84437277D01*
X135942223Y-84590457D01*
X135944861Y-84794092D01*
X135946122Y-85056450D01*
X135946444Y-85385799D01*
X135946439Y-85452557D01*
X135946140Y-85766300D01*
X135945007Y-86014682D01*
X135942535Y-86206038D01*
X135938217Y-86348703D01*
X135931545Y-86451013D01*
X135922012Y-86521304D01*
X135909113Y-86567909D01*
X135892339Y-86599165D01*
X135871185Y-86623408D01*
X135762126Y-86686094D01*
X135636869Y-86690916D01*
X135526074Y-86636391D01*
X135521229Y-86631856D01*
X135493361Y-86594513D01*
X135474845Y-86537505D01*
X135463865Y-86446940D01*
X135458608Y-86308927D01*
X135457259Y-86109576D01*
X135457259Y-85645037D01*
X134578037Y-85645037D01*
X134325278Y-85644786D01*
X134103057Y-85643426D01*
X133937111Y-85640152D01*
X133817387Y-85634165D01*
X133733833Y-85624662D01*
X133676397Y-85610842D01*
X133635026Y-85591904D01*
X133599667Y-85567047D01*
X133590313Y-85559411D01*
X133514838Y-85455485D01*
X133509626Y-85340887D01*
X133575777Y-85231112D01*
X133602696Y-85207850D01*
X133638025Y-85189611D01*
X133690835Y-85176209D01*
X133770757Y-85166905D01*
X133887420Y-85160959D01*
X134050453Y-85157628D01*
X134269486Y-85156173D01*
X134554148Y-85155852D01*
X135457259Y-85155852D01*
X135457259Y-84669398D01*
X135457263Y-84632399D01*
X135458013Y-84444007D01*
X135461810Y-84314525D01*
X135471142Y-84229884D01*
X135488499Y-84176012D01*
X135516370Y-84138839D01*
X135557246Y-84104295D01*
X135659538Y-84051470D01*
X135772140Y-84061811D01*
G37*
X135772140Y-84061811D02*
X135880592Y-84147291D01*
X135892984Y-84163761D01*
X135909104Y-84197794D01*
X135921648Y-84249213D01*
X135931056Y-84326285D01*
X135937768Y-84437277D01*
X135942223Y-84590457D01*
X135944861Y-84794092D01*
X135946122Y-85056450D01*
X135946444Y-85385799D01*
X135946439Y-85452557D01*
X135946140Y-85766300D01*
X135945007Y-86014682D01*
X135942535Y-86206038D01*
X135938217Y-86348703D01*
X135931545Y-86451013D01*
X135922012Y-86521304D01*
X135909113Y-86567909D01*
X135892339Y-86599165D01*
X135871185Y-86623408D01*
X135762126Y-86686094D01*
X135636869Y-86690916D01*
X135526074Y-86636391D01*
X135521229Y-86631856D01*
X135493361Y-86594513D01*
X135474845Y-86537505D01*
X135463865Y-86446940D01*
X135458608Y-86308927D01*
X135457259Y-86109576D01*
X135457259Y-85645037D01*
X134578037Y-85645037D01*
X134325278Y-85644786D01*
X134103057Y-85643426D01*
X133937111Y-85640152D01*
X133817387Y-85634165D01*
X133733833Y-85624662D01*
X133676397Y-85610842D01*
X133635026Y-85591904D01*
X133599667Y-85567047D01*
X133590313Y-85559411D01*
X133514838Y-85455485D01*
X133509626Y-85340887D01*
X133575777Y-85231112D01*
X133602696Y-85207850D01*
X133638025Y-85189611D01*
X133690835Y-85176209D01*
X133770757Y-85166905D01*
X133887420Y-85160959D01*
X134050453Y-85157628D01*
X134269486Y-85156173D01*
X134554148Y-85155852D01*
X135457259Y-85155852D01*
X135457259Y-84669398D01*
X135457263Y-84632399D01*
X135458013Y-84444007D01*
X135461810Y-84314525D01*
X135471142Y-84229884D01*
X135488499Y-84176012D01*
X135516370Y-84138839D01*
X135557246Y-84104295D01*
X135659538Y-84051470D01*
X135772140Y-84061811D01*
G36*
X135854080Y-80732660D02*
G01*
X135928223Y-80837255D01*
X135937188Y-80948018D01*
X135871185Y-81054223D01*
X135838617Y-81081842D01*
X135785643Y-81106548D01*
X135705751Y-81121007D01*
X135582841Y-81127792D01*
X135400814Y-81129482D01*
X135005703Y-81129482D01*
X135005703Y-82785186D01*
X135383710Y-82785186D01*
X135390748Y-82785187D01*
X135563072Y-82786645D01*
X135678154Y-82793191D01*
X135753408Y-82808245D01*
X135806246Y-82835224D01*
X135854080Y-82877549D01*
X135928223Y-82982144D01*
X135937188Y-83092907D01*
X135871185Y-83199112D01*
X135850551Y-83217886D01*
X135823198Y-83234854D01*
X135783943Y-83248475D01*
X135725745Y-83259069D01*
X135641566Y-83266957D01*
X135524366Y-83272459D01*
X135367105Y-83275897D01*
X135162744Y-83277591D01*
X134904243Y-83277862D01*
X134584564Y-83277030D01*
X134196666Y-83275418D01*
X134149417Y-83275189D01*
X133943543Y-83273236D01*
X133797932Y-83268827D01*
X133699998Y-83260342D01*
X133637151Y-83246158D01*
X133596805Y-83224653D01*
X133566370Y-83194205D01*
X133508313Y-83082680D01*
X133517985Y-82966186D01*
X133599667Y-82863176D01*
X133643677Y-82833146D01*
X133705462Y-82808307D01*
X133792224Y-82793748D01*
X133920711Y-82786898D01*
X134107667Y-82785186D01*
X134516518Y-82785186D01*
X134516518Y-81129482D01*
X134067096Y-81129482D01*
X133947794Y-81129239D01*
X133793360Y-81126696D01*
X133691579Y-81119441D01*
X133628145Y-81105119D01*
X133588752Y-81081373D01*
X133559096Y-81045850D01*
X133508864Y-80938345D01*
X133517755Y-80820724D01*
X133599667Y-80718287D01*
X133620516Y-80702768D01*
X133655597Y-80682983D01*
X133702029Y-80667880D01*
X133768943Y-80656827D01*
X133865467Y-80649197D01*
X134000732Y-80644358D01*
X134183867Y-80641682D01*
X134424002Y-80640538D01*
X134730266Y-80640297D01*
X135761717Y-80640297D01*
X135854080Y-80732660D01*
G37*
X135854080Y-80732660D02*
X135928223Y-80837255D01*
X135937188Y-80948018D01*
X135871185Y-81054223D01*
X135838617Y-81081842D01*
X135785643Y-81106548D01*
X135705751Y-81121007D01*
X135582841Y-81127792D01*
X135400814Y-81129482D01*
X135005703Y-81129482D01*
X135005703Y-82785186D01*
X135383710Y-82785186D01*
X135390748Y-82785187D01*
X135563072Y-82786645D01*
X135678154Y-82793191D01*
X135753408Y-82808245D01*
X135806246Y-82835224D01*
X135854080Y-82877549D01*
X135928223Y-82982144D01*
X135937188Y-83092907D01*
X135871185Y-83199112D01*
X135850551Y-83217886D01*
X135823198Y-83234854D01*
X135783943Y-83248475D01*
X135725745Y-83259069D01*
X135641566Y-83266957D01*
X135524366Y-83272459D01*
X135367105Y-83275897D01*
X135162744Y-83277591D01*
X134904243Y-83277862D01*
X134584564Y-83277030D01*
X134196666Y-83275418D01*
X134149417Y-83275189D01*
X133943543Y-83273236D01*
X133797932Y-83268827D01*
X133699998Y-83260342D01*
X133637151Y-83246158D01*
X133596805Y-83224653D01*
X133566370Y-83194205D01*
X133508313Y-83082680D01*
X133517985Y-82966186D01*
X133599667Y-82863176D01*
X133643677Y-82833146D01*
X133705462Y-82808307D01*
X133792224Y-82793748D01*
X133920711Y-82786898D01*
X134107667Y-82785186D01*
X134516518Y-82785186D01*
X134516518Y-81129482D01*
X134067096Y-81129482D01*
X133947794Y-81129239D01*
X133793360Y-81126696D01*
X133691579Y-81119441D01*
X133628145Y-81105119D01*
X133588752Y-81081373D01*
X133559096Y-81045850D01*
X133508864Y-80938345D01*
X133517755Y-80820724D01*
X133599667Y-80718287D01*
X133620516Y-80702768D01*
X133655597Y-80682983D01*
X133702029Y-80667880D01*
X133768943Y-80656827D01*
X133865467Y-80649197D01*
X134000732Y-80644358D01*
X134183867Y-80641682D01*
X134424002Y-80640538D01*
X134730266Y-80640297D01*
X135761717Y-80640297D01*
X135854080Y-80732660D01*
G36*
X155775428Y-109253070D02*
G01*
X156059785Y-109346279D01*
X156263082Y-109453979D01*
X156585625Y-109693738D01*
X156840185Y-109977974D01*
X157026738Y-110296237D01*
X157145260Y-110638074D01*
X157195725Y-110993034D01*
X157178110Y-111350667D01*
X157092390Y-111700521D01*
X156938539Y-112032144D01*
X156716534Y-112335086D01*
X156426350Y-112598896D01*
X156067961Y-112813121D01*
X155941711Y-112870554D01*
X155813746Y-112917083D01*
X155685818Y-112943190D01*
X155527586Y-112954634D01*
X155308710Y-112957169D01*
X155126534Y-112955636D01*
X154959108Y-112946398D01*
X154828483Y-112923748D01*
X154704658Y-112882029D01*
X154557635Y-112815586D01*
X154518456Y-112796366D01*
X154159695Y-112569191D01*
X153864517Y-112283469D01*
X153639849Y-111947308D01*
X153492617Y-111568818D01*
X153451530Y-111374612D01*
X153432305Y-110980625D01*
X153494513Y-110599023D01*
X153631778Y-110240996D01*
X153837721Y-109917736D01*
X154105963Y-109640430D01*
X154430127Y-109420269D01*
X154803834Y-109268444D01*
X155109658Y-109212896D01*
X155447149Y-109207892D01*
X155775428Y-109253070D01*
G37*
X155775428Y-109253070D02*
X156059785Y-109346279D01*
X156263082Y-109453979D01*
X156585625Y-109693738D01*
X156840185Y-109977974D01*
X157026738Y-110296237D01*
X157145260Y-110638074D01*
X157195725Y-110993034D01*
X157178110Y-111350667D01*
X157092390Y-111700521D01*
X156938539Y-112032144D01*
X156716534Y-112335086D01*
X156426350Y-112598896D01*
X156067961Y-112813121D01*
X155941711Y-112870554D01*
X155813746Y-112917083D01*
X155685818Y-112943190D01*
X155527586Y-112954634D01*
X155308710Y-112957169D01*
X155126534Y-112955636D01*
X154959108Y-112946398D01*
X154828483Y-112923748D01*
X154704658Y-112882029D01*
X154557635Y-112815586D01*
X154518456Y-112796366D01*
X154159695Y-112569191D01*
X153864517Y-112283469D01*
X153639849Y-111947308D01*
X153492617Y-111568818D01*
X153451530Y-111374612D01*
X153432305Y-110980625D01*
X153494513Y-110599023D01*
X153631778Y-110240996D01*
X153837721Y-109917736D01*
X154105963Y-109640430D01*
X154430127Y-109420269D01*
X154803834Y-109268444D01*
X155109658Y-109212896D01*
X155447149Y-109207892D01*
X155775428Y-109253070D01*
G36*
X143941592Y-86162629D02*
G01*
X143520349Y-86152969D01*
X143148850Y-86125351D01*
X142806888Y-86077636D01*
X142474258Y-86007685D01*
X142130753Y-85913360D01*
X141720161Y-85770324D01*
X141165880Y-85507617D01*
X140669415Y-85185370D01*
X140235457Y-84808513D01*
X139868699Y-84381976D01*
X139573833Y-83910687D01*
X139355551Y-83399578D01*
X139218545Y-82853578D01*
X139217446Y-82847008D01*
X139179052Y-82447982D01*
X139184176Y-82009556D01*
X139229660Y-81562989D01*
X139257008Y-81422929D01*
X141681808Y-81422929D01*
X141683206Y-81580954D01*
X141698988Y-81698588D01*
X141733485Y-81804100D01*
X141791025Y-81925757D01*
X141945157Y-82159556D01*
X142163189Y-82362104D01*
X142444164Y-82524236D01*
X142792484Y-82647494D01*
X143212555Y-82733422D01*
X143708780Y-82783563D01*
X144285564Y-82799457D01*
X144416693Y-82798685D01*
X145024265Y-82775834D01*
X145552936Y-82720345D01*
X146008282Y-82630871D01*
X146395882Y-82506060D01*
X146721314Y-82344563D01*
X146990157Y-82145031D01*
X147072207Y-82062252D01*
X147243145Y-81805705D01*
X147347164Y-81504545D01*
X147383674Y-81171817D01*
X147352081Y-80820569D01*
X147251796Y-80463847D01*
X147082225Y-80114696D01*
X146932157Y-79864337D01*
X142200325Y-79864337D01*
X142051040Y-80091936D01*
X141997262Y-80179462D01*
X141889830Y-80379875D01*
X141804278Y-80569893D01*
X141775311Y-80653109D01*
X141717483Y-80917898D01*
X141687953Y-81252689D01*
X141681808Y-81422929D01*
X139257008Y-81422929D01*
X139312342Y-81139543D01*
X139429065Y-80770478D01*
X139500095Y-80612947D01*
X139608056Y-80407781D01*
X139731534Y-80196958D01*
X139856939Y-80002478D01*
X139970681Y-79846339D01*
X140059170Y-79750538D01*
X140083463Y-79728546D01*
X140091956Y-79702328D01*
X140049796Y-79684805D01*
X139943545Y-79671891D01*
X139759763Y-79659499D01*
X139376810Y-79636739D01*
X139352964Y-76150007D01*
X139558801Y-76270635D01*
X139570969Y-76277825D01*
X139628099Y-76312903D01*
X139678993Y-76344725D01*
X139728074Y-76373462D01*
X139779762Y-76399286D01*
X139838480Y-76422368D01*
X139908648Y-76442879D01*
X139994689Y-76460991D01*
X140101023Y-76476874D01*
X140232073Y-76490700D01*
X140392259Y-76502640D01*
X140586004Y-76512866D01*
X140817729Y-76521548D01*
X141091855Y-76528858D01*
X141412804Y-76534967D01*
X141784997Y-76540046D01*
X142212856Y-76544267D01*
X142700802Y-76547800D01*
X143253258Y-76550818D01*
X143874644Y-76553490D01*
X144569381Y-76555990D01*
X145341893Y-76558486D01*
X146196599Y-76561152D01*
X147137921Y-76564158D01*
X154079678Y-76586918D01*
X154091580Y-78396327D01*
X154092382Y-78527910D01*
X154093970Y-78915055D01*
X154094293Y-79269157D01*
X154093415Y-79580551D01*
X154091403Y-79839571D01*
X154088324Y-80036552D01*
X154084242Y-80161829D01*
X154079224Y-80205735D01*
X154063321Y-80200117D01*
X153987925Y-80158215D01*
X153878281Y-80088811D01*
X153867799Y-80081888D01*
X153783142Y-80028077D01*
X153700774Y-79982958D01*
X153612210Y-79945768D01*
X153508966Y-79915741D01*
X153382558Y-79892111D01*
X153224502Y-79874114D01*
X153026313Y-79860985D01*
X152779507Y-79851958D01*
X152475599Y-79846269D01*
X152106105Y-79843153D01*
X151662541Y-79841844D01*
X151136422Y-79841578D01*
X150725656Y-79842054D01*
X150322377Y-79843515D01*
X149956711Y-79845853D01*
X149637563Y-79848964D01*
X149373836Y-79852741D01*
X149174435Y-79857078D01*
X149048265Y-79861869D01*
X149004230Y-79867007D01*
X149011065Y-79883578D01*
X149059194Y-79956427D01*
X149138237Y-80060465D01*
X149244534Y-80211292D01*
X149401155Y-80494675D01*
X149540864Y-80818571D01*
X149649508Y-81152747D01*
X149704909Y-81433513D01*
X149740223Y-81783192D01*
X149752458Y-82161643D01*
X149741599Y-82539659D01*
X149707630Y-82888036D01*
X149650536Y-83177568D01*
X149554363Y-83472377D01*
X149321220Y-83964187D01*
X149011271Y-84419568D01*
X148631654Y-84830116D01*
X148189506Y-85187432D01*
X147691964Y-85483114D01*
X147539395Y-85556521D01*
X147024771Y-85762231D01*
X146466239Y-85923059D01*
X145853954Y-86041037D01*
X145178069Y-86118196D01*
X144428740Y-86156569D01*
X144285564Y-86158351D01*
X143941592Y-86162629D01*
G37*
X143941592Y-86162629D02*
X143520349Y-86152969D01*
X143148850Y-86125351D01*
X142806888Y-86077636D01*
X142474258Y-86007685D01*
X142130753Y-85913360D01*
X141720161Y-85770324D01*
X141165880Y-85507617D01*
X140669415Y-85185370D01*
X140235457Y-84808513D01*
X139868699Y-84381976D01*
X139573833Y-83910687D01*
X139355551Y-83399578D01*
X139218545Y-82853578D01*
X139217446Y-82847008D01*
X139179052Y-82447982D01*
X139184176Y-82009556D01*
X139229660Y-81562989D01*
X139257008Y-81422929D01*
X141681808Y-81422929D01*
X141683206Y-81580954D01*
X141698988Y-81698588D01*
X141733485Y-81804100D01*
X141791025Y-81925757D01*
X141945157Y-82159556D01*
X142163189Y-82362104D01*
X142444164Y-82524236D01*
X142792484Y-82647494D01*
X143212555Y-82733422D01*
X143708780Y-82783563D01*
X144285564Y-82799457D01*
X144416693Y-82798685D01*
X145024265Y-82775834D01*
X145552936Y-82720345D01*
X146008282Y-82630871D01*
X146395882Y-82506060D01*
X146721314Y-82344563D01*
X146990157Y-82145031D01*
X147072207Y-82062252D01*
X147243145Y-81805705D01*
X147347164Y-81504545D01*
X147383674Y-81171817D01*
X147352081Y-80820569D01*
X147251796Y-80463847D01*
X147082225Y-80114696D01*
X146932157Y-79864337D01*
X142200325Y-79864337D01*
X142051040Y-80091936D01*
X141997262Y-80179462D01*
X141889830Y-80379875D01*
X141804278Y-80569893D01*
X141775311Y-80653109D01*
X141717483Y-80917898D01*
X141687953Y-81252689D01*
X141681808Y-81422929D01*
X139257008Y-81422929D01*
X139312342Y-81139543D01*
X139429065Y-80770478D01*
X139500095Y-80612947D01*
X139608056Y-80407781D01*
X139731534Y-80196958D01*
X139856939Y-80002478D01*
X139970681Y-79846339D01*
X140059170Y-79750538D01*
X140083463Y-79728546D01*
X140091956Y-79702328D01*
X140049796Y-79684805D01*
X139943545Y-79671891D01*
X139759763Y-79659499D01*
X139376810Y-79636739D01*
X139352964Y-76150007D01*
X139558801Y-76270635D01*
X139570969Y-76277825D01*
X139628099Y-76312903D01*
X139678993Y-76344725D01*
X139728074Y-76373462D01*
X139779762Y-76399286D01*
X139838480Y-76422368D01*
X139908648Y-76442879D01*
X139994689Y-76460991D01*
X140101023Y-76476874D01*
X140232073Y-76490700D01*
X140392259Y-76502640D01*
X140586004Y-76512866D01*
X140817729Y-76521548D01*
X141091855Y-76528858D01*
X141412804Y-76534967D01*
X141784997Y-76540046D01*
X142212856Y-76544267D01*
X142700802Y-76547800D01*
X143253258Y-76550818D01*
X143874644Y-76553490D01*
X144569381Y-76555990D01*
X145341893Y-76558486D01*
X146196599Y-76561152D01*
X147137921Y-76564158D01*
X154079678Y-76586918D01*
X154091580Y-78396327D01*
X154092382Y-78527910D01*
X154093970Y-78915055D01*
X154094293Y-79269157D01*
X154093415Y-79580551D01*
X154091403Y-79839571D01*
X154088324Y-80036552D01*
X154084242Y-80161829D01*
X154079224Y-80205735D01*
X154063321Y-80200117D01*
X153987925Y-80158215D01*
X153878281Y-80088811D01*
X153867799Y-80081888D01*
X153783142Y-80028077D01*
X153700774Y-79982958D01*
X153612210Y-79945768D01*
X153508966Y-79915741D01*
X153382558Y-79892111D01*
X153224502Y-79874114D01*
X153026313Y-79860985D01*
X152779507Y-79851958D01*
X152475599Y-79846269D01*
X152106105Y-79843153D01*
X151662541Y-79841844D01*
X151136422Y-79841578D01*
X150725656Y-79842054D01*
X150322377Y-79843515D01*
X149956711Y-79845853D01*
X149637563Y-79848964D01*
X149373836Y-79852741D01*
X149174435Y-79857078D01*
X149048265Y-79861869D01*
X149004230Y-79867007D01*
X149011065Y-79883578D01*
X149059194Y-79956427D01*
X149138237Y-80060465D01*
X149244534Y-80211292D01*
X149401155Y-80494675D01*
X149540864Y-80818571D01*
X149649508Y-81152747D01*
X149704909Y-81433513D01*
X149740223Y-81783192D01*
X149752458Y-82161643D01*
X149741599Y-82539659D01*
X149707630Y-82888036D01*
X149650536Y-83177568D01*
X149554363Y-83472377D01*
X149321220Y-83964187D01*
X149011271Y-84419568D01*
X148631654Y-84830116D01*
X148189506Y-85187432D01*
X147691964Y-85483114D01*
X147539395Y-85556521D01*
X147024771Y-85762231D01*
X146466239Y-85923059D01*
X145853954Y-86041037D01*
X145178069Y-86118196D01*
X144428740Y-86156569D01*
X144285564Y-86158351D01*
X143941592Y-86162629D01*
G36*
X142509227Y-96451588D02*
G01*
X142142203Y-96431145D01*
X141800706Y-96386962D01*
X141516237Y-96320292D01*
X141223560Y-96213912D01*
X140741231Y-95967323D01*
X140316873Y-95652132D01*
X139953377Y-95271601D01*
X139653635Y-94828995D01*
X139420540Y-94327576D01*
X139256982Y-93770610D01*
X139220092Y-93543493D01*
X139194455Y-93218947D01*
X139188689Y-92865494D01*
X139202330Y-92512671D01*
X139234914Y-92190015D01*
X139277249Y-91972002D01*
X141462346Y-91972002D01*
X141466151Y-92284811D01*
X141517844Y-92581859D01*
X141624632Y-92829800D01*
X141791328Y-93044315D01*
X141852987Y-93104659D01*
X142063263Y-93261775D01*
X142289912Y-93346783D01*
X142562633Y-93372312D01*
X142706713Y-93365396D01*
X143003317Y-93296998D01*
X143257897Y-93153309D01*
X143473316Y-92931711D01*
X143652441Y-92629590D01*
X143798137Y-92244329D01*
X143836372Y-92089015D01*
X143862551Y-91900988D01*
X143877090Y-91664357D01*
X143881978Y-91358065D01*
X143881975Y-91308310D01*
X143879178Y-91079166D01*
X143872417Y-90882332D01*
X143862579Y-90737382D01*
X143850551Y-90663889D01*
X143846646Y-90655432D01*
X143822124Y-90628089D01*
X143772846Y-90608724D01*
X143685557Y-90595997D01*
X143547002Y-90588566D01*
X143343927Y-90585090D01*
X143063075Y-90584230D01*
X142822180Y-90585500D01*
X142569067Y-90591652D01*
X142386112Y-90603703D01*
X142261405Y-90622532D01*
X142183031Y-90649015D01*
X142127067Y-90683082D01*
X141974508Y-90811375D01*
X141815685Y-90983271D01*
X141674174Y-91171675D01*
X141573552Y-91349490D01*
X141536632Y-91448146D01*
X141487477Y-91675310D01*
X141462346Y-91972002D01*
X139277249Y-91972002D01*
X139285976Y-91927061D01*
X139326179Y-91794929D01*
X139443823Y-91494833D01*
X139593185Y-91189778D01*
X139758067Y-90911237D01*
X139922270Y-90690684D01*
X139924641Y-90687974D01*
X140027115Y-90567115D01*
X140100083Y-90474128D01*
X140127886Y-90428946D01*
X140121248Y-90424006D01*
X140049549Y-90412829D01*
X139915822Y-90405062D01*
X139740968Y-90402151D01*
X139354050Y-90402151D01*
X139354050Y-88695162D01*
X139354058Y-88649721D01*
X139354725Y-88268612D01*
X139356384Y-87918833D01*
X139358912Y-87610333D01*
X139362186Y-87353065D01*
X139366081Y-87156982D01*
X139370475Y-87032033D01*
X139375243Y-86988173D01*
X139379410Y-86989194D01*
X139440920Y-87017890D01*
X139556482Y-87078041D01*
X139705261Y-87158871D01*
X140014086Y-87329570D01*
X143223226Y-87355914D01*
X143690637Y-87359830D01*
X144286755Y-87365308D01*
X144804271Y-87371057D01*
X145250504Y-87377544D01*
X145632773Y-87385232D01*
X145958397Y-87394586D01*
X146234695Y-87406070D01*
X146468985Y-87420149D01*
X146668588Y-87437287D01*
X146840820Y-87457950D01*
X146993002Y-87482601D01*
X147132452Y-87511705D01*
X147266488Y-87545727D01*
X147402431Y-87585131D01*
X147547599Y-87630381D01*
X148002693Y-87808648D01*
X148423296Y-88052777D01*
X148783397Y-88356806D01*
X149084880Y-88723519D01*
X149329629Y-89155700D01*
X149519529Y-89656131D01*
X149656463Y-90227597D01*
X149742315Y-90872880D01*
X149759387Y-91098415D01*
X149771870Y-91478252D01*
X149760629Y-91854730D01*
X149723769Y-92245475D01*
X149659396Y-92668113D01*
X149565615Y-93140270D01*
X149440529Y-93679570D01*
X149410263Y-93804228D01*
X149335786Y-94117278D01*
X149267211Y-94413987D01*
X149208588Y-94676362D01*
X149163969Y-94886409D01*
X149137402Y-95026134D01*
X149084453Y-95348505D01*
X147986008Y-94895293D01*
X147711751Y-94781930D01*
X147443017Y-94670405D01*
X147213575Y-94574717D01*
X147034650Y-94499563D01*
X146917471Y-94449641D01*
X146873262Y-94429649D01*
X146872629Y-94426504D01*
X146892366Y-94368569D01*
X146942948Y-94254648D01*
X147015370Y-94105293D01*
X147156408Y-93794863D01*
X147310618Y-93367691D01*
X147428714Y-92930482D01*
X147507728Y-92500334D01*
X147544696Y-92094343D01*
X147536651Y-91729608D01*
X147480627Y-91423227D01*
X147391734Y-91209394D01*
X147209564Y-90966545D01*
X146962428Y-90779598D01*
X146657929Y-90653905D01*
X146303670Y-90594817D01*
X145977169Y-90574010D01*
X145974195Y-91660213D01*
X145971123Y-92026521D01*
X145960214Y-92431684D01*
X145939626Y-92777804D01*
X145907358Y-93082785D01*
X145861408Y-93364530D01*
X145799774Y-93640943D01*
X145720455Y-93929929D01*
X145569476Y-94362321D01*
X145320847Y-94870905D01*
X145016298Y-95317253D01*
X144660114Y-95696961D01*
X144256577Y-96005627D01*
X143809971Y-96238850D01*
X143324580Y-96392226D01*
X143193852Y-96416246D01*
X142870277Y-96447040D01*
X142562633Y-96450916D01*
X142509227Y-96451588D01*
G37*
X142509227Y-96451588D02*
X142142203Y-96431145D01*
X141800706Y-96386962D01*
X141516237Y-96320292D01*
X141223560Y-96213912D01*
X140741231Y-95967323D01*
X140316873Y-95652132D01*
X139953377Y-95271601D01*
X139653635Y-94828995D01*
X139420540Y-94327576D01*
X139256982Y-93770610D01*
X139220092Y-93543493D01*
X139194455Y-93218947D01*
X139188689Y-92865494D01*
X139202330Y-92512671D01*
X139234914Y-92190015D01*
X139277249Y-91972002D01*
X141462346Y-91972002D01*
X141466151Y-92284811D01*
X141517844Y-92581859D01*
X141624632Y-92829800D01*
X141791328Y-93044315D01*
X141852987Y-93104659D01*
X142063263Y-93261775D01*
X142289912Y-93346783D01*
X142562633Y-93372312D01*
X142706713Y-93365396D01*
X143003317Y-93296998D01*
X143257897Y-93153309D01*
X143473316Y-92931711D01*
X143652441Y-92629590D01*
X143798137Y-92244329D01*
X143836372Y-92089015D01*
X143862551Y-91900988D01*
X143877090Y-91664357D01*
X143881978Y-91358065D01*
X143881975Y-91308310D01*
X143879178Y-91079166D01*
X143872417Y-90882332D01*
X143862579Y-90737382D01*
X143850551Y-90663889D01*
X143846646Y-90655432D01*
X143822124Y-90628089D01*
X143772846Y-90608724D01*
X143685557Y-90595997D01*
X143547002Y-90588566D01*
X143343927Y-90585090D01*
X143063075Y-90584230D01*
X142822180Y-90585500D01*
X142569067Y-90591652D01*
X142386112Y-90603703D01*
X142261405Y-90622532D01*
X142183031Y-90649015D01*
X142127067Y-90683082D01*
X141974508Y-90811375D01*
X141815685Y-90983271D01*
X141674174Y-91171675D01*
X141573552Y-91349490D01*
X141536632Y-91448146D01*
X141487477Y-91675310D01*
X141462346Y-91972002D01*
X139277249Y-91972002D01*
X139285976Y-91927061D01*
X139326179Y-91794929D01*
X139443823Y-91494833D01*
X139593185Y-91189778D01*
X139758067Y-90911237D01*
X139922270Y-90690684D01*
X139924641Y-90687974D01*
X140027115Y-90567115D01*
X140100083Y-90474128D01*
X140127886Y-90428946D01*
X140121248Y-90424006D01*
X140049549Y-90412829D01*
X139915822Y-90405062D01*
X139740968Y-90402151D01*
X139354050Y-90402151D01*
X139354050Y-88695162D01*
X139354058Y-88649721D01*
X139354725Y-88268612D01*
X139356384Y-87918833D01*
X139358912Y-87610333D01*
X139362186Y-87353065D01*
X139366081Y-87156982D01*
X139370475Y-87032033D01*
X139375243Y-86988173D01*
X139379410Y-86989194D01*
X139440920Y-87017890D01*
X139556482Y-87078041D01*
X139705261Y-87158871D01*
X140014086Y-87329570D01*
X143223226Y-87355914D01*
X143690637Y-87359830D01*
X144286755Y-87365308D01*
X144804271Y-87371057D01*
X145250504Y-87377544D01*
X145632773Y-87385232D01*
X145958397Y-87394586D01*
X146234695Y-87406070D01*
X146468985Y-87420149D01*
X146668588Y-87437287D01*
X146840820Y-87457950D01*
X146993002Y-87482601D01*
X147132452Y-87511705D01*
X147266488Y-87545727D01*
X147402431Y-87585131D01*
X147547599Y-87630381D01*
X148002693Y-87808648D01*
X148423296Y-88052777D01*
X148783397Y-88356806D01*
X149084880Y-88723519D01*
X149329629Y-89155700D01*
X149519529Y-89656131D01*
X149656463Y-90227597D01*
X149742315Y-90872880D01*
X149759387Y-91098415D01*
X149771870Y-91478252D01*
X149760629Y-91854730D01*
X149723769Y-92245475D01*
X149659396Y-92668113D01*
X149565615Y-93140270D01*
X149440529Y-93679570D01*
X149410263Y-93804228D01*
X149335786Y-94117278D01*
X149267211Y-94413987D01*
X149208588Y-94676362D01*
X149163969Y-94886409D01*
X149137402Y-95026134D01*
X149084453Y-95348505D01*
X147986008Y-94895293D01*
X147711751Y-94781930D01*
X147443017Y-94670405D01*
X147213575Y-94574717D01*
X147034650Y-94499563D01*
X146917471Y-94449641D01*
X146873262Y-94429649D01*
X146872629Y-94426504D01*
X146892366Y-94368569D01*
X146942948Y-94254648D01*
X147015370Y-94105293D01*
X147156408Y-93794863D01*
X147310618Y-93367691D01*
X147428714Y-92930482D01*
X147507728Y-92500334D01*
X147544696Y-92094343D01*
X147536651Y-91729608D01*
X147480627Y-91423227D01*
X147391734Y-91209394D01*
X147209564Y-90966545D01*
X146962428Y-90779598D01*
X146657929Y-90653905D01*
X146303670Y-90594817D01*
X145977169Y-90574010D01*
X145974195Y-91660213D01*
X145971123Y-92026521D01*
X145960214Y-92431684D01*
X145939626Y-92777804D01*
X145907358Y-93082785D01*
X145861408Y-93364530D01*
X145799774Y-93640943D01*
X145720455Y-93929929D01*
X145569476Y-94362321D01*
X145320847Y-94870905D01*
X145016298Y-95317253D01*
X144660114Y-95696961D01*
X144256577Y-96005627D01*
X143809971Y-96238850D01*
X143324580Y-96392226D01*
X143193852Y-96416246D01*
X142870277Y-96447040D01*
X142562633Y-96450916D01*
X142509227Y-96451588D01*
G36*
X141696840Y-97178277D02*
G01*
X141857892Y-97276356D01*
X142147000Y-97452562D01*
X142405464Y-97610278D01*
X142623858Y-97743738D01*
X142792753Y-97847179D01*
X142902722Y-97914838D01*
X142944337Y-97940950D01*
X142943094Y-97948212D01*
X142902368Y-98006716D01*
X142817849Y-98109498D01*
X142702647Y-98240318D01*
X142503605Y-98473300D01*
X142209273Y-98889224D01*
X142004088Y-99292767D01*
X141901623Y-99584378D01*
X141796905Y-100077617D01*
X141778344Y-100562239D01*
X141844675Y-101031216D01*
X141994633Y-101477520D01*
X142226954Y-101894124D01*
X142540375Y-102274000D01*
X142771220Y-102485376D01*
X143198203Y-102783162D01*
X143693694Y-103027507D01*
X144260233Y-103219582D01*
X144900356Y-103360554D01*
X144940096Y-103366950D01*
X145197663Y-103396498D01*
X145517686Y-103418494D01*
X145878297Y-103432761D01*
X146257630Y-103439121D01*
X146633818Y-103437395D01*
X146984993Y-103427406D01*
X147289289Y-103408976D01*
X147524839Y-103381925D01*
X148058409Y-103278243D01*
X148681688Y-103103784D01*
X149227360Y-102884374D01*
X149695002Y-102620306D01*
X150084192Y-102311874D01*
X150394507Y-101959370D01*
X150625526Y-101563088D01*
X150776825Y-101123322D01*
X150795603Y-101025752D01*
X150820123Y-100781240D01*
X150828127Y-100495489D01*
X150820054Y-100200511D01*
X150796345Y-99928321D01*
X150757438Y-99710932D01*
X150633554Y-99348789D01*
X150407387Y-98928529D01*
X150109755Y-98554324D01*
X150047058Y-98488277D01*
X149936133Y-98368601D01*
X149861472Y-98284019D01*
X149836636Y-98249658D01*
X149848515Y-98241198D01*
X149923517Y-98189125D01*
X150059703Y-98095052D01*
X150248053Y-97965195D01*
X150479550Y-97805769D01*
X150745175Y-97622990D01*
X151035911Y-97423074D01*
X152225477Y-96605377D01*
X152280206Y-96788045D01*
X152286408Y-96807106D01*
X152335668Y-96931187D01*
X152415101Y-97110081D01*
X152515150Y-97322794D01*
X152626261Y-97548331D01*
X152675388Y-97646610D01*
X152929011Y-98192340D01*
X153125138Y-98695333D01*
X153268784Y-99174934D01*
X153364968Y-99650490D01*
X153418705Y-100141345D01*
X153435013Y-100666846D01*
X153426733Y-101032558D01*
X153370579Y-101644252D01*
X153257328Y-102212518D01*
X153082217Y-102758493D01*
X152840476Y-103303311D01*
X152531826Y-103842623D01*
X152111056Y-104421410D01*
X151624567Y-104958141D01*
X151084401Y-105440996D01*
X150502601Y-105858157D01*
X149891209Y-106197804D01*
X149825804Y-106228634D01*
X149194494Y-106486828D01*
X148538491Y-106683019D01*
X147845263Y-106819740D01*
X147102277Y-106899528D01*
X146297001Y-106924918D01*
X145464555Y-106894047D01*
X144644757Y-106796060D01*
X143877333Y-106629436D01*
X143156841Y-106392685D01*
X142477836Y-106084315D01*
X141834875Y-105702835D01*
X141343658Y-105344499D01*
X140790960Y-104849713D01*
X140317556Y-104310419D01*
X139923602Y-103726853D01*
X139609251Y-103099251D01*
X139374659Y-102427848D01*
X139219980Y-101712882D01*
X139218775Y-101704723D01*
X139206694Y-101567037D01*
X139197733Y-101359262D01*
X139192310Y-101100611D01*
X139190844Y-100810295D01*
X139193752Y-100507527D01*
X139198013Y-100295332D01*
X139207884Y-99980495D01*
X139222015Y-99728211D01*
X139241915Y-99520280D01*
X139269091Y-99338508D01*
X139305051Y-99164696D01*
X139351524Y-98969144D01*
X139404445Y-98765123D01*
X139459962Y-98580606D01*
X139524578Y-98398848D01*
X139604796Y-98203101D01*
X139707118Y-97976621D01*
X139838046Y-97702660D01*
X140004084Y-97364472D01*
X140466331Y-96429122D01*
X141696840Y-97178277D01*
G37*
X141696840Y-97178277D02*
X141857892Y-97276356D01*
X142147000Y-97452562D01*
X142405464Y-97610278D01*
X142623858Y-97743738D01*
X142792753Y-97847179D01*
X142902722Y-97914838D01*
X142944337Y-97940950D01*
X142943094Y-97948212D01*
X142902368Y-98006716D01*
X142817849Y-98109498D01*
X142702647Y-98240318D01*
X142503605Y-98473300D01*
X142209273Y-98889224D01*
X142004088Y-99292767D01*
X141901623Y-99584378D01*
X141796905Y-100077617D01*
X141778344Y-100562239D01*
X141844675Y-101031216D01*
X141994633Y-101477520D01*
X142226954Y-101894124D01*
X142540375Y-102274000D01*
X142771220Y-102485376D01*
X143198203Y-102783162D01*
X143693694Y-103027507D01*
X144260233Y-103219582D01*
X144900356Y-103360554D01*
X144940096Y-103366950D01*
X145197663Y-103396498D01*
X145517686Y-103418494D01*
X145878297Y-103432761D01*
X146257630Y-103439121D01*
X146633818Y-103437395D01*
X146984993Y-103427406D01*
X147289289Y-103408976D01*
X147524839Y-103381925D01*
X148058409Y-103278243D01*
X148681688Y-103103784D01*
X149227360Y-102884374D01*
X149695002Y-102620306D01*
X150084192Y-102311874D01*
X150394507Y-101959370D01*
X150625526Y-101563088D01*
X150776825Y-101123322D01*
X150795603Y-101025752D01*
X150820123Y-100781240D01*
X150828127Y-100495489D01*
X150820054Y-100200511D01*
X150796345Y-99928321D01*
X150757438Y-99710932D01*
X150633554Y-99348789D01*
X150407387Y-98928529D01*
X150109755Y-98554324D01*
X150047058Y-98488277D01*
X149936133Y-98368601D01*
X149861472Y-98284019D01*
X149836636Y-98249658D01*
X149848515Y-98241198D01*
X149923517Y-98189125D01*
X150059703Y-98095052D01*
X150248053Y-97965195D01*
X150479550Y-97805769D01*
X150745175Y-97622990D01*
X151035911Y-97423074D01*
X152225477Y-96605377D01*
X152280206Y-96788045D01*
X152286408Y-96807106D01*
X152335668Y-96931187D01*
X152415101Y-97110081D01*
X152515150Y-97322794D01*
X152626261Y-97548331D01*
X152675388Y-97646610D01*
X152929011Y-98192340D01*
X153125138Y-98695333D01*
X153268784Y-99174934D01*
X153364968Y-99650490D01*
X153418705Y-100141345D01*
X153435013Y-100666846D01*
X153426733Y-101032558D01*
X153370579Y-101644252D01*
X153257328Y-102212518D01*
X153082217Y-102758493D01*
X152840476Y-103303311D01*
X152531826Y-103842623D01*
X152111056Y-104421410D01*
X151624567Y-104958141D01*
X151084401Y-105440996D01*
X150502601Y-105858157D01*
X149891209Y-106197804D01*
X149825804Y-106228634D01*
X149194494Y-106486828D01*
X148538491Y-106683019D01*
X147845263Y-106819740D01*
X147102277Y-106899528D01*
X146297001Y-106924918D01*
X145464555Y-106894047D01*
X144644757Y-106796060D01*
X143877333Y-106629436D01*
X143156841Y-106392685D01*
X142477836Y-106084315D01*
X141834875Y-105702835D01*
X141343658Y-105344499D01*
X140790960Y-104849713D01*
X140317556Y-104310419D01*
X139923602Y-103726853D01*
X139609251Y-103099251D01*
X139374659Y-102427848D01*
X139219980Y-101712882D01*
X139218775Y-101704723D01*
X139206694Y-101567037D01*
X139197733Y-101359262D01*
X139192310Y-101100611D01*
X139190844Y-100810295D01*
X139193752Y-100507527D01*
X139198013Y-100295332D01*
X139207884Y-99980495D01*
X139222015Y-99728211D01*
X139241915Y-99520280D01*
X139269091Y-99338508D01*
X139305051Y-99164696D01*
X139351524Y-98969144D01*
X139404445Y-98765123D01*
X139459962Y-98580606D01*
X139524578Y-98398848D01*
X139604796Y-98203101D01*
X139707118Y-97976621D01*
X139838046Y-97702660D01*
X140004084Y-97364472D01*
X140466331Y-96429122D01*
X141696840Y-97178277D01*
G36*
X138911087Y-126984558D02*
G01*
X138607018Y-126978741D01*
X138348108Y-126971675D01*
X138130593Y-126963242D01*
X137950710Y-126953323D01*
X137804692Y-126941800D01*
X137688778Y-126928554D01*
X137599202Y-126913467D01*
X137532201Y-126896420D01*
X137484011Y-126877295D01*
X137450867Y-126855974D01*
X137429005Y-126832337D01*
X137414661Y-126806267D01*
X137404072Y-126777645D01*
X137393473Y-126746352D01*
X137379100Y-126712271D01*
X137371897Y-126693095D01*
X137364031Y-126657919D01*
X137356824Y-126605652D01*
X137350248Y-126532597D01*
X137344273Y-126435056D01*
X137338870Y-126309332D01*
X137334010Y-126151728D01*
X137329666Y-125958545D01*
X137325807Y-125726087D01*
X137322405Y-125450656D01*
X137319431Y-125128555D01*
X137316856Y-124756086D01*
X137314651Y-124329552D01*
X137312788Y-123845256D01*
X137311237Y-123299499D01*
X137309969Y-122688585D01*
X137308956Y-122008816D01*
X137308169Y-121256495D01*
X137307579Y-120427925D01*
X137307156Y-119519407D01*
X137306894Y-118601613D01*
X139399379Y-118601613D01*
X139684543Y-118586828D01*
X139698872Y-118586112D01*
X139812871Y-118583305D01*
X139922097Y-118588625D01*
X140032533Y-118605630D01*
X140150162Y-118637879D01*
X140280967Y-118688931D01*
X140430931Y-118762344D01*
X140606036Y-118861678D01*
X140812267Y-118990491D01*
X141055605Y-119152341D01*
X141342033Y-119350789D01*
X141677536Y-119589391D01*
X142068095Y-119871709D01*
X142519694Y-120201299D01*
X143038316Y-120581721D01*
X144866461Y-121924552D01*
X142746780Y-121936383D01*
X142549057Y-121937432D01*
X142016481Y-121939281D01*
X141563488Y-121938440D01*
X141181508Y-121933919D01*
X140861967Y-121924728D01*
X140596292Y-121909876D01*
X140375912Y-121888375D01*
X140192254Y-121859233D01*
X140036745Y-121821461D01*
X139900813Y-121774068D01*
X139775884Y-121716066D01*
X139653387Y-121646462D01*
X139524749Y-121564268D01*
X139399570Y-121481645D01*
X139399570Y-125775601D01*
X139547509Y-125664685D01*
X139570913Y-125647314D01*
X139785416Y-125508439D01*
X140002256Y-125412706D01*
X140250720Y-125349841D01*
X140560098Y-125309575D01*
X140573584Y-125308469D01*
X140701196Y-125302626D01*
X140914108Y-125297350D01*
X141207455Y-125292665D01*
X141576372Y-125288593D01*
X142015994Y-125285157D01*
X142521456Y-125282381D01*
X143087892Y-125280286D01*
X143710437Y-125278896D01*
X144384227Y-125278235D01*
X145104396Y-125278324D01*
X145866079Y-125279186D01*
X146664410Y-125280846D01*
X147380514Y-125282603D01*
X148160011Y-125284483D01*
X148857428Y-125286335D01*
X149477652Y-125288389D01*
X150025570Y-125290879D01*
X150506068Y-125294036D01*
X150924031Y-125298094D01*
X151284346Y-125303285D01*
X151591898Y-125309840D01*
X151851575Y-125317993D01*
X152068261Y-125327976D01*
X152246843Y-125340021D01*
X152392208Y-125354360D01*
X152509241Y-125371226D01*
X152602828Y-125390851D01*
X152677856Y-125413468D01*
X152739211Y-125439309D01*
X152791778Y-125468606D01*
X152840443Y-125501592D01*
X152890094Y-125538498D01*
X152945616Y-125579559D01*
X153001253Y-125619273D01*
X153111261Y-125696034D01*
X153180663Y-125742013D01*
X153183570Y-125743123D01*
X153196695Y-125727069D01*
X153207646Y-125670413D01*
X153216591Y-125566851D01*
X153223699Y-125410080D01*
X153229138Y-125193794D01*
X153233076Y-124911689D01*
X153235681Y-124557462D01*
X153237121Y-124124808D01*
X153237563Y-123607422D01*
X153237563Y-121438503D01*
X153101714Y-121552812D01*
X153008410Y-121619061D01*
X152788416Y-121729336D01*
X152514805Y-121825973D01*
X152211300Y-121899730D01*
X152182487Y-121904431D01*
X152030594Y-121918418D01*
X151795846Y-121929011D01*
X151476617Y-121936236D01*
X151071283Y-121940123D01*
X150578218Y-121940699D01*
X149995797Y-121937993D01*
X148051342Y-121924552D01*
X149807028Y-120536201D01*
X149857319Y-120496436D01*
X150303026Y-120144364D01*
X150684733Y-119843788D01*
X151008930Y-119589925D01*
X151282108Y-119377992D01*
X151510756Y-119203205D01*
X151701364Y-119060781D01*
X151860424Y-118945935D01*
X151994424Y-118853885D01*
X152109856Y-118779847D01*
X152213209Y-118719038D01*
X152310974Y-118666673D01*
X152409640Y-118617970D01*
X152584289Y-118543047D01*
X152768529Y-118494647D01*
X152967256Y-118481773D01*
X153237563Y-118483066D01*
X153237563Y-113876664D01*
X153093465Y-114076952D01*
X152958034Y-114246341D01*
X152737134Y-114485026D01*
X152460283Y-114755753D01*
X152138033Y-115048272D01*
X151780932Y-115352329D01*
X151685437Y-115430631D01*
X151521650Y-115563943D01*
X151306769Y-115738201D01*
X151047965Y-115947631D01*
X150752411Y-116186461D01*
X150427278Y-116448916D01*
X150079739Y-116729226D01*
X149716965Y-117021615D01*
X149550466Y-117155725D01*
X149346128Y-117320311D01*
X148974401Y-117619542D01*
X148608955Y-117913534D01*
X148256963Y-118196514D01*
X147925596Y-118462709D01*
X147622026Y-118706346D01*
X147353425Y-118921653D01*
X147126966Y-119102855D01*
X146949820Y-119244180D01*
X146829160Y-119339855D01*
X146772156Y-119384107D01*
X146750736Y-119387759D01*
X146709993Y-119375610D01*
X146645895Y-119344128D01*
X146553896Y-119290171D01*
X146429449Y-119210595D01*
X146268007Y-119102259D01*
X146065023Y-118962019D01*
X145815951Y-118786734D01*
X145516244Y-118573261D01*
X145161355Y-118318457D01*
X144746738Y-118019180D01*
X144267847Y-117672287D01*
X143720134Y-117274636D01*
X143284159Y-116957791D01*
X142752672Y-116571232D01*
X142285923Y-116231204D01*
X141878734Y-115933751D01*
X141525923Y-115674920D01*
X141222311Y-115450756D01*
X140962717Y-115257304D01*
X140741962Y-115090612D01*
X140554866Y-114946723D01*
X140396248Y-114821685D01*
X140260928Y-114711542D01*
X140143726Y-114612340D01*
X140039463Y-114520126D01*
X139942958Y-114430943D01*
X139849030Y-114340840D01*
X139752501Y-114245860D01*
X139399570Y-113895841D01*
X139399475Y-116248727D01*
X139399379Y-118601613D01*
X137306894Y-118601613D01*
X137306873Y-118527244D01*
X137306700Y-117447740D01*
X137306666Y-117105647D01*
X137306645Y-116049571D01*
X137306777Y-115079760D01*
X137307091Y-114192558D01*
X137307613Y-113384313D01*
X137307938Y-113069246D01*
X139399570Y-113069246D01*
X140014086Y-112729570D01*
X148935950Y-112729570D01*
X149550466Y-113069246D01*
X149550466Y-109478118D01*
X144827796Y-109465135D01*
X140105126Y-109452151D01*
X139833242Y-109324846D01*
X139698483Y-109257728D01*
X139563488Y-109181726D01*
X139480464Y-109124332D01*
X139480305Y-109124188D01*
X139461015Y-109110254D01*
X139445065Y-109111571D01*
X139432138Y-109135716D01*
X139421919Y-109190269D01*
X139414089Y-109282809D01*
X139408333Y-109420914D01*
X139404334Y-109612163D01*
X139401775Y-109864136D01*
X139400339Y-110184411D01*
X139399710Y-110580568D01*
X139399570Y-111060185D01*
X139399570Y-113069246D01*
X137307938Y-113069246D01*
X137308368Y-112651370D01*
X137309384Y-111990077D01*
X137310688Y-111396780D01*
X137312304Y-110867824D01*
X137314261Y-110399556D01*
X137316585Y-109988322D01*
X137319302Y-109630469D01*
X137322439Y-109322343D01*
X137326021Y-109060290D01*
X137330077Y-108840656D01*
X137334632Y-108659788D01*
X137339712Y-108514033D01*
X137345345Y-108399736D01*
X137351557Y-108313243D01*
X137358374Y-108250901D01*
X137365823Y-108209057D01*
X137373930Y-108184056D01*
X137377538Y-108176101D01*
X137389390Y-108143538D01*
X137398045Y-108113676D01*
X137407274Y-108086394D01*
X137420844Y-108061572D01*
X137442526Y-108039088D01*
X137476090Y-108018821D01*
X137525304Y-108000650D01*
X137593937Y-107984454D01*
X137685760Y-107970112D01*
X137804542Y-107957503D01*
X137954052Y-107946506D01*
X138138060Y-107937000D01*
X138360334Y-107928863D01*
X138624645Y-107921975D01*
X138934762Y-107916214D01*
X139294454Y-107911460D01*
X139707491Y-107907592D01*
X140177641Y-107904488D01*
X140708676Y-107902027D01*
X141304363Y-107900088D01*
X141968472Y-107898551D01*
X142704774Y-107897294D01*
X143517036Y-107896195D01*
X144409029Y-107895135D01*
X145384522Y-107893992D01*
X146447285Y-107892645D01*
X146575944Y-107892470D01*
X147631972Y-107890968D01*
X148601171Y-107889531D01*
X149487311Y-107888266D01*
X150294163Y-107887279D01*
X151025499Y-107886678D01*
X151685091Y-107886567D01*
X152276708Y-107887054D01*
X152804122Y-107888244D01*
X153271105Y-107890244D01*
X153681427Y-107893161D01*
X154038859Y-107897100D01*
X154347173Y-107902169D01*
X154610140Y-107908473D01*
X154831531Y-107916118D01*
X155015116Y-107925212D01*
X155164668Y-107935859D01*
X155283957Y-107948168D01*
X155376755Y-107962243D01*
X155446831Y-107978192D01*
X155497959Y-107996120D01*
X155533908Y-108016135D01*
X155558450Y-108038342D01*
X155575356Y-108062847D01*
X155588397Y-108089757D01*
X155601344Y-108119179D01*
X155617968Y-108151218D01*
X155623266Y-108160593D01*
X155674545Y-108302450D01*
X155695620Y-108457741D01*
X155695613Y-108632796D01*
X155297323Y-108635714D01*
X155251490Y-108636453D01*
X154785596Y-108692094D01*
X154347231Y-108833806D01*
X153941040Y-109059622D01*
X153571665Y-109367572D01*
X153421012Y-109532826D01*
X153171304Y-109900781D01*
X152997172Y-110302255D01*
X152898706Y-110725555D01*
X152876001Y-111158988D01*
X152929150Y-111590861D01*
X153058246Y-112009482D01*
X153263382Y-112403159D01*
X153544651Y-112760197D01*
X153643811Y-112859450D01*
X154010960Y-113152810D01*
X154409402Y-113360973D01*
X154841707Y-113485053D01*
X155310444Y-113526165D01*
X155695628Y-113526165D01*
X155695628Y-120060505D01*
X155695646Y-120468739D01*
X155695764Y-121345743D01*
X155695851Y-122137990D01*
X155695731Y-122849862D01*
X155695233Y-123485741D01*
X155694182Y-124050006D01*
X155692406Y-124547039D01*
X155689731Y-124981222D01*
X155685985Y-125356934D01*
X155680994Y-125678558D01*
X155674584Y-125950473D01*
X155666583Y-126177062D01*
X155656817Y-126362706D01*
X155645114Y-126511784D01*
X155631299Y-126628679D01*
X155615200Y-126717771D01*
X155596644Y-126783442D01*
X155575457Y-126830072D01*
X155551466Y-126862042D01*
X155524498Y-126883735D01*
X155494380Y-126899529D01*
X155460938Y-126913807D01*
X155423999Y-126930950D01*
X155423396Y-126931258D01*
X155399216Y-126939581D01*
X155358727Y-126947216D01*
X155298193Y-126954191D01*
X155213876Y-126960535D01*
X155102041Y-126966278D01*
X154958951Y-126971448D01*
X154780870Y-126976075D01*
X154564060Y-126980187D01*
X154304786Y-126983814D01*
X153999311Y-126986984D01*
X153643898Y-126989726D01*
X153234811Y-126992069D01*
X152768313Y-126994043D01*
X152240668Y-126995676D01*
X151648140Y-126996997D01*
X150986991Y-126998036D01*
X150253485Y-126998820D01*
X149443887Y-126999380D01*
X148554458Y-126999744D01*
X147581463Y-126999941D01*
X146521165Y-127000000D01*
X146312868Y-127000003D01*
X145263621Y-127000104D01*
X144300937Y-127000260D01*
X143421053Y-127000351D01*
X142620205Y-127000260D01*
X141894629Y-126999869D01*
X141240560Y-126999057D01*
X140654235Y-126997707D01*
X140131889Y-126995701D01*
X139669758Y-126992920D01*
X139399570Y-126990472D01*
X139264079Y-126989245D01*
X138911087Y-126984558D01*
G37*
X138911087Y-126984558D02*
X138607018Y-126978741D01*
X138348108Y-126971675D01*
X138130593Y-126963242D01*
X137950710Y-126953323D01*
X137804692Y-126941800D01*
X137688778Y-126928554D01*
X137599202Y-126913467D01*
X137532201Y-126896420D01*
X137484011Y-126877295D01*
X137450867Y-126855974D01*
X137429005Y-126832337D01*
X137414661Y-126806267D01*
X137404072Y-126777645D01*
X137393473Y-126746352D01*
X137379100Y-126712271D01*
X137371897Y-126693095D01*
X137364031Y-126657919D01*
X137356824Y-126605652D01*
X137350248Y-126532597D01*
X137344273Y-126435056D01*
X137338870Y-126309332D01*
X137334010Y-126151728D01*
X137329666Y-125958545D01*
X137325807Y-125726087D01*
X137322405Y-125450656D01*
X137319431Y-125128555D01*
X137316856Y-124756086D01*
X137314651Y-124329552D01*
X137312788Y-123845256D01*
X137311237Y-123299499D01*
X137309969Y-122688585D01*
X137308956Y-122008816D01*
X137308169Y-121256495D01*
X137307579Y-120427925D01*
X137307156Y-119519407D01*
X137306894Y-118601613D01*
X139399379Y-118601613D01*
X139684543Y-118586828D01*
X139698872Y-118586112D01*
X139812871Y-118583305D01*
X139922097Y-118588625D01*
X140032533Y-118605630D01*
X140150162Y-118637879D01*
X140280967Y-118688931D01*
X140430931Y-118762344D01*
X140606036Y-118861678D01*
X140812267Y-118990491D01*
X141055605Y-119152341D01*
X141342033Y-119350789D01*
X141677536Y-119589391D01*
X142068095Y-119871709D01*
X142519694Y-120201299D01*
X143038316Y-120581721D01*
X144866461Y-121924552D01*
X142746780Y-121936383D01*
X142549057Y-121937432D01*
X142016481Y-121939281D01*
X141563488Y-121938440D01*
X141181508Y-121933919D01*
X140861967Y-121924728D01*
X140596292Y-121909876D01*
X140375912Y-121888375D01*
X140192254Y-121859233D01*
X140036745Y-121821461D01*
X139900813Y-121774068D01*
X139775884Y-121716066D01*
X139653387Y-121646462D01*
X139524749Y-121564268D01*
X139399570Y-121481645D01*
X139399570Y-125775601D01*
X139547509Y-125664685D01*
X139570913Y-125647314D01*
X139785416Y-125508439D01*
X140002256Y-125412706D01*
X140250720Y-125349841D01*
X140560098Y-125309575D01*
X140573584Y-125308469D01*
X140701196Y-125302626D01*
X140914108Y-125297350D01*
X141207455Y-125292665D01*
X141576372Y-125288593D01*
X142015994Y-125285157D01*
X142521456Y-125282381D01*
X143087892Y-125280286D01*
X143710437Y-125278896D01*
X144384227Y-125278235D01*
X145104396Y-125278324D01*
X145866079Y-125279186D01*
X146664410Y-125280846D01*
X147380514Y-125282603D01*
X148160011Y-125284483D01*
X148857428Y-125286335D01*
X149477652Y-125288389D01*
X150025570Y-125290879D01*
X150506068Y-125294036D01*
X150924031Y-125298094D01*
X151284346Y-125303285D01*
X151591898Y-125309840D01*
X151851575Y-125317993D01*
X152068261Y-125327976D01*
X152246843Y-125340021D01*
X152392208Y-125354360D01*
X152509241Y-125371226D01*
X152602828Y-125390851D01*
X152677856Y-125413468D01*
X152739211Y-125439309D01*
X152791778Y-125468606D01*
X152840443Y-125501592D01*
X152890094Y-125538498D01*
X152945616Y-125579559D01*
X153001253Y-125619273D01*
X153111261Y-125696034D01*
X153180663Y-125742013D01*
X153183570Y-125743123D01*
X153196695Y-125727069D01*
X153207646Y-125670413D01*
X153216591Y-125566851D01*
X153223699Y-125410080D01*
X153229138Y-125193794D01*
X153233076Y-124911689D01*
X153235681Y-124557462D01*
X153237121Y-124124808D01*
X153237563Y-123607422D01*
X153237563Y-121438503D01*
X153101714Y-121552812D01*
X153008410Y-121619061D01*
X152788416Y-121729336D01*
X152514805Y-121825973D01*
X152211300Y-121899730D01*
X152182487Y-121904431D01*
X152030594Y-121918418D01*
X151795846Y-121929011D01*
X151476617Y-121936236D01*
X151071283Y-121940123D01*
X150578218Y-121940699D01*
X149995797Y-121937993D01*
X148051342Y-121924552D01*
X149807028Y-120536201D01*
X149857319Y-120496436D01*
X150303026Y-120144364D01*
X150684733Y-119843788D01*
X151008930Y-119589925D01*
X151282108Y-119377992D01*
X151510756Y-119203205D01*
X151701364Y-119060781D01*
X151860424Y-118945935D01*
X151994424Y-118853885D01*
X152109856Y-118779847D01*
X152213209Y-118719038D01*
X152310974Y-118666673D01*
X152409640Y-118617970D01*
X152584289Y-118543047D01*
X152768529Y-118494647D01*
X152967256Y-118481773D01*
X153237563Y-118483066D01*
X153237563Y-113876664D01*
X153093465Y-114076952D01*
X152958034Y-114246341D01*
X152737134Y-114485026D01*
X152460283Y-114755753D01*
X152138033Y-115048272D01*
X151780932Y-115352329D01*
X151685437Y-115430631D01*
X151521650Y-115563943D01*
X151306769Y-115738201D01*
X151047965Y-115947631D01*
X150752411Y-116186461D01*
X150427278Y-116448916D01*
X150079739Y-116729226D01*
X149716965Y-117021615D01*
X149550466Y-117155725D01*
X149346128Y-117320311D01*
X148974401Y-117619542D01*
X148608955Y-117913534D01*
X148256963Y-118196514D01*
X147925596Y-118462709D01*
X147622026Y-118706346D01*
X147353425Y-118921653D01*
X147126966Y-119102855D01*
X146949820Y-119244180D01*
X146829160Y-119339855D01*
X146772156Y-119384107D01*
X146750736Y-119387759D01*
X146709993Y-119375610D01*
X146645895Y-119344128D01*
X146553896Y-119290171D01*
X146429449Y-119210595D01*
X146268007Y-119102259D01*
X146065023Y-118962019D01*
X145815951Y-118786734D01*
X145516244Y-118573261D01*
X145161355Y-118318457D01*
X144746738Y-118019180D01*
X144267847Y-117672287D01*
X143720134Y-117274636D01*
X143284159Y-116957791D01*
X142752672Y-116571232D01*
X142285923Y-116231204D01*
X141878734Y-115933751D01*
X141525923Y-115674920D01*
X141222311Y-115450756D01*
X140962717Y-115257304D01*
X140741962Y-115090612D01*
X140554866Y-114946723D01*
X140396248Y-114821685D01*
X140260928Y-114711542D01*
X140143726Y-114612340D01*
X140039463Y-114520126D01*
X139942958Y-114430943D01*
X139849030Y-114340840D01*
X139752501Y-114245860D01*
X139399570Y-113895841D01*
X139399475Y-116248727D01*
X139399379Y-118601613D01*
X137306894Y-118601613D01*
X137306873Y-118527244D01*
X137306700Y-117447740D01*
X137306666Y-117105647D01*
X137306645Y-116049571D01*
X137306777Y-115079760D01*
X137307091Y-114192558D01*
X137307613Y-113384313D01*
X137307938Y-113069246D01*
X139399570Y-113069246D01*
X140014086Y-112729570D01*
X148935950Y-112729570D01*
X149550466Y-113069246D01*
X149550466Y-109478118D01*
X144827796Y-109465135D01*
X140105126Y-109452151D01*
X139833242Y-109324846D01*
X139698483Y-109257728D01*
X139563488Y-109181726D01*
X139480464Y-109124332D01*
X139480305Y-109124188D01*
X139461015Y-109110254D01*
X139445065Y-109111571D01*
X139432138Y-109135716D01*
X139421919Y-109190269D01*
X139414089Y-109282809D01*
X139408333Y-109420914D01*
X139404334Y-109612163D01*
X139401775Y-109864136D01*
X139400339Y-110184411D01*
X139399710Y-110580568D01*
X139399570Y-111060185D01*
X139399570Y-113069246D01*
X137307938Y-113069246D01*
X137308368Y-112651370D01*
X137309384Y-111990077D01*
X137310688Y-111396780D01*
X137312304Y-110867824D01*
X137314261Y-110399556D01*
X137316585Y-109988322D01*
X137319302Y-109630469D01*
X137322439Y-109322343D01*
X137326021Y-109060290D01*
X137330077Y-108840656D01*
X137334632Y-108659788D01*
X137339712Y-108514033D01*
X137345345Y-108399736D01*
X137351557Y-108313243D01*
X137358374Y-108250901D01*
X137365823Y-108209057D01*
X137373930Y-108184056D01*
X137377538Y-108176101D01*
X137389390Y-108143538D01*
X137398045Y-108113676D01*
X137407274Y-108086394D01*
X137420844Y-108061572D01*
X137442526Y-108039088D01*
X137476090Y-108018821D01*
X137525304Y-108000650D01*
X137593937Y-107984454D01*
X137685760Y-107970112D01*
X137804542Y-107957503D01*
X137954052Y-107946506D01*
X138138060Y-107937000D01*
X138360334Y-107928863D01*
X138624645Y-107921975D01*
X138934762Y-107916214D01*
X139294454Y-107911460D01*
X139707491Y-107907592D01*
X140177641Y-107904488D01*
X140708676Y-107902027D01*
X141304363Y-107900088D01*
X141968472Y-107898551D01*
X142704774Y-107897294D01*
X143517036Y-107896195D01*
X144409029Y-107895135D01*
X145384522Y-107893992D01*
X146447285Y-107892645D01*
X146575944Y-107892470D01*
X147631972Y-107890968D01*
X148601171Y-107889531D01*
X149487311Y-107888266D01*
X150294163Y-107887279D01*
X151025499Y-107886678D01*
X151685091Y-107886567D01*
X152276708Y-107887054D01*
X152804122Y-107888244D01*
X153271105Y-107890244D01*
X153681427Y-107893161D01*
X154038859Y-107897100D01*
X154347173Y-107902169D01*
X154610140Y-107908473D01*
X154831531Y-107916118D01*
X155015116Y-107925212D01*
X155164668Y-107935859D01*
X155283957Y-107948168D01*
X155376755Y-107962243D01*
X155446831Y-107978192D01*
X155497959Y-107996120D01*
X155533908Y-108016135D01*
X155558450Y-108038342D01*
X155575356Y-108062847D01*
X155588397Y-108089757D01*
X155601344Y-108119179D01*
X155617968Y-108151218D01*
X155623266Y-108160593D01*
X155674545Y-108302450D01*
X155695620Y-108457741D01*
X155695613Y-108632796D01*
X155297323Y-108635714D01*
X155251490Y-108636453D01*
X154785596Y-108692094D01*
X154347231Y-108833806D01*
X153941040Y-109059622D01*
X153571665Y-109367572D01*
X153421012Y-109532826D01*
X153171304Y-109900781D01*
X152997172Y-110302255D01*
X152898706Y-110725555D01*
X152876001Y-111158988D01*
X152929150Y-111590861D01*
X153058246Y-112009482D01*
X153263382Y-112403159D01*
X153544651Y-112760197D01*
X153643811Y-112859450D01*
X154010960Y-113152810D01*
X154409402Y-113360973D01*
X154841707Y-113485053D01*
X155310444Y-113526165D01*
X155695628Y-113526165D01*
X155695628Y-120060505D01*
X155695646Y-120468739D01*
X155695764Y-121345743D01*
X155695851Y-122137990D01*
X155695731Y-122849862D01*
X155695233Y-123485741D01*
X155694182Y-124050006D01*
X155692406Y-124547039D01*
X155689731Y-124981222D01*
X155685985Y-125356934D01*
X155680994Y-125678558D01*
X155674584Y-125950473D01*
X155666583Y-126177062D01*
X155656817Y-126362706D01*
X155645114Y-126511784D01*
X155631299Y-126628679D01*
X155615200Y-126717771D01*
X155596644Y-126783442D01*
X155575457Y-126830072D01*
X155551466Y-126862042D01*
X155524498Y-126883735D01*
X155494380Y-126899529D01*
X155460938Y-126913807D01*
X155423999Y-126930950D01*
X155423396Y-126931258D01*
X155399216Y-126939581D01*
X155358727Y-126947216D01*
X155298193Y-126954191D01*
X155213876Y-126960535D01*
X155102041Y-126966278D01*
X154958951Y-126971448D01*
X154780870Y-126976075D01*
X154564060Y-126980187D01*
X154304786Y-126983814D01*
X153999311Y-126986984D01*
X153643898Y-126989726D01*
X153234811Y-126992069D01*
X152768313Y-126994043D01*
X152240668Y-126995676D01*
X151648140Y-126996997D01*
X150986991Y-126998036D01*
X150253485Y-126998820D01*
X149443887Y-126999380D01*
X148554458Y-126999744D01*
X147581463Y-126999941D01*
X146521165Y-127000000D01*
X146312868Y-127000003D01*
X145263621Y-127000104D01*
X144300937Y-127000260D01*
X143421053Y-127000351D01*
X142620205Y-127000260D01*
X141894629Y-126999869D01*
X141240560Y-126999057D01*
X140654235Y-126997707D01*
X140131889Y-126995701D01*
X139669758Y-126992920D01*
X139399570Y-126990472D01*
X139264079Y-126989245D01*
X138911087Y-126984558D01*
M02*
