G04 #@! TF.GenerationSoftware,KiCad,Pcbnew,(6.0.8)*
G04 #@! TF.CreationDate,2022-10-28T18:58:48+02:00*
G04 #@! TF.ProjectId,gardenWemos,67617264-656e-4576-956d-6f732e6b6963,rev?*
G04 #@! TF.SameCoordinates,Original*
G04 #@! TF.FileFunction,Soldermask,Bot*
G04 #@! TF.FilePolarity,Negative*
%FSLAX46Y46*%
G04 Gerber Fmt 4.6, Leading zero omitted, Abs format (unit mm)*
G04 Created by KiCad (PCBNEW (6.0.8)) date 2022-10-28 18:58:48*
%MOMM*%
%LPD*%
G01*
G04 APERTURE LIST*
G04 Aperture macros list*
%AMRoundRect*
0 Rectangle with rounded corners*
0 $1 Rounding radius*
0 $2 $3 $4 $5 $6 $7 $8 $9 X,Y pos of 4 corners*
0 Add a 4 corners polygon primitive as box body*
4,1,4,$2,$3,$4,$5,$6,$7,$8,$9,$2,$3,0*
0 Add four circle primitives for the rounded corners*
1,1,$1+$1,$2,$3*
1,1,$1+$1,$4,$5*
1,1,$1+$1,$6,$7*
1,1,$1+$1,$8,$9*
0 Add four rect primitives between the rounded corners*
20,1,$1+$1,$2,$3,$4,$5,0*
20,1,$1+$1,$4,$5,$6,$7,0*
20,1,$1+$1,$6,$7,$8,$9,0*
20,1,$1+$1,$8,$9,$2,$3,0*%
G04 Aperture macros list end*
G04 #@! TA.AperFunction,Profile*
%ADD10C,0.050000*%
G04 #@! TD*
%ADD11RoundRect,0.051000X-1.015000X-0.865000X1.015000X-0.865000X1.015000X0.865000X-1.015000X0.865000X0*%
%ADD12O,2.132000X1.832000*%
%ADD13RoundRect,0.051000X0.750000X0.750000X-0.750000X0.750000X-0.750000X-0.750000X0.750000X-0.750000X0*%
%ADD14C,1.602000*%
%ADD15RoundRect,0.051000X-1.270000X-1.270000X1.270000X-1.270000X1.270000X1.270000X-1.270000X1.270000X0*%
%ADD16C,2.642000*%
%ADD17C,3.302000*%
%ADD18O,1.502000X1.502000*%
%ADD19C,1.502000*%
%ADD20O,2.102000X1.702000*%
%ADD21RoundRect,0.051000X-1.000000X-1.000000X1.000000X-1.000000X1.000000X1.000000X-1.000000X1.000000X0*%
%ADD22RoundRect,0.051000X1.200000X0.800000X-1.200000X0.800000X-1.200000X-0.800000X1.200000X-0.800000X0*%
%ADD23O,2.502000X1.702000*%
G04 APERTURE END LIST*
D10*
X174752000Y-132588000D02*
G75*
G03*
X177292000Y-130048000I0J2540000D01*
G01*
X116332000Y-130048000D02*
G75*
G03*
X118872000Y-132588000I2540000J0D01*
G01*
X118872000Y-71628000D02*
G75*
G03*
X116332000Y-74168000I0J-2540000D01*
G01*
X177292000Y-74168000D02*
G75*
G03*
X174752000Y-71628000I-2540000J0D01*
G01*
X118872000Y-71628000D02*
X174752000Y-71628000D01*
X116332000Y-130048000D02*
X116332000Y-74168000D01*
X118872000Y-132588000D02*
X174752000Y-132588000D01*
X177292000Y-74168000D02*
X177292000Y-130048000D01*
X174752000Y-132588000D02*
G75*
G03*
X177292000Y-130048000I0J2540000D01*
G01*
X116332000Y-130048000D02*
G75*
G03*
X118872000Y-132588000I2540000J0D01*
G01*
X118872000Y-71628000D02*
G75*
G03*
X116332000Y-74168000I0J-2540000D01*
G01*
X177292000Y-74168000D02*
G75*
G03*
X174752000Y-71628000I-2540000J0D01*
G01*
X118872000Y-71628000D02*
X174752000Y-71628000D01*
X116332000Y-130048000D02*
X116332000Y-74168000D01*
X118872000Y-132588000D02*
X174752000Y-132588000D01*
X177292000Y-74168000D02*
X177292000Y-130048000D01*
D11*
X121412000Y-97028000D03*
D12*
X121412000Y-99568000D03*
X121412000Y-102108000D03*
D13*
X120777000Y-91059000D03*
D14*
X120777000Y-88519000D03*
X120777000Y-85979000D03*
X120777000Y-83439000D03*
D15*
X144272000Y-123825000D03*
D16*
X151892000Y-123825000D03*
D17*
X121412000Y-76708000D03*
X121412000Y-127508000D03*
X172212000Y-76708000D03*
X172212000Y-127508000D03*
D18*
X123952000Y-119888000D03*
D19*
X118872000Y-119888000D03*
D20*
X133604000Y-88519000D03*
D21*
X133604000Y-85979000D03*
D20*
X133604000Y-91059000D03*
X133604000Y-93599000D03*
X133604000Y-96139000D03*
X133604000Y-98679000D03*
X133604000Y-101219000D03*
X133604000Y-103759000D03*
X156464000Y-103759000D03*
X156464000Y-101219000D03*
X156464000Y-98679000D03*
X156464000Y-96139000D03*
X156464000Y-93599000D03*
X156464000Y-91059000D03*
X156464000Y-88519000D03*
X156464000Y-85979000D03*
D22*
X172974000Y-111379000D03*
D23*
X165354000Y-93599000D03*
X172974000Y-108839000D03*
X165354000Y-96139000D03*
X172974000Y-106299000D03*
X165354000Y-98679000D03*
X172974000Y-103759000D03*
X165354000Y-101219000D03*
X172974000Y-101219000D03*
X165354000Y-103759000D03*
X172974000Y-98679000D03*
X165354000Y-106299000D03*
X172974000Y-96139000D03*
X165354000Y-108839000D03*
X172974000Y-93599000D03*
X165354000Y-111379000D03*
D12*
X121412000Y-113411000D03*
X121412000Y-110871000D03*
D11*
X121412000Y-108331000D03*
M02*
