G04 #@! TF.GenerationSoftware,KiCad,Pcbnew,(6.0.8)*
G04 #@! TF.CreationDate,2022-10-26T15:13:26+02:00*
G04 #@! TF.ProjectId,F38C_U2S,46333843-5f55-4325-932e-6b696361645f,1.0*
G04 #@! TF.SameCoordinates,Original*
G04 #@! TF.FileFunction,Soldermask,Top*
G04 #@! TF.FilePolarity,Negative*
%FSLAX46Y46*%
G04 Gerber Fmt 4.6, Leading zero omitted, Abs format (unit mm)*
G04 Created by KiCad (PCBNEW (6.0.8)) date 2022-10-26 15:13:26*
%MOMM*%
%LPD*%
G01*
G04 APERTURE LIST*
G04 Aperture macros list*
%AMRoundRect*
0 Rectangle with rounded corners*
0 $1 Rounding radius*
0 $2 $3 $4 $5 $6 $7 $8 $9 X,Y pos of 4 corners*
0 Add a 4 corners polygon primitive as box body*
4,1,4,$2,$3,$4,$5,$6,$7,$8,$9,$2,$3,0*
0 Add four circle primitives for the rounded corners*
1,1,$1+$1,$2,$3*
1,1,$1+$1,$4,$5*
1,1,$1+$1,$6,$7*
1,1,$1+$1,$8,$9*
0 Add four rect primitives between the rounded corners*
20,1,$1+$1,$2,$3,$4,$5,0*
20,1,$1+$1,$4,$5,$6,$7,0*
20,1,$1+$1,$6,$7,$8,$9,0*
20,1,$1+$1,$8,$9,$2,$3,0*%
G04 Aperture macros list end*
%ADD10O,2.100000X2.100000*%
%ADD11RoundRect,0.200000X-0.850000X0.850000X-0.850000X-0.850000X0.850000X-0.850000X0.850000X0.850000X0*%
%ADD12RoundRect,0.200000X-0.850000X-0.850000X0.850000X-0.850000X0.850000X0.850000X-0.850000X0.850000X0*%
%ADD13C,3.900000*%
%ADD14C,2.100000*%
%ADD15RoundRect,0.200000X0.850000X0.850000X-0.850000X0.850000X-0.850000X-0.850000X0.850000X-0.850000X0*%
%ADD16RoundRect,0.450001X-0.624999X0.462499X-0.624999X-0.462499X0.624999X-0.462499X0.624999X0.462499X0*%
%ADD17RoundRect,0.450000X-0.450000X0.325000X-0.450000X-0.325000X0.450000X-0.325000X0.450000X0.325000X0*%
%ADD18RoundRect,0.450000X0.325000X0.450000X-0.325000X0.450000X-0.325000X-0.450000X0.325000X-0.450000X0*%
%ADD19RoundRect,0.450000X-0.325000X-0.450000X0.325000X-0.450000X0.325000X0.450000X-0.325000X0.450000X0*%
%ADD20RoundRect,0.450001X0.624999X-0.462499X0.624999X0.462499X-0.624999X0.462499X-0.624999X-0.462499X0*%
%ADD21RoundRect,0.200000X-0.800000X1.090000X-0.800000X-1.090000X0.800000X-1.090000X0.800000X1.090000X0*%
%ADD22RoundRect,0.200000X-0.700000X-0.150000X0.700000X-0.150000X0.700000X0.150000X-0.700000X0.150000X0*%
%ADD23RoundRect,0.325000X0.625000X-0.125000X0.625000X0.125000X-0.625000X0.125000X-0.625000X-0.125000X0*%
%ADD24RoundRect,0.325000X0.125000X-0.625000X0.125000X0.625000X-0.125000X0.625000X-0.125000X-0.625000X0*%
G04 APERTURE END LIST*
D10*
X156591000Y-50165000D03*
X154051000Y-50165000D03*
X151511000Y-50165000D03*
X148971000Y-50165000D03*
X146431000Y-50165000D03*
X143891000Y-50165000D03*
D11*
X141351000Y-50165000D03*
D10*
X182066500Y-64050000D03*
X179526500Y-64050000D03*
X182066500Y-61510000D03*
X179526500Y-61510000D03*
X182066500Y-58970000D03*
X179526500Y-58970000D03*
X182066500Y-56430000D03*
X179526500Y-56430000D03*
X182066500Y-53890000D03*
D12*
X179526500Y-53890000D03*
D13*
X117290000Y-52730000D03*
X117290000Y-64770000D03*
D14*
X120000000Y-60000000D03*
X120000000Y-57500000D03*
X122000000Y-57500000D03*
D15*
X122000000Y-60000000D03*
D16*
X144157000Y-56475000D03*
X144157000Y-53500000D03*
D17*
X171335000Y-62653000D03*
X171335000Y-60603000D03*
X173748000Y-62662000D03*
X173748000Y-60612000D03*
D18*
X127552800Y-55922000D03*
X129602800Y-55922000D03*
D19*
X156231000Y-66000000D03*
X154181000Y-66000000D03*
D18*
X150316500Y-66000000D03*
X152366500Y-66000000D03*
D16*
X159841500Y-57250000D03*
X159841500Y-54275000D03*
X163397500Y-57250000D03*
X163397500Y-54275000D03*
X173367000Y-57319000D03*
X173367000Y-54344000D03*
D20*
X176224500Y-60630500D03*
X176224500Y-63605500D03*
D16*
X176224500Y-57382500D03*
X176224500Y-54407500D03*
X159841500Y-63225000D03*
X159841500Y-60250000D03*
X163397500Y-63225000D03*
X163397500Y-60250000D03*
D20*
X144157000Y-60875000D03*
X144157000Y-63850000D03*
D21*
X167652000Y-63090000D03*
X167652000Y-53910000D03*
X135648000Y-63090000D03*
X135648000Y-53910000D03*
X140347000Y-63010000D03*
X140347000Y-53830000D03*
D22*
X130837600Y-58020800D03*
X130837600Y-58520800D03*
X130837600Y-59020800D03*
X130837600Y-59520800D03*
X130837600Y-60020800D03*
X126437600Y-60020800D03*
X126437600Y-59520800D03*
X126437600Y-59020800D03*
X126437600Y-58520800D03*
X126437600Y-58020800D03*
D23*
X147475000Y-61770000D03*
X147475000Y-60970000D03*
X147475000Y-60170000D03*
X147475000Y-59370000D03*
X147475000Y-58570000D03*
X147475000Y-57770000D03*
X147475000Y-56970000D03*
X147475000Y-56170000D03*
D24*
X148850000Y-54795000D03*
X149650000Y-54795000D03*
X150450000Y-54795000D03*
X151250000Y-54795000D03*
X152050000Y-54795000D03*
X152850000Y-54795000D03*
X153650000Y-54795000D03*
X154450000Y-54795000D03*
D23*
X155825000Y-56170000D03*
X155825000Y-56970000D03*
X155825000Y-57770000D03*
X155825000Y-58570000D03*
X155825000Y-59370000D03*
X155825000Y-60170000D03*
X155825000Y-60970000D03*
X155825000Y-61770000D03*
D24*
X154450000Y-63145000D03*
X153650000Y-63145000D03*
X152850000Y-63145000D03*
X152050000Y-63145000D03*
X151250000Y-63145000D03*
X150450000Y-63145000D03*
X149650000Y-63145000D03*
X148850000Y-63145000D03*
G36*
X120951725Y-60442296D02*
G01*
X120952000Y-60443308D01*
X120952000Y-60835711D01*
X120951000Y-60837443D01*
X120949000Y-60837443D01*
X120948081Y-60836274D01*
X120928405Y-60769262D01*
X120876062Y-60723907D01*
X120807499Y-60714049D01*
X120746139Y-60741324D01*
X120735566Y-60750118D01*
X120733595Y-60750456D01*
X120732316Y-60748919D01*
X120732773Y-60747273D01*
X120856360Y-60604095D01*
X120948261Y-60442320D01*
X120949986Y-60441308D01*
X120951725Y-60442296D01*
G37*
G36*
X120951469Y-59167866D02*
G01*
X120952000Y-59169223D01*
X120952000Y-59560808D01*
X120951000Y-59562540D01*
X120949000Y-59562540D01*
X120948234Y-59561747D01*
X120872893Y-59420051D01*
X120748031Y-59266955D01*
X120747711Y-59264981D01*
X120749261Y-59263717D01*
X120750470Y-59263899D01*
X120803609Y-59290261D01*
X120872444Y-59282612D01*
X120926202Y-59238975D01*
X120948090Y-59168629D01*
X120949560Y-59167272D01*
X120951469Y-59167866D01*
G37*
G36*
X121001609Y-57802824D02*
G01*
X121002036Y-57803601D01*
X121025604Y-57885793D01*
X121106228Y-58042669D01*
X121106130Y-58044666D01*
X121104351Y-58045581D01*
X121102816Y-58044737D01*
X121099561Y-58040133D01*
X121045036Y-57996938D01*
X120976118Y-57990109D01*
X120914318Y-58021691D01*
X120891557Y-58050919D01*
X120866644Y-58095404D01*
X120866437Y-58095706D01*
X120864082Y-58098538D01*
X120862205Y-58099230D01*
X120860668Y-58097951D01*
X120860805Y-58096271D01*
X120957387Y-57926256D01*
X120998215Y-57803521D01*
X120999711Y-57802193D01*
X121001609Y-57802824D01*
G37*
G36*
X121127980Y-56919703D02*
G01*
X121127875Y-56921408D01*
X121036753Y-57087157D01*
X121001863Y-57197144D01*
X121000386Y-57198492D01*
X120998480Y-57197888D01*
X120998042Y-57197117D01*
X120968914Y-57100641D01*
X120883118Y-56939281D01*
X120883188Y-56937282D01*
X120884954Y-56936343D01*
X120886487Y-56937145D01*
X120902555Y-56958663D01*
X120958187Y-57000413D01*
X121027265Y-57005436D01*
X121088213Y-56972249D01*
X121110204Y-56942433D01*
X121118068Y-56927484D01*
X121118267Y-56927177D01*
X121124551Y-56919206D01*
X121126409Y-56918465D01*
X121127980Y-56919703D01*
G37*
M02*
