G04 #@! TF.GenerationSoftware,KiCad,Pcbnew,(6.0.8)*
G04 #@! TF.CreationDate,2022-10-26T15:13:26+02:00*
G04 #@! TF.ProjectId,F38C_U2S,46333843-5f55-4325-932e-6b696361645f,1.0*
G04 #@! TF.SameCoordinates,Original*
G04 #@! TF.FileFunction,Legend,Top*
G04 #@! TF.FilePolarity,Positive*
%FSLAX46Y46*%
G04 Gerber Fmt 4.6, Leading zero omitted, Abs format (unit mm)*
G04 Created by KiCad (PCBNEW (6.0.8)) date 2022-10-26 15:13:26*
%MOMM*%
%LPD*%
G01*
G04 APERTURE LIST*
%ADD10C,0.350000*%
%ADD11C,0.100000*%
%ADD12C,0.150000*%
%ADD13C,0.120000*%
G04 APERTURE END LIST*
D10*
X114300000Y-73660000D02*
X121920000Y-73660000D01*
D11*
X146117523Y-52522380D02*
X146117523Y-51522380D01*
X146236571Y-51522380D01*
X146308000Y-51570000D01*
X146355619Y-51665238D01*
X146379428Y-51760476D01*
X146403238Y-51950952D01*
X146403238Y-52093809D01*
X146379428Y-52284285D01*
X146355619Y-52379523D01*
X146308000Y-52474761D01*
X146236571Y-52522380D01*
X146117523Y-52522380D01*
X146617523Y-52141428D02*
X146998476Y-52141428D01*
X143450523Y-52522380D02*
X143450523Y-51522380D01*
X143569571Y-51522380D01*
X143641000Y-51570000D01*
X143688619Y-51665238D01*
X143712428Y-51760476D01*
X143736238Y-51950952D01*
X143736238Y-52093809D01*
X143712428Y-52284285D01*
X143688619Y-52379523D01*
X143641000Y-52474761D01*
X143569571Y-52522380D01*
X143450523Y-52522380D01*
X143950523Y-52141428D02*
X144331476Y-52141428D01*
X144141000Y-52522380D02*
X144141000Y-51760476D01*
X140985952Y-52014428D02*
X141366904Y-52014428D01*
X141176428Y-52395380D02*
X141176428Y-51633476D01*
X141843095Y-51395380D02*
X141605000Y-51395380D01*
X141581190Y-51871571D01*
X141605000Y-51823952D01*
X141652619Y-51776333D01*
X141771666Y-51776333D01*
X141819285Y-51823952D01*
X141843095Y-51871571D01*
X141866904Y-51966809D01*
X141866904Y-52204904D01*
X141843095Y-52300142D01*
X141819285Y-52347761D01*
X141771666Y-52395380D01*
X141652619Y-52395380D01*
X141605000Y-52347761D01*
X141581190Y-52300142D01*
X142033571Y-51728714D02*
X142152619Y-52395380D01*
X142271666Y-51728714D01*
X148117809Y-52522380D02*
X148117809Y-51522380D01*
X148308285Y-51522380D01*
X148355904Y-51570000D01*
X148379714Y-51617619D01*
X148403523Y-51712857D01*
X148403523Y-51855714D01*
X148379714Y-51950952D01*
X148355904Y-51998571D01*
X148308285Y-52046190D01*
X148117809Y-52046190D01*
X148879714Y-52522380D02*
X148594000Y-52522380D01*
X148736857Y-52522380D02*
X148736857Y-51522380D01*
X148689238Y-51665238D01*
X148641619Y-51760476D01*
X148594000Y-51808095D01*
X149094000Y-52427142D02*
X149117809Y-52474761D01*
X149094000Y-52522380D01*
X149070190Y-52474761D01*
X149094000Y-52427142D01*
X149094000Y-52522380D01*
X149546380Y-51855714D02*
X149546380Y-52522380D01*
X149427333Y-51474761D02*
X149308285Y-52189047D01*
X149617809Y-52189047D01*
X150657809Y-52522380D02*
X150657809Y-51522380D01*
X150848285Y-51522380D01*
X150895904Y-51570000D01*
X150919714Y-51617619D01*
X150943523Y-51712857D01*
X150943523Y-51855714D01*
X150919714Y-51950952D01*
X150895904Y-51998571D01*
X150848285Y-52046190D01*
X150657809Y-52046190D01*
X151419714Y-52522380D02*
X151134000Y-52522380D01*
X151276857Y-52522380D02*
X151276857Y-51522380D01*
X151229238Y-51665238D01*
X151181619Y-51760476D01*
X151134000Y-51808095D01*
X151634000Y-52427142D02*
X151657809Y-52474761D01*
X151634000Y-52522380D01*
X151610190Y-52474761D01*
X151634000Y-52427142D01*
X151634000Y-52522380D01*
X152110190Y-51522380D02*
X151872095Y-51522380D01*
X151848285Y-51998571D01*
X151872095Y-51950952D01*
X151919714Y-51903333D01*
X152038761Y-51903333D01*
X152086380Y-51950952D01*
X152110190Y-51998571D01*
X152134000Y-52093809D01*
X152134000Y-52331904D01*
X152110190Y-52427142D01*
X152086380Y-52474761D01*
X152038761Y-52522380D01*
X151919714Y-52522380D01*
X151872095Y-52474761D01*
X151848285Y-52427142D01*
X153273809Y-52522380D02*
X153273809Y-51522380D01*
X153464285Y-51522380D01*
X153511904Y-51570000D01*
X153535714Y-51617619D01*
X153559523Y-51712857D01*
X153559523Y-51855714D01*
X153535714Y-51950952D01*
X153511904Y-51998571D01*
X153464285Y-52046190D01*
X153273809Y-52046190D01*
X154035714Y-52522380D02*
X153750000Y-52522380D01*
X153892857Y-52522380D02*
X153892857Y-51522380D01*
X153845238Y-51665238D01*
X153797619Y-51760476D01*
X153750000Y-51808095D01*
X154250000Y-52427142D02*
X154273809Y-52474761D01*
X154250000Y-52522380D01*
X154226190Y-52474761D01*
X154250000Y-52427142D01*
X154250000Y-52522380D01*
X154702380Y-51522380D02*
X154607142Y-51522380D01*
X154559523Y-51570000D01*
X154535714Y-51617619D01*
X154488095Y-51760476D01*
X154464285Y-51950952D01*
X154464285Y-52331904D01*
X154488095Y-52427142D01*
X154511904Y-52474761D01*
X154559523Y-52522380D01*
X154654761Y-52522380D01*
X154702380Y-52474761D01*
X154726190Y-52427142D01*
X154750000Y-52331904D01*
X154750000Y-52093809D01*
X154726190Y-51998571D01*
X154702380Y-51950952D01*
X154654761Y-51903333D01*
X154559523Y-51903333D01*
X154511904Y-51950952D01*
X154488095Y-51998571D01*
X154464285Y-52093809D01*
X156119047Y-51575000D02*
X156071428Y-51527380D01*
X156000000Y-51527380D01*
X155928571Y-51575000D01*
X155880952Y-51670238D01*
X155857142Y-51765476D01*
X155833333Y-51955952D01*
X155833333Y-52098809D01*
X155857142Y-52289285D01*
X155880952Y-52384523D01*
X155928571Y-52479761D01*
X156000000Y-52527380D01*
X156047619Y-52527380D01*
X156119047Y-52479761D01*
X156142857Y-52432142D01*
X156142857Y-52098809D01*
X156047619Y-52098809D01*
X156357142Y-52527380D02*
X156357142Y-51527380D01*
X156642857Y-52527380D01*
X156642857Y-51527380D01*
X156880952Y-52527380D02*
X156880952Y-51527380D01*
X157000000Y-51527380D01*
X157071428Y-51575000D01*
X157119047Y-51670238D01*
X157142857Y-51765476D01*
X157166666Y-51955952D01*
X157166666Y-52098809D01*
X157142857Y-52289285D01*
X157119047Y-52384523D01*
X157071428Y-52479761D01*
X157000000Y-52527380D01*
X156880952Y-52527380D01*
D12*
X179205866Y-51208780D02*
X179205866Y-51923066D01*
X179158247Y-52065923D01*
X179063009Y-52161161D01*
X178920152Y-52208780D01*
X178824914Y-52208780D01*
X179634438Y-51304019D02*
X179682057Y-51256400D01*
X179777295Y-51208780D01*
X180015390Y-51208780D01*
X180110628Y-51256400D01*
X180158247Y-51304019D01*
X180205866Y-51399257D01*
X180205866Y-51494495D01*
X180158247Y-51637352D01*
X179586819Y-52208780D01*
X180205866Y-52208780D01*
X120166666Y-65452380D02*
X120166666Y-66166666D01*
X120119047Y-66309523D01*
X120023809Y-66404761D01*
X119880952Y-66452380D01*
X119785714Y-66452380D01*
X121166666Y-66452380D02*
X120595238Y-66452380D01*
X120880952Y-66452380D02*
X120880952Y-65452380D01*
X120785714Y-65595238D01*
X120690476Y-65690476D01*
X120595238Y-65738095D01*
X143990333Y-58618380D02*
X143657000Y-58142190D01*
X143418904Y-58618380D02*
X143418904Y-57618380D01*
X143799857Y-57618380D01*
X143895095Y-57666000D01*
X143942714Y-57713619D01*
X143990333Y-57808857D01*
X143990333Y-57951714D01*
X143942714Y-58046952D01*
X143895095Y-58094571D01*
X143799857Y-58142190D01*
X143418904Y-58142190D01*
X144323666Y-57618380D02*
X144990333Y-57618380D01*
X144561761Y-58618380D01*
X171168333Y-59454142D02*
X171120714Y-59501761D01*
X170977857Y-59549380D01*
X170882619Y-59549380D01*
X170739761Y-59501761D01*
X170644523Y-59406523D01*
X170596904Y-59311285D01*
X170549285Y-59120809D01*
X170549285Y-58977952D01*
X170596904Y-58787476D01*
X170644523Y-58692238D01*
X170739761Y-58597000D01*
X170882619Y-58549380D01*
X170977857Y-58549380D01*
X171120714Y-58597000D01*
X171168333Y-58644619D01*
X172120714Y-59549380D02*
X171549285Y-59549380D01*
X171835000Y-59549380D02*
X171835000Y-58549380D01*
X171739761Y-58692238D01*
X171644523Y-58787476D01*
X171549285Y-58835095D01*
X173517833Y-64597642D02*
X173470214Y-64645261D01*
X173327357Y-64692880D01*
X173232119Y-64692880D01*
X173089261Y-64645261D01*
X172994023Y-64550023D01*
X172946404Y-64454785D01*
X172898785Y-64264309D01*
X172898785Y-64121452D01*
X172946404Y-63930976D01*
X172994023Y-63835738D01*
X173089261Y-63740500D01*
X173232119Y-63692880D01*
X173327357Y-63692880D01*
X173470214Y-63740500D01*
X173517833Y-63788119D01*
X173898785Y-63788119D02*
X173946404Y-63740500D01*
X174041642Y-63692880D01*
X174279738Y-63692880D01*
X174374976Y-63740500D01*
X174422595Y-63788119D01*
X174470214Y-63883357D01*
X174470214Y-63978595D01*
X174422595Y-64121452D01*
X173851166Y-64692880D01*
X174470214Y-64692880D01*
X131450133Y-56279142D02*
X131402514Y-56326761D01*
X131259657Y-56374380D01*
X131164419Y-56374380D01*
X131021561Y-56326761D01*
X130926323Y-56231523D01*
X130878704Y-56136285D01*
X130831085Y-55945809D01*
X130831085Y-55802952D01*
X130878704Y-55612476D01*
X130926323Y-55517238D01*
X131021561Y-55422000D01*
X131164419Y-55374380D01*
X131259657Y-55374380D01*
X131402514Y-55422000D01*
X131450133Y-55469619D01*
X131783466Y-55374380D02*
X132402514Y-55374380D01*
X132069180Y-55755333D01*
X132212038Y-55755333D01*
X132307276Y-55802952D01*
X132354895Y-55850571D01*
X132402514Y-55945809D01*
X132402514Y-56183904D01*
X132354895Y-56279142D01*
X132307276Y-56326761D01*
X132212038Y-56374380D01*
X131926323Y-56374380D01*
X131831085Y-56326761D01*
X131783466Y-56279142D01*
X158166642Y-66166666D02*
X158214261Y-66214285D01*
X158261880Y-66357142D01*
X158261880Y-66452380D01*
X158214261Y-66595238D01*
X158119023Y-66690476D01*
X158023785Y-66738095D01*
X157833309Y-66785714D01*
X157690452Y-66785714D01*
X157499976Y-66738095D01*
X157404738Y-66690476D01*
X157309500Y-66595238D01*
X157261880Y-66452380D01*
X157261880Y-66357142D01*
X157309500Y-66214285D01*
X157357119Y-66166666D01*
X157595214Y-65309523D02*
X158261880Y-65309523D01*
X157214261Y-65547619D02*
X157928547Y-65785714D01*
X157928547Y-65166666D01*
X149149642Y-66166666D02*
X149197261Y-66214285D01*
X149244880Y-66357142D01*
X149244880Y-66452380D01*
X149197261Y-66595238D01*
X149102023Y-66690476D01*
X149006785Y-66738095D01*
X148816309Y-66785714D01*
X148673452Y-66785714D01*
X148482976Y-66738095D01*
X148387738Y-66690476D01*
X148292500Y-66595238D01*
X148244880Y-66452380D01*
X148244880Y-66357142D01*
X148292500Y-66214285D01*
X148340119Y-66166666D01*
X148244880Y-65261904D02*
X148244880Y-65738095D01*
X148721071Y-65785714D01*
X148673452Y-65738095D01*
X148625833Y-65642857D01*
X148625833Y-65404761D01*
X148673452Y-65309523D01*
X148721071Y-65261904D01*
X148816309Y-65214285D01*
X149054404Y-65214285D01*
X149149642Y-65261904D01*
X149197261Y-65309523D01*
X149244880Y-65404761D01*
X149244880Y-65642857D01*
X149197261Y-65738095D01*
X149149642Y-65785714D01*
X159103404Y-53039880D02*
X159103404Y-52039880D01*
X159341500Y-52039880D01*
X159484357Y-52087500D01*
X159579595Y-52182738D01*
X159627214Y-52277976D01*
X159674833Y-52468452D01*
X159674833Y-52611309D01*
X159627214Y-52801785D01*
X159579595Y-52897023D01*
X159484357Y-52992261D01*
X159341500Y-53039880D01*
X159103404Y-53039880D01*
X160627214Y-53039880D02*
X160055785Y-53039880D01*
X160341500Y-53039880D02*
X160341500Y-52039880D01*
X160246261Y-52182738D01*
X160151023Y-52277976D01*
X160055785Y-52325595D01*
X162659404Y-53039880D02*
X162659404Y-52039880D01*
X162897500Y-52039880D01*
X163040357Y-52087500D01*
X163135595Y-52182738D01*
X163183214Y-52277976D01*
X163230833Y-52468452D01*
X163230833Y-52611309D01*
X163183214Y-52801785D01*
X163135595Y-52897023D01*
X163040357Y-52992261D01*
X162897500Y-53039880D01*
X162659404Y-53039880D01*
X163611785Y-52135119D02*
X163659404Y-52087500D01*
X163754642Y-52039880D01*
X163992738Y-52039880D01*
X164087976Y-52087500D01*
X164135595Y-52135119D01*
X164183214Y-52230357D01*
X164183214Y-52325595D01*
X164135595Y-52468452D01*
X163564166Y-53039880D01*
X164183214Y-53039880D01*
X173263833Y-53199380D02*
X172930500Y-52723190D01*
X172692404Y-53199380D02*
X172692404Y-52199380D01*
X173073357Y-52199380D01*
X173168595Y-52247000D01*
X173216214Y-52294619D01*
X173263833Y-52389857D01*
X173263833Y-52532714D01*
X173216214Y-52627952D01*
X173168595Y-52675571D01*
X173073357Y-52723190D01*
X172692404Y-52723190D01*
X174216214Y-53199380D02*
X173644785Y-53199380D01*
X173930500Y-53199380D02*
X173930500Y-52199380D01*
X173835261Y-52342238D01*
X173740023Y-52437476D01*
X173644785Y-52485095D01*
X176057833Y-65772380D02*
X175724500Y-65296190D01*
X175486404Y-65772380D02*
X175486404Y-64772380D01*
X175867357Y-64772380D01*
X175962595Y-64820000D01*
X176010214Y-64867619D01*
X176057833Y-64962857D01*
X176057833Y-65105714D01*
X176010214Y-65200952D01*
X175962595Y-65248571D01*
X175867357Y-65296190D01*
X175486404Y-65296190D01*
X176438785Y-64867619D02*
X176486404Y-64820000D01*
X176581642Y-64772380D01*
X176819738Y-64772380D01*
X176914976Y-64820000D01*
X176962595Y-64867619D01*
X177010214Y-64962857D01*
X177010214Y-65058095D01*
X176962595Y-65200952D01*
X176391166Y-65772380D01*
X177010214Y-65772380D01*
X176057833Y-53262880D02*
X175724500Y-52786690D01*
X175486404Y-53262880D02*
X175486404Y-52262880D01*
X175867357Y-52262880D01*
X175962595Y-52310500D01*
X176010214Y-52358119D01*
X176057833Y-52453357D01*
X176057833Y-52596214D01*
X176010214Y-52691452D01*
X175962595Y-52739071D01*
X175867357Y-52786690D01*
X175486404Y-52786690D01*
X176391166Y-52262880D02*
X177010214Y-52262880D01*
X176676880Y-52643833D01*
X176819738Y-52643833D01*
X176914976Y-52691452D01*
X176962595Y-52739071D01*
X177010214Y-52834309D01*
X177010214Y-53072404D01*
X176962595Y-53167642D01*
X176914976Y-53215261D01*
X176819738Y-53262880D01*
X176534023Y-53262880D01*
X176438785Y-53215261D01*
X176391166Y-53167642D01*
X159674833Y-65337880D02*
X159341500Y-64861690D01*
X159103404Y-65337880D02*
X159103404Y-64337880D01*
X159484357Y-64337880D01*
X159579595Y-64385500D01*
X159627214Y-64433119D01*
X159674833Y-64528357D01*
X159674833Y-64671214D01*
X159627214Y-64766452D01*
X159579595Y-64814071D01*
X159484357Y-64861690D01*
X159103404Y-64861690D01*
X160531976Y-64671214D02*
X160531976Y-65337880D01*
X160293880Y-64290261D02*
X160055785Y-65004547D01*
X160674833Y-65004547D01*
X163230833Y-65428380D02*
X162897500Y-64952190D01*
X162659404Y-65428380D02*
X162659404Y-64428380D01*
X163040357Y-64428380D01*
X163135595Y-64476000D01*
X163183214Y-64523619D01*
X163230833Y-64618857D01*
X163230833Y-64761714D01*
X163183214Y-64856952D01*
X163135595Y-64904571D01*
X163040357Y-64952190D01*
X162659404Y-64952190D01*
X164135595Y-64428380D02*
X163659404Y-64428380D01*
X163611785Y-64904571D01*
X163659404Y-64856952D01*
X163754642Y-64809333D01*
X163992738Y-64809333D01*
X164087976Y-64856952D01*
X164135595Y-64904571D01*
X164183214Y-64999809D01*
X164183214Y-65237904D01*
X164135595Y-65333142D01*
X164087976Y-65380761D01*
X163992738Y-65428380D01*
X163754642Y-65428380D01*
X163659404Y-65380761D01*
X163611785Y-65333142D01*
X143990333Y-66153380D02*
X143657000Y-65677190D01*
X143418904Y-66153380D02*
X143418904Y-65153380D01*
X143799857Y-65153380D01*
X143895095Y-65201000D01*
X143942714Y-65248619D01*
X143990333Y-65343857D01*
X143990333Y-65486714D01*
X143942714Y-65581952D01*
X143895095Y-65629571D01*
X143799857Y-65677190D01*
X143418904Y-65677190D01*
X144847476Y-65153380D02*
X144657000Y-65153380D01*
X144561761Y-65201000D01*
X144514142Y-65248619D01*
X144418904Y-65391476D01*
X144371285Y-65581952D01*
X144371285Y-65962904D01*
X144418904Y-66058142D01*
X144466523Y-66105761D01*
X144561761Y-66153380D01*
X144752238Y-66153380D01*
X144847476Y-66105761D01*
X144895095Y-66058142D01*
X144942714Y-65962904D01*
X144942714Y-65724809D01*
X144895095Y-65629571D01*
X144847476Y-65581952D01*
X144752238Y-65534333D01*
X144561761Y-65534333D01*
X144466523Y-65581952D01*
X144418904Y-65629571D01*
X144371285Y-65724809D01*
X166191666Y-52173761D02*
X166334523Y-52221380D01*
X166572619Y-52221380D01*
X166667857Y-52173761D01*
X166715476Y-52126142D01*
X166763095Y-52030904D01*
X166763095Y-51935666D01*
X166715476Y-51840428D01*
X166667857Y-51792809D01*
X166572619Y-51745190D01*
X166382142Y-51697571D01*
X166286904Y-51649952D01*
X166239285Y-51602333D01*
X166191666Y-51507095D01*
X166191666Y-51411857D01*
X166239285Y-51316619D01*
X166286904Y-51269000D01*
X166382142Y-51221380D01*
X166620238Y-51221380D01*
X166763095Y-51269000D01*
X167096428Y-51221380D02*
X167334523Y-52221380D01*
X167525000Y-51507095D01*
X167715476Y-52221380D01*
X167953571Y-51221380D01*
X168858333Y-52221380D02*
X168286904Y-52221380D01*
X168572619Y-52221380D02*
X168572619Y-51221380D01*
X168477380Y-51364238D01*
X168382142Y-51459476D01*
X168286904Y-51507095D01*
X134314666Y-65635761D02*
X134457523Y-65683380D01*
X134695619Y-65683380D01*
X134790857Y-65635761D01*
X134838476Y-65588142D01*
X134886095Y-65492904D01*
X134886095Y-65397666D01*
X134838476Y-65302428D01*
X134790857Y-65254809D01*
X134695619Y-65207190D01*
X134505142Y-65159571D01*
X134409904Y-65111952D01*
X134362285Y-65064333D01*
X134314666Y-64969095D01*
X134314666Y-64873857D01*
X134362285Y-64778619D01*
X134409904Y-64731000D01*
X134505142Y-64683380D01*
X134743238Y-64683380D01*
X134886095Y-64731000D01*
X135219428Y-64683380D02*
X135457523Y-65683380D01*
X135648000Y-64969095D01*
X135838476Y-65683380D01*
X136076571Y-64683380D01*
X136409904Y-64778619D02*
X136457523Y-64731000D01*
X136552761Y-64683380D01*
X136790857Y-64683380D01*
X136886095Y-64731000D01*
X136933714Y-64778619D01*
X136981333Y-64873857D01*
X136981333Y-64969095D01*
X136933714Y-65111952D01*
X136362285Y-65683380D01*
X136981333Y-65683380D01*
X139077166Y-65619261D02*
X139220023Y-65666880D01*
X139458119Y-65666880D01*
X139553357Y-65619261D01*
X139600976Y-65571642D01*
X139648595Y-65476404D01*
X139648595Y-65381166D01*
X139600976Y-65285928D01*
X139553357Y-65238309D01*
X139458119Y-65190690D01*
X139267642Y-65143071D01*
X139172404Y-65095452D01*
X139124785Y-65047833D01*
X139077166Y-64952595D01*
X139077166Y-64857357D01*
X139124785Y-64762119D01*
X139172404Y-64714500D01*
X139267642Y-64666880D01*
X139505738Y-64666880D01*
X139648595Y-64714500D01*
X139981928Y-64666880D02*
X140220023Y-65666880D01*
X140410500Y-64952595D01*
X140600976Y-65666880D01*
X140839071Y-64666880D01*
X141124785Y-64666880D02*
X141743833Y-64666880D01*
X141410500Y-65047833D01*
X141553357Y-65047833D01*
X141648595Y-65095452D01*
X141696214Y-65143071D01*
X141743833Y-65238309D01*
X141743833Y-65476404D01*
X141696214Y-65571642D01*
X141648595Y-65619261D01*
X141553357Y-65666880D01*
X141267642Y-65666880D01*
X141172404Y-65619261D01*
X141124785Y-65571642D01*
X127875695Y-61140180D02*
X127875695Y-61949704D01*
X127923314Y-62044942D01*
X127970933Y-62092561D01*
X128066171Y-62140180D01*
X128256647Y-62140180D01*
X128351885Y-62092561D01*
X128399504Y-62044942D01*
X128447123Y-61949704D01*
X128447123Y-61140180D01*
X129447123Y-62140180D02*
X128875695Y-62140180D01*
X129161409Y-62140180D02*
X129161409Y-61140180D01*
X129066171Y-61283038D01*
X128970933Y-61378276D01*
X128875695Y-61425895D01*
X155738095Y-53952380D02*
X155738095Y-54761904D01*
X155785714Y-54857142D01*
X155833333Y-54904761D01*
X155928571Y-54952380D01*
X156119047Y-54952380D01*
X156214285Y-54904761D01*
X156261904Y-54857142D01*
X156309523Y-54761904D01*
X156309523Y-53952380D01*
X156738095Y-54047619D02*
X156785714Y-54000000D01*
X156880952Y-53952380D01*
X157119047Y-53952380D01*
X157214285Y-54000000D01*
X157261904Y-54047619D01*
X157309523Y-54142857D01*
X157309523Y-54238095D01*
X157261904Y-54380952D01*
X156690476Y-54952380D01*
X157309523Y-54952380D01*
D13*
X178256500Y-52620000D02*
X179526500Y-52620000D01*
X178256500Y-53890000D02*
X178256500Y-52620000D01*
X124320000Y-59500000D02*
X123820000Y-60000000D01*
X124320000Y-60500000D02*
X124320000Y-59500000D01*
X123820000Y-60000000D02*
X124320000Y-60500000D01*
X106880000Y-52590000D02*
X115240000Y-52590000D01*
X106880000Y-64910000D02*
X106880000Y-52590000D01*
X115240000Y-64910000D02*
X106880000Y-64910000D01*
X123600000Y-52590000D02*
X119340000Y-52590000D01*
X123600000Y-64910000D02*
X123600000Y-52590000D01*
X119340000Y-64910000D02*
X123600000Y-64910000D01*
X143247000Y-54385436D02*
X143247000Y-55589564D01*
X145067000Y-54385436D02*
X145067000Y-55589564D01*
X170625000Y-61366748D02*
X170625000Y-61889252D01*
X172045000Y-61366748D02*
X172045000Y-61889252D01*
X173038000Y-61375748D02*
X173038000Y-61898252D01*
X174458000Y-61375748D02*
X174458000Y-61898252D01*
X128839052Y-55212000D02*
X128316548Y-55212000D01*
X128839052Y-56632000D02*
X128316548Y-56632000D01*
X154944748Y-66710000D02*
X155467252Y-66710000D01*
X154944748Y-65290000D02*
X155467252Y-65290000D01*
X151602752Y-65290000D02*
X151080248Y-65290000D01*
X151602752Y-66710000D02*
X151080248Y-66710000D01*
X158706500Y-53302500D02*
X158706500Y-57362500D01*
X160976500Y-53302500D02*
X158706500Y-53302500D01*
X160976500Y-57362500D02*
X160976500Y-53302500D01*
X162262500Y-53302500D02*
X162262500Y-57362500D01*
X164532500Y-53302500D02*
X162262500Y-53302500D01*
X164532500Y-57362500D02*
X164532500Y-53302500D01*
X172457000Y-55229436D02*
X172457000Y-56433564D01*
X174277000Y-55229436D02*
X174277000Y-56433564D01*
X177134500Y-62720064D02*
X177134500Y-61515936D01*
X175314500Y-62720064D02*
X175314500Y-61515936D01*
X175314500Y-55292936D02*
X175314500Y-56497064D01*
X177134500Y-55292936D02*
X177134500Y-56497064D01*
X158931500Y-61135436D02*
X158931500Y-62339564D01*
X160751500Y-61135436D02*
X160751500Y-62339564D01*
X162487500Y-61135436D02*
X162487500Y-62339564D01*
X164307500Y-61135436D02*
X164307500Y-62339564D01*
X145067000Y-62964564D02*
X145067000Y-61760436D01*
X143247000Y-62964564D02*
X143247000Y-61760436D01*
X165842000Y-55440000D02*
X169462000Y-55440000D01*
X165842000Y-61560000D02*
X165842000Y-55440000D01*
X169462000Y-61560000D02*
X165842000Y-61560000D01*
X169462000Y-55440000D02*
X169462000Y-61560000D01*
X133838000Y-55440000D02*
X137458000Y-55440000D01*
X133838000Y-61560000D02*
X133838000Y-55440000D01*
X137458000Y-61560000D02*
X133838000Y-61560000D01*
X137458000Y-55440000D02*
X137458000Y-61560000D01*
X138537000Y-55360000D02*
X142157000Y-55360000D01*
X138537000Y-61480000D02*
X138537000Y-55360000D01*
X142157000Y-61480000D02*
X138537000Y-61480000D01*
X142157000Y-55360000D02*
X142157000Y-61480000D01*
D12*
X126962600Y-57570800D02*
X125737600Y-57570800D01*
X126962600Y-60695800D02*
X130312600Y-60695800D01*
X126962600Y-57345800D02*
X130312600Y-57345800D01*
X126962600Y-60695800D02*
X126962600Y-60395800D01*
X130312600Y-60695800D02*
X130312600Y-60395800D01*
X130312600Y-57345800D02*
X130312600Y-57645800D01*
X126962600Y-57345800D02*
X126962600Y-57570800D01*
D13*
X148340000Y-62580000D02*
X148340000Y-63895000D01*
X148040000Y-62580000D02*
X148340000Y-62580000D01*
X148040000Y-62280000D02*
X148040000Y-62580000D01*
X148040000Y-55360000D02*
X148340000Y-55360000D01*
X148040000Y-55660000D02*
X148040000Y-55360000D01*
X155260000Y-62580000D02*
X154960000Y-62580000D01*
X155260000Y-62280000D02*
X155260000Y-62580000D01*
X155260000Y-55360000D02*
X154960000Y-55360000D01*
X155260000Y-55660000D02*
X155260000Y-55360000D01*
M02*
