G04 #@! TF.GenerationSoftware,KiCad,Pcbnew,(5.1.2)-2*
G04 #@! TF.CreationDate,2019-07-22T13:21:11+02:00*
G04 #@! TF.ProjectId,F38C_U2S,46333843-5f55-4325-932e-6b696361645f,1.0*
G04 #@! TF.SameCoordinates,Original*
G04 #@! TF.FileFunction,Legend,Bot*
G04 #@! TF.FilePolarity,Positive*
%FSLAX46Y46*%
G04 Gerber Fmt 4.6, Leading zero omitted, Abs format (unit mm)*
G04 Created by KiCad (PCBNEW (5.1.2)-2) date 2019-07-22 13:21:11*
%MOMM*%
%LPD*%
G04 APERTURE LIST*
%ADD10C,0.250000*%
G04 APERTURE END LIST*
D10*
X182883928Y-49966666D02*
X182407738Y-49966666D01*
X182979166Y-50252380D02*
X182645833Y-49252380D01*
X182312500Y-50252380D01*
X181836309Y-50252380D02*
X181931547Y-50204761D01*
X181979166Y-50109523D01*
X181979166Y-49252380D01*
X181455357Y-50252380D02*
X181455357Y-49252380D01*
X181455357Y-49633333D02*
X181360119Y-49585714D01*
X181169642Y-49585714D01*
X181074404Y-49633333D01*
X181026785Y-49680952D01*
X180979166Y-49776190D01*
X180979166Y-50061904D01*
X181026785Y-50157142D01*
X181074404Y-50204761D01*
X181169642Y-50252380D01*
X181360119Y-50252380D01*
X181455357Y-50204761D01*
X180122023Y-50252380D02*
X180122023Y-49728571D01*
X180169642Y-49633333D01*
X180264880Y-49585714D01*
X180455357Y-49585714D01*
X180550595Y-49633333D01*
X180122023Y-50204761D02*
X180217261Y-50252380D01*
X180455357Y-50252380D01*
X180550595Y-50204761D01*
X180598214Y-50109523D01*
X180598214Y-50014285D01*
X180550595Y-49919047D01*
X180455357Y-49871428D01*
X180217261Y-49871428D01*
X180122023Y-49823809D01*
X179645833Y-49585714D02*
X179645833Y-50252380D01*
X179645833Y-49680952D02*
X179598214Y-49633333D01*
X179502976Y-49585714D01*
X179360119Y-49585714D01*
X179264880Y-49633333D01*
X179217261Y-49728571D01*
X179217261Y-50252380D01*
X178360119Y-50204761D02*
X178455357Y-50252380D01*
X178645833Y-50252380D01*
X178741071Y-50204761D01*
X178788690Y-50109523D01*
X178788690Y-49728571D01*
X178741071Y-49633333D01*
X178645833Y-49585714D01*
X178455357Y-49585714D01*
X178360119Y-49633333D01*
X178312500Y-49728571D01*
X178312500Y-49823809D01*
X178788690Y-49919047D01*
X177931547Y-50204761D02*
X177836309Y-50252380D01*
X177645833Y-50252380D01*
X177550595Y-50204761D01*
X177502976Y-50109523D01*
X177502976Y-50061904D01*
X177550595Y-49966666D01*
X177645833Y-49919047D01*
X177788690Y-49919047D01*
X177883928Y-49871428D01*
X177931547Y-49776190D01*
X177931547Y-49728571D01*
X177883928Y-49633333D01*
X177788690Y-49585714D01*
X177645833Y-49585714D01*
X177550595Y-49633333D01*
X177074404Y-50252380D02*
X177074404Y-49585714D01*
X177074404Y-49252380D02*
X177122023Y-49300000D01*
X177074404Y-49347619D01*
X177026785Y-49300000D01*
X177074404Y-49252380D01*
X177074404Y-49347619D01*
X175836309Y-50252380D02*
X175836309Y-49252380D01*
X175264880Y-50252380D01*
X175264880Y-49252380D01*
X174788690Y-50252380D02*
X174788690Y-49585714D01*
X174788690Y-49252380D02*
X174836309Y-49300000D01*
X174788690Y-49347619D01*
X174741071Y-49300000D01*
X174788690Y-49252380D01*
X174788690Y-49347619D01*
X173883928Y-50204761D02*
X173979166Y-50252380D01*
X174169642Y-50252380D01*
X174264880Y-50204761D01*
X174312500Y-50157142D01*
X174360119Y-50061904D01*
X174360119Y-49776190D01*
X174312500Y-49680952D01*
X174264880Y-49633333D01*
X174169642Y-49585714D01*
X173979166Y-49585714D01*
X173883928Y-49633333D01*
X173312500Y-50252380D02*
X173407738Y-50204761D01*
X173455357Y-50157142D01*
X173502976Y-50061904D01*
X173502976Y-49776190D01*
X173455357Y-49680952D01*
X173407738Y-49633333D01*
X173312500Y-49585714D01*
X173169642Y-49585714D01*
X173074404Y-49633333D01*
X173026785Y-49680952D01*
X172979166Y-49776190D01*
X172979166Y-50061904D01*
X173026785Y-50157142D01*
X173074404Y-50204761D01*
X173169642Y-50252380D01*
X173312500Y-50252380D01*
X172407738Y-50252380D02*
X172502976Y-50204761D01*
X172550595Y-50109523D01*
X172550595Y-49252380D01*
X171598214Y-50252380D02*
X171598214Y-49728571D01*
X171645833Y-49633333D01*
X171741071Y-49585714D01*
X171931547Y-49585714D01*
X172026785Y-49633333D01*
X171598214Y-50204761D02*
X171693452Y-50252380D01*
X171931547Y-50252380D01*
X172026785Y-50204761D01*
X172074404Y-50109523D01*
X172074404Y-50014285D01*
X172026785Y-49919047D01*
X171931547Y-49871428D01*
X171693452Y-49871428D01*
X171598214Y-49823809D01*
X171169642Y-50204761D02*
X171074404Y-50252380D01*
X170883928Y-50252380D01*
X170788690Y-50204761D01*
X170741071Y-50109523D01*
X170741071Y-50061904D01*
X170788690Y-49966666D01*
X170883928Y-49919047D01*
X171026785Y-49919047D01*
X171122023Y-49871428D01*
X171169642Y-49776190D01*
X171169642Y-49728571D01*
X171122023Y-49633333D01*
X171026785Y-49585714D01*
X170883928Y-49585714D01*
X170788690Y-49633333D01*
X169217261Y-49728571D02*
X169550595Y-49728571D01*
X169550595Y-50252380D02*
X169550595Y-49252380D01*
X169074404Y-49252380D01*
X168788690Y-49252380D02*
X168169642Y-49252380D01*
X168502976Y-49633333D01*
X168360119Y-49633333D01*
X168264880Y-49680952D01*
X168217261Y-49728571D01*
X168169642Y-49823809D01*
X168169642Y-50061904D01*
X168217261Y-50157142D01*
X168264880Y-50204761D01*
X168360119Y-50252380D01*
X168645833Y-50252380D01*
X168741071Y-50204761D01*
X168788690Y-50157142D01*
X167598214Y-49680952D02*
X167693452Y-49633333D01*
X167741071Y-49585714D01*
X167788690Y-49490476D01*
X167788690Y-49442857D01*
X167741071Y-49347619D01*
X167693452Y-49300000D01*
X167598214Y-49252380D01*
X167407738Y-49252380D01*
X167312500Y-49300000D01*
X167264880Y-49347619D01*
X167217261Y-49442857D01*
X167217261Y-49490476D01*
X167264880Y-49585714D01*
X167312500Y-49633333D01*
X167407738Y-49680952D01*
X167598214Y-49680952D01*
X167693452Y-49728571D01*
X167741071Y-49776190D01*
X167788690Y-49871428D01*
X167788690Y-50061904D01*
X167741071Y-50157142D01*
X167693452Y-50204761D01*
X167598214Y-50252380D01*
X167407738Y-50252380D01*
X167312500Y-50204761D01*
X167264880Y-50157142D01*
X167217261Y-50061904D01*
X167217261Y-49871428D01*
X167264880Y-49776190D01*
X167312500Y-49728571D01*
X167407738Y-49680952D01*
X166217261Y-50157142D02*
X166264880Y-50204761D01*
X166407738Y-50252380D01*
X166502976Y-50252380D01*
X166645833Y-50204761D01*
X166741071Y-50109523D01*
X166788690Y-50014285D01*
X166836309Y-49823809D01*
X166836309Y-49680952D01*
X166788690Y-49490476D01*
X166741071Y-49395238D01*
X166645833Y-49300000D01*
X166502976Y-49252380D01*
X166407738Y-49252380D01*
X166264880Y-49300000D01*
X166217261Y-49347619D01*
X166026785Y-50347619D02*
X165264880Y-50347619D01*
X165026785Y-49252380D02*
X165026785Y-50061904D01*
X164979166Y-50157142D01*
X164931547Y-50204761D01*
X164836309Y-50252380D01*
X164645833Y-50252380D01*
X164550595Y-50204761D01*
X164502976Y-50157142D01*
X164455357Y-50061904D01*
X164455357Y-49252380D01*
X164026785Y-49347619D02*
X163979166Y-49300000D01*
X163883928Y-49252380D01*
X163645833Y-49252380D01*
X163550595Y-49300000D01*
X163502976Y-49347619D01*
X163455357Y-49442857D01*
X163455357Y-49538095D01*
X163502976Y-49680952D01*
X164074404Y-50252380D01*
X163455357Y-50252380D01*
X163074404Y-50204761D02*
X162931547Y-50252380D01*
X162693452Y-50252380D01*
X162598214Y-50204761D01*
X162550595Y-50157142D01*
X162502976Y-50061904D01*
X162502976Y-49966666D01*
X162550595Y-49871428D01*
X162598214Y-49823809D01*
X162693452Y-49776190D01*
X162883928Y-49728571D01*
X162979166Y-49680952D01*
X163026785Y-49633333D01*
X163074404Y-49538095D01*
X163074404Y-49442857D01*
X163026785Y-49347619D01*
X162979166Y-49300000D01*
X162883928Y-49252380D01*
X162645833Y-49252380D01*
X162502976Y-49300000D01*
M02*
