M48
; DRILL file {KiCad (5.1.2)-2} date 22.07.2019 13:21:15
; FORMAT={-:-/ absolute / metric / decimal}
; #@! TF.CreationDate,2019-07-22T13:21:15+02:00
; #@! TF.GenerationSoftware,Kicad,Pcbnew,(5.1.2)-2
FMAT,2
METRIC
T1C0.600
T2C0.920
T3C1.000
T4C2.330
%
G90
G05
T1
X146.6Y-65.8
X170.5Y-53.75
X171.25Y-64.6
T2
X120.0Y-57.5
X120.0Y-60.0
X122.0Y-57.5
X122.0Y-60.0
T3
X179.526Y-53.89
X179.526Y-56.43
X179.526Y-58.97
X179.526Y-61.51
X179.526Y-64.05
X182.066Y-53.89
X182.066Y-56.43
X182.066Y-58.97
X182.066Y-61.51
X182.066Y-64.05
X146.34Y-50.0
X148.88Y-50.0
X151.42Y-50.0
X153.96Y-50.0
X156.5Y-50.0
T4
X117.29Y-52.73
X117.29Y-64.77
T0
M30
